<?xml version="1.0" encoding="utf-8"?>
<!-- Generator: Adobe Illustrator 18.1.1, SVG Export Plug-In . SVG Version: 6.00 Build 0)  -->
<svg version="1.1" id="Layer_1" xmlns="http://www.w3.org/2000/svg" xmlns:xlink="http://www.w3.org/1999/xlink" x="0px" y="0px"
	 viewBox="0 0 518 527" enable-background="new 0 0 518 527" xml:space="preserve">
<g>
	<g>
		<defs>
			<rect id="SVGID_1_" width="518" height="527"/>
		</defs>
		<clipPath id="SVGID_2_">
			<use xlink:href="#SVGID_1_"  overflow="visible"/>
		</clipPath>
		<g clip-path="url(#SVGID_2_)">
			<g>
				<g>
					<g>
						<defs>
							<path id="SVGID_3_" d="M40.5,498.2V247H16.2v251.1c0,6.8,5.4,12.4,12.1,12.4h0C35,510.5,40.5,505,40.5,498.2z"/>
						</defs>
						<clipPath id="SVGID_4_">
							<use xlink:href="#SVGID_3_"  overflow="visible"/>
						</clipPath>
					</g>
					<g>
						<defs>
							<path id="SVGID_5_" d="M40.5,498.2V247H16.2v251.1c0,6.8,5.4,12.4,12.1,12.4h0C35,510.5,40.5,505,40.5,498.2z"/>
						</defs>
						<clipPath id="SVGID_6_">
							<use xlink:href="#SVGID_5_"  overflow="visible"/>
						</clipPath>
					</g>
				</g>
				<g>
					<g>
						<defs>
							<polygon id="SVGID_7_" points="36.4,131.8 20.2,131.8 16.2,148.2 40.5,148.2 							"/>
						</defs>
						<clipPath id="SVGID_8_">
							<use xlink:href="#SVGID_7_"  overflow="visible"/>
						</clipPath>
					</g>
				</g>
			</g>
			<g>
				<g>
					<g>
						<defs>
							<path id="SVGID_9_" d="M129.5,498.2V247h-24.3v251.1c0,6.8,5.4,12.4,12.1,12.4h0C124.1,510.5,129.5,505,129.5,498.2z"/>
						</defs>
						<clipPath id="SVGID_10_">
							<use xlink:href="#SVGID_9_"  overflow="visible"/>
						</clipPath>
					</g>
					<g>
						<defs>
							<path id="SVGID_11_" d="M129.5,498.2V247h-24.3v251.1c0,6.8,5.4,12.4,12.1,12.4h0C124.1,510.5,129.5,505,129.5,498.2z"/>
						</defs>
						<clipPath id="SVGID_12_">
							<use xlink:href="#SVGID_11_"  overflow="visible"/>
						</clipPath>
					</g>
				</g>
				<g>
					<g>
						<defs>
							<polygon id="SVGID_13_" points="125.5,131.8 109.3,131.8 105.2,148.2 129.5,148.2 							"/>
						</defs>
						<clipPath id="SVGID_14_">
							<use xlink:href="#SVGID_13_"  overflow="visible"/>
						</clipPath>
					</g>
				</g>
			</g>
			<g>
				<g>
					<g>
						<defs>
							<path id="SVGID_15_" d="M182.1,82.3v8.2c0,0,20.2,16.7,20.2,24.7c4,0,4.1,0,8.1,0c0-8.2,20.2-24.7,20.2-24.7v-8.2H182.1z"/>
						</defs>
						<clipPath id="SVGID_16_">
							<use xlink:href="#SVGID_15_"  overflow="visible"/>
						</clipPath>
					</g>
				</g>
				<g>
					<g>
						<defs>
							<path id="SVGID_17_" d="M218.5,498.2V247h-24.3v251.1c0,6.8,5.4,12.4,12.1,12.4h0C213.1,510.5,218.5,505,218.5,498.2z"/>
						</defs>
						<clipPath id="SVGID_18_">
							<use xlink:href="#SVGID_17_"  overflow="visible"/>
						</clipPath>
					</g>
					<g>
						<defs>
							<path id="SVGID_19_" d="M218.5,498.2V247h-24.3v251.1c0,6.8,5.4,12.4,12.1,12.4h0C213.1,510.5,218.5,505,218.5,498.2z"/>
						</defs>
						<clipPath id="SVGID_20_">
							<use xlink:href="#SVGID_19_"  overflow="visible"/>
						</clipPath>
					</g>
				</g>
				<g>
					<g>
						<defs>
							<polygon id="SVGID_21_" points="214.5,131.8 198.3,131.8 194.3,148.2 218.5,148.2 							"/>
						</defs>
						<clipPath id="SVGID_22_">
							<use xlink:href="#SVGID_21_"  overflow="visible"/>
						</clipPath>
					</g>
				</g>
			</g>
			<g>
				<g>
					<g>
						<defs>
							<path id="SVGID_23_" d="M501.8,156.5H283.3v-138c0-1.1,0.9-2,2-2h214.5c1.1,0,2,0.9,2,2V156.5z"/>
						</defs>
						<clipPath id="SVGID_24_">
							<use xlink:href="#SVGID_23_"  overflow="visible"/>
						</clipPath>
					</g>
				</g>
				<g>
					<g>
						<defs>
							<path id="SVGID_25_" d="M283.3,247v8.2c0,0,72.8,33.1,72.8,65.9v152.3c0,20.4,16.4,37.1,36.4,37.1c20,0,36.4-16.7,36.4-37.1
								V321.1c0-32.9,72.8-65.9,72.8-65.9V247H283.3z"/>
						</defs>
						<clipPath id="SVGID_26_">
							<use xlink:href="#SVGID_25_"  overflow="visible"/>
						</clipPath>
					</g>
					<g>
						<defs>
							<path id="SVGID_27_" d="M283.3,247v8.2c0,0,72.8,33.1,72.8,65.9v152.3c0,20.4,16.4,37.1,36.4,37.1c20,0,36.4-16.7,36.4-37.1
								V321.1c0-32.9,72.8-65.9,72.8-65.9V247H283.3z M392.5,469.4c-4.5,0-8.1-3.7-8.1-8.2s3.6-8.2,8.1-8.2s8.1,3.7,8.1,8.2
								S397,469.4,392.5,469.4z"/>
						</defs>
						<clipPath id="SVGID_28_">
							<use xlink:href="#SVGID_27_"  overflow="visible"/>
						</clipPath>
					</g>
				</g>
			</g>
		</g>
	</g>
	<g>
		<defs>
			<rect id="SVGID_29_" width="518" height="527"/>
		</defs>
		<clipPath id="SVGID_30_">
			<use xlink:href="#SVGID_29_"  overflow="visible"/>
		</clipPath>
		<g clip-path="url(#SVGID_30_)">
			<g>
				<g>
					<path fill="#453F3C" d="M28.3,0C28.3,0,0,45.5,0,78.2c0,25.9,7.4,53.5,28.3,53.5s28.3-27.7,28.3-53.5C56.7,45.5,28.3,0,28.3,0z
						"/>
					<path fill="#7A6862" d="M40.5,78.2c0,20.5-5.4,37.1-12.1,37.1S16.2,98.7,16.2,78.2s12.1-45.3,12.1-45.3S40.5,57.8,40.5,78.2z"
						/>
					<g>
						<path opacity="0.14" d="M28.3,111.2c-4.5,0-8.1-14.7-8.1-32.9h-4c0,20.5,5.4,37.1,12.1,37.1s12.1-16.6,12.1-37.1h-4
							C36.4,96.4,32.8,111.2,28.3,111.2z"/>
						<path opacity="0.14" fill="#FFFFFF" d="M28.3,41.2c0,0,8.1,18.9,8.1,37.1h4c0-20.5-12.1-45.3-12.1-45.3S16.2,57.8,16.2,78.2h4
							C20.2,60,28.3,41.2,28.3,41.2z"/>
					</g>
				</g>
				<g>
					<path fill="#453F3C" d="M0,498.2V230.6h56.7v267.6c0,15.9-12.7,28.8-28.3,28.8h0C12.7,527,0,514.1,0,498.2z"/>
					<path fill="#C9ADA1" d="M40.5,498.2V247H16.2v251.1c0,6.8,5.4,12.4,12.1,12.4h0C35,510.5,40.5,505,40.5,498.2z"/>
					<rect x="16.2" y="247" opacity="0.14" width="24.3" height="8.2"/>
					<g>
						<defs>
							<path id="SVGID_31_" d="M40.5,498.2V247H16.2v251.1c0,6.8,5.4,12.4,12.1,12.4h0C35,510.5,40.5,505,40.5,498.2z"/>
						</defs>
						<clipPath id="SVGID_32_">
							<use xlink:href="#SVGID_31_"  overflow="visible"/>
						</clipPath>
						<rect y="494.1" opacity="0.14" clip-path="url(#SVGID_32_)" width="56.7" height="32.9"/>
					</g>
					<rect x="28.3" y="255.3" opacity="0.24" fill="#FFFFFF" width="8.1" height="238.8"/>
					<g>
						<defs>
							<path id="SVGID_33_" d="M40.5,498.2V247H16.2v251.1c0,6.8,5.4,12.4,12.1,12.4h0C35,510.5,40.5,505,40.5,498.2z"/>
						</defs>
						<clipPath id="SVGID_34_">
							<use xlink:href="#SVGID_33_"  overflow="visible"/>
						</clipPath>
						<g clip-path="url(#SVGID_34_)">
							<path fill="none" stroke="#453F3C" stroke-width="0.5" stroke-linecap="round" stroke-miterlimit="10" d="M48.6,234.7
								c0,0-60.2,111.7,0,172.9"/>
							<path fill="none" stroke="#453F3C" stroke-width="0.5" stroke-linecap="round" stroke-miterlimit="10" d="M48.6,284.1
								c0,0-28.2,49.6-12.1,65.9"/>
							<path fill="none" stroke="#453F3C" stroke-width="0.5" stroke-linecap="round" stroke-miterlimit="10" d="M28.3,242.9
								c0,0,7.1,9.3-20.2,37.1"/>
							<path fill="none" stroke="#453F3C" stroke-width="0.5" stroke-linecap="round" stroke-miterlimit="10" d="M20.2,395.3
								c0,0,28.3,19.9,28.3,78.2"/>
							<path fill="none" stroke="#453F3C" stroke-width="0.5" stroke-linecap="round" stroke-miterlimit="10" d="M4,420
								c0,0,44.2,74.5,16.2,102.9"/>
							<path fill="none" stroke="#453F3C" stroke-width="0.5" stroke-linecap="round" stroke-miterlimit="10" d="M8.1,403.5
								c0,0,28.3,32.6,28.3,53.5"/>
						</g>
					</g>
				</g>
				<g>
					<polygon fill="#453F3C" points="0,247 0,144.1 8.1,115.3 48.6,115.3 56.7,144.1 56.7,247 					"/>
					<polygon fill="#E2E0E0" points="36.4,131.8 20.2,131.8 16.2,148.2 40.5,148.2 					"/>
					<rect x="16.2" y="148.2" fill="#E2E0E0" width="24.3" height="82.3"/>
					<rect x="16.2" y="164.7" fill="#453F3C" width="24.3" height="8.2"/>
					<rect x="16.2" y="181.2" fill="#453F3C" width="24.3" height="8.2"/>
					<rect x="16.2" y="156.5" opacity="0.8" fill="#FFFFFF" width="24.3" height="4.1"/>
					<rect x="28.3" y="160.6" opacity="0.8" fill="#FFFFFF" width="8.1" height="4.1"/>
					<rect x="28.3" y="177" opacity="0.8" fill="#FFFFFF" width="8.1" height="4.1"/>
					<rect x="28.3" y="197.6" opacity="0.8" fill="#FFFFFF" width="8.1" height="32.9"/>
					<rect x="16.2" y="189.4" opacity="0.14" width="24.3" height="8.2"/>
					<rect x="16.2" y="172.9" opacity="0.14" width="24.3" height="4.1"/>
					<ellipse fill="#453F3C" cx="28.3" cy="218.2" rx="4" ry="4.1"/>
					<rect x="16.2" y="148.2" fill="#453F3C" width="24.3" height="8.2"/>
					<g>
						<defs>
							<polygon id="SVGID_35_" points="36.4,131.8 20.2,131.8 16.2,148.2 40.5,148.2 							"/>
						</defs>
						<clipPath id="SVGID_36_">
							<use xlink:href="#SVGID_35_"  overflow="visible"/>
						</clipPath>
						<rect y="115.3" opacity="0.8" clip-path="url(#SVGID_36_)" fill="#FFFFFF" width="56.7" height="24.7"/>
					</g>
					<rect x="28.3" y="140" opacity="0.8" fill="#FFFFFF" width="8.1" height="8.2"/>
				</g>
			</g>
			<g>
				<g>
					<path fill="#453F3C" d="M117.4,0c0,0-36.4,49.7-36.4,82.3c0,27.7,16,49.4,36.4,49.4s36.4-21.7,36.4-49.4
						C153.8,49.7,117.4,0,117.4,0z"/>
					<path fill="#7A6862" d="M137.6,82.3c0,18.2-9.1,32.9-20.2,32.9s-20.2-14.7-20.2-32.9s20.2-49.4,20.2-49.4
						S137.6,64.2,137.6,82.3z"/>
					<g>
						<path opacity="0.14" fill="#FFFFFF" d="M117.4,41.2c0,0,16.2,25.3,16.2,41.2h4c0-18.2-20.2-49.4-20.2-49.4
							S97.1,64.2,97.1,82.3h4C101.2,66.4,117.4,41.2,117.4,41.2z"/>
						<path opacity="0.14" d="M117.4,111.2c-8.9,0-16.2-12.9-16.2-28.8h-4c0,18.2,9.1,32.9,20.2,32.9s20.2-14.7,20.2-32.9h-4
							C133.5,98.3,126.3,111.2,117.4,111.2z"/>
					</g>
				</g>
				<g>
					<path fill="#453F3C" d="M89,498.2V230.6h56.7v267.6c0,15.9-12.7,28.8-28.3,28.8h0C101.7,527,89,514.1,89,498.2z"/>
					<path fill="#C9ADA1" d="M129.5,498.2V247h-24.3v251.1c0,6.8,5.4,12.4,12.1,12.4h0C124.1,510.5,129.5,505,129.5,498.2z"/>
					<rect x="105.2" y="247" opacity="0.14" width="24.3" height="8.2"/>
					<g>
						<defs>
							<path id="SVGID_37_" d="M129.5,498.2V247h-24.3v251.1c0,6.8,5.4,12.4,12.1,12.4h0C124.1,510.5,129.5,505,129.5,498.2z"/>
						</defs>
						<clipPath id="SVGID_38_">
							<use xlink:href="#SVGID_37_"  overflow="visible"/>
						</clipPath>
						<rect x="89" y="494.1" opacity="0.14" clip-path="url(#SVGID_38_)" width="56.7" height="32.9"/>
					</g>
					<rect x="117.4" y="255.3" opacity="0.24" fill="#FFFFFF" width="8.1" height="238.8"/>
					<g>
						<defs>
							<path id="SVGID_39_" d="M129.5,498.2V247h-24.3v251.1c0,6.8,5.4,12.4,12.1,12.4h0C124.1,510.5,129.5,505,129.5,498.2z"/>
						</defs>
						<clipPath id="SVGID_40_">
							<use xlink:href="#SVGID_39_"  overflow="visible"/>
						</clipPath>
						
							<path clip-path="url(#SVGID_40_)" fill="none" stroke="#453F3C" stroke-width="0.5" stroke-linecap="round" stroke-miterlimit="10" d="
							M137.6,308.8c0,0-60.4,123.9,0,185.3"/>
						
							<path clip-path="url(#SVGID_40_)" fill="none" stroke="#453F3C" stroke-width="0.5" stroke-linecap="round" stroke-miterlimit="10" d="
							M121.4,403.5c0,0-8.3,41,20.2,70"/>
						
							<path clip-path="url(#SVGID_40_)" fill="none" stroke="#453F3C" stroke-width="0.5" stroke-linecap="round" stroke-miterlimit="10" d="
							M125.5,387c0,0,12.1-12.4,12.1-37.1"/>
						
							<path clip-path="url(#SVGID_40_)" fill="none" stroke="#453F3C" stroke-width="0.5" stroke-linecap="round" stroke-miterlimit="10" d="
							M93.1,362.3c0,0,7.8-40.9,48.6-82.3"/>
						
							<path clip-path="url(#SVGID_40_)" fill="none" stroke="#453F3C" stroke-width="0.5" stroke-linecap="round" stroke-miterlimit="10" d="
							M93.1,300.6c0,0,44.5-16.1,44.5-78.2"/>
						
							<path clip-path="url(#SVGID_40_)" fill="none" stroke="#453F3C" stroke-width="0.5" stroke-linecap="round" stroke-miterlimit="10" d="
							M109.3,267.6c0,0,16.2-3.8,16.2-32.9"/>
						
							<path clip-path="url(#SVGID_40_)" fill="none" stroke="#453F3C" stroke-width="0.5" stroke-linecap="round" stroke-miterlimit="10" d="
							M113.3,481.7c0,0,4.4,41.2,28.3,41.2"/>
						
							<path clip-path="url(#SVGID_40_)" fill="none" stroke="#453F3C" stroke-width="0.5" stroke-linecap="round" stroke-miterlimit="10" d="
							M113.3,345.8c0,0-16.2,33.3-16.2,74.1"/>
					</g>
				</g>
				<g>
					<polygon fill="#453F3C" points="89,247 89,144.1 97.1,115.3 137.6,115.3 145.7,144.1 145.7,247 					"/>
					<polygon fill="#E2E0E0" points="125.5,131.8 109.3,131.8 105.2,148.2 129.5,148.2 					"/>
					<rect x="105.2" y="148.2" fill="#E2E0E0" width="24.3" height="82.3"/>
					<rect x="105.2" y="164.7" fill="#453F3C" width="24.3" height="8.2"/>
					<rect x="105.2" y="181.2" fill="#453F3C" width="24.3" height="8.2"/>
					<rect x="105.2" y="156.5" opacity="0.8" fill="#FFFFFF" width="24.3" height="4.1"/>
					<rect x="117.4" y="160.6" opacity="0.8" fill="#FFFFFF" width="8.1" height="4.1"/>
					<rect x="117.4" y="177" opacity="0.8" fill="#FFFFFF" width="8.1" height="4.1"/>
					<rect x="117.4" y="197.6" opacity="0.8" fill="#FFFFFF" width="8.1" height="32.9"/>
					<rect x="105.2" y="189.4" opacity="0.14" width="24.3" height="8.2"/>
					<rect x="105.2" y="172.9" opacity="0.14" width="24.3" height="4.1"/>
					<ellipse fill="#453F3C" cx="117.4" cy="218.2" rx="4" ry="4.1"/>
					<ellipse fill="#453F3C" cx="117.4" cy="201.7" rx="4" ry="4.1"/>
					<rect x="105.2" y="148.2" fill="#453F3C" width="24.3" height="8.2"/>
					<g>
						<defs>
							<polygon id="SVGID_41_" points="125.5,131.8 109.3,131.8 105.2,148.2 129.5,148.2 							"/>
						</defs>
						<clipPath id="SVGID_42_">
							<use xlink:href="#SVGID_41_"  overflow="visible"/>
						</clipPath>
						<rect x="89" y="115.3" opacity="0.8" clip-path="url(#SVGID_42_)" fill="#FFFFFF" width="56.7" height="24.7"/>
					</g>
					<rect x="117.4" y="140" opacity="0.8" fill="#FFFFFF" width="8.1" height="8.2"/>
				</g>
			</g>
			<g>
				<g>
					<path fill="#453F3C" d="M165.9,65.9l0,32.6c0,0,20.2,12.9,20.2,16.9v16.5h40.5v-16.5c0-4,20.2-16.9,20.2-16.9l0-32.6H165.9z"/>
					<path fill="#E2E0E0" d="M182.1,82.3v8.2c0,0,20.2,16.7,20.2,24.7c4,0,4.1,0,8.1,0c0-8.2,20.2-24.7,20.2-24.7v-8.2H182.1z"/>
					<rect x="182.1" y="90.6" fill="#453F3C" width="48.6" height="8.2"/>
					<rect x="182.1" y="82.3" opacity="0.8" fill="#FFFFFF" width="48.6" height="8.2"/>
					<g>
						<defs>
							<path id="SVGID_43_" d="M182.1,82.3v8.2c0,0,20.2,16.7,20.2,24.7c4,0,4.1,0,8.1,0c0-8.2,20.2-24.7,20.2-24.7v-8.2H182.1z"/>
						</defs>
						<clipPath id="SVGID_44_">
							<use xlink:href="#SVGID_43_"  overflow="visible"/>
						</clipPath>
						<rect x="182.1" y="98.8" opacity="0.14" clip-path="url(#SVGID_44_)" width="48.6" height="8.2"/>
					</g>
				</g>
				<g>
					<path fill="#453F3C" d="M178.1,498.2V230.6h56.7v267.6c0,15.9-12.7,28.8-28.3,28.8h0C190.7,527,178.1,514.1,178.1,498.2z"/>
					<path fill="#C9ADA1" d="M218.5,498.2V247h-24.3v251.1c0,6.8,5.4,12.4,12.1,12.4h0C213.1,510.5,218.5,505,218.5,498.2z"/>
					<rect x="194.3" y="247" opacity="0.14" width="24.3" height="8.2"/>
					<g>
						<defs>
							<path id="SVGID_45_" d="M218.5,498.2V247h-24.3v251.1c0,6.8,5.4,12.4,12.1,12.4h0C213.1,510.5,218.5,505,218.5,498.2z"/>
						</defs>
						<clipPath id="SVGID_46_">
							<use xlink:href="#SVGID_45_"  overflow="visible"/>
						</clipPath>
						<rect x="178.1" y="494.1" opacity="0.14" clip-path="url(#SVGID_46_)" width="56.7" height="32.9"/>
					</g>
					<rect x="206.4" y="255.3" opacity="0.24" fill="#FFFFFF" width="8.1" height="238.8"/>
					<g>
						<defs>
							<path id="SVGID_47_" d="M218.5,498.2V247h-24.3v251.1c0,6.8,5.4,12.4,12.1,12.4h0C213.1,510.5,218.5,505,218.5,498.2z"/>
						</defs>
						<clipPath id="SVGID_48_">
							<use xlink:href="#SVGID_47_"  overflow="visible"/>
						</clipPath>
						
							<path clip-path="url(#SVGID_48_)" fill="none" stroke="#453F3C" stroke-width="0.5" stroke-linecap="round" stroke-miterlimit="10" d="
							M182.1,263.5c0,0,56.2,124,20.2,160.6"/>
						
							<path clip-path="url(#SVGID_48_)" fill="none" stroke="#453F3C" stroke-width="0.5" stroke-linecap="round" stroke-miterlimit="10" d="
							M186.2,317c0,0,36.1,49.7,0,86.5"/>
						
							<path clip-path="url(#SVGID_48_)" fill="none" stroke="#453F3C" stroke-width="0.5" stroke-linecap="round" stroke-miterlimit="10" d="
							M230.7,415.8c0,0-68.5,82.3-4,82.3"/>
						
							<path clip-path="url(#SVGID_48_)" fill="none" stroke="#453F3C" stroke-width="0.5" stroke-linecap="round" stroke-miterlimit="10" d="
							M228.6,444.7c0,0-44.5,41.2,0,41.2"/>
						
							<path clip-path="url(#SVGID_48_)" fill="none" stroke="#453F3C" stroke-width="0.5" stroke-linecap="round" stroke-miterlimit="10" d="
							M214.5,296.4c0,0-8.1-53.5-28.3-53.5"/>
					</g>
				</g>
				<g>
					<polygon fill="#453F3C" points="178.1,247 178.1,144.1 186.2,115.3 226.6,115.3 234.7,144.1 234.7,247 					"/>
					<polygon fill="#E2E0E0" points="214.5,131.8 198.3,131.8 194.3,148.2 218.5,148.2 					"/>
					<rect x="194.3" y="148.2" fill="#E2E0E0" width="24.3" height="82.3"/>
					<rect x="194.3" y="164.7" fill="#453F3C" width="24.3" height="8.2"/>
					<rect x="194.3" y="181.2" fill="#453F3C" width="24.3" height="8.2"/>
					<rect x="194.3" y="156.5" opacity="0.8" fill="#FFFFFF" width="24.3" height="4.1"/>
					<rect x="206.4" y="160.6" opacity="0.8" fill="#FFFFFF" width="8.1" height="4.1"/>
					<rect x="206.4" y="177" opacity="0.8" fill="#FFFFFF" width="8.1" height="4.1"/>
					<rect x="206.4" y="197.6" opacity="0.8" fill="#FFFFFF" width="8.1" height="32.9"/>
					<rect x="194.3" y="189.4" opacity="0.14" width="24.3" height="8.2"/>
					<rect x="194.3" y="172.9" opacity="0.14" width="24.3" height="4.1"/>
					<ellipse fill="#453F3C" cx="206.4" cy="218.2" rx="4" ry="4.1"/>
					<ellipse fill="#453F3C" cx="206.4" cy="201.7" rx="4" ry="4.1"/>
					<rect x="194.3" y="148.2" fill="#453F3C" width="24.3" height="8.2"/>
					<g>
						<defs>
							<polygon id="SVGID_49_" points="214.5,131.8 198.3,131.8 194.3,148.2 218.5,148.2 							"/>
						</defs>
						<clipPath id="SVGID_50_">
							<use xlink:href="#SVGID_49_"  overflow="visible"/>
						</clipPath>
						<rect x="178.1" y="115.3" opacity="0.8" clip-path="url(#SVGID_50_)" fill="#FFFFFF" width="56.7" height="24.7"/>
					</g>
					<rect x="206.4" y="140" opacity="0.8" fill="#FFFFFF" width="8.1" height="8.2"/>
				</g>
				<g>
					<rect x="174" fill="#453F3C" width="64.8" height="82.3"/>
					<rect x="190.2" y="16.5" fill="#7A6862" width="32.4" height="49.4"/>
					<rect x="190.2" y="57.6" opacity="0.14" width="32.4" height="8.2"/>
					<rect x="190.2" y="16.5" opacity="0.24" fill="#FFFFFF" width="32.4" height="8.2"/>
					<rect x="190.2" y="24.7" fill="#453F3C" width="32.4" height="8.2"/>
					<g>
						<rect x="198.3" y="32.9" opacity="0.24" fill="#FFFFFF" width="8.1" height="24.7"/>
						<rect x="214.5" y="32.9" opacity="0.24" fill="#FFFFFF" width="4" height="24.7"/>
					</g>
				</g>
			</g>
			<g>
				<g>
					<path fill="#453F3C" d="M267.1,172.9V4c0-2.2,1.8-4,4-4H514c2.2,0,4,1.8,4,4v168.9H267.1z"/>
					<path fill="#7A6862" d="M501.8,156.5H283.3v-138c0-1.1,0.9-2,2-2h214.5c1.1,0,2,0.9,2,2V156.5z"/>
					<rect x="283.3" y="148.2" opacity="0.14" width="218.5" height="8.2"/>
					<g>
						<defs>
							<path id="SVGID_51_" d="M501.8,156.5H283.3v-138c0-1.1,0.9-2,2-2h214.5c1.1,0,2,0.9,2,2V156.5z"/>
						</defs>
						<clipPath id="SVGID_52_">
							<use xlink:href="#SVGID_51_"  overflow="visible"/>
						</clipPath>
						<rect x="267.1" opacity="0.24" clip-path="url(#SVGID_52_)" fill="#FFFFFF" width="250.9" height="24.7"/>
					</g>
					<g>
						<rect x="424.9" y="24.7" opacity="0.24" fill="#FFFFFF" width="8.1" height="123.5"/>
						<rect x="441.1" y="24.7" opacity="0.24" fill="#FFFFFF" width="4" height="123.5"/>
					</g>
					<g>
						<rect x="287.3" y="16.5" fill="#453F3C" width="4" height="140"/>
						<rect x="299.5" y="16.5" fill="#453F3C" width="4" height="140"/>
						<rect x="311.6" y="16.5" fill="#453F3C" width="4" height="140"/>
						<rect x="323.8" y="16.5" fill="#453F3C" width="4" height="140"/>
						<rect x="335.9" y="16.5" fill="#453F3C" width="4" height="140"/>
						<rect x="348" y="16.5" fill="#453F3C" width="4" height="140"/>
						<rect x="360.2" y="16.5" fill="#453F3C" width="4" height="140"/>
						<rect x="372.3" y="16.5" fill="#453F3C" width="4" height="140"/>
						<rect x="384.5" y="16.5" fill="#453F3C" width="4" height="140"/>
						<rect x="396.6" y="16.5" fill="#453F3C" width="4" height="140"/>
						<rect x="408.7" y="16.5" fill="#453F3C" width="4" height="140"/>
						<rect x="420.9" y="16.5" fill="#453F3C" width="4" height="140"/>
						<rect x="433" y="16.5" fill="#453F3C" width="4" height="140"/>
						<rect x="445.2" y="16.5" fill="#453F3C" width="4" height="140"/>
						<rect x="457.3" y="16.5" fill="#453F3C" width="4" height="140"/>
						<rect x="469.4" y="16.5" fill="#453F3C" width="4" height="140"/>
						<rect x="481.6" y="16.5" fill="#453F3C" width="4" height="140"/>
						<rect x="493.7" y="16.5" fill="#453F3C" width="4" height="140"/>
					</g>
				</g>
				<g>
					<rect x="267.1" y="156.5" fill="#453F3C" width="250.9" height="90.6"/>
					<rect x="283.3" y="172.9" fill="#E2E0E0" width="218.5" height="57.6"/>
					<rect x="283.3" y="172.9" opacity="0.8" fill="#FFFFFF" width="218.5" height="8.2"/>
					<rect x="283.3" y="222.3" opacity="0.14" width="218.5" height="8.2"/>
					<rect x="283.3" y="181.2" fill="#453F3C" width="218.5" height="8.2"/>
					<rect x="283.3" y="189.4" opacity="0.14" width="218.5" height="8.2"/>
					<rect x="283.3" y="205.9" fill="#453F3C" width="218.5" height="8.2"/>
					<g>
						<rect x="408.7" y="197.6" opacity="0.8" fill="#FFFFFF" width="8.1" height="8.2"/>
						<rect x="424.9" y="197.6" opacity="0.8" fill="#FFFFFF" width="4" height="8.2"/>
					</g>
					<g>
						<rect x="408.7" y="214.1" opacity="0.8" fill="#FFFFFF" width="8.1" height="8.2"/>
						<rect x="424.9" y="214.1" opacity="0.8" fill="#FFFFFF" width="4" height="8.2"/>
					</g>
					<g>
						<ellipse fill="#453F3C" cx="295.4" cy="222.3" rx="4" ry="4.1"/>
						<ellipse fill="#453F3C" cx="311.6" cy="222.3" rx="4" ry="4.1"/>
						<ellipse fill="#453F3C" cx="327.8" cy="222.3" rx="4" ry="4.1"/>
						<ellipse fill="#453F3C" cx="344" cy="222.3" rx="4" ry="4.1"/>
						<ellipse fill="#453F3C" cx="360.2" cy="222.3" rx="4" ry="4.1"/>
						<ellipse fill="#453F3C" cx="376.4" cy="222.3" rx="4" ry="4.1"/>
						<ellipse fill="#453F3C" cx="392.5" cy="222.3" rx="4" ry="4.1"/>
						<ellipse fill="#453F3C" cx="408.7" cy="222.3" rx="4" ry="4.1"/>
						<ellipse fill="#453F3C" cx="424.9" cy="222.3" rx="4" ry="4.1"/>
						<ellipse fill="#453F3C" cx="441.1" cy="222.3" rx="4" ry="4.1"/>
						<ellipse fill="#453F3C" cx="457.3" cy="222.3" rx="4" ry="4.1"/>
						<ellipse fill="#453F3C" cx="473.5" cy="222.3" rx="4" ry="4.1"/>
						<ellipse fill="#453F3C" cx="489.7" cy="222.3" rx="4" ry="4.1"/>
					</g>
				</g>
				<g>
					<path fill="#453F3C" d="M267.1,230.6c0,0,0,20.8,0,37.1c8.1,0,72.8,28.9,72.8,53.5v152.3c0,29.5,23.6,53.5,52.6,53.5
						s52.6-24,52.6-53.5V321.1c0-24.6,64.8-53.5,72.8-53.5c0-16.3,0-37.1,0-37.1H267.1z M392.5,469.4c-4.5,0-8.1-3.7-8.1-8.2
						s3.6-8.2,8.1-8.2s8.1,3.7,8.1,8.2S397,469.4,392.5,469.4z"/>
					<path fill="#C9ADA1" d="M283.3,247v8.2c0,0,72.8,33.1,72.8,65.9v152.3c0,20.4,16.4,37.1,36.4,37.1c20,0,36.4-16.7,36.4-37.1
						V321.1c0-32.9,72.8-65.9,72.8-65.9V247H283.3z M392.5,469.4c-4.5,0-8.1-3.7-8.1-8.2s3.6-8.2,8.1-8.2s8.1,3.7,8.1,8.2
						S397,469.4,392.5,469.4z"/>
					<g>
						<defs>
							<path id="SVGID_53_" d="M283.3,247v8.2c0,0,72.8,33.1,72.8,65.9v152.3c0,20.4,16.4,37.1,36.4,37.1c20,0,36.4-16.7,36.4-37.1
								V321.1c0-32.9,72.8-65.9,72.8-65.9V247H283.3z"/>
						</defs>
						<clipPath id="SVGID_54_">
							<use xlink:href="#SVGID_53_"  overflow="visible"/>
						</clipPath>
						<rect x="339.9" y="494.1" opacity="0.14" clip-path="url(#SVGID_54_)" width="105.2" height="32.9"/>
					</g>
					<rect x="283.3" y="247" opacity="0.14" width="218.5" height="8.2"/>
					<g>
						<rect x="392.5" y="255.3" opacity="0.24" fill="#FFFFFF" width="8.1" height="197.6"/>
						<rect x="408.7" y="255.3" opacity="0.24" fill="#FFFFFF" width="4" height="197.6"/>
					</g>
					<g>
						<rect x="392.5" y="469.4" opacity="0.24" fill="#FFFFFF" width="8.1" height="24.7"/>
						<rect x="408.7" y="452.9" opacity="0.24" fill="#FFFFFF" width="4" height="41.2"/>
					</g>
					<path fill="#453F3C" d="M392.5,436.4c-13.4,0-24.3,11.1-24.3,24.7s10.9,24.7,24.3,24.7s24.3-11.1,24.3-24.7
						S406,436.4,392.5,436.4z M392.5,469.4c-4.5,0-8.1-3.7-8.1-8.2s3.6-8.2,8.1-8.2s8.1,3.7,8.1,8.2S397,469.4,392.5,469.4z"/>
					<g>
						<defs>
							<path id="SVGID_55_" d="M283.3,247v8.2c0,0,72.8,33.1,72.8,65.9v152.3c0,20.4,16.4,37.1,36.4,37.1c20,0,36.4-16.7,36.4-37.1
								V321.1c0-32.9,72.8-65.9,72.8-65.9V247H283.3z M392.5,469.4c-4.5,0-8.1-3.7-8.1-8.2s3.6-8.2,8.1-8.2s8.1,3.7,8.1,8.2
								S397,469.4,392.5,469.4z"/>
						</defs>
						<clipPath id="SVGID_56_">
							<use xlink:href="#SVGID_55_"  overflow="visible"/>
						</clipPath>
						<g clip-path="url(#SVGID_56_)">
							<path fill="none" stroke="#453F3C" stroke-width="0.5" stroke-linecap="round" stroke-miterlimit="10" d="M433,432.3
								c0,0-60.2-95.2-4-152.3"/>
							<path fill="none" stroke="#453F3C" stroke-width="0.5" stroke-linecap="round" stroke-miterlimit="10" d="M441.1,308.8
								c0,0-48.4,45.5-4,90.6"/>
							<path fill="none" stroke="#453F3C" stroke-width="0.5" stroke-linecap="round" stroke-miterlimit="10" d="M445.2,267.6
								c0,0,28-28.8,68.8-28.8"/>
							<path fill="none" stroke="#453F3C" stroke-width="0.5" stroke-linecap="round" stroke-miterlimit="10" d="M400.6,415.8
								c0,0-58.3-105.3,16.2-181.2"/>
							<path fill="none" stroke="#453F3C" stroke-width="0.5" stroke-linecap="round" stroke-miterlimit="10" d="M408.7,432.3
								c0,0,24.6,45.3,44.5,45.3"/>
							<path fill="none" stroke="#453F3C" stroke-width="0.5" stroke-linecap="round" stroke-miterlimit="10" d="M364.2,366.4
								c0,0-3.3,70.8,60.7,135.9"/>
							<path fill="none" stroke="#453F3C" stroke-width="0.5" stroke-linecap="round" stroke-miterlimit="10" d="M348,432.3
								c0,0,23.9,82.3,64.8,82.3"/>
							<path fill="none" stroke="#453F3C" stroke-width="0.5" stroke-linecap="round" stroke-miterlimit="10" d="M279.2,238.8
								c0,0,134.8,31.7,68.8,98.8"/>
							<path fill="none" stroke="#453F3C" stroke-width="0.5" stroke-linecap="round" stroke-miterlimit="10" d="M348,234.7
								c0,0,24.3,4.1,24.3,37.1"/>
							<path fill="none" stroke="#453F3C" stroke-width="0.5" stroke-linecap="round" stroke-miterlimit="10" d="M291.4,267.6
								c0,0,48.6-16.1,48.6,37.1"/>
							<path fill="none" stroke="#453F3C" stroke-width="0.5" stroke-linecap="round" stroke-miterlimit="10" d="M400.6,292.3
								c0,0,28-61.8,68.8-61.8"/>
						</g>
					</g>
				</g>
			</g>
		</g>
	</g>
	<g>
		<defs>
			<rect id="SVGID_57_" width="518" height="527"/>
		</defs>
		<clipPath id="SVGID_58_">
			<use xlink:href="#SVGID_57_"  overflow="visible"/>
		</clipPath>
		<g clip-path="url(#SVGID_58_)">
			<g>
				<g>
					<g>
						<defs>
							<path id="SVGID_59_" d="M40.5,498.2V247H16.2v251.1c0,6.8,5.4,12.4,12.1,12.4h0C35,510.5,40.5,505,40.5,498.2z"/>
						</defs>
						<clipPath id="SVGID_60_">
							<use xlink:href="#SVGID_59_"  overflow="visible"/>
						</clipPath>
					</g>
					<g>
						<defs>
							<path id="SVGID_61_" d="M40.5,498.2V247H16.2v251.1c0,6.8,5.4,12.4,12.1,12.4h0C35,510.5,40.5,505,40.5,498.2z"/>
						</defs>
						<clipPath id="SVGID_62_">
							<use xlink:href="#SVGID_61_"  overflow="visible"/>
						</clipPath>
					</g>
				</g>
				<g>
					<g>
						<defs>
							<polygon id="SVGID_63_" points="36.4,131.8 20.2,131.8 16.2,148.2 40.5,148.2 							"/>
						</defs>
						<clipPath id="SVGID_64_">
							<use xlink:href="#SVGID_63_"  overflow="visible"/>
						</clipPath>
					</g>
				</g>
			</g>
			<g>
				<g>
					<g>
						<defs>
							<path id="SVGID_65_" d="M129.5,498.2V247h-24.3v251.1c0,6.8,5.4,12.4,12.1,12.4h0C124.1,510.5,129.5,505,129.5,498.2z"/>
						</defs>
						<clipPath id="SVGID_66_">
							<use xlink:href="#SVGID_65_"  overflow="visible"/>
						</clipPath>
					</g>
					<g>
						<defs>
							<path id="SVGID_67_" d="M129.5,498.2V247h-24.3v251.1c0,6.8,5.4,12.4,12.1,12.4h0C124.1,510.5,129.5,505,129.5,498.2z"/>
						</defs>
						<clipPath id="SVGID_68_">
							<use xlink:href="#SVGID_67_"  overflow="visible"/>
						</clipPath>
					</g>
				</g>
				<g>
					<g>
						<defs>
							<polygon id="SVGID_69_" points="125.5,131.8 109.3,131.8 105.2,148.2 129.5,148.2 							"/>
						</defs>
						<clipPath id="SVGID_70_">
							<use xlink:href="#SVGID_69_"  overflow="visible"/>
						</clipPath>
					</g>
				</g>
			</g>
			<g>
				<g>
					<g>
						<defs>
							<path id="SVGID_71_" d="M182.1,82.3v8.2c0,0,20.2,16.7,20.2,24.7c4,0,4.1,0,8.1,0c0-8.2,20.2-24.7,20.2-24.7v-8.2H182.1z"/>
						</defs>
						<clipPath id="SVGID_72_">
							<use xlink:href="#SVGID_71_"  overflow="visible"/>
						</clipPath>
					</g>
				</g>
				<g>
					<g>
						<defs>
							<path id="SVGID_73_" d="M218.5,498.2V247h-24.3v251.1c0,6.8,5.4,12.4,12.1,12.4h0C213.1,510.5,218.5,505,218.5,498.2z"/>
						</defs>
						<clipPath id="SVGID_74_">
							<use xlink:href="#SVGID_73_"  overflow="visible"/>
						</clipPath>
					</g>
					<g>
						<defs>
							<path id="SVGID_75_" d="M218.5,498.2V247h-24.3v251.1c0,6.8,5.4,12.4,12.1,12.4h0C213.1,510.5,218.5,505,218.5,498.2z"/>
						</defs>
						<clipPath id="SVGID_76_">
							<use xlink:href="#SVGID_75_"  overflow="visible"/>
						</clipPath>
					</g>
				</g>
				<g>
					<g>
						<defs>
							<polygon id="SVGID_77_" points="214.5,131.8 198.3,131.8 194.3,148.2 218.5,148.2 							"/>
						</defs>
						<clipPath id="SVGID_78_">
							<use xlink:href="#SVGID_77_"  overflow="visible"/>
						</clipPath>
					</g>
				</g>
			</g>
			<g>
				<g>
					<g>
						<defs>
							<path id="SVGID_79_" d="M501.8,156.5H283.3v-138c0-1.1,0.9-2,2-2h214.5c1.1,0,2,0.9,2,2V156.5z"/>
						</defs>
						<clipPath id="SVGID_80_">
							<use xlink:href="#SVGID_79_"  overflow="visible"/>
						</clipPath>
					</g>
				</g>
				<g>
					<g>
						<defs>
							<path id="SVGID_81_" d="M283.3,247v8.2c0,0,72.8,33.1,72.8,65.9v152.3c0,20.4,16.4,37.1,36.4,37.1c20,0,36.4-16.7,36.4-37.1
								V321.1c0-32.9,72.8-65.9,72.8-65.9V247H283.3z"/>
						</defs>
						<clipPath id="SVGID_82_">
							<use xlink:href="#SVGID_81_"  overflow="visible"/>
						</clipPath>
					</g>
					<g>
						<defs>
							<path id="SVGID_83_" d="M283.3,247v8.2c0,0,72.8,33.1,72.8,65.9v152.3c0,20.4,16.4,37.1,36.4,37.1c20,0,36.4-16.7,36.4-37.1
								V321.1c0-32.9,72.8-65.9,72.8-65.9V247H283.3z M392.5,469.4c-4.5,0-8.1-3.7-8.1-8.2s3.6-8.2,8.1-8.2s8.1,3.7,8.1,8.2
								S397,469.4,392.5,469.4z"/>
						</defs>
						<clipPath id="SVGID_84_">
							<use xlink:href="#SVGID_83_"  overflow="visible"/>
						</clipPath>
					</g>
				</g>
			</g>
		</g>
	</g>
</g>
</svg>
