<?xml version="1.0" encoding="utf-8"?>
<!-- Generator: Adobe Illustrator 18.1.1, SVG Export Plug-In . SVG Version: 6.00 Build 0)  -->
<svg version="1.1" id="Layer_1" xmlns="http://www.w3.org/2000/svg" xmlns:xlink="http://www.w3.org/1999/xlink" x="0px" y="0px"
	 viewBox="0 0 518 527" enable-background="new 0 0 518 527" xml:space="preserve">
<g>
	<g>
		<defs>
			<rect id="SVGID_1_" width="518" height="527"/>
		</defs>
		<clipPath id="SVGID_2_">
			<use xlink:href="#SVGID_1_"  overflow="visible"/>
		</clipPath>
		<g clip-path="url(#SVGID_2_)">
			<g>
				<g>
					<g>
						<defs>
							<path id="SVGID_3_" d="M86.3,16.5H75.5c0,16.5-21.6,82.3-54,82.3c0,5.4,0,4.2,0,8.2c21.4,0,21.6,8.4,21.6,32.9
								c5.4,0,70.1,0,75.5,0c0-24.5,0.2-32.9,21.6-32.9c0-4,0-2.8,0-8.2C107.9,98.8,86.3,32.9,86.3,16.5z"/>
						</defs>
						<clipPath id="SVGID_4_">
							<use xlink:href="#SVGID_3_"  overflow="visible"/>
						</clipPath>
					</g>
					<g>
						<defs>
							<path id="SVGID_5_" d="M80.9,20.6c0,12.5-16.2,82.3-59.4,82.3c0,1.2,0,1.8,0,4.1c21.4,0,21.6,8.4,21.6,32.9
								c5.4,0,70.1,0,75.5,0c0-24.5,0.2-32.9,21.6-32.9c0-2.4,0-2.9,0-4.1C97,102.9,80.9,32.9,80.9,20.6z"/>
						</defs>
						<clipPath id="SVGID_6_">
							<use xlink:href="#SVGID_5_"  overflow="visible"/>
						</clipPath>
					</g>
				</g>
				<g>
					<defs>
						<path id="SVGID_7_" d="M86.3,16.5H75.5c0,16.5-21.6,82.3-54,82.3c0,5.4,0,4.2,0,8.2c21.4,0,21.6,8.4,21.6,32.9
							c5.4,0,70.1,0,75.5,0c0-24.5,0.2-32.9,21.6-32.9c0-4,0-2.8,0-8.2C107.9,98.8,86.3,32.9,86.3,16.5z"/>
					</defs>
					<clipPath id="SVGID_8_">
						<use xlink:href="#SVGID_7_"  overflow="visible"/>
					</clipPath>
				</g>
				<g>
					<g>
						<defs>
							<path id="SVGID_9_" d="M43.2,181.2c0,0,0,16.6,0,24.7c0,33.1,21.6,115.4,21.6,148.2v144.1c0,6.8,7.2,12.4,16.2,12.4
								s16.2-5.5,16.2-12.4V354.1c0-32.9,21.6-115.2,21.6-148.2c0-8.1,0-24.7,0-24.7H43.2z"/>
						</defs>
						<clipPath id="SVGID_10_">
							<use xlink:href="#SVGID_9_"  overflow="visible"/>
						</clipPath>
					</g>
					<g>
						<defs>
							<path id="SVGID_11_" d="M43.2,181.2c0,0,0,16.6,0,24.7c0,33.1,21.6,115.4,21.6,148.2v144.1c0,6.8,7.2,12.4,16.2,12.4
								s16.2-5.5,16.2-12.4V354.1c0-32.9,21.6-115.2,21.6-148.2c0-8.1,0-24.7,0-24.7H43.2z"/>
						</defs>
						<clipPath id="SVGID_12_">
							<use xlink:href="#SVGID_11_"  overflow="visible"/>
						</clipPath>
					</g>
				</g>
			</g>
			<g>
				<g>
					<g>
						<defs>
							<path id="SVGID_13_" d="M275.2,16.5h-10.8c0,37.2-37.7,49.4-48.6,49.4c0,4.3,0,8.2,0,8.2c21.6,0,32.4,57.6,32.4,57.6h43.2
								c0,0,10.8-57.6,32.4-57.6c0,0,0-3.9,0-8.2C312.8,65.9,275.2,53.5,275.2,16.5z"/>
						</defs>
						<clipPath id="SVGID_14_">
							<use xlink:href="#SVGID_13_"  overflow="visible"/>
						</clipPath>
					</g>
					<g>
						<defs>
							<path id="SVGID_15_" d="M269.8,20.6c0,37.2-43.1,49.4-54,49.4c0,2.4,0,4.1,0,4.1c21.6,0,32.4,57.6,32.4,57.6h43.2
								c0,0,10.8-57.6,32.4-57.6c0,0,0-1.7,0-4.1C312.8,70,269.8,57.6,269.8,20.6z"/>
						</defs>
						<clipPath id="SVGID_16_">
							<use xlink:href="#SVGID_15_"  overflow="visible"/>
						</clipPath>
					</g>
				</g>
				<g>
					<g>
						<defs>
							<path id="SVGID_17_" d="M237.4,181.2c0,0,0,16.6,0,24.7c0,33.1,16.2,115.4,16.2,148.2v144.1c0,6.8,7.2,12.4,16.2,12.4
								S286,505,286,498.2V354.1c0-32.9,16.2-115.2,16.2-148.2c0-8.1,0-24.7,0-24.7H237.4z"/>
						</defs>
						<clipPath id="SVGID_18_">
							<use xlink:href="#SVGID_17_"  overflow="visible"/>
						</clipPath>
					</g>
					<g>
						<defs>
							<path id="SVGID_19_" d="M237.4,181.2c0,0,0,16.6,0,24.7c0,33.1,16.2,115.4,16.2,148.2v144.1c0,6.8,7.2,12.4,16.2,12.4
								S286,505,286,498.2V354.1c0-32.9,16.2-115.2,16.2-148.2c0-8.1,0-24.7,0-24.7H237.4z"/>
						</defs>
						<clipPath id="SVGID_20_">
							<use xlink:href="#SVGID_19_"  overflow="visible"/>
						</clipPath>
					</g>
				</g>
			</g>
			<g>
				<g>
					<g>
						<defs>
							<path id="SVGID_21_" d="M458.6,16.5h-10.8c0,37.2-26.9,74.1-37.8,74.1c0,4.3,0,8.2,0,8.2c21.6,0,21.6,32.9,21.6,32.9h43.2
								c0,0,0-32.9,21.6-32.9c0,0,0-3.9,0-8.2C485.5,90.6,458.6,53.5,458.6,16.5z"/>
						</defs>
						<clipPath id="SVGID_22_">
							<use xlink:href="#SVGID_21_"  overflow="visible"/>
						</clipPath>
					</g>
					<g>
						<defs>
							<path id="SVGID_23_" d="M453.3,20.6c0,37.2-27,74.1-43.2,74.1c0,2.4,0,4.1,0,4.1c21.6,0,21.6,32.9,21.6,32.9h43.2
								c0,0,0-32.9,21.6-32.9c0,0,0-1.7,0-4.1C480.2,94.7,453.3,57.6,453.3,20.6z"/>
						</defs>
						<clipPath id="SVGID_24_">
							<use xlink:href="#SVGID_23_"  overflow="visible"/>
						</clipPath>
					</g>
				</g>
				<g>
					<g>
						<defs>
							<path id="SVGID_25_" d="M420.9,181.2c0,0,0,16.6,0,24.7c0,33.1,16.2,115.4,16.2,148.2v144.1c0,6.8,7.2,12.4,16.2,12.4
								s16.2-5.5,16.2-12.4V354.1c0-32.9,16.2-115.2,16.2-148.2c0-8.1,0-24.7,0-24.7H420.9z"/>
						</defs>
						<clipPath id="SVGID_26_">
							<use xlink:href="#SVGID_25_"  overflow="visible"/>
						</clipPath>
					</g>
					<g>
						<defs>
							<path id="SVGID_27_" d="M420.9,181.2c0,0,0,16.6,0,24.7c0,33.1,16.2,115.4,16.2,148.2v144.1c0,6.8,7.2,12.4,16.2,12.4
								s16.2-5.5,16.2-12.4V354.1c0-32.9,16.2-115.2,16.2-148.2c0-8.1,0-24.7,0-24.7H420.9z"/>
						</defs>
						<clipPath id="SVGID_28_">
							<use xlink:href="#SVGID_27_"  overflow="visible"/>
						</clipPath>
					</g>
				</g>
			</g>
		</g>
	</g>
	<g>
		<defs>
			<rect id="SVGID_29_" width="518" height="527"/>
		</defs>
		<clipPath id="SVGID_30_">
			<use xlink:href="#SVGID_29_"  overflow="visible"/>
		</clipPath>
		<g clip-path="url(#SVGID_30_)">
			<g>
				<g>
					<path fill="#453F3C" d="M107.9,0C97.1,0,64.8,0,54,0c0,25-32.4,82.3-54,82.3c0,20.6,0,25,0,41.2c21.6,0,21.6,8.5,21.6,32.9
						c32.4,0,86.3,0,118.7,0c0-24.7,0-32.9,21.6-32.9c0-16.2,0-20.6,0-41.2C140.3,82.3,107.9,24.7,107.9,0z"/>
					<path fill="#CCC4C4" d="M86.3,16.5H75.5c0,16.5-21.6,82.3-54,82.3c0,5.4,0,4.2,0,8.2c21.4,0,21.6,8.4,21.6,32.9
						c5.4,0,70.1,0,75.5,0c0-24.5,0.2-32.9,21.6-32.9c0-4,0-2.8,0-8.2C107.9,98.8,86.3,32.9,86.3,16.5z"/>
					<g>
						<defs>
							<path id="SVGID_31_" d="M86.3,16.5H75.5c0,16.5-21.6,82.3-54,82.3c0,5.4,0,4.2,0,8.2c21.4,0,21.6,8.4,21.6,32.9
								c5.4,0,70.1,0,75.5,0c0-24.5,0.2-32.9,21.6-32.9c0-4,0-2.8,0-8.2C107.9,98.8,86.3,32.9,86.3,16.5z"/>
						</defs>
						<clipPath id="SVGID_32_">
							<use xlink:href="#SVGID_31_"  overflow="visible"/>
						</clipPath>
						<rect x="10.8" y="123.5" opacity="0.14" clip-path="url(#SVGID_32_)" width="140.3" height="32.9"/>
					</g>
					<path opacity="0.4" fill="#FFFFFF" d="M86.3,16.5H75.5c0,16.5-21.6,82.3-54,82.3c0,5.4,0,0.1,0,4.1c43.2,0,59.4-69.9,59.4-82.3
						c0,12.4,16,82.3,59.4,82.3c0-4,0,1.3,0-4.1C107.9,98.8,86.3,32.9,86.3,16.5z"/>
					<g>
						<defs>
							<path id="SVGID_33_" d="M80.9,20.6c0,12.5-16.2,82.3-59.4,82.3c0,1.2,0,1.8,0,4.1c21.4,0,21.6,8.4,21.6,32.9
								c5.4,0,70.1,0,75.5,0c0-24.5,0.2-32.9,21.6-32.9c0-2.4,0-2.9,0-4.1C97,102.9,80.9,32.9,80.9,20.6z"/>
						</defs>
						<clipPath id="SVGID_34_">
							<use xlink:href="#SVGID_33_"  overflow="visible"/>
						</clipPath>
						<g clip-path="url(#SVGID_34_)">
							<rect x="75.5" y="16.5" opacity="0.4" fill="#FFFFFF" width="10.8" height="107"/>
							<rect x="97.1" y="16.5" opacity="0.4" fill="#FFFFFF" width="5.4" height="107"/>
						</g>
					</g>
					<g>
						<rect x="75.5" y="16.5" fill="#453F3C" width="10.8" height="82.3"/>
						<ellipse fill="#453F3C" cx="80.9" cy="102.9" rx="10.8" ry="8.2"/>
					</g>
				</g>
				<g>
					<defs>
						<path id="SVGID_35_" d="M86.3,16.5H75.5c0,16.5-21.6,82.3-54,82.3c0,5.4,0,4.2,0,8.2c21.4,0,21.6,8.4,21.6,32.9
							c5.4,0,70.1,0,75.5,0c0-24.5,0.2-32.9,21.6-32.9c0-4,0-2.8,0-8.2C107.9,98.8,86.3,32.9,86.3,16.5z"/>
					</defs>
					<clipPath id="SVGID_36_">
						<use xlink:href="#SVGID_35_"  overflow="visible"/>
					</clipPath>
				</g>
				<g>
					<path fill="#453F3C" d="M21.6,164.7v41.2c0,33.1,21.6,115.5,21.6,148.2v144.1c0,15.9,16.9,28.8,37.8,28.8s37.8-12.9,37.8-28.8
						V354.1c0-32.8,21.6-115.1,21.6-148.2v-41.2H21.6z"/>
					<path fill="#7A6862" d="M43.2,181.2c0,0,0,16.6,0,24.7c0,33.1,21.6,115.4,21.6,148.2v144.1c0,6.8,7.2,12.4,16.2,12.4
						s16.2-5.5,16.2-12.4V354.1c0-32.9,21.6-115.2,21.6-148.2c0-8.1,0-24.7,0-24.7H43.2z"/>
					<rect x="43.2" y="181.2" opacity="0.14" width="75.5" height="16.5"/>
					<g>
						<defs>
							<path id="SVGID_37_" d="M43.2,181.2c0,0,0,16.6,0,24.7c0,33.1,21.6,115.4,21.6,148.2v144.1c0,6.8,7.2,12.4,16.2,12.4
								s16.2-5.5,16.2-12.4V354.1c0-32.9,21.6-115.2,21.6-148.2c0-8.1,0-24.7,0-24.7H43.2z"/>
						</defs>
						<clipPath id="SVGID_38_">
							<use xlink:href="#SVGID_37_"  overflow="visible"/>
						</clipPath>
						<rect x="43.2" y="502.3" opacity="0.14" clip-path="url(#SVGID_38_)" width="75.5" height="24.7"/>
					</g>
					<rect x="80.9" y="197.6" opacity="0.24" fill="#FFFFFF" width="5.4" height="271.7"/>
					<g>
						<defs>
							<path id="SVGID_39_" d="M43.2,181.2c0,0,0,16.6,0,24.7c0,33.1,21.6,115.4,21.6,148.2v144.1c0,6.8,7.2,12.4,16.2,12.4
								s16.2-5.5,16.2-12.4V354.1c0-32.9,21.6-115.2,21.6-148.2c0-8.1,0-24.7,0-24.7H43.2z"/>
						</defs>
						<clipPath id="SVGID_40_">
							<use xlink:href="#SVGID_39_"  overflow="visible"/>
						</clipPath>
						<g clip-path="url(#SVGID_40_)">
							<path fill="none" stroke="#453F3C" stroke-width="0.5" stroke-linecap="round" stroke-miterlimit="10" d="M107.9,420
								c0,0-95.3-205.9,43.2-205.9"/>
							<path fill="none" stroke="#453F3C" stroke-width="0.5" stroke-linecap="round" stroke-miterlimit="10" d="M91.7,300.6
								c0,0,0-61.8,64.8-61.8"/>
							<path fill="none" stroke="#453F3C" stroke-width="0.5" stroke-linecap="round" stroke-miterlimit="10" d="M70.1,366.4
								c0,0,5.8,98.8,64.7,98.8"/>
							<path fill="none" stroke="#453F3C" stroke-width="0.5" stroke-linecap="round" stroke-miterlimit="10" d="M43.2,436.4
								c0,0,74.5,54.3,37.8,82.3"/>
							<path fill="none" stroke="#453F3C" stroke-width="0.5" stroke-linecap="round" stroke-miterlimit="10" d="M27,457
								c0,0,48.6,24.9,48.6,45.3"/>
							<path fill="none" stroke="#453F3C" stroke-width="0.5" stroke-linecap="round" stroke-miterlimit="10" d="M59.4,275.9
								c0,0,6.1-107,75.5-107"/>
							<path fill="none" stroke="#453F3C" stroke-width="0.5" stroke-linecap="round" stroke-miterlimit="10" d="M91.7,214.1
								c0,0,22-24.7,64.8-24.7"/>
							<path fill="none" stroke="#453F3C" stroke-width="0.5" stroke-linecap="round" stroke-miterlimit="10" d="M-21.6,234.7
								c0,0,91.7-4.1,91.7-61.8"/>
						</g>
					</g>
					<ellipse fill="#453F3C" cx="80.9" cy="210" rx="16.2" ry="12.4"/>
					<g>
						<rect x="64.8" y="469.4" fill="#453F3C" width="32.4" height="16.5"/>
						<rect x="64.8" y="485.8" opacity="0.24" fill="#FFFFFF" width="32.4" height="8.2"/>
						<rect x="80.9" y="494.1" opacity="0.24" fill="#FFFFFF" width="5.4" height="8.2"/>
					</g>
				</g>
				<g>
					<path fill="#453F3C" d="M150.1,181.2H11.8c-0.6,0-1-0.4-1-1v-47.4c0-0.6,0.4-1,1-1h138.3c0.6,0,1,0.4,1,1v47.4
						C151.1,180.7,150.6,181.2,150.1,181.2z"/>
					<rect x="32.4" y="148.2" fill="#ED7161" width="97.1" height="16.5"/>
					<rect x="32.4" y="148.2" opacity="0.24" fill="#FFFFFF" width="97.1" height="8.2"/>
					<g>
						<rect x="80.9" y="156.5" opacity="0.24" fill="#FFFFFF" width="10.8" height="8.2"/>
						<rect x="102.5" y="156.5" opacity="0.24" fill="#FFFFFF" width="5.4" height="8.2"/>
					</g>
				</g>
			</g>
			<g>
				<g>
					<g>
						<path fill="#453F3C" d="M296.8,0c-21.6,0-32.4,0-54,0c0,37.1-27,49.4-48.6,49.4c0,16.6,0,24.8,0,41.2
							c21.6,0,32.4,41.3,32.4,57.6c21.6,0,64.8,0,86.3,0c0-16.5,10.8-57.6,32.4-57.6c0-16.3,0-24.5,0-41.2
							C323.8,49.4,296.8,37.1,296.8,0z"/>
						<path fill="#CCC4C4" d="M275.2,16.5h-10.8c0,37.2-37.7,49.4-48.6,49.4c0,4.3,0,8.2,0,8.2c21.6,0,32.4,57.6,32.4,57.6h43.2
							c0,0,10.8-57.6,32.4-57.6c0,0,0-3.9,0-8.2C312.8,65.9,275.2,53.5,275.2,16.5z"/>
					</g>
					<g>
						<defs>
							<path id="SVGID_41_" d="M275.2,16.5h-10.8c0,37.2-37.7,49.4-48.6,49.4c0,4.3,0,8.2,0,8.2c21.6,0,32.4,57.6,32.4,57.6h43.2
								c0,0,10.8-57.6,32.4-57.6c0,0,0-3.9,0-8.2C312.8,65.9,275.2,53.5,275.2,16.5z"/>
						</defs>
						<clipPath id="SVGID_42_">
							<use xlink:href="#SVGID_41_"  overflow="visible"/>
						</clipPath>
						<rect x="226.6" y="123.5" opacity="0.14" clip-path="url(#SVGID_42_)" width="86.3" height="24.7"/>
					</g>
					<path opacity="0.4" fill="#FFFFFF" d="M275.2,16.5h-10.8c0,37.2-37.7,49.4-48.6,49.4c0,1.5,0,2.9,0,4.1c10.9,0,54-12.2,54-49.4
						c0,37.1,43.1,49.4,54,49.4c0-1.2,0-2.7,0-4.1C312.8,65.9,275.2,53.5,275.2,16.5z"/>
					<g>
						<defs>
							<path id="SVGID_43_" d="M269.8,20.6c0,37.2-43.1,49.4-54,49.4c0,2.4,0,4.1,0,4.1c21.6,0,32.4,57.6,32.4,57.6h43.2
								c0,0,10.8-57.6,32.4-57.6c0,0,0-1.7,0-4.1C312.8,70,269.8,57.6,269.8,20.6z"/>
						</defs>
						<clipPath id="SVGID_44_">
							<use xlink:href="#SVGID_43_"  overflow="visible"/>
						</clipPath>
						<g clip-path="url(#SVGID_44_)">
							<rect x="264.4" y="16.5" opacity="0.4" fill="#FFFFFF" width="10.8" height="107"/>
							<rect x="286" y="16.5" opacity="0.4" fill="#FFFFFF" width="5.4" height="107"/>
						</g>
					</g>
					<g>
						<rect x="264.4" y="16.5" fill="#453F3C" width="10.8" height="57.6"/>
						<ellipse fill="#453F3C" cx="269.8" cy="70" rx="10.8" ry="8.2"/>
					</g>
				</g>
				<g>
					<path fill="#453F3C" d="M215.8,164.7v41.2c0,33.1,16.2,115.5,16.2,148.2v144.1c0,15.9,16.9,28.8,37.8,28.8s37.8-12.9,37.8-28.8
						V354.1c0-32.8,16.2-115.1,16.2-148.2v-41.2H215.8z"/>
					<path fill="#7A6862" d="M237.4,181.2c0,0,0,16.6,0,24.7c0,33.1,16.2,115.4,16.2,148.2v144.1c0,6.8,7.2,12.4,16.2,12.4
						S286,505,286,498.2V354.1c0-32.9,16.2-115.2,16.2-148.2c0-8.1,0-24.7,0-24.7H237.4z"/>
					<rect x="237.4" y="181.2" opacity="0.14" width="64.8" height="16.5"/>
					<g>
						<defs>
							<path id="SVGID_45_" d="M237.4,181.2c0,0,0,16.6,0,24.7c0,33.1,16.2,115.4,16.2,148.2v144.1c0,6.8,7.2,12.4,16.2,12.4
								S286,505,286,498.2V354.1c0-32.9,16.2-115.2,16.2-148.2c0-8.1,0-24.7,0-24.7H237.4z"/>
						</defs>
						<clipPath id="SVGID_46_">
							<use xlink:href="#SVGID_45_"  overflow="visible"/>
						</clipPath>
						<rect x="232" y="502.3" opacity="0.14" clip-path="url(#SVGID_46_)" width="75.5" height="24.7"/>
					</g>
					<rect x="269.8" y="197.6" opacity="0.24" fill="#FFFFFF" width="5.4" height="271.7"/>
					<rect x="253.6" y="469.4" fill="#453F3C" width="32.4" height="16.5"/>
					<rect x="253.6" y="485.8" opacity="0.24" fill="#FFFFFF" width="32.4" height="8.2"/>
					<rect x="269.8" y="494.1" opacity="0.24" fill="#FFFFFF" width="5.4" height="8.2"/>
					<g>
						<defs>
							<path id="SVGID_47_" d="M237.4,181.2c0,0,0,16.6,0,24.7c0,33.1,16.2,115.4,16.2,148.2v144.1c0,6.8,7.2,12.4,16.2,12.4
								S286,505,286,498.2V354.1c0-32.9,16.2-115.2,16.2-148.2c0-8.1,0-24.7,0-24.7H237.4z"/>
						</defs>
						<clipPath id="SVGID_48_">
							<use xlink:href="#SVGID_47_"  overflow="visible"/>
						</clipPath>
						<g clip-path="url(#SVGID_48_)">
							<path fill="none" stroke="#453F3C" stroke-width="0.5" stroke-linecap="round" stroke-miterlimit="10" d="M210.4,193.5
								c0,0,139.2,75,32.4,156.5"/>
							<path fill="none" stroke="#453F3C" stroke-width="0.5" stroke-linecap="round" stroke-miterlimit="10" d="M269.8,181.2
								c0,0-53.7,0.2,48.6,78.2"/>
							<path fill="none" stroke="#453F3C" stroke-width="0.5" stroke-linecap="round" stroke-miterlimit="10" d="M318.4,189.4
								c0,0-70.3-12.5,5.4,45.3"/>
							<path fill="none" stroke="#453F3C" stroke-width="0.5" stroke-linecap="round" stroke-miterlimit="10" d="M232,230.6
								c0,0,53.1,41.9,27,61.8"/>
							<path fill="none" stroke="#453F3C" stroke-width="0.5" stroke-linecap="round" stroke-miterlimit="10" d="M280.6,345.8
								c0,0-42.8,37.3,10.8,78.2"/>
							<path fill="none" stroke="#453F3C" stroke-width="0.5" stroke-linecap="round" stroke-miterlimit="10" d="M291.4,362.3
								c0,0-32.4,8.2,5.4,37.1"/>
							<path fill="none" stroke="#453F3C" stroke-width="0.5" stroke-linecap="round" stroke-miterlimit="10" d="M264.4,420
								c0,0,22,45.3,113.3,45.3"/>
							<path fill="none" stroke="#453F3C" stroke-width="0.5" stroke-linecap="round" stroke-miterlimit="10" d="M237.4,420
								c0,0,18,49.4,64.7,49.4"/>
							<path fill="none" stroke="#453F3C" stroke-width="0.5" stroke-linecap="round" stroke-miterlimit="10" d="M242.8,489.9
								c0,0,48.6,0.3,48.6,37.1"/>
						</g>
					</g>
					<ellipse fill="#453F3C" cx="269.8" cy="210" rx="16.2" ry="12.4"/>
				</g>
				<g>
					<path fill="#453F3C" d="M333.5,181.2H206c-0.6,0-1-0.4-1-1v-47.4c0-0.6,0.4-1,1-1h127.5c0.6,0,1,0.4,1,1v47.4
						C334.5,180.7,334.1,181.2,333.5,181.2z"/>
					<rect x="226.6" y="148.2" fill="#ED7161" width="86.3" height="16.5"/>
					<rect x="226.6" y="148.2" opacity="0.24" fill="#FFFFFF" width="86.3" height="8.2"/>
					<g>
						<rect x="275.2" y="156.5" opacity="0.24" fill="#FFFFFF" width="10.8" height="8.2"/>
						<rect x="296.8" y="156.5" opacity="0.24" fill="#FFFFFF" width="5.4" height="8.2"/>
					</g>
				</g>
			</g>
			<g>
				<g>
					<path fill="#453F3C" d="M485.6,0c-21.6,0-43.2,0-64.8,0c0,33.1-10.8,74.1-32.4,74.1c0,16.6,0,33,0,41.2
						c21.5,0,21.6,8.4,21.6,32.9c21.6,0,64.8,0,86.3,0c0-24.7,0.1-32.9,21.6-32.9c0-8.1,0-24.6,0-41.2
						C496.4,74.1,485.6,33.1,485.6,0z"/>
					<g>
						<path fill="#CCC4C4" d="M458.6,16.5h-10.8c0,37.2-26.9,74.1-37.8,74.1c0,4.3,0,8.2,0,8.2c21.6,0,21.6,32.9,21.6,32.9h43.2
							c0,0,0-32.9,21.6-32.9c0,0,0-3.9,0-8.2C485.5,90.6,458.6,53.5,458.6,16.5z"/>
					</g>
					<g>
						<defs>
							<path id="SVGID_49_" d="M458.6,16.5h-10.8c0,37.2-26.9,74.1-37.8,74.1c0,4.3,0,8.2,0,8.2c21.6,0,21.6,32.9,21.6,32.9h43.2
								c0,0,0-32.9,21.6-32.9c0,0,0-3.9,0-8.2C485.5,90.6,458.6,53.5,458.6,16.5z"/>
						</defs>
						<clipPath id="SVGID_50_">
							<use xlink:href="#SVGID_49_"  overflow="visible"/>
						</clipPath>
						<rect x="410.1" y="123.5" opacity="0.14" clip-path="url(#SVGID_50_)" width="86.3" height="24.7"/>
					</g>
					<path opacity="0.4" fill="#FFFFFF" d="M458.6,16.5h-10.8c0,37.2-26.9,74.1-37.8,74.1c0,1.5,0,2.9,0,4.1
						c16.2,0,43.2-36.9,43.2-74.1c0,37.1,27,74.1,43.2,74.1c0-1.2,0-2.7,0-4.1C485.5,90.6,458.6,53.5,458.6,16.5z"/>
					<g>
						<defs>
							<path id="SVGID_51_" d="M453.3,20.6c0,37.2-27,74.1-43.2,74.1c0,2.4,0,4.1,0,4.1c21.6,0,21.6,32.9,21.6,32.9h43.2
								c0,0,0-32.9,21.6-32.9c0,0,0-1.7,0-4.1C480.2,94.7,453.3,57.6,453.3,20.6z"/>
						</defs>
						<clipPath id="SVGID_52_">
							<use xlink:href="#SVGID_51_"  overflow="visible"/>
						</clipPath>
						<g clip-path="url(#SVGID_52_)">
							<rect x="447.9" y="16.5" opacity="0.4" fill="#FFFFFF" width="10.8" height="107"/>
							<rect x="469.4" y="16.5" opacity="0.4" fill="#FFFFFF" width="5.4" height="107"/>
						</g>
					</g>
					<g>
						<rect x="447.9" y="12.4" fill="#453F3C" width="10.8" height="82.3"/>
						<ellipse fill="#453F3C" cx="453.3" cy="94.7" rx="10.8" ry="8.2"/>
					</g>
				</g>
				<g>
					<path fill="#453F3C" d="M399.3,164.7v41.2c0,33.1,16.2,115.5,16.2,148.2v144.1c0,15.9,16.9,28.8,37.8,28.8s37.8-12.9,37.8-28.8
						V354.1c0-32.8,16.2-115.1,16.2-148.2v-41.2H399.3z"/>
					<path fill="#7A6862" d="M420.9,181.2c0,0,0,16.6,0,24.7c0,33.1,16.2,115.4,16.2,148.2v144.1c0,6.8,7.2,12.4,16.2,12.4
						s16.2-5.5,16.2-12.4V354.1c0-32.9,16.2-115.2,16.2-148.2c0-8.1,0-24.7,0-24.7H420.9z"/>
					<rect x="420.9" y="181.2" opacity="0.14" width="64.8" height="16.5"/>
					<g>
						<defs>
							<path id="SVGID_53_" d="M420.9,181.2c0,0,0,16.6,0,24.7c0,33.1,16.2,115.4,16.2,148.2v144.1c0,6.8,7.2,12.4,16.2,12.4
								s16.2-5.5,16.2-12.4V354.1c0-32.9,16.2-115.2,16.2-148.2c0-8.1,0-24.7,0-24.7H420.9z"/>
						</defs>
						<clipPath id="SVGID_54_">
							<use xlink:href="#SVGID_53_"  overflow="visible"/>
						</clipPath>
						<rect x="415.5" y="502.3" opacity="0.14" clip-path="url(#SVGID_54_)" width="75.5" height="24.7"/>
					</g>
					<rect x="453.3" y="197.6" opacity="0.24" fill="#FFFFFF" width="5.4" height="271.7"/>
					<rect x="437.1" y="469.4" fill="#453F3C" width="32.4" height="16.5"/>
					<rect x="437.1" y="485.8" opacity="0.24" fill="#FFFFFF" width="32.4" height="8.2"/>
					<rect x="453.3" y="494.1" opacity="0.24" fill="#FFFFFF" width="5.4" height="8.2"/>
					<g>
						<defs>
							<path id="SVGID_55_" d="M420.9,181.2c0,0,0,16.6,0,24.7c0,33.1,16.2,115.4,16.2,148.2v144.1c0,6.8,7.2,12.4,16.2,12.4
								s16.2-5.5,16.2-12.4V354.1c0-32.9,16.2-115.2,16.2-148.2c0-8.1,0-24.7,0-24.7H420.9z"/>
						</defs>
						<clipPath id="SVGID_56_">
							<use xlink:href="#SVGID_55_"  overflow="visible"/>
						</clipPath>
						<g clip-path="url(#SVGID_56_)">
							<path fill="none" stroke="#453F3C" stroke-width="0.5" stroke-linecap="round" stroke-miterlimit="10" d="M458.6,172.9
								c0,0-59.7,131.5,21.6,193.5"/>
							<path fill="none" stroke="#453F3C" stroke-width="0.5" stroke-linecap="round" stroke-miterlimit="10" d="M491,193.5
								c0,0-27,28.3-27,78.2"/>
							<path fill="none" stroke="#453F3C" stroke-width="0.5" stroke-linecap="round" stroke-miterlimit="10" d="M437.1,168.8
								c0,0,10.3,49.4-37.8,49.4"/>
							<path fill="none" stroke="#453F3C" stroke-width="0.5" stroke-linecap="round" stroke-miterlimit="10" d="M464,304.7
								c0,0,5.4,41.2,59.4,41.2"/>
							<path fill="none" stroke="#453F3C" stroke-width="0.5" stroke-linecap="round" stroke-miterlimit="10" d="M431.7,358.2
								c0,0,80.3,41.7,0,102.9"/>
							<path fill="none" stroke="#453F3C" stroke-width="0.5" stroke-linecap="round" stroke-miterlimit="10" d="M426.3,382.9
								c0,0,52.8,21.4,0,61.8"/>
							<path fill="none" stroke="#453F3C" stroke-width="0.5" stroke-linecap="round" stroke-miterlimit="10" d="M426.3,317
								c0,0,5.8,25,32.4,45.3"/>
							<path fill="none" stroke="#453F3C" stroke-width="0.5" stroke-linecap="round" stroke-miterlimit="10" d="M453.3,477.6
								c0,0-6.1-11.8,10.8-24.7"/>
						</g>
					</g>
					<ellipse fill="#453F3C" cx="453.3" cy="210" rx="16.2" ry="12.4"/>
				</g>
				<g>
					<path fill="#453F3C" d="M517,181.2H389.5c-0.5,0-1-0.4-1-1v-47.4c0-0.6,0.5-1,1-1H517c0.5,0,1,0.4,1,1v47.4
						C518,180.7,517.5,181.2,517,181.2z"/>
					<rect x="410.1" y="148.2" fill="#ED7161" width="86.3" height="16.5"/>
					<rect x="410.1" y="148.2" opacity="0.24" fill="#FFFFFF" width="86.3" height="8.2"/>
					<g>
						<rect x="458.6" y="156.5" opacity="0.24" fill="#FFFFFF" width="10.8" height="8.2"/>
						<rect x="480.2" y="156.5" opacity="0.24" fill="#FFFFFF" width="5.4" height="8.2"/>
					</g>
				</g>
			</g>
		</g>
	</g>
	<g>
		<defs>
			<rect id="SVGID_57_" width="518" height="527"/>
		</defs>
		<clipPath id="SVGID_58_">
			<use xlink:href="#SVGID_57_"  overflow="visible"/>
		</clipPath>
		<g clip-path="url(#SVGID_58_)">
			<g>
				<g>
					<g>
						<defs>
							<path id="SVGID_59_" d="M86.3,16.5H75.5c0,16.5-21.6,82.3-54,82.3c0,5.4,0,4.2,0,8.2c21.4,0,21.6,8.4,21.6,32.9
								c5.4,0,70.1,0,75.5,0c0-24.5,0.2-32.9,21.6-32.9c0-4,0-2.8,0-8.2C107.9,98.8,86.3,32.9,86.3,16.5z"/>
						</defs>
						<clipPath id="SVGID_60_">
							<use xlink:href="#SVGID_59_"  overflow="visible"/>
						</clipPath>
					</g>
					<g>
						<defs>
							<path id="SVGID_61_" d="M80.9,20.6c0,12.5-16.2,82.3-59.4,82.3c0,1.2,0,1.8,0,4.1c21.4,0,21.6,8.4,21.6,32.9
								c5.4,0,70.1,0,75.5,0c0-24.5,0.2-32.9,21.6-32.9c0-2.4,0-2.9,0-4.1C97,102.9,80.9,32.9,80.9,20.6z"/>
						</defs>
						<clipPath id="SVGID_62_">
							<use xlink:href="#SVGID_61_"  overflow="visible"/>
						</clipPath>
					</g>
				</g>
				<g>
					<defs>
						<path id="SVGID_63_" d="M86.3,16.5H75.5c0,16.5-21.6,82.3-54,82.3c0,5.4,0,4.2,0,8.2c21.4,0,21.6,8.4,21.6,32.9
							c5.4,0,70.1,0,75.5,0c0-24.5,0.2-32.9,21.6-32.9c0-4,0-2.8,0-8.2C107.9,98.8,86.3,32.9,86.3,16.5z"/>
					</defs>
					<clipPath id="SVGID_64_">
						<use xlink:href="#SVGID_63_"  overflow="visible"/>
					</clipPath>
				</g>
				<g>
					<g>
						<defs>
							<path id="SVGID_65_" d="M43.2,181.2c0,0,0,16.6,0,24.7c0,33.1,21.6,115.4,21.6,148.2v144.1c0,6.8,7.2,12.4,16.2,12.4
								s16.2-5.5,16.2-12.4V354.1c0-32.9,21.6-115.2,21.6-148.2c0-8.1,0-24.7,0-24.7H43.2z"/>
						</defs>
						<clipPath id="SVGID_66_">
							<use xlink:href="#SVGID_65_"  overflow="visible"/>
						</clipPath>
					</g>
					<g>
						<defs>
							<path id="SVGID_67_" d="M43.2,181.2c0,0,0,16.6,0,24.7c0,33.1,21.6,115.4,21.6,148.2v144.1c0,6.8,7.2,12.4,16.2,12.4
								s16.2-5.5,16.2-12.4V354.1c0-32.9,21.6-115.2,21.6-148.2c0-8.1,0-24.7,0-24.7H43.2z"/>
						</defs>
						<clipPath id="SVGID_68_">
							<use xlink:href="#SVGID_67_"  overflow="visible"/>
						</clipPath>
					</g>
				</g>
			</g>
			<g>
				<g>
					<g>
						<defs>
							<path id="SVGID_69_" d="M275.2,16.5h-10.8c0,37.2-37.7,49.4-48.6,49.4c0,4.3,0,8.2,0,8.2c21.6,0,32.4,57.6,32.4,57.6h43.2
								c0,0,10.8-57.6,32.4-57.6c0,0,0-3.9,0-8.2C312.8,65.9,275.2,53.5,275.2,16.5z"/>
						</defs>
						<clipPath id="SVGID_70_">
							<use xlink:href="#SVGID_69_"  overflow="visible"/>
						</clipPath>
					</g>
					<g>
						<defs>
							<path id="SVGID_71_" d="M269.8,20.6c0,37.2-43.1,49.4-54,49.4c0,2.4,0,4.1,0,4.1c21.6,0,32.4,57.6,32.4,57.6h43.2
								c0,0,10.8-57.6,32.4-57.6c0,0,0-1.7,0-4.1C312.8,70,269.8,57.6,269.8,20.6z"/>
						</defs>
						<clipPath id="SVGID_72_">
							<use xlink:href="#SVGID_71_"  overflow="visible"/>
						</clipPath>
					</g>
				</g>
				<g>
					<g>
						<defs>
							<path id="SVGID_73_" d="M237.4,181.2c0,0,0,16.6,0,24.7c0,33.1,16.2,115.4,16.2,148.2v144.1c0,6.8,7.2,12.4,16.2,12.4
								S286,505,286,498.2V354.1c0-32.9,16.2-115.2,16.2-148.2c0-8.1,0-24.7,0-24.7H237.4z"/>
						</defs>
						<clipPath id="SVGID_74_">
							<use xlink:href="#SVGID_73_"  overflow="visible"/>
						</clipPath>
					</g>
					<g>
						<defs>
							<path id="SVGID_75_" d="M237.4,181.2c0,0,0,16.6,0,24.7c0,33.1,16.2,115.4,16.2,148.2v144.1c0,6.8,7.2,12.4,16.2,12.4
								S286,505,286,498.2V354.1c0-32.9,16.2-115.2,16.2-148.2c0-8.1,0-24.7,0-24.7H237.4z"/>
						</defs>
						<clipPath id="SVGID_76_">
							<use xlink:href="#SVGID_75_"  overflow="visible"/>
						</clipPath>
					</g>
				</g>
			</g>
			<g>
				<g>
					<g>
						<defs>
							<path id="SVGID_77_" d="M458.6,16.5h-10.8c0,37.2-26.9,74.1-37.8,74.1c0,4.3,0,8.2,0,8.2c21.6,0,21.6,32.9,21.6,32.9h43.2
								c0,0,0-32.9,21.6-32.9c0,0,0-3.9,0-8.2C485.5,90.6,458.6,53.5,458.6,16.5z"/>
						</defs>
						<clipPath id="SVGID_78_">
							<use xlink:href="#SVGID_77_"  overflow="visible"/>
						</clipPath>
					</g>
					<g>
						<defs>
							<path id="SVGID_79_" d="M453.3,20.6c0,37.2-27,74.1-43.2,74.1c0,2.4,0,4.1,0,4.1c21.6,0,21.6,32.9,21.6,32.9h43.2
								c0,0,0-32.9,21.6-32.9c0,0,0-1.7,0-4.1C480.2,94.7,453.3,57.6,453.3,20.6z"/>
						</defs>
						<clipPath id="SVGID_80_">
							<use xlink:href="#SVGID_79_"  overflow="visible"/>
						</clipPath>
					</g>
				</g>
				<g>
					<g>
						<defs>
							<path id="SVGID_81_" d="M420.9,181.2c0,0,0,16.6,0,24.7c0,33.1,16.2,115.4,16.2,148.2v144.1c0,6.8,7.2,12.4,16.2,12.4
								s16.2-5.5,16.2-12.4V354.1c0-32.9,16.2-115.2,16.2-148.2c0-8.1,0-24.7,0-24.7H420.9z"/>
						</defs>
						<clipPath id="SVGID_82_">
							<use xlink:href="#SVGID_81_"  overflow="visible"/>
						</clipPath>
					</g>
					<g>
						<defs>
							<path id="SVGID_83_" d="M420.9,181.2c0,0,0,16.6,0,24.7c0,33.1,16.2,115.4,16.2,148.2v144.1c0,6.8,7.2,12.4,16.2,12.4
								s16.2-5.5,16.2-12.4V354.1c0-32.9,16.2-115.2,16.2-148.2c0-8.1,0-24.7,0-24.7H420.9z"/>
						</defs>
						<clipPath id="SVGID_84_">
							<use xlink:href="#SVGID_83_"  overflow="visible"/>
						</clipPath>
					</g>
				</g>
			</g>
		</g>
	</g>
</g>
</svg>
