<?xml version="1.0" encoding="utf-8"?>
<!-- Generator: Adobe Illustrator 18.1.1, SVG Export Plug-In . SVG Version: 6.00 Build 0)  -->
<svg version="1.1" id="Layer_1" xmlns="http://www.w3.org/2000/svg" xmlns:xlink="http://www.w3.org/1999/xlink" x="0px" y="0px"
	 viewBox="0 0 70.8 48" enable-background="new 0 0 70.8 48" xml:space="preserve">
<g>
	<defs>
		<path id="SVGID_1_" d="M48,7c0-1.1,0.9-2,2-2h14c1.1,0,2,0.9,2,2v36c0,1.1-0.9,2-2,2H50c-1.1,0-2-0.9-2-2V7z"/>
	</defs>
	<clipPath id="SVGID_2_">
		<use xlink:href="#SVGID_1_"  overflow="visible"/>
	</clipPath>
	<path clip-path="url(#SVGID_2_)" fill="none" stroke="#6E84A7" stroke-width="4" stroke-miterlimit="10" d="M48,7c0-1.1,0.9-2,2-2
		h14c1.1,0,2,0.9,2,2v36c0,1.1-0.9,2-2,2H50c-1.1,0-2-0.9-2-2V7z"/>
</g>
<g>
	<defs>
		<path id="SVGID_3_" d="M26,27c0-1.1,0.9-2,2-2h16c1.1,0,2,0.9,2,2v16c0,1.1-0.9,2-2,2H28c-1.1,0-2-0.9-2-2V27z"/>
	</defs>
	<clipPath id="SVGID_4_">
		<use xlink:href="#SVGID_3_"  overflow="visible"/>
	</clipPath>
	<path clip-path="url(#SVGID_4_)" fill="none" stroke="#6E84A7" stroke-width="4" stroke-miterlimit="10" d="M26,27c0-1.1,0.9-2,2-2
		h16c1.1,0,2,0.9,2,2v16c0,1.1-0.9,2-2,2H28c-1.1,0-2-0.9-2-2V27z"/>
</g>
<g>
	<defs>
		<rect id="SVGID_5_" x="30" y="33" width="12" height="8"/>
	</defs>
	<clipPath id="SVGID_6_">
		<use xlink:href="#SVGID_5_"  overflow="visible"/>
	</clipPath>
	
		<rect x="30" y="33" clip-path="url(#SVGID_6_)" fill="none" stroke="#6E84A7" stroke-width="4" stroke-miterlimit="10" width="12" height="8"/>
</g>
<g>
	<defs>
		<path id="SVGID_7_" d="M6,27c0-1.1,0.9-2,2-2h14c1.1,0,2,0.9,2,2v16c0,1.1-0.9,2-2,2H8c-1.1,0-2-0.9-2-2V27z"/>
	</defs>
	<clipPath id="SVGID_8_">
		<use xlink:href="#SVGID_7_"  overflow="visible"/>
	</clipPath>
	<path clip-path="url(#SVGID_8_)" fill="none" stroke="#6E84A7" stroke-width="4" stroke-miterlimit="10" d="M6,27c0-1.1,0.9-2,2-2
		h14c1.1,0,2,0.9,2,2v16c0,1.1-0.9,2-2,2H8c-1.1,0-2-0.9-2-2V27z"/>
</g>
<line fill="none" stroke="#6E84A7" stroke-width="2" stroke-linecap="square" stroke-miterlimit="10" x1="22" y1="34" x2="7.5" y2="34"/>
<line fill="none" stroke="#6E84A7" stroke-width="2" stroke-linecap="square" stroke-miterlimit="10" x1="49" y1="29" x2="64.5" y2="29"/>
<g>
	<defs>
		<circle id="SVGID_9_" cx="31" cy="30" r="1"/>
	</defs>
	<clipPath id="SVGID_10_">
		<use xlink:href="#SVGID_9_"  overflow="visible"/>
	</clipPath>
	<rect x="25" y="24" clip-path="url(#SVGID_10_)" fill="#6E84A7" width="12" height="12"/>
</g>
<g>
	<defs>
		<circle id="SVGID_11_" cx="19" cy="38" r="1"/>
	</defs>
	<clipPath id="SVGID_12_">
		<use xlink:href="#SVGID_11_"  overflow="visible"/>
	</clipPath>
	<rect x="13" y="32" clip-path="url(#SVGID_12_)" fill="#6E84A7" width="12" height="12"/>
</g>
<g>
	<defs>
		<circle id="SVGID_13_" cx="15" cy="30" r="1"/>
	</defs>
	<clipPath id="SVGID_14_">
		<use xlink:href="#SVGID_13_"  overflow="visible"/>
	</clipPath>
	<rect x="9" y="24" clip-path="url(#SVGID_14_)" fill="#6E84A7" width="12" height="12"/>
</g>
<g>
	<defs>
		<circle id="SVGID_15_" cx="36" cy="30" r="1"/>
	</defs>
	<clipPath id="SVGID_16_">
		<use xlink:href="#SVGID_15_"  overflow="visible"/>
	</clipPath>
	<rect x="30" y="24" clip-path="url(#SVGID_16_)" fill="#6E84A7" width="12" height="12"/>
</g>
<g>
	<defs>
		<circle id="SVGID_17_" cx="41" cy="30" r="1"/>
	</defs>
	<clipPath id="SVGID_18_">
		<use xlink:href="#SVGID_17_"  overflow="visible"/>
	</clipPath>
	<rect x="35" y="24" clip-path="url(#SVGID_18_)" fill="#6E84A7" width="12" height="12"/>
</g>
<g>
	<defs>
		<polygon id="SVGID_19_" points="32,18 28,18 29,23 34,23 34.6,20 39,20 39,18 		"/>
	</defs>
	<clipPath id="SVGID_20_">
		<use xlink:href="#SVGID_19_"  overflow="visible"/>
	</clipPath>
	<polygon clip-path="url(#SVGID_20_)" fill="none" stroke="#6E84A8" stroke-width="4" stroke-miterlimit="10" points="32,18 28,18 
		29,23 34,23 34.6,20 39,20 39,18 	"/>
</g>
<g>
	<defs>
		<rect id="SVGID_21_" x="52" y="22" width="2" height="4"/>
	</defs>
	<clipPath id="SVGID_22_">
		<use xlink:href="#SVGID_21_"  overflow="visible"/>
	</clipPath>
	<rect x="47" y="17" clip-path="url(#SVGID_22_)" fill="#6E84A8" width="12" height="14"/>
</g>
<g>
	<defs>
		<rect id="SVGID_23_" x="52" y="32" width="2" height="4"/>
	</defs>
	<clipPath id="SVGID_24_">
		<use xlink:href="#SVGID_23_"  overflow="visible"/>
	</clipPath>
	<rect x="47" y="27" clip-path="url(#SVGID_24_)" fill="#6E84A8" width="12" height="14"/>
</g>
</svg>
