<?xml version="1.0" encoding="utf-8"?>
<!-- Generator: Adobe Illustrator 18.1.1, SVG Export Plug-In . SVG Version: 6.00 Build 0)  -->
<svg version="1.1" id="Layer_1" xmlns="http://www.w3.org/2000/svg" xmlns:xlink="http://www.w3.org/1999/xlink" x="0px" y="0px"
	 viewBox="0 0 518 527" enable-background="new 0 0 518 527" xml:space="preserve">
<g>
	<g>
		<defs>
			<path id="SVGID_1_" d="M428.9,99h-7.5V57.8c0-13.6-10-24.7-22.4-24.7H227.5V16.6c0-9.1-6.7-16.5-14.9-16.5h-37.3
				c-8.2,0-14.9,7.4-14.9,16.5v16.5H138c-12.3,0-22.4,11.1-22.4,24.7v32.9h-3.7c-2.1,0-3.7,1.9-3.7,4.1v370.4c0,2.3,1.7,4.1,3.7,4.1
				h3.7v32.9c0,13.6,10,24.7,22.4,24.7h261c12.3,0,22.4-11.1,22.4-24.7V222.4h7.5c8.2,0,14.9-7.4,14.9-16.5v-90.5
				C443.8,106.3,437.1,99,428.9,99z"/>
		</defs>
		<clipPath id="SVGID_2_">
			<use xlink:href="#SVGID_1_"  overflow="visible"/>
		</clipPath>
		<g clip-path="url(#SVGID_2_)">
			<g>
				<defs>
					<rect id="SVGID_3_" x="190.2" y="222.4" width="55.9" height="197.6"/>
				</defs>
				<clipPath id="SVGID_4_">
					<use xlink:href="#SVGID_3_"  overflow="visible"/>
				</clipPath>
			</g>
			<g>
				<defs>
					<path id="SVGID_5_" d="M405.5,510.5H131.6c-0.6,0-1-0.4-1-1v-459c0-0.5,0.4-1,1-1h273.9c0.5,0,1,0.5,1,1v459
						C406.5,510.1,406,510.5,405.5,510.5z"/>
				</defs>
				<clipPath id="SVGID_6_">
					<use xlink:href="#SVGID_5_"  overflow="visible"/>
				</clipPath>
			</g>
		</g>
	</g>
	<g>
		<defs>
			<path id="SVGID_7_" d="M428.9,99h-7.5V57.8c0-13.6-10-24.7-22.4-24.7H227.5V16.6c0-9.1-6.7-16.5-14.9-16.5h-37.3
				c-8.2,0-14.9,7.4-14.9,16.5v16.5H138c-12.3,0-22.4,11.1-22.4,24.7v32.9h-3.7c-2.1,0-3.7,1.9-3.7,4.1v370.4c0,2.3,1.7,4.1,3.7,4.1
				h3.7v32.9c0,13.6,10,24.7,22.4,24.7h261c12.3,0,22.4-11.1,22.4-24.7V222.4h7.5c8.2,0,14.9-7.4,14.9-16.5v-90.5
				C443.8,106.3,437.1,99,428.9,99z"/>
		</defs>
		<clipPath id="SVGID_8_">
			<use xlink:href="#SVGID_7_"  overflow="visible"/>
		</clipPath>
		<g clip-path="url(#SVGID_8_)">
			<g>
				<path fill="#453F3C" d="M406.5,99h22.4c8.2,0,14.9,7.4,14.9,16.5V206c0,9.1-6.7,16.5-14.9,16.5h-22.4V99z"/>
				<path fill="#CCC4C4" d="M406.5,115.4h18.6c2.1,0,3.7,1.9,3.7,4.1v82.3c0,2.3-1.7,4.1-3.7,4.1h-18.6V115.4z"/>
				<rect x="421.4" y="115.4" opacity="0.3" width="3.7" height="90.5"/>
			</g>
			<path fill="#453F3C" d="M138,527c-12.3,0-22.4-11.1-22.4-24.7V57.8c0-13.6,10-24.7,22.4-24.7h261c12.3,0,22.4,11.1,22.4,24.7
				v444.5c0,13.6-10,24.7-22.4,24.7H138z"/>
			<path fill="#5885A0" d="M405.5,510.5H131.6c-0.6,0-1-0.4-1-1v-459c0-0.5,0.4-1,1-1h273.9c0.5,0,1,0.5,1,1v459
				C406.5,510.1,406,510.5,405.5,510.5z"/>
			<path fill="#EDEDED" d="M339.4,49.6H399c4.1,0,7.5,3.7,7.5,8.2v444.5c0,4.5-3.4,8.2-7.5,8.2h-59.7V49.6z"/>
			<g>
				<rect x="145.5" y="66" fill="#453F3C" width="37.3" height="16.5"/>
				<rect x="145.5" y="90.7" fill="#453F3C" width="52.2" height="8.2"/>
				<rect x="205.2" y="90.7" fill="#453F3C" width="22.4" height="8.2"/>
			</g>
			<path fill="#453F3C" d="M108.7,469.4h13.9c0.3,0,0.5-0.2,0.5-0.5V91.2c0-0.3-0.2-0.5-0.5-0.5h-13.9c-0.3,0-0.5,0.2-0.5,0.5v377.7
				C108.2,469.2,108.4,469.4,108.7,469.4z"/>
			<path fill="#453F3C" d="M260.6,436.5h-84.8c-0.3,0-0.5-0.2-0.5-0.5V206.5c0-0.3,0.2-0.5,0.5-0.5h84.8c0.3,0,0.5,0.2,0.5,0.5V436
				C261.1,436.2,260.9,436.5,260.6,436.5z"/>
			<g>
				<path fill="#453F3C" d="M160.4,33.1V16.6c0-9.1,6.7-16.5,14.9-16.5h37.3c8.2,0,14.9,7.4,14.9,16.5v16.5H160.4z"/>
				<path fill="#E8A964" d="M175.3,33.1V20.8c0-2.3,1.7-4.1,3.7-4.1h29.8c2.1,0,3.7,1.9,3.7,4.1v12.3H175.3z"/>
				<rect x="175.3" y="24.9" opacity="0.24" width="37.3" height="8.2"/>
			</g>
			<rect x="145.5" y="148.3" fill="#453F3C" width="67.1" height="24.7"/>
			<g>
				<rect x="130.6" y="115.4" fill="#453F3C" width="208.8" height="16.5"/>
				<rect x="130.6" y="131.9" opacity="0.4" fill="#FFFFFF" width="208.8" height="8.2"/>
			</g>
			<ellipse fill="#453F3C" cx="372.9" cy="366.5" rx="11.2" ry="12.3"/>
			<g>
				<defs>
					<rect id="SVGID_9_" x="190.2" y="222.4" width="55.9" height="197.6"/>
				</defs>
				<clipPath id="SVGID_10_">
					<use xlink:href="#SVGID_9_"  overflow="visible"/>
				</clipPath>
				<g opacity="0.2" clip-path="url(#SVGID_10_)">
					<path fill="#FFFFFF" d="M180.9,415.9h-44.7l171.5-189.3h44.7L180.9,415.9z"/>
					<path fill="#FFFFFF" d="M98.9,415.9H84l171.5-189.3h14.9L98.9,415.9z"/>
				</g>
			</g>
			<ellipse fill="#CCC4C4" cx="372.9" cy="366.5" rx="3.7" ry="4.1"/>
			<g>
				<defs>
					<path id="SVGID_11_" d="M405.5,510.5H131.6c-0.6,0-1-0.4-1-1v-459c0-0.5,0.4-1,1-1h273.9c0.5,0,1,0.5,1,1v459
						C406.5,510.1,406,510.5,405.5,510.5z"/>
				</defs>
				<clipPath id="SVGID_12_">
					<use xlink:href="#SVGID_11_"  overflow="visible"/>
				</clipPath>
				<rect x="115.7" y="502.3" opacity="0.24" clip-path="url(#SVGID_12_)" width="305.7" height="24.7"/>
				<rect x="115.7" y="33.1" opacity="0.4" clip-path="url(#SVGID_12_)" fill="#FFFFFF" width="305.7" height="24.7"/>
			</g>
			<rect x="339.4" y="49.6" fill="#453F3C" width="14.9" height="461"/>
			<g>
				<rect x="283.5" y="57.8" opacity="0.4" fill="#FFFFFF" width="7.5" height="57.6"/>
				<rect x="298.4" y="57.8" opacity="0.4" fill="#FFFFFF" width="3.7" height="57.6"/>
			</g>
			<g>
				<rect x="283.5" y="140.1" opacity="0.4" fill="#FFFFFF" width="7.5" height="362.2"/>
				<rect x="298.4" y="140.1" opacity="0.4" fill="#FFFFFF" width="3.7" height="362.2"/>
			</g>
		</g>
	</g>
	<g>
		<defs>
			<path id="SVGID_13_" d="M428.9,99h-7.5V57.8c0-13.6-10-24.7-22.4-24.7H227.5V16.6c0-9.1-6.7-16.5-14.9-16.5h-37.3
				c-8.2,0-14.9,7.4-14.9,16.5v16.5H138c-12.3,0-22.4,11.1-22.4,24.7v32.9h-3.7c-2.1,0-3.7,1.9-3.7,4.1v370.4c0,2.3,1.7,4.1,3.7,4.1
				h3.7v32.9c0,13.6,10,24.7,22.4,24.7h261c12.3,0,22.4-11.1,22.4-24.7V222.4h7.5c8.2,0,14.9-7.4,14.9-16.5v-90.5
				C443.8,106.3,437.1,99,428.9,99z"/>
		</defs>
		<clipPath id="SVGID_14_">
			<use xlink:href="#SVGID_13_"  overflow="visible"/>
		</clipPath>
		<g clip-path="url(#SVGID_14_)">
			<g>
				<defs>
					<rect id="SVGID_15_" x="190.2" y="222.4" width="55.9" height="197.6"/>
				</defs>
				<clipPath id="SVGID_16_">
					<use xlink:href="#SVGID_15_"  overflow="visible"/>
				</clipPath>
			</g>
			<g>
				<defs>
					<path id="SVGID_17_" d="M405.5,510.5H131.6c-0.6,0-1-0.4-1-1v-459c0-0.5,0.4-1,1-1h273.9c0.5,0,1,0.5,1,1v459
						C406.5,510.1,406,510.5,405.5,510.5z"/>
				</defs>
				<clipPath id="SVGID_18_">
					<use xlink:href="#SVGID_17_"  overflow="visible"/>
				</clipPath>
			</g>
		</g>
	</g>
</g>
</svg>
