<?xml version="1.0" encoding="utf-8"?>
<!-- Generator: Adobe Illustrator 18.1.1, SVG Export Plug-In . SVG Version: 6.00 Build 0)  -->
<svg version="1.1" id="Layer_1" xmlns="http://www.w3.org/2000/svg" xmlns:xlink="http://www.w3.org/1999/xlink" x="0px" y="0px"
	 viewBox="0 0 70.8 48" enable-background="new 0 0 70.8 48" xml:space="preserve">
<g>
	<defs>
		<path id="SVGID_1_" d="M51.8,26c0-1.1,0.9-2,2-2h10c1.1,0,2,0.9,2,2v16c0,1.1-0.9,2-2,2h-10c-1.1,0-2-0.9-2-2V26z"/>
	</defs>
	<clipPath id="SVGID_2_">
		<use xlink:href="#SVGID_1_"  overflow="visible"/>
	</clipPath>
	<path clip-path="url(#SVGID_2_)" fill="none" stroke="#6E84A8" stroke-width="4" stroke-miterlimit="10" d="M51.8,26
		c0-1.1,0.9-2,2-2h10c1.1,0,2,0.9,2,2v16c0,1.1-0.9,2-2,2h-10c-1.1,0-2-0.9-2-2V26z"/>
</g>
<g>
	<defs>
		<path id="SVGID_3_" d="M5.8,6c0-1.1,0.9-2,2-2h12c1.1,0,2,0.9,2,2v36c0,1.1-0.9,2-2,2h-12c-1.1,0-2-0.9-2-2V6z"/>
	</defs>
	<clipPath id="SVGID_4_">
		<use xlink:href="#SVGID_3_"  overflow="visible"/>
	</clipPath>
	<path clip-path="url(#SVGID_4_)" fill="none" stroke="#6E84A8" stroke-width="4" stroke-miterlimit="10" d="M5.8,6c0-1.1,0.9-2,2-2
		h12c1.1,0,2,0.9,2,2v36c0,1.1-0.9,2-2,2h-12c-1.1,0-2-0.9-2-2V6z"/>
</g>
<g>
	<defs>
		<path id="SVGID_5_" d="M5.8,6c0-1.1,0.9-2,2-2h12c1.1,0,2,0.9,2,2v30c0,1.1-0.9,2-2,2h-12c-1.1,0-2-0.9-2-2V6z"/>
	</defs>
	<clipPath id="SVGID_6_">
		<use xlink:href="#SVGID_5_"  overflow="visible"/>
	</clipPath>
	<path clip-path="url(#SVGID_6_)" fill="none" stroke="#6E84A8" stroke-width="4" stroke-miterlimit="10" d="M5.8,6c0-1.1,0.9-2,2-2
		h12c1.1,0,2,0.9,2,2v30c0,1.1-0.9,2-2,2h-12c-1.1,0-2-0.9-2-2V6z"/>
</g>
<g>
	<defs>
		<path id="SVGID_7_" d="M29.8,8c0-1.1,0.9-2,2-2h16c1.1,0,2,0.9,2,2v8c0,1.1-0.9,2-2,2h-16c-1.1,0-2-0.9-2-2V8z"/>
	</defs>
	<clipPath id="SVGID_8_">
		<use xlink:href="#SVGID_7_"  overflow="visible"/>
	</clipPath>
	<path clip-path="url(#SVGID_8_)" fill="none" stroke="#6E84A8" stroke-width="4" stroke-miterlimit="10" d="M29.8,8
		c0-1.1,0.9-2,2-2h16c1.1,0,2,0.9,2,2v8c0,1.1-0.9,2-2,2h-16c-1.1,0-2-0.9-2-2V8z"/>
</g>
<g>
	<defs>
		<circle id="SVGID_9_" cx="56.8" cy="29" r="1"/>
	</defs>
	<clipPath id="SVGID_10_">
		<use xlink:href="#SVGID_9_"  overflow="visible"/>
	</clipPath>
	<rect x="50.8" y="23" clip-path="url(#SVGID_10_)" fill="#6E84A8" width="12" height="12"/>
</g>
<g>
	<defs>
		<path id="SVGID_11_" d="M55.8,22c0-1.1-0.9-2-2-2c-1.1,0-2,0.9-2,2H55.8z"/>
	</defs>
	<clipPath id="SVGID_12_">
		<use xlink:href="#SVGID_11_"  overflow="visible"/>
	</clipPath>
	<rect x="46.8" y="15" clip-path="url(#SVGID_12_)" fill="#6E84A8" width="14" height="12"/>
</g>
<g>
	<defs>
		<circle id="SVGID_13_" cx="56.8" cy="37" r="1"/>
	</defs>
	<clipPath id="SVGID_14_">
		<use xlink:href="#SVGID_13_"  overflow="visible"/>
	</clipPath>
	<rect x="50.8" y="31" clip-path="url(#SVGID_14_)" fill="#6E84A8" width="12" height="12"/>
</g>
<g>
	<defs>
		<circle id="SVGID_15_" cx="13.8" cy="40" r="1"/>
	</defs>
	<clipPath id="SVGID_16_">
		<use xlink:href="#SVGID_15_"  overflow="visible"/>
	</clipPath>
	<rect x="7.8" y="34" clip-path="url(#SVGID_16_)" fill="#6E84A8" width="12" height="12"/>
</g>
<g>
	<defs>
		<circle id="SVGID_17_" cx="16.8" cy="21" r="1"/>
	</defs>
	<clipPath id="SVGID_18_">
		<use xlink:href="#SVGID_17_"  overflow="visible"/>
	</clipPath>
	<rect x="10.8" y="15" clip-path="url(#SVGID_18_)" fill="#6E84A8" width="12" height="12"/>
</g>
<g>
	<defs>
		<rect id="SVGID_19_" x="23.8" y="24" width="38" height="2"/>
	</defs>
	<clipPath id="SVGID_20_">
		<use xlink:href="#SVGID_19_"  overflow="visible"/>
	</clipPath>
	<rect x="18.8" y="19" clip-path="url(#SVGID_20_)" fill="#6E84A8" width="48" height="12"/>
</g>
<g>
	<defs>
		<rect id="SVGID_21_" x="34.8" y="20" width="10" height="2"/>
	</defs>
	<clipPath id="SVGID_22_">
		<use xlink:href="#SVGID_21_"  overflow="visible"/>
	</clipPath>
	<rect x="29.8" y="15" clip-path="url(#SVGID_22_)" fill="#6E84A8" width="20" height="12"/>
</g>
<g>
	<defs>
		<rect id="SVGID_23_" x="53.8" y="32" width="10" height="2"/>
	</defs>
	<clipPath id="SVGID_24_">
		<use xlink:href="#SVGID_23_"  overflow="visible"/>
	</clipPath>
	<rect x="48.8" y="27" clip-path="url(#SVGID_24_)" fill="#6E84A8" width="20" height="12"/>
</g>
<g>
	<defs>
		<rect id="SVGID_25_" x="25.8" y="28" width="2" height="16"/>
	</defs>
	<clipPath id="SVGID_26_">
		<use xlink:href="#SVGID_25_"  overflow="visible"/>
	</clipPath>
	<rect x="20.8" y="23" clip-path="url(#SVGID_26_)" fill="#6E84A8" width="12" height="26"/>
</g>
</svg>
