<?xml version="1.0" encoding="utf-8"?>
<!-- Generator: Adobe Illustrator 18.1.1, SVG Export Plug-In . SVG Version: 6.00 Build 0)  -->
<svg version="1.1" id="Layer_1" xmlns="http://www.w3.org/2000/svg" xmlns:xlink="http://www.w3.org/1999/xlink" x="0px" y="0px"
	 viewBox="0 0 70.8 48" enable-background="new 0 0 70.8 48" xml:space="preserve">
<g>
	<defs>
		<path id="SVGID_1_" d="M63,19c0-2.8-2.2-5-5-5s-5,2.2-5,5H63z"/>
	</defs>
	<clipPath id="SVGID_2_">
		<use xlink:href="#SVGID_1_"  overflow="visible"/>
	</clipPath>
	<path clip-path="url(#SVGID_2_)" fill="none" stroke="#6E84A8" stroke-width="4" stroke-miterlimit="10" d="M63,19c0-2.8-2.2-5-5-5
		c-2.8,0-5,2.2-5,5H63z"/>
</g>
<g>
	<defs>
		<path id="SVGID_3_" d="M5,25c0-1.1,0.9-2,2-2h10c1.1,0,2,0.9,2,2v16c0,1.1-0.9,2-2,2H7c-1.1,0-2-0.9-2-2V25z"/>
	</defs>
	<clipPath id="SVGID_4_">
		<use xlink:href="#SVGID_3_"  overflow="visible"/>
	</clipPath>
	<path clip-path="url(#SVGID_4_)" fill="none" stroke="#6E84A8" stroke-width="4" stroke-miterlimit="10" d="M5,25c0-1.1,0.9-2,2-2
		h10c1.1,0,2,0.9,2,2v16c0,1.1-0.9,2-2,2H7c-1.1,0-2-0.9-2-2V25z"/>
</g>
<g>
	<defs>
		<path id="SVGID_5_" d="M5,34c0-1.1,0.9-2,2-2h10c1.1,0,2,0.9,2,2v7c0,1.1-0.9,2-2,2H7c-1.1,0-2-0.9-2-2V34z"/>
	</defs>
	<clipPath id="SVGID_6_">
		<use xlink:href="#SVGID_5_"  overflow="visible"/>
	</clipPath>
	<path clip-path="url(#SVGID_6_)" fill="none" stroke="#6E84A8" stroke-width="4" stroke-miterlimit="10" d="M5,34c0-1.1,0.9-2,2-2
		h10c1.1,0,2,0.9,2,2v7c0,1.1-0.9,2-2,2H7c-1.1,0-2-0.9-2-2V34z"/>
</g>
<g>
	<defs>
		<path id="SVGID_7_" d="M51,31c0-1.1,0.9-2,2-2h10c1.1,0,2,0.9,2,2v10c0,1.1-0.9,2-2,2H53c-1.1,0-2-0.9-2-2V31z"/>
	</defs>
	<clipPath id="SVGID_8_">
		<use xlink:href="#SVGID_7_"  overflow="visible"/>
	</clipPath>
	<path clip-path="url(#SVGID_8_)" fill="none" stroke="#6E84A8" stroke-width="4" stroke-miterlimit="10" d="M51,31c0-1.1,0.9-2,2-2
		h10c1.1,0,2,0.9,2,2v10c0,1.1-0.9,2-2,2H53c-1.1,0-2-0.9-2-2V31z"/>
</g>
<g>
	<defs>
		<path id="SVGID_9_" d="M51,31c0-1.1,0.9-2,2-2h10c1.1,0,2,0.9,2,2v2c0,1.1-0.9,2-2,2H53c-1.1,0-2-0.9-2-2V31z"/>
	</defs>
	<clipPath id="SVGID_10_">
		<use xlink:href="#SVGID_9_"  overflow="visible"/>
	</clipPath>
	<path clip-path="url(#SVGID_10_)" fill="none" stroke="#6E84A8" stroke-width="4" stroke-miterlimit="10" d="M51,31
		c0-1.1,0.9-2,2-2h10c1.1,0,2,0.9,2,2v2c0,1.1-0.9,2-2,2H53c-1.1,0-2-0.9-2-2V31z"/>
</g>
<g>
	<defs>
		<path id="SVGID_11_" d="M22,29c0-1.1,0.9-2,2-2h22c1.1,0,2,0.9,2,2v10c0,1.1-0.9,2-2,2H24c-1.1,0-2-0.9-2-2V29z"/>
	</defs>
	<clipPath id="SVGID_12_">
		<use xlink:href="#SVGID_11_"  overflow="visible"/>
	</clipPath>
	<path clip-path="url(#SVGID_12_)" fill="none" stroke="#6E84A8" stroke-width="4" stroke-miterlimit="10" d="M22,29
		c0-1.1,0.9-2,2-2h22c1.1,0,2,0.9,2,2v10c0,1.1-0.9,2-2,2H24c-1.1,0-2-0.9-2-2V29z"/>
</g>
<g>
	<defs>
		<rect id="SVGID_13_" x="22" y="23" width="2" height="20"/>
	</defs>
	<clipPath id="SVGID_14_">
		<use xlink:href="#SVGID_13_"  overflow="visible"/>
	</clipPath>
	<rect x="17" y="18" clip-path="url(#SVGID_14_)" fill="#6E84A8" width="12" height="30"/>
</g>
<g>
	<defs>
		<rect id="SVGID_15_" x="26" y="28" width="2" height="13"/>
	</defs>
	<clipPath id="SVGID_16_">
		<use xlink:href="#SVGID_15_"  overflow="visible"/>
	</clipPath>
	<rect x="21" y="23" clip-path="url(#SVGID_16_)" fill="#6E84A8" width="12" height="23"/>
</g>
<g>
	<defs>
		<rect id="SVGID_17_" x="30" y="28" width="2" height="13"/>
	</defs>
	<clipPath id="SVGID_18_">
		<use xlink:href="#SVGID_17_"  overflow="visible"/>
	</clipPath>
	<rect x="25" y="23" clip-path="url(#SVGID_18_)" fill="#6E84A8" width="12" height="23"/>
</g>
<g>
	<defs>
		<rect id="SVGID_19_" x="34" y="28" width="2" height="13"/>
	</defs>
	<clipPath id="SVGID_20_">
		<use xlink:href="#SVGID_19_"  overflow="visible"/>
	</clipPath>
	<rect x="29" y="23" clip-path="url(#SVGID_20_)" fill="#6E84A8" width="12" height="23"/>
</g>
<g>
	<defs>
		<rect id="SVGID_21_" x="38" y="28" width="2" height="13"/>
	</defs>
	<clipPath id="SVGID_22_">
		<use xlink:href="#SVGID_21_"  overflow="visible"/>
	</clipPath>
	<rect x="33" y="23" clip-path="url(#SVGID_22_)" fill="#6E84A8" width="12" height="23"/>
</g>
<g>
	<defs>
		<rect id="SVGID_23_" x="42" y="28" width="2" height="13"/>
	</defs>
	<clipPath id="SVGID_24_">
		<use xlink:href="#SVGID_23_"  overflow="visible"/>
	</clipPath>
	<rect x="37" y="23" clip-path="url(#SVGID_24_)" fill="#6E84A8" width="12" height="23"/>
</g>
<g>
	<defs>
		<rect id="SVGID_25_" x="46" y="23" width="2" height="20"/>
	</defs>
	<clipPath id="SVGID_26_">
		<use xlink:href="#SVGID_25_"  overflow="visible"/>
	</clipPath>
	<rect x="41" y="18" clip-path="url(#SVGID_26_)" fill="#6E84A8" width="12" height="30"/>
</g>
<path fill="none" stroke="#6E84A8" stroke-width="2" stroke-miterlimit="10" d="M27,10c0-0.6,0-6,8-6c8,0,8,6,8,6"/>
<g>
	<defs>
		<rect id="SVGID_27_" x="34" y="4" width="2" height="8"/>
	</defs>
	<clipPath id="SVGID_28_">
		<use xlink:href="#SVGID_27_"  overflow="visible"/>
	</clipPath>
	<rect x="29" y="-1" clip-path="url(#SVGID_28_)" fill="#6E84A8" width="12" height="18"/>
</g>
<g>
	<defs>
		<rect id="SVGID_29_" x="57" y="21" width="2" height="6"/>
	</defs>
	<clipPath id="SVGID_30_">
		<use xlink:href="#SVGID_29_"  overflow="visible"/>
	</clipPath>
	<rect x="52" y="16" clip-path="url(#SVGID_30_)" fill="#6E84A8" width="12" height="16"/>
</g>
<g>
	<defs>
		<rect id="SVGID_31_" x="53" y="25" width="10" height="2"/>
	</defs>
	<clipPath id="SVGID_32_">
		<use xlink:href="#SVGID_31_"  overflow="visible"/>
	</clipPath>
	<rect x="48" y="20" clip-path="url(#SVGID_32_)" fill="#6E84A8" width="20" height="12"/>
</g>
<g>
	<defs>
		<circle id="SVGID_33_" cx="14" cy="28" r="1"/>
	</defs>
	<clipPath id="SVGID_34_">
		<use xlink:href="#SVGID_33_"  overflow="visible"/>
	</clipPath>
	<rect x="8" y="22" clip-path="url(#SVGID_34_)" fill="#6E84A8" width="12" height="12"/>
</g>
<g>
	<defs>
		<circle id="SVGID_35_" cx="14" cy="37" r="1"/>
	</defs>
	<clipPath id="SVGID_36_">
		<use xlink:href="#SVGID_35_"  overflow="visible"/>
	</clipPath>
	<rect x="8" y="31" clip-path="url(#SVGID_36_)" fill="#6E84A8" width="12" height="12"/>
</g>
<g>
	<defs>
		<circle id="SVGID_37_" cx="56" cy="38" r="1"/>
	</defs>
	<clipPath id="SVGID_38_">
		<use xlink:href="#SVGID_37_"  overflow="visible"/>
	</clipPath>
	<rect x="50" y="32" clip-path="url(#SVGID_38_)" fill="#6E84A8" width="12" height="12"/>
</g>
<g>
	<defs>
		<path id="SVGID_39_" d="M25,14c0-1.1,0.9-2,2-2h16c1.1,0,2,0.9,2,2v8c0,1.1-0.9,2-2,2H27c-1.1,0-2-0.9-2-2V14z"/>
	</defs>
	<clipPath id="SVGID_40_">
		<use xlink:href="#SVGID_39_"  overflow="visible"/>
	</clipPath>
	<path clip-path="url(#SVGID_40_)" fill="none" stroke="#6E84A8" stroke-width="4" stroke-miterlimit="10" d="M25,14
		c0-1.1,0.9-2,2-2h16c1.1,0,2,0.9,2,2v8c0,1.1-0.9,2-2,2H27c-1.1,0-2-0.9-2-2V14z"/>
</g>
<path fill="none" stroke="#6E84A8" stroke-width="2" stroke-miterlimit="10" d="M34.7,17"/>
<path fill="none" stroke="#6E84A8" stroke-width="2" stroke-miterlimit="10" d="M29.2,18.4"/>
<path fill="none" stroke="#6E84A8" stroke-width="2" stroke-miterlimit="10" d="M35.8,17.7"/>
<path fill="none" stroke="#6E84A8" stroke-width="2" stroke-miterlimit="10" d="M34.7,17"/>
<path fill="none" stroke="#6E84A8" stroke-width="2" stroke-miterlimit="10" d="M37.9,19.1"/>
<path fill="none" stroke="#6E84A8" stroke-width="2" stroke-miterlimit="10" d="M35.8,17.7"/>
<path fill="none" stroke="#6E84A8" stroke-width="2" stroke-miterlimit="10" d="M40.6,18.4"/>
<path fill="none" stroke="#6E84A8" stroke-width="2" stroke-miterlimit="10" d="M37.9,19.1"/>
<path fill="none" stroke="#6E84A8" stroke-width="2" stroke-miterlimit="10" d="M28.9,15.4c0.6,0.4,1.1,0.9,1.4,1.7
	c0.2,0.4,0.1,0.6,0.3,0.8c0.6,0.5,1.6-0.5,2.8-0.2c0.9,0.3,0.8,1,1.8,1.2c0.8,0.2,0.9-0.3,2.1-0.3c1.3-0.1,1.6,0.4,2.5,0.3
	c0.6-0.1,1.4-0.5,2.3-1.9"/>
<path fill="none" stroke="#6E84A8" stroke-width="2" stroke-miterlimit="10" d="M28.2,20.3"/>
<path fill="none" stroke="#6E84A8" stroke-width="2" stroke-miterlimit="10" d="M29.6,18.7"/>
</svg>
