<?xml version="1.0" encoding="utf-8"?>
<!-- Generator: Adobe Illustrator 18.1.1, SVG Export Plug-In . SVG Version: 6.00 Build 0)  -->
<svg version="1.1" id="Layer_1" xmlns="http://www.w3.org/2000/svg" xmlns:xlink="http://www.w3.org/1999/xlink" x="0px" y="0px"
	 viewBox="0 0 70.8 48" enable-background="new 0 0 70.8 48" xml:space="preserve">
<g>
	<g>
		<defs>
			<path id="SVGID_1_" d="M28.4,32.8c0-1.1,0.9-2,2-2h8c1.1,0,2,0.9,2,2v2c0,1.1-0.9,2-2,2h-8c-1.1,0-2-0.9-2-2V32.8z"/>
		</defs>
		<clipPath id="SVGID_2_">
			<use xlink:href="#SVGID_1_"  overflow="visible"/>
		</clipPath>
		<path clip-path="url(#SVGID_2_)" fill="none" stroke="#6E84A8" stroke-width="4" stroke-miterlimit="10" d="M28.4,32.8
			c0-1.1,0.9-2,2-2h8c1.1,0,2,0.9,2,2v2c0,1.1-0.9,2-2,2h-8c-1.1,0-2-0.9-2-2V32.8z"/>
	</g>
</g>
<g>
	<g>
		<defs>
			<rect id="SVGID_3_" x="28.4" y="34.8" width="2" height="8"/>
		</defs>
		<clipPath id="SVGID_4_">
			<use xlink:href="#SVGID_3_"  overflow="visible"/>
		</clipPath>
		<rect x="23.4" y="29.8" clip-path="url(#SVGID_4_)" fill="#6E84A8" width="12" height="18"/>
	</g>
</g>
<g>
	<g>
		<defs>
			<rect id="SVGID_5_" x="38.4" y="34.8" width="2" height="8"/>
		</defs>
		<clipPath id="SVGID_6_">
			<use xlink:href="#SVGID_5_"  overflow="visible"/>
		</clipPath>
		<rect x="33.4" y="29.8" clip-path="url(#SVGID_6_)" fill="#6E84A8" width="12" height="18"/>
	</g>
</g>
<g>
	<defs>
		<polygon id="SVGID_7_" points="-121.8,2.8 511.2,2.8 364,326.1 -269,326.1 		"/>
	</defs>
	<clipPath id="SVGID_8_">
		<use xlink:href="#SVGID_7_"  overflow="visible"/>
	</clipPath>
	<g clip-path="url(#SVGID_8_)">
		<defs>
			<rect id="SVGID_9_" x="28.4" y="17.8" width="2" height="15"/>
		</defs>
		<clipPath id="SVGID_10_">
			<use xlink:href="#SVGID_9_"  overflow="visible"/>
		</clipPath>
		<rect x="23.4" y="12.8" clip-path="url(#SVGID_10_)" fill="#6E84A8" width="12" height="25"/>
	</g>
</g>
<g>
	<defs>
		<polygon id="SVGID_11_" points="-121.8,2.8 511.2,2.8 364,326.1 -269,326.1 		"/>
	</defs>
	<clipPath id="SVGID_12_">
		<use xlink:href="#SVGID_11_"  overflow="visible"/>
	</clipPath>
	<g clip-path="url(#SVGID_12_)">
		<defs>
			<rect id="SVGID_13_" x="62.4" y="30.8" width="2" height="12"/>
		</defs>
		<clipPath id="SVGID_14_">
			<use xlink:href="#SVGID_13_"  overflow="visible"/>
		</clipPath>
		<rect x="57.4" y="25.8" clip-path="url(#SVGID_14_)" fill="#6E84A8" width="12" height="22"/>
	</g>
</g>
<g>
	<defs>
		<polygon id="SVGID_15_" points="-121.8,2.8 511.2,2.8 364,326.1 -269,326.1 		"/>
	</defs>
	<clipPath id="SVGID_16_">
		<use xlink:href="#SVGID_15_"  overflow="visible"/>
	</clipPath>
	<g clip-path="url(#SVGID_16_)">
		<defs>
			<rect id="SVGID_17_" x="52.4" y="22.8" width="5" height="2"/>
		</defs>
		<clipPath id="SVGID_18_">
			<use xlink:href="#SVGID_17_"  overflow="visible"/>
		</clipPath>
		<rect x="47.4" y="17.8" clip-path="url(#SVGID_18_)" fill="#6E84A8" width="15" height="12"/>
	</g>
</g>
<g>
	<defs>
		<polygon id="SVGID_19_" points="-121.8,2.8 511.2,2.8 364,326.1 -269,326.1 		"/>
	</defs>
	<clipPath id="SVGID_20_">
		<use xlink:href="#SVGID_19_"  overflow="visible"/>
	</clipPath>
	<g clip-path="url(#SVGID_20_)">
		<defs>
			<rect id="SVGID_21_" x="59.4" y="22.8" width="5" height="2"/>
		</defs>
		<clipPath id="SVGID_22_">
			<use xlink:href="#SVGID_21_"  overflow="visible"/>
		</clipPath>
		<rect x="54.4" y="17.8" clip-path="url(#SVGID_22_)" fill="#6E84A8" width="15" height="12"/>
	</g>
</g>
<g>
	<defs>
		<polygon id="SVGID_23_" points="-121.8,2.8 511.2,2.8 364,326.1 -269,326.1 		"/>
	</defs>
	<clipPath id="SVGID_24_">
		<use xlink:href="#SVGID_23_"  overflow="visible"/>
	</clipPath>
	<g clip-path="url(#SVGID_24_)">
		<defs>
			<rect id="SVGID_25_" x="59.4" y="18.8" width="5" height="2"/>
		</defs>
		<clipPath id="SVGID_26_">
			<use xlink:href="#SVGID_25_"  overflow="visible"/>
		</clipPath>
		<rect x="54.4" y="13.8" clip-path="url(#SVGID_26_)" fill="#6E84A8" width="15" height="12"/>
	</g>
</g>
<g>
	<defs>
		<polygon id="SVGID_27_" points="-121.8,2.8 511.2,2.8 364,326.1 -269,326.1 		"/>
	</defs>
	<clipPath id="SVGID_28_">
		<use xlink:href="#SVGID_27_"  overflow="visible"/>
	</clipPath>
	<g clip-path="url(#SVGID_28_)">
		<defs>
			<rect id="SVGID_29_" x="45.4" y="30.8" width="2" height="12"/>
		</defs>
		<clipPath id="SVGID_30_">
			<use xlink:href="#SVGID_29_"  overflow="visible"/>
		</clipPath>
		<rect x="40.4" y="25.8" clip-path="url(#SVGID_30_)" fill="#6E84A8" width="12" height="22"/>
	</g>
</g>
<g>
	<defs>
		<polygon id="SVGID_31_" points="-121.8,2.8 511.2,2.8 364,326.1 -269,326.1 		"/>
	</defs>
	<clipPath id="SVGID_32_">
		<use xlink:href="#SVGID_31_"  overflow="visible"/>
	</clipPath>
	<g clip-path="url(#SVGID_32_)">
		<defs>
			<path id="SVGID_33_" d="M6.4,4.8c0-1.1,0.9-2,2-2h14c1.1,0,2,0.9,2,2v36c0,1.1-0.9,2-2,2h-14c-1.1,0-2-0.9-2-2V4.8z"/>
		</defs>
		<clipPath id="SVGID_34_">
			<use xlink:href="#SVGID_33_"  overflow="visible"/>
		</clipPath>
		<path clip-path="url(#SVGID_34_)" fill="none" stroke="#6E84A8" stroke-width="4" stroke-miterlimit="10" d="M6.4,4.8
			c0-1.1,0.9-2,2-2h14c1.1,0,2,0.9,2,2v36c0,1.1-0.9,2-2,2h-14c-1.1,0-2-0.9-2-2V4.8z"/>
	</g>
</g>
<g>
	<defs>
		<polygon id="SVGID_35_" points="-121.8,2.8 511.2,2.8 364,326.1 -269,326.1 		"/>
	</defs>
	<clipPath id="SVGID_36_">
		<use xlink:href="#SVGID_35_"  overflow="visible"/>
	</clipPath>
	<g clip-path="url(#SVGID_36_)">
		<defs>
			<rect id="SVGID_37_" x="10.4" y="30.8" width="2" height="8"/>
		</defs>
		<clipPath id="SVGID_38_">
			<use xlink:href="#SVGID_37_"  overflow="visible"/>
		</clipPath>
		<rect x="5.4" y="25.8" clip-path="url(#SVGID_38_)" fill="#6E84A8" width="12" height="18"/>
	</g>
</g>
<g>
	<defs>
		<polygon id="SVGID_39_" points="-121.8,2.8 511.2,2.8 364,326.1 -269,326.1 		"/>
	</defs>
	<clipPath id="SVGID_40_">
		<use xlink:href="#SVGID_39_"  overflow="visible"/>
	</clipPath>
	<g clip-path="url(#SVGID_40_)">
		<defs>
			<rect id="SVGID_41_" x="14.4" y="32.8" width="2" height="6"/>
		</defs>
		<clipPath id="SVGID_42_">
			<use xlink:href="#SVGID_41_"  overflow="visible"/>
		</clipPath>
		<rect x="9.4" y="27.8" clip-path="url(#SVGID_42_)" fill="#6E84A8" width="12" height="16"/>
	</g>
</g>
<g>
	<defs>
		<polygon id="SVGID_43_" points="-121.8,2.8 511.2,2.8 364,326.1 -269,326.1 		"/>
	</defs>
	<clipPath id="SVGID_44_">
		<use xlink:href="#SVGID_43_"  overflow="visible"/>
	</clipPath>
	<g clip-path="url(#SVGID_44_)">
		<defs>
			<rect id="SVGID_45_" x="10.4" y="19.8" width="2" height="5"/>
		</defs>
		<clipPath id="SVGID_46_">
			<use xlink:href="#SVGID_45_"  overflow="visible"/>
		</clipPath>
		<rect x="5.4" y="14.8" clip-path="url(#SVGID_46_)" fill="#6E84A8" width="12" height="15"/>
	</g>
</g>
<g>
	<defs>
		<polygon id="SVGID_47_" points="-121.8,2.8 511.2,2.8 364,326.1 -269,326.1 		"/>
	</defs>
	<clipPath id="SVGID_48_">
		<use xlink:href="#SVGID_47_"  overflow="visible"/>
	</clipPath>
	<g clip-path="url(#SVGID_48_)">
		<defs>
			<rect id="SVGID_49_" x="10.4" y="6.8" width="2" height="5"/>
		</defs>
		<clipPath id="SVGID_50_">
			<use xlink:href="#SVGID_49_"  overflow="visible"/>
		</clipPath>
		<rect x="5.4" y="1.8" clip-path="url(#SVGID_50_)" fill="#6E84A8" width="12" height="15"/>
	</g>
</g>
<g>
	<defs>
		<polygon id="SVGID_51_" points="-121.8,2.8 511.2,2.8 364,326.1 -269,326.1 		"/>
	</defs>
	<clipPath id="SVGID_52_">
		<use xlink:href="#SVGID_51_"  overflow="visible"/>
	</clipPath>
	<g clip-path="url(#SVGID_52_)">
		<defs>
			<rect id="SVGID_53_" x="14.4" y="6.8" width="2" height="5"/>
		</defs>
		<clipPath id="SVGID_54_">
			<use xlink:href="#SVGID_53_"  overflow="visible"/>
		</clipPath>
		<rect x="9.4" y="1.8" clip-path="url(#SVGID_54_)" fill="#6E84A8" width="12" height="15"/>
	</g>
</g>
<g>
	<defs>
		<polygon id="SVGID_55_" points="-121.8,2.8 511.2,2.8 364,326.1 -269,326.1 		"/>
	</defs>
	<clipPath id="SVGID_56_">
		<use xlink:href="#SVGID_55_"  overflow="visible"/>
	</clipPath>
	<g clip-path="url(#SVGID_56_)">
		<defs>
			<rect id="SVGID_57_" x="14.4" y="17.8" width="2" height="7"/>
		</defs>
		<clipPath id="SVGID_58_">
			<use xlink:href="#SVGID_57_"  overflow="visible"/>
		</clipPath>
		<rect x="9.4" y="12.8" clip-path="url(#SVGID_58_)" fill="#6E84A8" width="12" height="17"/>
	</g>
</g>
<g>
	<defs>
		<polygon id="SVGID_59_" points="-121.8,2.8 511.2,2.8 364,326.1 -269,326.1 		"/>
	</defs>
	<clipPath id="SVGID_60_">
		<use xlink:href="#SVGID_59_"  overflow="visible"/>
	</clipPath>
	<g clip-path="url(#SVGID_60_)">
		<defs>
			<rect id="SVGID_61_" x="18.4" y="17.8" width="2" height="7"/>
		</defs>
		<clipPath id="SVGID_62_">
			<use xlink:href="#SVGID_61_"  overflow="visible"/>
		</clipPath>
		<rect x="13.4" y="12.8" clip-path="url(#SVGID_62_)" fill="#6E84A8" width="12" height="17"/>
	</g>
</g>
<g>
	<defs>
		<polygon id="SVGID_63_" points="-121.8,2.8 511.2,2.8 364,326.1 -269,326.1 		"/>
	</defs>
	<clipPath id="SVGID_64_">
		<use xlink:href="#SVGID_63_"  overflow="visible"/>
	</clipPath>
	<g clip-path="url(#SVGID_64_)">
		<defs>
			<rect id="SVGID_65_" x="18.4" y="32.8" width="2" height="6"/>
		</defs>
		<clipPath id="SVGID_66_">
			<use xlink:href="#SVGID_65_"  overflow="visible"/>
		</clipPath>
		<rect x="13.4" y="27.8" clip-path="url(#SVGID_66_)" fill="#6E84A8" width="12" height="16"/>
	</g>
</g>
<g>
	<defs>
		<polygon id="SVGID_67_" points="-121.8,2.8 511.2,2.8 364,326.1 -269,326.1 		"/>
	</defs>
	<clipPath id="SVGID_68_">
		<use xlink:href="#SVGID_67_"  overflow="visible"/>
	</clipPath>
	<g clip-path="url(#SVGID_68_)">
		<defs>
			<path id="SVGID_69_" d="M6.4,28.8c0-1.1,0.9-2,2-2h14c1.1,0,2,0.9,2,2v3.4v8.6c0,1.1-0.9,2-2,2h-14c-1.1,0-2-0.9-2-2V28.8z"/>
		</defs>
		<clipPath id="SVGID_70_">
			<use xlink:href="#SVGID_69_"  overflow="visible"/>
		</clipPath>
		<path clip-path="url(#SVGID_70_)" fill="none" stroke="#6E84A8" stroke-width="4" stroke-miterlimit="10" d="M6.4,28.8
			c0-1.1,0.9-2,2-2h14c1.1,0,2,0.9,2,2v3.4v8.6c0,1.1-0.9,2-2,2h-14c-1.1,0-2-0.9-2-2V28.8z"/>
	</g>
</g>
<g>
	<defs>
		<polygon id="SVGID_71_" points="-121.8,2.8 511.2,2.8 364,326.1 -269,326.1 		"/>
	</defs>
	<clipPath id="SVGID_72_">
		<use xlink:href="#SVGID_71_"  overflow="visible"/>
	</clipPath>
	<g clip-path="url(#SVGID_72_)">
		<defs>
			<path id="SVGID_73_" d="M6.4,15.8c0-1.1,0.9-2,2-2h14c1.1,0,2,0.9,2,2v25c0,1.1-0.9,2-2,2h-14c-1.1,0-2-0.9-2-2V15.8z"/>
		</defs>
		<clipPath id="SVGID_74_">
			<use xlink:href="#SVGID_73_"  overflow="visible"/>
		</clipPath>
		<path clip-path="url(#SVGID_74_)" fill="none" stroke="#6E84A8" stroke-width="4" stroke-miterlimit="10" d="M6.4,15.8
			c0-1.1,0.9-2,2-2h14c1.1,0,2,0.9,2,2v25c0,1.1-0.9,2-2,2h-14c-1.1,0-2-0.9-2-2V15.8z"/>
	</g>
</g>
<g>
	<defs>
		<polygon id="SVGID_75_" points="-121.8,2.8 511.2,2.8 364,326.1 -269,326.1 		"/>
	</defs>
	<clipPath id="SVGID_76_">
		<use xlink:href="#SVGID_75_"  overflow="visible"/>
	</clipPath>
	<g clip-path="url(#SVGID_76_)">
		<defs>
			<rect id="SVGID_77_" x="43.4" y="26.8" width="23" height="2"/>
		</defs>
		<clipPath id="SVGID_78_">
			<use xlink:href="#SVGID_77_"  overflow="visible"/>
		</clipPath>
		<rect x="38.4" y="21.8" clip-path="url(#SVGID_78_)" fill="#6E84A8" width="33" height="12"/>
	</g>
</g>
</svg>
