<?xml version="1.0" encoding="utf-8"?>
<!-- Generator: Adobe Illustrator 18.1.1, SVG Export Plug-In . SVG Version: 6.00 Build 0)  -->
<svg version="1.1" id="Layer_1" xmlns="http://www.w3.org/2000/svg" xmlns:xlink="http://www.w3.org/1999/xlink" x="0px" y="0px"
	 viewBox="0 0 518 527" enable-background="new 0 0 518 527" xml:space="preserve">
<g>
	<g>
		<defs>
			<rect id="SVGID_1_" x="0" y="120.7" width="150.9" height="285.7"/>
		</defs>
		<clipPath id="SVGID_2_">
			<use xlink:href="#SVGID_1_"  overflow="visible"/>
		</clipPath>
		<g clip-path="url(#SVGID_2_)">
			<g>
				<g>
					<g>
						<defs>
							<path id="SVGID_3_" d="M105.3,180.9V134c0-2.5-1.8-4.5-4-4.5H49.7c-2.2,0-4,2-4,4.5v46.9H105.3z"/>
						</defs>
						<clipPath id="SVGID_4_">
							<use xlink:href="#SVGID_3_"  overflow="visible"/>
						</clipPath>
					</g>
				</g>
				<g>
					<g>
						<defs>
							<path id="SVGID_5_" d="M37.7,189.8v-13.4c0-1.2-0.9-2.2-2-2.2h-7.9c-1.1,0-2,1-2,2.2v13.4H37.7z"/>
						</defs>
						<clipPath id="SVGID_6_">
							<use xlink:href="#SVGID_5_"  overflow="visible"/>
						</clipPath>
					</g>
				</g>
				<g>
					<g>
						<defs>
							<path id="SVGID_7_" d="M125.1,189.8v-13.4c0-1.2-0.9-2.2-2-2.2h-7.9c-1.1,0-2,1-2,2.2v13.4H125.1z"/>
						</defs>
						<clipPath id="SVGID_8_">
							<use xlink:href="#SVGID_7_"  overflow="visible"/>
						</clipPath>
					</g>
				</g>
			</g>
			<g>
				<g>
					<defs>
						<path id="SVGID_9_" d="M105.3,346.1V393c0,2.5-1.8,4.5-4,4.5H49.7c-2.2,0-4-2-4-4.5v-46.9H105.3z"/>
					</defs>
					<clipPath id="SVGID_10_">
						<use xlink:href="#SVGID_9_"  overflow="visible"/>
					</clipPath>
				</g>
			</g>
			<g>
				<g>
					<defs>
						<path id="SVGID_11_" d="M132,337.2H18.9c-2.8,0-5-2.2-5-5V194.8c0-2.8,2.2-5,5-5H132c2.8,0,5,2.2,5,5v137.3
							C137,334.9,134.8,337.2,132,337.2z"/>
					</defs>
					<clipPath id="SVGID_12_">
						<use xlink:href="#SVGID_11_"  overflow="visible"/>
					</clipPath>
				</g>
				<g>
					<g>
						<defs>
							<rect id="SVGID_13_" x="37.7" y="216.6" width="75.5" height="93.7"/>
						</defs>
						<clipPath id="SVGID_14_">
							<use xlink:href="#SVGID_13_"  overflow="visible"/>
						</clipPath>
					</g>
				</g>
			</g>
		</g>
	</g>
	<g>
		<defs>
			<rect id="SVGID_15_" x="0" y="120.7" width="150.9" height="285.7"/>
		</defs>
		<clipPath id="SVGID_16_">
			<use xlink:href="#SVGID_15_"  overflow="visible"/>
		</clipPath>
		<g clip-path="url(#SVGID_16_)">
			<g>
				<path fill="#453F3C" d="M139,252.3h7.9c2.2,0,4,2,4,4.5v17.9c0,2.5-1.8,4.5-4,4.5H139V252.3z"/>
				<path fill="#453F3C" d="M139,216.6h7.9c2.2,0,4,2,4,4.5v22.3c0,2.5-1.8,4.5-4,4.5H139V216.6z"/>
				<path fill="#453F3C" d="M139,283.6h7.9c2.2,0,4,2,4,4.5v17.9c0,2.5-1.8,4.5-4,4.5H139V283.6z"/>
				<path fill="#453F3C" d="M11.9,216.6H4c-2.2,0-4,2-4,4.5v22.3c0,2.5,1.8,4.5,4,4.5h7.9V216.6z"/>
			</g>
			<g>
				<g>
					<path fill="#453F3C" d="M113.2,189.8V134c0-7.4-5.3-13.4-11.9-13.4H49.7c-6.6,0-11.9,6-11.9,13.4v55.8H113.2z"/>
					<path fill="#CCC4C4" d="M105.3,180.9V134c0-2.5-1.8-4.5-4-4.5H49.7c-2.2,0-4,2-4,4.5v46.9H105.3z"/>
					<rect x="45.7" y="172" opacity="0.2" width="59.6" height="8.9"/>
					<g>
						<defs>
							<path id="SVGID_17_" d="M105.3,180.9V134c0-2.5-1.8-4.5-4-4.5H49.7c-2.2,0-4,2-4,4.5v46.9H105.3z"/>
						</defs>
						<clipPath id="SVGID_18_">
							<use xlink:href="#SVGID_17_"  overflow="visible"/>
						</clipPath>
						<rect x="37.7" y="120.7" opacity="0.8" clip-path="url(#SVGID_18_)" fill="#FFFFFF" width="75.5" height="13.4"/>
					</g>
					<g>
						<rect x="83.4" y="134" opacity="0.8" fill="#FFFFFF" width="4" height="37.9"/>
						<rect x="91.4" y="134" opacity="0.8" fill="#FFFFFF" width="2" height="37.9"/>
					</g>
				</g>
				<g>
					<path fill="#453F3C" d="M45.7,189.8v-15.6c0-4.9-3.6-8.9-7.9-8.9H25.8c-4.4,0-7.9,4-7.9,8.9v15.6H45.7z"/>
					<path fill="#CCC4C4" d="M37.7,189.8v-13.4c0-1.2-0.9-2.2-2-2.2h-7.9c-1.1,0-2,1-2,2.2v13.4H37.7z"/>
					<g>
						<defs>
							<path id="SVGID_19_" d="M37.7,189.8v-13.4c0-1.2-0.9-2.2-2-2.2h-7.9c-1.1,0-2,1-2,2.2v13.4H37.7z"/>
						</defs>
						<clipPath id="SVGID_20_">
							<use xlink:href="#SVGID_19_"  overflow="visible"/>
						</clipPath>
						<rect x="25.8" y="174.2" opacity="0.6" clip-path="url(#SVGID_20_)" fill="#FFFFFF" width="11.9" height="4.5"/>
					</g>
				</g>
				<g>
					<path fill="#453F3C" d="M133.1,189.8v-15.6c0-4.9-3.6-8.9-7.9-8.9h-11.9c-4.4,0-7.9,4-7.9,8.9v15.6H133.1z"/>
					<path fill="#CCC4C4" d="M125.1,189.8v-13.4c0-1.2-0.9-2.2-2-2.2h-7.9c-1.1,0-2,1-2,2.2v13.4H125.1z"/>
					<g>
						<defs>
							<path id="SVGID_21_" d="M125.1,189.8v-13.4c0-1.2-0.9-2.2-2-2.2h-7.9c-1.1,0-2,1-2,2.2v13.4H125.1z"/>
						</defs>
						<clipPath id="SVGID_22_">
							<use xlink:href="#SVGID_21_"  overflow="visible"/>
						</clipPath>
						<rect x="113.2" y="174.2" opacity="0.6" clip-path="url(#SVGID_22_)" fill="#FFFFFF" width="11.9" height="4.5"/>
					</g>
				</g>
			</g>
			<g>
				<g>
					<path fill="#453F3C" d="M113.2,337.2V393c0,7.4-5.3,13.4-11.9,13.4H49.7c-6.6,0-11.9-6-11.9-13.4v-55.8H113.2z"/>
					<path fill="#CCC4C4" d="M105.3,346.1V393c0,2.5-1.8,4.5-4,4.5H49.7c-2.2,0-4-2-4-4.5v-46.9H105.3z"/>
					<rect x="45.7" y="346.1" opacity="0.2" width="59.6" height="8.9"/>
					<g>
						<defs>
							<path id="SVGID_23_" d="M105.3,346.1V393c0,2.5-1.8,4.5-4,4.5H49.7c-2.2,0-4-2-4-4.5v-46.9H105.3z"/>
						</defs>
						<clipPath id="SVGID_24_">
							<use xlink:href="#SVGID_23_"  overflow="visible"/>
						</clipPath>
						<rect x="37.7" y="393" opacity="0.2" clip-path="url(#SVGID_24_)" width="75.5" height="13.4"/>
					</g>
					<g>
						<rect x="83.4" y="355" opacity="0.8" fill="#FFFFFF" width="4" height="37.9"/>
						<rect x="91.4" y="355" opacity="0.8" fill="#FFFFFF" width="2" height="37.9"/>
					</g>
				</g>
				<g>
					<path fill="#453F3C" d="M45.7,337.2v15.6c0,4.9-3.6,8.9-7.9,8.9H25.8c-4.4,0-7.9-4-7.9-8.9v-15.6H45.7z"/>
					<path fill="#CCC4C4" d="M37.7,337.2v13.4c0,1.2-0.9,2.2-2,2.2h-7.9c-1.1,0-2-1-2-2.2v-13.4H37.7z"/>
					<rect x="25.8" y="337.2" opacity="0.2" width="11.9" height="13.4"/>
				</g>
				<g>
					<path fill="#453F3C" d="M133.1,337.2v15.6c0,4.9-3.6,8.9-7.9,8.9h-11.9c-4.4,0-7.9-4-7.9-8.9v-15.6H133.1z"/>
					<path fill="#CCC4C4" d="M125.1,337.2v13.4c0,1.2-0.9,2.2-2,2.2h-7.9c-1.1,0-2-1-2-2.2v-13.4H125.1z"/>
					<rect x="113.2" y="337.2" opacity="0.2" width="11.9" height="13.4"/>
				</g>
			</g>
			<g>
				<path fill="#453F3C" d="M145,314.8c0,17.3-12.4,31.2-27.8,31.2H33.8c-15.4,0-27.8-14-27.8-31.2V212.2
					c0-17.3,12.4-31.2,27.8-31.2h83.4c15.4,0,27.8,14,27.8,31.2V314.8z"/>
				<path fill="#EDEDED" d="M132,337.2H18.9c-2.8,0-5-2.2-5-5V194.8c0-2.8,2.2-5,5-5H132c2.8,0,5,2.2,5,5v137.3
					C137,334.9,134.8,337.2,132,337.2z"/>
				<g>
					<defs>
						<path id="SVGID_25_" d="M132,337.2H18.9c-2.8,0-5-2.2-5-5V194.8c0-2.8,2.2-5,5-5H132c2.8,0,5,2.2,5,5v137.3
							C137,334.9,134.8,337.2,132,337.2z"/>
					</defs>
					<clipPath id="SVGID_26_">
						<use xlink:href="#SVGID_25_"  overflow="visible"/>
					</clipPath>
					<rect x="6" y="180.9" opacity="0.8" clip-path="url(#SVGID_26_)" fill="#FFFFFF" width="139" height="13.4"/>
					<rect x="6" y="332.7" opacity="0.2" clip-path="url(#SVGID_26_)" width="139" height="13.4"/>
				</g>
				<g>
					<rect x="95.3" y="194.3" opacity="0.8" fill="#FFFFFF" width="4" height="138.4"/>
					<rect x="103.3" y="194.3" opacity="0.8" fill="#FFFFFF" width="2" height="138.4"/>
				</g>
				<g>
					<path fill="#453F3C" d="M123.1,323.8H27.8c-1.1,0-2-0.9-2-2V205.2c0-1.1,0.9-2,2-2h95.3c1.1,0,2,0.9,2,2v116.5
						C125.1,322.9,124.2,323.8,123.1,323.8z"/>
					<g>
						<defs>
							<rect id="SVGID_27_" x="37.7" y="216.6" width="75.5" height="93.7"/>
						</defs>
						<clipPath id="SVGID_28_">
							<use xlink:href="#SVGID_27_"  overflow="visible"/>
						</clipPath>
						<g opacity="0.2" clip-path="url(#SVGID_28_)">
							<path fill="#FFFFFF" d="M25.8,339.4H2l150.9-151.8h23.8L25.8,339.4z"/>
							<path fill="#FFFFFF" d="M-17.9,339.4h-7.9l150.9-151.8h7.9L-17.9,339.4z"/>
						</g>
					</g>
				</g>
			</g>
		</g>
	</g>
	<g>
		<defs>
			<rect id="SVGID_29_" x="0" y="120.7" width="150.9" height="285.7"/>
		</defs>
		<clipPath id="SVGID_30_">
			<use xlink:href="#SVGID_29_"  overflow="visible"/>
		</clipPath>
		<g clip-path="url(#SVGID_30_)">
			<g>
				<g>
					<g>
						<defs>
							<path id="SVGID_31_" d="M105.3,180.9V134c0-2.5-1.8-4.5-4-4.5H49.7c-2.2,0-4,2-4,4.5v46.9H105.3z"/>
						</defs>
						<clipPath id="SVGID_32_">
							<use xlink:href="#SVGID_31_"  overflow="visible"/>
						</clipPath>
					</g>
				</g>
				<g>
					<g>
						<defs>
							<path id="SVGID_33_" d="M37.7,189.8v-13.4c0-1.2-0.9-2.2-2-2.2h-7.9c-1.1,0-2,1-2,2.2v13.4H37.7z"/>
						</defs>
						<clipPath id="SVGID_34_">
							<use xlink:href="#SVGID_33_"  overflow="visible"/>
						</clipPath>
					</g>
				</g>
				<g>
					<g>
						<defs>
							<path id="SVGID_35_" d="M125.1,189.8v-13.4c0-1.2-0.9-2.2-2-2.2h-7.9c-1.1,0-2,1-2,2.2v13.4H125.1z"/>
						</defs>
						<clipPath id="SVGID_36_">
							<use xlink:href="#SVGID_35_"  overflow="visible"/>
						</clipPath>
					</g>
				</g>
			</g>
			<g>
				<g>
					<defs>
						<path id="SVGID_37_" d="M105.3,346.1V393c0,2.5-1.8,4.5-4,4.5H49.7c-2.2,0-4-2-4-4.5v-46.9H105.3z"/>
					</defs>
					<clipPath id="SVGID_38_">
						<use xlink:href="#SVGID_37_"  overflow="visible"/>
					</clipPath>
				</g>
			</g>
			<g>
				<g>
					<defs>
						<path id="SVGID_39_" d="M132,337.2H18.9c-2.8,0-5-2.2-5-5V194.8c0-2.8,2.2-5,5-5H132c2.8,0,5,2.2,5,5v137.3
							C137,334.9,134.8,337.2,132,337.2z"/>
					</defs>
					<clipPath id="SVGID_40_">
						<use xlink:href="#SVGID_39_"  overflow="visible"/>
					</clipPath>
				</g>
				<g>
					<g>
						<defs>
							<rect id="SVGID_41_" x="37.7" y="216.6" width="75.5" height="93.7"/>
						</defs>
						<clipPath id="SVGID_42_">
							<use xlink:href="#SVGID_41_"  overflow="visible"/>
						</clipPath>
					</g>
				</g>
			</g>
		</g>
	</g>
</g>
<g>
	<g>
		<defs>
			<path id="SVGID_43_" d="M499,144.5H278.9c-10.8,0-19.6,8.3-19.6,18.5v171.6c0,10.2,8.8,18.5,19.6,18.5h68.5l-4.9,23.2
				c-8.1,0-14.7,6.2-14.7,13.9v13.9h122.3v-13.9c0-7.7-6.6-13.9-14.7-13.9l-4.9-23.2H499c10.8,0,19.6-8.3,19.6-18.5V163.1
				C518.6,152.9,509.8,144.5,499,144.5z"/>
		</defs>
		<clipPath id="SVGID_44_">
			<use xlink:href="#SVGID_43_"  overflow="visible"/>
		</clipPath>
		<g clip-path="url(#SVGID_44_)">
			<g>
				<g>
					<g>
						<defs>
							<polygon id="SVGID_45_" points="425.6,376.4 352.3,376.4 357.2,353.2 420.7,353.2 							"/>
						</defs>
						<clipPath id="SVGID_46_">
							<use xlink:href="#SVGID_45_"  overflow="visible"/>
						</clipPath>
					</g>
				</g>
				<g>
					<g>
						<defs>
							<path id="SVGID_47_" d="M337.6,394.9v-4.6c0-2.6,2.2-4.6,4.9-4.6h92.9c2.7,0,4.9,2.1,4.9,4.6v4.6H337.6z"/>
						</defs>
						<clipPath id="SVGID_48_">
							<use xlink:href="#SVGID_47_"  overflow="visible"/>
						</clipPath>
					</g>
				</g>
			</g>
			<g>
				<g>
					<defs>
						<path id="SVGID_49_" d="M506.8,343.9H271.1c-1.1,0-2-0.9-2-2V155.8c0-1.1,0.9-2,2-2h235.7c1.1,0,2,0.9,2,2v186.1
							C508.8,343,507.9,343.9,506.8,343.9z"/>
					</defs>
					<clipPath id="SVGID_50_">
						<use xlink:href="#SVGID_49_"  overflow="visible"/>
					</clipPath>
				</g>
				<g>
					<g>
						<defs>
							<rect id="SVGID_51_" x="293.6" y="177" width="190.8" height="102"/>
						</defs>
						<clipPath id="SVGID_52_">
							<use xlink:href="#SVGID_51_"  overflow="visible"/>
						</clipPath>
					</g>
				</g>
			</g>
		</g>
	</g>
	<g>
		<defs>
			<path id="SVGID_53_" d="M499,144.5H278.9c-10.8,0-19.6,8.3-19.6,18.5v171.6c0,10.2,8.8,18.5,19.6,18.5h68.5l-4.9,23.2
				c-8.1,0-14.7,6.2-14.7,13.9v13.9h122.3v-13.9c0-7.7-6.6-13.9-14.7-13.9l-4.9-23.2H499c10.8,0,19.6-8.3,19.6-18.5V163.1
				C518.6,152.9,509.8,144.5,499,144.5z"/>
		</defs>
		<clipPath id="SVGID_54_">
			<use xlink:href="#SVGID_53_"  overflow="visible"/>
		</clipPath>
		<g clip-path="url(#SVGID_54_)">
			<g>
				<g>
					<polygon fill="#453F3C" points="435.4,376.4 342.5,376.4 347.4,353.2 430.5,353.2 					"/>
					<polygon fill="#CCC4C4" points="425.6,376.4 352.3,376.4 357.2,353.2 420.7,353.2 					"/>
					<g>
						<defs>
							<polygon id="SVGID_55_" points="425.6,376.4 352.3,376.4 357.2,353.2 420.7,353.2 							"/>
						</defs>
						<clipPath id="SVGID_56_">
							<use xlink:href="#SVGID_55_"  overflow="visible"/>
						</clipPath>
						<rect x="340" y="353.2" opacity="0.24" clip-path="url(#SVGID_56_)" width="97.8" height="9.3"/>
					</g>
					<g>
						<rect x="398.7" y="362.5" opacity="0.8" fill="#FFFFFF" width="4.9" height="13.9"/>
						<rect x="408.5" y="362.5" opacity="0.8" fill="#FFFFFF" width="2.4" height="13.9"/>
					</g>
				</g>
				<g>
					<path fill="#453F3C" d="M327.8,404.2v-13.9c0-7.7,6.6-13.9,14.7-13.9h92.9c8.1,0,14.7,6.2,14.7,13.9v13.9H327.8z"/>
					<path fill="#EDEDED" d="M337.6,394.9v-4.6c0-2.6,2.2-4.6,4.9-4.6h92.9c2.7,0,4.9,2.1,4.9,4.6v4.6H337.6z"/>
					<g>
						<defs>
							<path id="SVGID_57_" d="M337.6,394.9v-4.6c0-2.6,2.2-4.6,4.9-4.6h92.9c2.7,0,4.9,2.1,4.9,4.6v4.6H337.6z"/>
						</defs>
						<clipPath id="SVGID_58_">
							<use xlink:href="#SVGID_57_"  overflow="visible"/>
						</clipPath>
						<rect x="327.8" y="383.3" opacity="0.8" clip-path="url(#SVGID_58_)" fill="#FFFFFF" width="117.4" height="7"/>
					</g>
					<g>
						<rect x="408.5" y="390.3" opacity="0.8" fill="#FFFFFF" width="4.9" height="4.6"/>
						<rect x="418.3" y="390.3" opacity="0.8" fill="#FFFFFF" width="2.4" height="4.6"/>
					</g>
				</g>
			</g>
			<g>
				<path fill="#453F3C" d="M278.9,353.2c-10.8,0-19.6-8.3-19.6-18.5V163.1c0-10.2,8.8-18.5,19.6-18.5H499
					c10.8,0,19.6,8.3,19.6,18.5v171.6c0,10.2-8.8,18.5-19.6,18.5H278.9z"/>
				<path fill="#EDEDED" d="M506.8,343.9H271.1c-1.1,0-2-0.9-2-2V155.8c0-1.1,0.9-2,2-2h235.7c1.1,0,2,0.9,2,2v186.1
					C508.8,343,507.9,343.9,506.8,343.9z"/>
				<ellipse fill="#453F3C" cx="389" cy="316.1" rx="7.3" ry="7"/>
				<g>
					<defs>
						<path id="SVGID_59_" d="M506.8,343.9H271.1c-1.1,0-2-0.9-2-2V155.8c0-1.1,0.9-2,2-2h235.7c1.1,0,2,0.9,2,2v186.1
							C508.8,343,507.9,343.9,506.8,343.9z"/>
					</defs>
					<clipPath id="SVGID_60_">
						<use xlink:href="#SVGID_59_"  overflow="visible"/>
					</clipPath>
					<rect x="259.3" y="144.5" opacity="0.8" clip-path="url(#SVGID_60_)" fill="#FFFFFF" width="259.2" height="13.9"/>
					<rect x="259.3" y="339.3" opacity="0.24" clip-path="url(#SVGID_60_)" width="259.2" height="13.9"/>
				</g>
				<g>
					<path fill="#453F3C" d="M288.2,353.2h-3.9c-0.3,0-0.5-0.2-0.5-0.5v-12.9c0-0.3,0.2-0.5,0.5-0.5h3.9c0.3,0,0.5,0.2,0.5,0.5v12.9
						C288.7,353,288.5,353.2,288.2,353.2z"/>
					<path fill="#453F3C" d="M298,353.2h-3.9c-0.3,0-0.5-0.2-0.5-0.5v-12.9c0-0.3,0.2-0.5,0.5-0.5h3.9c0.3,0,0.5,0.2,0.5,0.5v12.9
						C298.5,353,298.2,353.2,298,353.2z"/>
					<path fill="#453F3C" d="M307.7,353.2h-3.9c-0.3,0-0.5-0.2-0.5-0.5v-12.9c0-0.3,0.2-0.5,0.5-0.5h3.9c0.3,0,0.5,0.2,0.5,0.5v12.9
						C308.2,353,308,353.2,307.7,353.2z"/>
					<path fill="#453F3C" d="M317.5,353.2h-3.9c-0.3,0-0.5-0.2-0.5-0.5v-12.9c0-0.3,0.2-0.5,0.5-0.5h3.9c0.3,0,0.5,0.2,0.5,0.5v12.9
						C318,353,317.8,353.2,317.5,353.2z"/>
					<path fill="#453F3C" d="M327.3,353.2h-3.9c-0.3,0-0.5-0.2-0.5-0.5v-12.9c0-0.3,0.2-0.5,0.5-0.5h3.9c0.3,0,0.5,0.2,0.5,0.5v12.9
						C327.8,353,327.6,353.2,327.3,353.2z"/>
					<path fill="#453F3C" d="M337.1,353.2h-3.9c-0.3,0-0.5-0.2-0.5-0.5v-12.9c0-0.3,0.2-0.5,0.5-0.5h3.9c0.3,0,0.5,0.2,0.5,0.5v12.9
						C337.6,353,337.4,353.2,337.1,353.2z"/>
					<path fill="#453F3C" d="M346.9,353.2H343c-0.3,0-0.5-0.2-0.5-0.5v-12.9c0-0.3,0.2-0.5,0.5-0.5h3.9c0.3,0,0.5,0.2,0.5,0.5v12.9
						C347.4,353,347.1,353.2,346.9,353.2z"/>
					<path fill="#453F3C" d="M356.7,353.2h-3.9c-0.3,0-0.5-0.2-0.5-0.5v-12.9c0-0.3,0.2-0.5,0.5-0.5h3.9c0.3,0,0.5,0.2,0.5,0.5v12.9
						C357.2,353,356.9,353.2,356.7,353.2z"/>
					<path fill="#453F3C" d="M366.4,353.2h-3.9c-0.3,0-0.5-0.2-0.5-0.5v-12.9c0-0.3,0.2-0.5,0.5-0.5h3.9c0.3,0,0.5,0.2,0.5,0.5v12.9
						C366.9,353,366.7,353.2,366.4,353.2z"/>
					<path fill="#453F3C" d="M376.2,353.2h-3.9c-0.3,0-0.5-0.2-0.5-0.5v-12.9c0-0.3,0.2-0.5,0.5-0.5h3.9c0.3,0,0.5,0.2,0.5,0.5v12.9
						C376.7,353,376.5,353.2,376.2,353.2z"/>
					<path fill="#453F3C" d="M386,353.2h-3.9c-0.3,0-0.5-0.2-0.5-0.5v-12.9c0-0.3,0.2-0.5,0.5-0.5h3.9c0.3,0,0.5,0.2,0.5,0.5v12.9
						C386.5,353,386.3,353.2,386,353.2z"/>
					<path fill="#453F3C" d="M395.8,353.2h-3.9c-0.3,0-0.5-0.2-0.5-0.5v-12.9c0-0.3,0.2-0.5,0.5-0.5h3.9c0.3,0,0.5,0.2,0.5,0.5v12.9
						C396.3,353,396.1,353.2,395.8,353.2z"/>
					<path fill="#453F3C" d="M405.6,353.2h-3.9c-0.3,0-0.5-0.2-0.5-0.5v-12.9c0-0.3,0.2-0.5,0.5-0.5h3.9c0.3,0,0.5,0.2,0.5,0.5v12.9
						C406.1,353,405.8,353.2,405.6,353.2z"/>
					<path fill="#453F3C" d="M415.4,353.2h-3.9c-0.3,0-0.5-0.2-0.5-0.5v-12.9c0-0.3,0.2-0.5,0.5-0.5h3.9c0.3,0,0.5,0.2,0.5,0.5v12.9
						C415.9,353,415.6,353.2,415.4,353.2z"/>
					<path fill="#453F3C" d="M425.1,353.2h-3.9c-0.3,0-0.5-0.2-0.5-0.5v-12.9c0-0.3,0.2-0.5,0.5-0.5h3.9c0.3,0,0.5,0.2,0.5,0.5v12.9
						C425.6,353,425.4,353.2,425.1,353.2z"/>
					<path fill="#453F3C" d="M434.9,353.2H431c-0.3,0-0.5-0.2-0.5-0.5v-12.9c0-0.3,0.2-0.5,0.5-0.5h3.9c0.3,0,0.5,0.2,0.5,0.5v12.9
						C435.4,353,435.2,353.2,434.9,353.2z"/>
					<path fill="#453F3C" d="M444.7,353.2h-3.9c-0.3,0-0.5-0.2-0.5-0.5v-12.9c0-0.3,0.2-0.5,0.5-0.5h3.9c0.3,0,0.5,0.2,0.5,0.5v12.9
						C445.2,353,445,353.2,444.7,353.2z"/>
					<path fill="#453F3C" d="M454.5,353.2h-3.9c-0.3,0-0.5-0.2-0.5-0.5v-12.9c0-0.3,0.2-0.5,0.5-0.5h3.9c0.3,0,0.5,0.2,0.5,0.5v12.9
						C455,353,454.8,353.2,454.5,353.2z"/>
					<path fill="#453F3C" d="M464.3,353.2h-3.9c-0.3,0-0.5-0.2-0.5-0.5v-12.9c0-0.3,0.2-0.5,0.5-0.5h3.9c0.3,0,0.5,0.2,0.5,0.5v12.9
						C464.8,353,464.5,353.2,464.3,353.2z"/>
					<path fill="#453F3C" d="M474,353.2h-3.9c-0.3,0-0.5-0.2-0.5-0.5v-12.9c0-0.3,0.2-0.5,0.5-0.5h3.9c0.3,0,0.5,0.2,0.5,0.5v12.9
						C474.5,353,474.3,353.2,474,353.2z"/>
					<path fill="#453F3C" d="M483.8,353.2h-3.9c-0.3,0-0.5-0.2-0.5-0.5v-12.9c0-0.3,0.2-0.5,0.5-0.5h3.9c0.3,0,0.5,0.2,0.5,0.5v12.9
						C484.3,353,484.1,353.2,483.8,353.2z"/>
					<path fill="#453F3C" d="M493.6,353.2h-3.9c-0.3,0-0.5-0.2-0.5-0.5v-12.9c0-0.3,0.2-0.5,0.5-0.5h3.9c0.3,0,0.5,0.2,0.5,0.5v12.9
						C494.1,353,493.9,353.2,493.6,353.2z"/>
				</g>
				<g>
					<rect x="452.5" y="158.4" opacity="0.8" fill="#FFFFFF" width="4.9" height="180.8"/>
					<rect x="462.3" y="158.4" opacity="0.8" fill="#FFFFFF" width="2.4" height="180.8"/>
				</g>
				<g>
					<rect x="283.8" y="167.7" fill="#453F3C" width="210.3" height="120.6"/>
					<g>
						<defs>
							<rect id="SVGID_61_" x="293.6" y="177" width="190.8" height="102"/>
						</defs>
						<clipPath id="SVGID_62_">
							<use xlink:href="#SVGID_61_"  overflow="visible"/>
						</clipPath>
						<g opacity="0.2" clip-path="url(#SVGID_62_)">
							<path fill="#FFFFFF" d="M357.2,288.3h-29.3L455,167.7h29.3L357.2,288.3z"/>
							<path fill="#FFFFFF" d="M303.4,288.3h-9.8l127.2-120.6h9.8L303.4,288.3z"/>
						</g>
					</g>
				</g>
			</g>
		</g>
	</g>
	<g>
		<defs>
			<path id="SVGID_63_" d="M499,144.5H278.9c-10.8,0-19.6,8.3-19.6,18.5v171.6c0,10.2,8.8,18.5,19.6,18.5h68.5l-4.9,23.2
				c-8.1,0-14.7,6.2-14.7,13.9v13.9h122.3v-13.9c0-7.7-6.6-13.9-14.7-13.9l-4.9-23.2H499c10.8,0,19.6-8.3,19.6-18.5V163.1
				C518.6,152.9,509.8,144.5,499,144.5z"/>
		</defs>
		<clipPath id="SVGID_64_">
			<use xlink:href="#SVGID_63_"  overflow="visible"/>
		</clipPath>
		<g clip-path="url(#SVGID_64_)">
			<g>
				<g>
					<g>
						<defs>
							<polygon id="SVGID_65_" points="425.6,376.4 352.3,376.4 357.2,353.2 420.7,353.2 							"/>
						</defs>
						<clipPath id="SVGID_66_">
							<use xlink:href="#SVGID_65_"  overflow="visible"/>
						</clipPath>
					</g>
				</g>
				<g>
					<g>
						<defs>
							<path id="SVGID_67_" d="M337.6,394.9v-4.6c0-2.6,2.2-4.6,4.9-4.6h92.9c2.7,0,4.9,2.1,4.9,4.6v4.6H337.6z"/>
						</defs>
						<clipPath id="SVGID_68_">
							<use xlink:href="#SVGID_67_"  overflow="visible"/>
						</clipPath>
					</g>
				</g>
			</g>
			<g>
				<g>
					<defs>
						<path id="SVGID_69_" d="M506.8,343.9H271.1c-1.1,0-2-0.9-2-2V155.8c0-1.1,0.9-2,2-2h235.7c1.1,0,2,0.9,2,2v186.1
							C508.8,343,507.9,343.9,506.8,343.9z"/>
					</defs>
					<clipPath id="SVGID_70_">
						<use xlink:href="#SVGID_69_"  overflow="visible"/>
					</clipPath>
				</g>
				<g>
					<g>
						<defs>
							<rect id="SVGID_71_" x="293.6" y="177" width="190.8" height="102"/>
						</defs>
						<clipPath id="SVGID_72_">
							<use xlink:href="#SVGID_71_"  overflow="visible"/>
						</clipPath>
					</g>
				</g>
			</g>
		</g>
	</g>
</g>
</svg>
