<?xml version="1.0" encoding="utf-8"?>
<!-- Generator: Adobe Illustrator 18.1.1, SVG Export Plug-In . SVG Version: 6.00 Build 0)  -->
<svg version="1.1" id="Layer_1" xmlns="http://www.w3.org/2000/svg" xmlns:xlink="http://www.w3.org/1999/xlink" x="0px" y="0px"
	 viewBox="0 0 70.8 48" enable-background="new 0 0 70.8 48" xml:space="preserve">
<path fill-rule="evenodd" clip-rule="evenodd" fill="none" d="M58-66"/>
<path fill-rule="evenodd" clip-rule="evenodd" fill="none" d="M58,362"/>
<g>
	<defs>
		<path id="SVGID_1_" d="M3,30c0-3.3,2.7-6,6-6h28c3.3,0,6,2.7,6,6v2c0,3.3-2.7,6-6,6H9c-3.3,0-6-2.7-6-6V30z"/>
	</defs>
	<clipPath id="SVGID_2_">
		<use xlink:href="#SVGID_1_"  overflow="visible"/>
	</clipPath>
	<path clip-path="url(#SVGID_2_)" fill="none" stroke="#6E84A8" stroke-width="4" stroke-miterlimit="10" d="M3,30c0-3.3,2.7-6,6-6
		h28c3.3,0,6,2.7,6,6v2c0,3.3-2.7,6-6,6H9c-3.3,0-6-2.7-6-6V30z"/>
</g>
<g>
	<defs>
		<path id="SVGID_3_" d="M9.7,20c1.3-2.8,4.7-5,7.8-5h11c3,0,6.5,2.2,7.8,5l2.7,6H7L9.7,20z"/>
	</defs>
	<clipPath id="SVGID_4_">
		<use xlink:href="#SVGID_3_"  overflow="visible"/>
	</clipPath>
	<path clip-path="url(#SVGID_4_)" fill="none" stroke="#6E84A8" stroke-width="4" stroke-miterlimit="10" d="M9.7,20
		c1.3-2.8,4.7-5,7.8-5h11c3,0,6.5,2.2,7.8,5l2.7,6H7L9.7,20z"/>
</g>
<g>
	<defs>
		<circle id="SVGID_5_" cx="10" cy="31" r="3"/>
	</defs>
	<clipPath id="SVGID_6_">
		<use xlink:href="#SVGID_5_"  overflow="visible"/>
	</clipPath>
	<circle clip-path="url(#SVGID_6_)" fill="none" stroke="#6E84A8" stroke-width="4" stroke-miterlimit="10" cx="10" cy="31" r="3"/>
</g>
<g>
	<defs>
		<path id="SVGID_7_" d="M9,42c-1.1,0-2-0.9-2-2v-4h6v4c0,1.1-0.9,2-2,2H9z"/>
	</defs>
	<clipPath id="SVGID_8_">
		<use xlink:href="#SVGID_7_"  overflow="visible"/>
	</clipPath>
	<path clip-path="url(#SVGID_8_)" fill="none" stroke="#6E84A8" stroke-width="4" stroke-miterlimit="10" d="M9,42c-1.1,0-2-0.9-2-2
		v-4h6v4c0,1.1-0.9,2-2,2H9z"/>
</g>
<g>
	<defs>
		<path id="SVGID_9_" d="M35,42c-1.1,0-2-0.9-2-2v-4h6v4c0,1.1-0.9,2-2,2H35z"/>
	</defs>
	<clipPath id="SVGID_10_">
		<use xlink:href="#SVGID_9_"  overflow="visible"/>
	</clipPath>
	<path clip-path="url(#SVGID_10_)" fill="none" stroke="#6E84A8" stroke-width="4" stroke-miterlimit="10" d="M35,42
		c-1.1,0-2-0.9-2-2v-4h6v4c0,1.1-0.9,2-2,2H35z"/>
</g>
<g>
	<defs>
		<circle id="SVGID_11_" cx="36" cy="31" r="3"/>
	</defs>
	<clipPath id="SVGID_12_">
		<use xlink:href="#SVGID_11_"  overflow="visible"/>
	</clipPath>
	
		<circle clip-path="url(#SVGID_12_)" fill="none" stroke="#6E84A8" stroke-width="4" stroke-miterlimit="10" cx="36" cy="31" r="3"/>
</g>
<g>
	<defs>
		<path id="SVGID_13_" d="M29,26c2.2,0,4,0.2,4-2s-1.8-4-4-4s-4,1.8-4,4S26.8,26,29,26z"/>
	</defs>
	<clipPath id="SVGID_14_">
		<use xlink:href="#SVGID_13_"  overflow="visible"/>
	</clipPath>
	<path clip-path="url(#SVGID_14_)" fill="none" stroke="#6E84A8" stroke-width="4" stroke-miterlimit="10" d="M29,26
		c2.2,0,4,0.2,4-2s-1.8-4-4-4s-4,1.8-4,4S26.8,26,29,26z"/>
</g>
<g>
	<defs>
		<path id="SVGID_15_" d="M18,34c-1.7,0-3-1.3-3-3c0-1.7,1.3-3,3-3h10c1.7,0,3,1.3,3,3c0,1.7-1.3,3-3,3H18z"/>
	</defs>
	<clipPath id="SVGID_16_">
		<use xlink:href="#SVGID_15_"  overflow="visible"/>
	</clipPath>
	<path clip-path="url(#SVGID_16_)" fill="none" stroke="#6E84A8" stroke-width="4" stroke-miterlimit="10" d="M18,34
		c-1.7,0-3-1.3-3-3c0-1.7,1.3-3,3-3h10c1.7,0,3,1.3,3,3c0,1.7-1.3,3-3,3H18z"/>
</g>
<line fill="#6E84A8" x1="69" y1="20" x2="41" y2="20"/>
<line fill="#6E84A8" x1="41" y1="8" x2="69" y2="8"/>
<rect x="46" y="13" fill-rule="evenodd" clip-rule="evenodd" fill="none" width="16" height="2"/>
<line fill="#6E84A8" x1="69" y1="32" x2="41" y2="32"/>
<line fill="#6E84A8" x1="41" y1="20" x2="69" y2="20"/>
<rect x="46" y="25" fill-rule="evenodd" clip-rule="evenodd" fill="none" width="16" height="2"/>
<line fill="#6E84A8" x1="69" y1="44" x2="41" y2="44"/>
<line fill="#6E84A8" x1="41" y1="32" x2="69" y2="32"/>
<rect x="46" y="37" fill-rule="evenodd" clip-rule="evenodd" fill="none" width="16" height="2"/>
<g>
	<defs>
		<path id="SVGID_17_" d="M46,39c0-1.1,0.9-2,2-2h12c1.1,0,2,0.9,2,2v4c0,1.1-0.9,2-2,2H48c-1.1,0-2-0.9-2-2V39z"/>
	</defs>
	<clipPath id="SVGID_18_">
		<use xlink:href="#SVGID_17_"  overflow="visible"/>
	</clipPath>
	<path clip-path="url(#SVGID_18_)" fill="none" stroke="#6E84A8" stroke-width="4" stroke-miterlimit="10" d="M46,39
		c0-1.1,0.9-2,2-2h12c1.1,0,2,0.9,2,2v4c0,1.1-0.9,2-2,2H48c-1.1,0-2-0.9-2-2V39z"/>
</g>
<g>
	<defs>
		<rect id="SVGID_19_" x="49" y="9" width="2" height="2"/>
	</defs>
	<clipPath id="SVGID_20_">
		<use xlink:href="#SVGID_19_"  overflow="visible"/>
	</clipPath>
	<rect x="44" y="4" clip-path="url(#SVGID_20_)" fill="#6E84A8" width="12" height="12"/>
</g>
<g>
	<defs>
		<rect id="SVGID_21_" x="53" y="7" width="2" height="4"/>
	</defs>
	<clipPath id="SVGID_22_">
		<use xlink:href="#SVGID_21_"  overflow="visible"/>
	</clipPath>
	<rect x="48" y="2" clip-path="url(#SVGID_22_)" fill="#6E84A8" width="12" height="14"/>
</g>
<g>
	<defs>
		<rect id="SVGID_23_" x="57" y="5" width="2" height="6"/>
	</defs>
	<clipPath id="SVGID_24_">
		<use xlink:href="#SVGID_23_"  overflow="visible"/>
	</clipPath>
	<rect x="52" y="0" clip-path="url(#SVGID_24_)" fill="#6E84A8" width="14" height="16"/>
</g>
<g>
	<defs>
		<rect id="SVGID_25_" x="49" y="29" width="2" height="6"/>
	</defs>
	<clipPath id="SVGID_26_">
		<use xlink:href="#SVGID_25_"  overflow="visible"/>
	</clipPath>
	<rect x="44" y="24" clip-path="url(#SVGID_26_)" fill="#6E84A8" width="12" height="16"/>
</g>
<g>
	<defs>
		<rect id="SVGID_27_" x="53" y="29" width="2" height="6"/>
	</defs>
	<clipPath id="SVGID_28_">
		<use xlink:href="#SVGID_27_"  overflow="visible"/>
	</clipPath>
	<rect x="48" y="24" clip-path="url(#SVGID_28_)" fill="#6E84A8" width="12" height="16"/>
</g>
<g>
	<defs>
		<rect id="SVGID_29_" x="57" y="29" width="2" height="6"/>
	</defs>
	<clipPath id="SVGID_30_">
		<use xlink:href="#SVGID_29_"  overflow="visible"/>
	</clipPath>
	<rect x="52" y="24" clip-path="url(#SVGID_30_)" fill="#6E84A8" width="14" height="16"/>
</g>
<g>
	<defs>
		<circle id="SVGID_31_" cx="50" cy="18" r="1"/>
	</defs>
	<clipPath id="SVGID_32_">
		<use xlink:href="#SVGID_31_"  overflow="visible"/>
	</clipPath>
	<rect x="44" y="12" clip-path="url(#SVGID_32_)" fill="#6E84A8" width="12" height="12"/>
</g>
<g>
	<defs>
		<circle id="SVGID_33_" cx="54" cy="18" r="1"/>
	</defs>
	<clipPath id="SVGID_34_">
		<use xlink:href="#SVGID_33_"  overflow="visible"/>
	</clipPath>
	<rect x="48" y="12" clip-path="url(#SVGID_34_)" fill="#6E84A8" width="12" height="12"/>
</g>
<g>
	<defs>
		<circle id="SVGID_35_" cx="58" cy="18" r="1"/>
	</defs>
	<clipPath id="SVGID_36_">
		<use xlink:href="#SVGID_35_"  overflow="visible"/>
	</clipPath>
	<rect x="52" y="12" clip-path="url(#SVGID_36_)" fill="#6E84A8" width="14" height="12"/>
</g>
<g>
	<defs>
		<circle id="SVGID_37_" cx="50" cy="22" r="1"/>
	</defs>
	<clipPath id="SVGID_38_">
		<use xlink:href="#SVGID_37_"  overflow="visible"/>
	</clipPath>
	<rect x="44" y="16" clip-path="url(#SVGID_38_)" fill="#6E84A8" width="12" height="12"/>
</g>
<g>
	<defs>
		<circle id="SVGID_39_" cx="54" cy="22" r="1"/>
	</defs>
	<clipPath id="SVGID_40_">
		<use xlink:href="#SVGID_39_"  overflow="visible"/>
	</clipPath>
	<rect x="48" y="16" clip-path="url(#SVGID_40_)" fill="#6E84A8" width="12" height="12"/>
</g>
<g>
	<defs>
		<circle id="SVGID_41_" cx="58" cy="22" r="1"/>
	</defs>
	<clipPath id="SVGID_42_">
		<use xlink:href="#SVGID_41_"  overflow="visible"/>
	</clipPath>
	<rect x="52" y="16" clip-path="url(#SVGID_42_)" fill="#6E84A8" width="14" height="12"/>
</g>
<line fill-rule="evenodd" clip-rule="evenodd" fill="none" x1="58" y1="360" x2="58" y2="-68"/>
</svg>
