<?xml version="1.0" encoding="utf-8"?>
<!-- Generator: Adobe Illustrator 18.1.1, SVG Export Plug-In . SVG Version: 6.00 Build 0)  -->
<svg version="1.1" id="Layer_1" xmlns="http://www.w3.org/2000/svg" xmlns:xlink="http://www.w3.org/1999/xlink" x="0px" y="0px"
	 viewBox="0 0 518 527" enable-background="new 0 0 518 527" xml:space="preserve">
<g>
	<g>
		<defs>
			<rect id="SVGID_1_" width="518" height="527"/>
		</defs>
		<clipPath id="SVGID_2_">
			<use xlink:href="#SVGID_1_"  overflow="visible"/>
		</clipPath>
		<g clip-path="url(#SVGID_2_)">
			<g>
				<g>
					<defs>
						<path id="SVGID_3_" d="M495.9,461.1h-72c-0.6,0-1-0.4-1-1v-105c0-0.6,0.4-1,1-1h72c0.6,0,1,0.4,1,1v105
							C496.9,460.7,496.4,461.1,495.9,461.1z"/>
					</defs>
					<clipPath id="SVGID_4_">
						<use xlink:href="#SVGID_3_"  overflow="visible"/>
					</clipPath>
				</g>
				<g>
					<defs>
						<path id="SVGID_5_" d="M495.9,461.1h-72c-0.6,0-1-0.4-1-1v-105c0-0.6,0.4-1,1-1h72c0.6,0,1,0.4,1,1v105
							C496.9,460.7,496.4,461.1,495.9,461.1z"/>
					</defs>
					<clipPath id="SVGID_6_">
						<use xlink:href="#SVGID_5_"  overflow="visible"/>
					</clipPath>
				</g>
			</g>
			<g>
				<g>
					<defs>
						<path id="SVGID_7_" d="M211.4,49.4v-8.2c0-9.1,9.5-16.5,21.1-16.5h52.9c11.6,0,21.1,7.4,21.1,16.5v8.2h10.6v-8.2
							c0-13.6-14.3-24.7-31.7-24.7h-52.9c-17.4,0-31.7,11.1-31.7,24.7v8.2H211.4z"/>
					</defs>
					<clipPath id="SVGID_8_">
						<use xlink:href="#SVGID_7_"  overflow="visible"/>
					</clipPath>
				</g>
			</g>
			<g>
				<g>
					<defs>
						<path id="SVGID_9_" d="M94.1,354.1h-72c-0.6,0-1,0.4-1,1v105c0,0.6,0.4,1,1,1h72c0.6,0,1-0.4,1-1v-105
							C95.1,354.5,94.7,354.1,94.1,354.1z"/>
					</defs>
					<clipPath id="SVGID_10_">
						<use xlink:href="#SVGID_9_"  overflow="visible"/>
					</clipPath>
				</g>
				<g>
					<defs>
						<path id="SVGID_11_" d="M94.1,354.1h-72c-0.6,0-1,0.4-1,1v105c0,0.6,0.4,1,1,1h72c0.6,0,1-0.4,1-1v-105
							C95.1,354.5,94.7,354.1,94.1,354.1z"/>
					</defs>
					<clipPath id="SVGID_12_">
						<use xlink:href="#SVGID_11_"  overflow="visible"/>
					</clipPath>
				</g>
			</g>
			<g>
				<g>
					<defs>
						<path id="SVGID_13_" d="M441,510.5H77c-1.7,0-3-1.4-3-3V77.1c0-1.7,1.3-3,3-3h364c1.6,0,3,1.3,3,3v430.4
							C444,509.2,442.6,510.5,441,510.5z"/>
					</defs>
					<clipPath id="SVGID_14_">
						<use xlink:href="#SVGID_13_"  overflow="visible"/>
					</clipPath>
				</g>
			</g>
			<g>
				<g>
					<defs>
						<path id="SVGID_15_" d="M451.6,370.5H66.4c-1.7,0-3-1.4-3-3V71.9c0-3.3,2.7-6,6-6h379.1c3.3,0,6,2.7,6,6v295.7
							C454.6,369.2,453.2,370.5,451.6,370.5z"/>
					</defs>
					<clipPath id="SVGID_16_">
						<use xlink:href="#SVGID_15_"  overflow="visible"/>
					</clipPath>
				</g>
				<g>
					<g>
						<defs>
							<path id="SVGID_17_" d="M168.6,193.5h-9.6c-0.3,0-0.5-0.2-0.5-0.5v-23.7c0-0.3,0.2-0.5,0.5-0.5h9.6c0.3,0,0.5,0.2,0.5,0.5
								V193C169.1,193.3,168.9,193.5,168.6,193.5z"/>
						</defs>
						<clipPath id="SVGID_18_">
							<use xlink:href="#SVGID_17_"  overflow="visible"/>
						</clipPath>
					</g>
				</g>
			</g>
			<g>
				<g>
					<defs>
						<path id="SVGID_19_" d="M370,411.7v49.4c0,13.6-14.3,24.7-31.7,24.7h-148c-17.4,0-31.7-11.1-31.7-24.7v-49.4H370z"/>
					</defs>
					<clipPath id="SVGID_20_">
						<use xlink:href="#SVGID_19_"  overflow="visible"/>
					</clipPath>
				</g>
			</g>
		</g>
	</g>
	<g>
		<defs>
			<rect id="SVGID_21_" width="518" height="527"/>
		</defs>
		<clipPath id="SVGID_22_">
			<use xlink:href="#SVGID_21_"  overflow="visible"/>
		</clipPath>
		<g clip-path="url(#SVGID_22_)">
			<g>
				<path fill="#453F3C" d="M518,452.9c0,13.6-14.2,24.7-31.7,24.7h-52.9c-17.5,0-31.7-11.1-31.7-24.7v-90.6
					c0-13.6,14.2-24.7,31.7-24.7h52.9c17.5,0,31.7,11.1,31.7,24.7V452.9z"/>
				<g>
					<path fill="#686360" d="M495.9,461.1h-72c-0.6,0-1-0.4-1-1v-105c0-0.6,0.4-1,1-1h72c0.6,0,1,0.4,1,1v105
						C496.9,460.7,496.4,461.1,495.9,461.1z"/>
				</g>
				<g>
					<defs>
						<path id="SVGID_23_" d="M495.9,461.1h-72c-0.6,0-1-0.4-1-1v-105c0-0.6,0.4-1,1-1h72c0.6,0,1,0.4,1,1v105
							C496.9,460.7,496.4,461.1,495.9,461.1z"/>
					</defs>
					<clipPath id="SVGID_24_">
						<use xlink:href="#SVGID_23_"  overflow="visible"/>
					</clipPath>
				</g>
				<g>
					<defs>
						<path id="SVGID_25_" d="M495.9,461.1h-72c-0.6,0-1-0.4-1-1v-105c0-0.6,0.4-1,1-1h72c0.6,0,1,0.4,1,1v105
							C496.9,460.7,496.4,461.1,495.9,461.1z"/>
					</defs>
					<clipPath id="SVGID_26_">
						<use xlink:href="#SVGID_25_"  overflow="visible"/>
					</clipPath>
					<path opacity="0.24" clip-path="url(#SVGID_26_)" d="M126.9,57.6h285.4c46.6,0,84.6,29.6,84.6,65.9v230.6
						c0,13.4-10.6,25.3-21.1,32.9v107.1c0,22.7-23.7,41.2-52.9,41.2H116.3c-29.1,0-52.9-18.5-52.9-41.2V386.9
						c-12.8-7.5-21.1-19.4-21.1-32.9V123.5C42.3,87.2,80.2,57.6,126.9,57.6z"/>
				</g>
				<rect x="422.9" y="436.4" fill="#453F3C" width="74" height="8.2"/>
				<path fill="#453F3C" d="M486.3,354.1v61.8c0,2.3-2.4,4.1-5.3,4.1l0,0c-2.9,0-5.3-1.9-5.3-4.1v-61.8H486.3z"/>
				<rect x="422.9" y="448.8" fill="#453F3C" width="74" height="4.1"/>
			</g>
			<g>
				<path fill="#453F3C" d="M232.6,45.3c0-2.3,2.4-4.1,5.3-4.1h42.2c2.9,0,5.3,1.8,5.3,4.1v4.1h52.9v-8.2
					c0-22.7-23.7-41.2-52.9-41.2h-52.9c-29.1,0-52.9,18.5-52.9,41.2v8.2h52.9L232.6,45.3z"/>
				<path fill="#7A6862" d="M211.4,49.4v-8.2c0-9.1,9.5-16.5,21.1-16.5h52.9c11.6,0,21.1,7.4,21.1,16.5v8.2h10.6v-8.2
					c0-13.6-14.3-24.7-31.7-24.7h-52.9c-17.4,0-31.7,11.1-31.7,24.7v8.2H211.4z"/>
				<rect x="200.9" y="41.2" opacity="0.24" width="10.6" height="8.2"/>
				<rect x="306.6" y="41.2" opacity="0.24" width="10.6" height="8.2"/>
				<g>
					<defs>
						<path id="SVGID_27_" d="M211.4,49.4v-8.2c0-9.1,9.5-16.5,21.1-16.5h52.9c11.6,0,21.1,7.4,21.1,16.5v8.2h10.6v-8.2
							c0-13.6-14.3-24.7-31.7-24.7h-52.9c-17.4,0-31.7,11.1-31.7,24.7v8.2H211.4z"/>
					</defs>
					<clipPath id="SVGID_28_">
						<use xlink:href="#SVGID_27_"  overflow="visible"/>
					</clipPath>
					<rect x="200.9" y="12.4" opacity="0.24" clip-path="url(#SVGID_28_)" fill="#FFFFFF" width="116.3" height="8.2"/>
				</g>
				<g>
					<rect x="259" y="20.6" opacity="0.24" fill="#FFFFFF" width="10.6" height="4.1"/>
					<rect x="280.1" y="20.6" opacity="0.24" fill="#FFFFFF" width="5.3" height="4.1"/>
				</g>
			</g>
			<g>
				<path fill="#453F3C" d="M116.3,362.3c0-13.6-14.2-24.7-31.7-24.7H31.7C14.2,337.6,0,348.7,0,362.3v90.6
					c0,13.6,14.2,24.7,31.7,24.7h52.9c17.5,0,31.7-11.1,31.7-24.7V362.3z"/>
				<g>
					<path fill="#686360" d="M94.1,354.1h-72c-0.6,0-1,0.4-1,1v105c0,0.6,0.4,1,1,1h72c0.6,0,1-0.4,1-1v-105
						C95.1,354.5,94.7,354.1,94.1,354.1z"/>
				</g>
				<g>
					<defs>
						<path id="SVGID_29_" d="M94.1,354.1h-72c-0.6,0-1,0.4-1,1v105c0,0.6,0.4,1,1,1h72c0.6,0,1-0.4,1-1v-105
							C95.1,354.5,94.7,354.1,94.1,354.1z"/>
					</defs>
					<clipPath id="SVGID_30_">
						<use xlink:href="#SVGID_29_"  overflow="visible"/>
					</clipPath>
				</g>
				<g>
					<defs>
						<path id="SVGID_31_" d="M94.1,354.1h-72c-0.6,0-1,0.4-1,1v105c0,0.6,0.4,1,1,1h72c0.6,0,1-0.4,1-1v-105
							C95.1,354.5,94.7,354.1,94.1,354.1z"/>
					</defs>
					<clipPath id="SVGID_32_">
						<use xlink:href="#SVGID_31_"  overflow="visible"/>
					</clipPath>
					<path opacity="0.24" clip-path="url(#SVGID_32_)" d="M391.1,57.6H105.7c-46.6,0-84.6,29.6-84.6,65.9v230.6
						c0,13.4,8.3,25.3,21.1,32.9v107.1c0,22.7,23.7,41.2,52.9,41.2h306.6c29.1,0,52.9-18.5,52.9-41.2V386.9
						c12.8-7.5,21.1-19.4,21.1-32.9V123.5C475.7,87.2,437.8,57.6,391.1,57.6z"/>
				</g>
				<path fill="#453F3C" d="M31.7,354.1v61.8c0,2.3,2.4,4.1,5.3,4.1h0c2.9,0,5.3-1.9,5.3-4.1v-61.8H31.7z"/>
				<rect x="21.1" y="436.4" fill="#453F3C" width="74" height="8.2"/>
				<rect x="21.1" y="448.8" fill="#453F3C" width="74" height="4.1"/>
			</g>
			<g>
				<path fill="#453F3C" d="M105.7,527c-29.1,0-52.9-18.5-52.9-41.2v-387c0-22.7,23.7-41.2,52.9-41.2h306.6
					c29.1,0,52.9,18.5,52.9,41.2v387c0,22.7-23.7,41.2-52.9,41.2H105.7z"/>
				<path fill="#7A6862" d="M441,510.5H77c-1.7,0-3-1.4-3-3V77.1c0-1.7,1.3-3,3-3h364c1.6,0,3,1.3,3,3v430.4
					C444,509.2,442.6,510.5,441,510.5z"/>
				<g>
					<defs>
						<path id="SVGID_33_" d="M441,510.5H77c-1.7,0-3-1.4-3-3V77.1c0-1.7,1.3-3,3-3h364c1.6,0,3,1.3,3,3v430.4
							C444,509.2,442.6,510.5,441,510.5z"/>
					</defs>
					<clipPath id="SVGID_34_">
						<use xlink:href="#SVGID_33_"  overflow="visible"/>
					</clipPath>
					<rect x="74" y="502.3" opacity="0.14" clip-path="url(#SVGID_34_)" width="370" height="8.2"/>
				</g>
				<rect x="74" y="378.8" opacity="0.14" width="370" height="24.7"/>
			</g>
			<g>
				<path fill="#453F3C" d="M95.1,387c-29.1,0-52.9-18.5-52.9-41.2V115.3c0-36.3,37.9-65.9,84.6-65.9h264.3
					c46.6,0,84.6,29.6,84.6,65.9v230.6c0,22.7-23.7,41.2-52.9,41.2H95.1z"/>
				<path fill="#99827A" d="M451.6,370.5H66.4c-1.7,0-3-1.4-3-3V71.9c0-3.3,2.7-6,6-6h379.1c3.3,0,6,2.7,6,6v295.7
					C454.6,369.2,453.2,370.5,451.6,370.5z"/>
				<g>
					<defs>
						<path id="SVGID_35_" d="M451.6,370.5H66.4c-1.7,0-3-1.4-3-3V71.9c0-3.3,2.7-6,6-6h379.1c3.3,0,6,2.7,6,6v295.7
							C454.6,369.2,453.2,370.5,451.6,370.5z"/>
					</defs>
					<clipPath id="SVGID_36_">
						<use xlink:href="#SVGID_35_"  overflow="visible"/>
					</clipPath>
					<g clip-path="url(#SVGID_36_)">
						<path opacity="0.24" fill="#FFFFFF" d="M74,362.3V119.4c0-24.9,26.2-45.3,58.1-45.3h253.7c32,0,58.1,20.4,58.1,45.3v242.9
							h10.6v-247c0-27.2-28.5-49.4-63.4-49.4H126.9c-34.9,0-63.4,22.2-63.4,49.4v247H74z"/>
						<rect x="63.4" y="362.3" opacity="0.24" width="391.1" height="8.2"/>
					</g>
				</g>
				<g>
					<rect x="222" y="300.6" fill="#453F3C" width="74" height="32.9"/>
					<rect x="232.6" y="308.8" fill="#686360" width="52.9" height="16.5"/>
					<rect x="232.6" y="308.8" opacity="0.24" fill="#FFFFFF" width="52.9" height="4.1"/>
					<rect x="243.1" y="312.9" opacity="0.24" fill="#FFFFFF" width="10.6" height="12.4"/>
					<rect x="264.3" y="312.9" opacity="0.24" fill="#FFFFFF" width="5.3" height="12.4"/>
					<rect x="237.9" y="312.9" fill="#453F3C" width="26.4" height="8.2"/>
					<rect x="269.6" y="312.9" fill="#453F3C" width="10.6" height="8.2"/>
				</g>
				<g>
					<rect x="359.4" y="74.1" opacity="0.24" fill="#FFFFFF" width="10.6" height="284.1"/>
					<rect x="380.6" y="74.1" opacity="0.24" fill="#FFFFFF" width="5.3" height="284.1"/>
				</g>
				<g>
					<g>
						<rect x="158.6" y="140" fill="#453F3C" width="10.6" height="4.1"/>
						<rect x="179.7" y="140" fill="#453F3C" width="10.6" height="4.1"/>
						<rect x="200.9" y="140" fill="#453F3C" width="10.6" height="4.1"/>
						<rect x="222" y="140" fill="#453F3C" width="10.6" height="4.1"/>
						<rect x="243.1" y="140" fill="#453F3C" width="10.6" height="4.1"/>
						<rect x="264.3" y="140" fill="#453F3C" width="10.6" height="4.1"/>
						<rect x="285.4" y="140" fill="#453F3C" width="10.6" height="4.1"/>
						<rect x="306.6" y="140" fill="#453F3C" width="10.6" height="4.1"/>
						<rect x="327.7" y="140" fill="#453F3C" width="10.6" height="4.1"/>
						<rect x="348.9" y="140" fill="#453F3C" width="10.6" height="4.1"/>
					</g>
					<g>
						<g>
							<rect x="153.3" y="148.2" fill="#453F3C" width="211.4" height="24.7"/>
							<rect x="163.9" y="156.5" fill="#686360" width="190.3" height="8.2"/>
						</g>
						<g>
							<g>
								<rect x="169.1" y="156.5" fill="#CCC4C4" width="5.3" height="4.1"/>
								<rect x="163.9" y="160.6" fill="#CCC4C4" width="5.3" height="4.1"/>
							</g>
							<g>
								<rect x="179.7" y="156.5" fill="#CCC4C4" width="5.3" height="4.1"/>
								<rect x="174.4" y="160.6" fill="#CCC4C4" width="5.3" height="4.1"/>
							</g>
							<g>
								<rect x="190.3" y="156.5" fill="#CCC4C4" width="5.3" height="4.1"/>
								<rect x="185" y="160.6" fill="#CCC4C4" width="5.3" height="4.1"/>
							</g>
							<g>
								<rect x="200.9" y="156.5" fill="#CCC4C4" width="5.3" height="4.1"/>
								<rect x="195.6" y="160.6" fill="#CCC4C4" width="5.3" height="4.1"/>
							</g>
							<g>
								<rect x="211.4" y="156.5" fill="#CCC4C4" width="5.3" height="4.1"/>
								<rect x="206.1" y="160.6" fill="#CCC4C4" width="5.3" height="4.1"/>
							</g>
							<g>
								<rect x="222" y="156.5" fill="#CCC4C4" width="5.3" height="4.1"/>
								<rect x="216.7" y="160.6" fill="#CCC4C4" width="5.3" height="4.1"/>
							</g>
							<g>
								<rect x="232.6" y="156.5" fill="#CCC4C4" width="5.3" height="4.1"/>
								<rect x="227.3" y="160.6" fill="#CCC4C4" width="5.3" height="4.1"/>
							</g>
							<g>
								<rect x="243.1" y="156.5" fill="#CCC4C4" width="5.3" height="4.1"/>
								<rect x="237.9" y="160.6" fill="#CCC4C4" width="5.3" height="4.1"/>
							</g>
							<g>
								<rect x="253.7" y="156.5" fill="#CCC4C4" width="5.3" height="4.1"/>
								<rect x="248.4" y="160.6" fill="#CCC4C4" width="5.3" height="4.1"/>
							</g>
							<g>
								<rect x="264.3" y="156.5" fill="#CCC4C4" width="5.3" height="4.1"/>
								<rect x="259" y="160.6" fill="#CCC4C4" width="5.3" height="4.1"/>
							</g>
							<g>
								<rect x="274.9" y="156.5" fill="#CCC4C4" width="5.3" height="4.1"/>
								<rect x="269.6" y="160.6" fill="#CCC4C4" width="5.3" height="4.1"/>
							</g>
							<g>
								<rect x="285.4" y="156.5" fill="#CCC4C4" width="5.3" height="4.1"/>
								<rect x="280.1" y="160.6" fill="#CCC4C4" width="5.3" height="4.1"/>
							</g>
							<g>
								<rect x="296" y="156.5" fill="#CCC4C4" width="5.3" height="4.1"/>
								<rect x="290.7" y="160.6" fill="#CCC4C4" width="5.3" height="4.1"/>
							</g>
							<g>
								<rect x="306.6" y="156.5" fill="#CCC4C4" width="5.3" height="4.1"/>
								<rect x="301.3" y="160.6" fill="#CCC4C4" width="5.3" height="4.1"/>
							</g>
							<g>
								<rect x="317.1" y="156.5" fill="#CCC4C4" width="5.3" height="4.1"/>
								<rect x="311.9" y="160.6" fill="#CCC4C4" width="5.3" height="4.1"/>
							</g>
							<g>
								<rect x="327.7" y="156.5" fill="#CCC4C4" width="5.3" height="4.1"/>
								<rect x="322.4" y="160.6" fill="#CCC4C4" width="5.3" height="4.1"/>
							</g>
							<g>
								<rect x="338.3" y="156.5" fill="#CCC4C4" width="5.3" height="4.1"/>
								<rect x="333" y="160.6" fill="#CCC4C4" width="5.3" height="4.1"/>
							</g>
							<g>
								<rect x="348.9" y="156.5" fill="#CCC4C4" width="5.3" height="4.1"/>
								<rect x="343.6" y="160.6" fill="#CCC4C4" width="5.3" height="4.1"/>
							</g>
						</g>
						<rect x="163.9" y="156.5" opacity="0.24" width="190.3" height="4.1"/>
					</g>
					<g>
						<path opacity="0.24" d="M163.9,210c-8.7,0-15.9-5.5-15.9-12.4v-16.5c0-6.8,7.1-12.4,15.9-12.4s15.9,5.5,15.9,12.4v16.5
							C179.7,204.4,172.6,210,163.9,210z"/>
						<path fill="#453F3C" d="M163.9,201.7c-8.7,0-15.9-5.5-15.9-12.4v-16.5c0-6.8,7.1-12.4,15.9-12.4s15.9,5.5,15.9,12.4v16.5
							C179.7,196.2,172.6,201.7,163.9,201.7z"/>
						<path fill="#686360" d="M168.6,193.5h-9.6c-0.3,0-0.5-0.2-0.5-0.5v-23.7c0-0.3,0.2-0.5,0.5-0.5h9.6c0.3,0,0.5,0.2,0.5,0.5V193
							C169.1,193.3,168.9,193.5,168.6,193.5z"/>
						<rect x="158.6" y="185.3" fill="#453F3C" width="10.6" height="4.1"/>
						<g>
							<defs>
								<path id="SVGID_37_" d="M168.6,193.5h-9.6c-0.3,0-0.5-0.2-0.5-0.5v-23.7c0-0.3,0.2-0.5,0.5-0.5h9.6c0.3,0,0.5,0.2,0.5,0.5
									V193C169.1,193.3,168.9,193.5,168.6,193.5z"/>
							</defs>
							<clipPath id="SVGID_38_">
								<use xlink:href="#SVGID_37_"  overflow="visible"/>
							</clipPath>
							<rect x="153.3" y="164.7" opacity="0.24" clip-path="url(#SVGID_38_)" fill="#FFFFFF" width="21.1" height="12.4"/>
							<rect x="153.3" y="189.4" opacity="0.14" clip-path="url(#SVGID_38_)" width="21.1" height="8.2"/>
						</g>
					</g>
				</g>
				<g>
					<rect x="63.4" y="350" fill="#453F3C" width="10.6" height="4.1"/>
					<rect x="84.6" y="350" fill="#453F3C" width="10.6" height="4.1"/>
					<rect x="105.7" y="350" fill="#453F3C" width="10.6" height="4.1"/>
					<rect x="126.9" y="350" fill="#453F3C" width="10.6" height="4.1"/>
					<rect x="148" y="350" fill="#453F3C" width="10.6" height="4.1"/>
					<rect x="169.1" y="350" fill="#453F3C" width="10.6" height="4.1"/>
					<rect x="190.3" y="350" fill="#453F3C" width="10.6" height="4.1"/>
					<rect x="211.4" y="350" fill="#453F3C" width="10.6" height="4.1"/>
					<rect x="232.6" y="350" fill="#453F3C" width="10.6" height="4.1"/>
					<rect x="253.7" y="350" fill="#453F3C" width="10.6" height="4.1"/>
					<rect x="274.9" y="350" fill="#453F3C" width="10.6" height="4.1"/>
					<rect x="296" y="350" fill="#453F3C" width="10.6" height="4.1"/>
					<rect x="317.1" y="350" fill="#453F3C" width="10.6" height="4.1"/>
					<rect x="338.3" y="350" fill="#453F3C" width="10.6" height="4.1"/>
					<rect x="359.4" y="350" fill="#453F3C" width="10.6" height="4.1"/>
					<rect x="380.6" y="350" fill="#453F3C" width="10.6" height="4.1"/>
					<rect x="401.7" y="350" fill="#453F3C" width="10.6" height="4.1"/>
					<rect x="422.9" y="350" fill="#453F3C" width="10.6" height="4.1"/>
					<rect x="444" y="350" fill="#453F3C" width="10.6" height="4.1"/>
				</g>
				<g>
					<rect x="63.4" y="358.2" fill="#453F3C" width="391.1" height="4.1"/>
					<g>
						<rect x="84.6" y="362.3" fill="#453F3C" width="10.6" height="8.2"/>
						<rect x="105.7" y="362.3" fill="#453F3C" width="10.6" height="8.2"/>
						<rect x="126.9" y="362.3" fill="#453F3C" width="10.6" height="8.2"/>
						<rect x="148" y="362.3" fill="#453F3C" width="10.6" height="8.2"/>
						<rect x="169.1" y="362.3" fill="#453F3C" width="10.6" height="8.2"/>
						<rect x="190.3" y="362.3" fill="#453F3C" width="10.6" height="8.2"/>
						<rect x="211.4" y="362.3" fill="#453F3C" width="10.6" height="8.2"/>
						<rect x="232.6" y="362.3" fill="#453F3C" width="10.6" height="8.2"/>
						<rect x="253.7" y="362.3" fill="#453F3C" width="10.6" height="8.2"/>
						<rect x="274.9" y="362.3" fill="#453F3C" width="10.6" height="8.2"/>
						<rect x="296" y="362.3" fill="#453F3C" width="10.6" height="8.2"/>
						<rect x="317.1" y="362.3" fill="#453F3C" width="10.6" height="8.2"/>
						<rect x="338.3" y="362.3" fill="#453F3C" width="10.6" height="8.2"/>
						<rect x="359.4" y="362.3" fill="#453F3C" width="10.6" height="8.2"/>
						<rect x="380.6" y="362.3" fill="#453F3C" width="10.6" height="8.2"/>
						<rect x="401.7" y="362.3" fill="#453F3C" width="10.6" height="8.2"/>
						<rect x="422.9" y="362.3" fill="#453F3C" width="10.6" height="8.2"/>
					</g>
				</g>
			</g>
			<g>
				<path fill="#453F3C" d="M190.3,502.3c-29.1,0-52.9-18.5-52.9-41.2v-65.9h253.7v65.9c0,22.7-23.7,41.2-52.9,41.2H190.3z"/>
				<path fill="#99827A" d="M370,411.7v49.4c0,13.6-14.3,24.7-31.7,24.7h-148c-17.4,0-31.7-11.1-31.7-24.7v-49.4H370z"/>
				<g>
					<rect x="311.9" y="428.2" opacity="0.24" fill="#FFFFFF" width="10.6" height="49.4"/>
					<rect x="333" y="428.2" opacity="0.24" fill="#FFFFFF" width="5.3" height="49.4"/>
				</g>
				<rect x="158.6" y="420" fill="#453F3C" width="211.4" height="8.2"/>
				<rect x="158.6" y="411.7" opacity="0.14" fill="#FFFFFF" width="211.4" height="8.2"/>
				<g>
					<g>
						<rect x="158.6" y="432.3" fill="#453F3C" width="21.1" height="4.1"/>
					</g>
					<g>
						<rect x="190.3" y="432.3" fill="#453F3C" width="21.1" height="4.1"/>
					</g>
					<g>
						<rect x="222" y="432.3" fill="#453F3C" width="21.1" height="4.1"/>
					</g>
					<g>
						<rect x="253.7" y="432.3" fill="#453F3C" width="21.1" height="4.1"/>
					</g>
					<g>
						<rect x="285.4" y="432.3" fill="#453F3C" width="21.1" height="4.1"/>
					</g>
					<g>
						<rect x="317.1" y="432.3" fill="#453F3C" width="21.1" height="4.1"/>
					</g>
					<g>
						<rect x="348.9" y="432.3" fill="#453F3C" width="21.1" height="4.1"/>
					</g>
				</g>
				<rect x="348.9" y="411.7" fill="#453F3C" width="10.6" height="8.2"/>
				<rect x="169.1" y="411.7" fill="#453F3C" width="10.6" height="8.2"/>
				<g>
					<defs>
						<path id="SVGID_39_" d="M370,411.7v49.4c0,13.6-14.3,24.7-31.7,24.7h-148c-17.4,0-31.7-11.1-31.7-24.7v-49.4H370z"/>
					</defs>
					<clipPath id="SVGID_40_">
						<use xlink:href="#SVGID_39_"  overflow="visible"/>
					</clipPath>
					<rect x="158.6" y="477.6" opacity="0.24" clip-path="url(#SVGID_40_)" width="211.4" height="8.2"/>
				</g>
			</g>
		</g>
	</g>
	<g>
		<defs>
			<rect id="SVGID_41_" width="518" height="527"/>
		</defs>
		<clipPath id="SVGID_42_">
			<use xlink:href="#SVGID_41_"  overflow="visible"/>
		</clipPath>
		<g clip-path="url(#SVGID_42_)">
			<g>
				<g>
					<defs>
						<path id="SVGID_43_" d="M495.9,461.1h-72c-0.6,0-1-0.4-1-1v-105c0-0.6,0.4-1,1-1h72c0.6,0,1,0.4,1,1v105
							C496.9,460.7,496.4,461.1,495.9,461.1z"/>
					</defs>
					<clipPath id="SVGID_44_">
						<use xlink:href="#SVGID_43_"  overflow="visible"/>
					</clipPath>
				</g>
				<g>
					<defs>
						<path id="SVGID_45_" d="M495.9,461.1h-72c-0.6,0-1-0.4-1-1v-105c0-0.6,0.4-1,1-1h72c0.6,0,1,0.4,1,1v105
							C496.9,460.7,496.4,461.1,495.9,461.1z"/>
					</defs>
					<clipPath id="SVGID_46_">
						<use xlink:href="#SVGID_45_"  overflow="visible"/>
					</clipPath>
				</g>
			</g>
			<g>
				<g>
					<defs>
						<path id="SVGID_47_" d="M211.4,49.4v-8.2c0-9.1,9.5-16.5,21.1-16.5h52.9c11.6,0,21.1,7.4,21.1,16.5v8.2h10.6v-8.2
							c0-13.6-14.3-24.7-31.7-24.7h-52.9c-17.4,0-31.7,11.1-31.7,24.7v8.2H211.4z"/>
					</defs>
					<clipPath id="SVGID_48_">
						<use xlink:href="#SVGID_47_"  overflow="visible"/>
					</clipPath>
				</g>
			</g>
			<g>
				<g>
					<defs>
						<path id="SVGID_49_" d="M94.1,354.1h-72c-0.6,0-1,0.4-1,1v105c0,0.6,0.4,1,1,1h72c0.6,0,1-0.4,1-1v-105
							C95.1,354.5,94.7,354.1,94.1,354.1z"/>
					</defs>
					<clipPath id="SVGID_50_">
						<use xlink:href="#SVGID_49_"  overflow="visible"/>
					</clipPath>
				</g>
				<g>
					<defs>
						<path id="SVGID_51_" d="M94.1,354.1h-72c-0.6,0-1,0.4-1,1v105c0,0.6,0.4,1,1,1h72c0.6,0,1-0.4,1-1v-105
							C95.1,354.5,94.7,354.1,94.1,354.1z"/>
					</defs>
					<clipPath id="SVGID_52_">
						<use xlink:href="#SVGID_51_"  overflow="visible"/>
					</clipPath>
				</g>
			</g>
			<g>
				<g>
					<defs>
						<path id="SVGID_53_" d="M441,510.5H77c-1.7,0-3-1.4-3-3V77.1c0-1.7,1.3-3,3-3h364c1.6,0,3,1.3,3,3v430.4
							C444,509.2,442.6,510.5,441,510.5z"/>
					</defs>
					<clipPath id="SVGID_54_">
						<use xlink:href="#SVGID_53_"  overflow="visible"/>
					</clipPath>
				</g>
			</g>
			<g>
				<g>
					<defs>
						<path id="SVGID_55_" d="M451.6,370.5H66.4c-1.7,0-3-1.4-3-3V71.9c0-3.3,2.7-6,6-6h379.1c3.3,0,6,2.7,6,6v295.7
							C454.6,369.2,453.2,370.5,451.6,370.5z"/>
					</defs>
					<clipPath id="SVGID_56_">
						<use xlink:href="#SVGID_55_"  overflow="visible"/>
					</clipPath>
				</g>
				<g>
					<g>
						<defs>
							<path id="SVGID_57_" d="M168.6,193.5h-9.6c-0.3,0-0.5-0.2-0.5-0.5v-23.7c0-0.3,0.2-0.5,0.5-0.5h9.6c0.3,0,0.5,0.2,0.5,0.5
								V193C169.1,193.3,168.9,193.5,168.6,193.5z"/>
						</defs>
						<clipPath id="SVGID_58_">
							<use xlink:href="#SVGID_57_"  overflow="visible"/>
						</clipPath>
					</g>
				</g>
			</g>
			<g>
				<g>
					<defs>
						<path id="SVGID_59_" d="M370,411.7v49.4c0,13.6-14.3,24.7-31.7,24.7h-148c-17.4,0-31.7-11.1-31.7-24.7v-49.4H370z"/>
					</defs>
					<clipPath id="SVGID_60_">
						<use xlink:href="#SVGID_59_"  overflow="visible"/>
					</clipPath>
				</g>
			</g>
		</g>
	</g>
</g>
</svg>
