<?xml version="1.0" encoding="utf-8"?>
<!-- Generator: Adobe Illustrator 18.1.1, SVG Export Plug-In . SVG Version: 6.00 Build 0)  -->
<svg version="1.1" id="Layer_1" xmlns="http://www.w3.org/2000/svg" xmlns:xlink="http://www.w3.org/1999/xlink" x="0px" y="0px"
	 viewBox="0 0 518 527" enable-background="new 0 0 518 527" xml:space="preserve">
<g>
	<g>
		<defs>
			<rect id="SVGID_1_" width="518" height="527"/>
		</defs>
		<clipPath id="SVGID_2_">
			<use xlink:href="#SVGID_1_"  overflow="visible"/>
		</clipPath>
		<g clip-path="url(#SVGID_2_)">
			<g>
				<g>
					<defs>
						<path id="SVGID_3_" d="M499.8,432H18.2c-1.1,0-2,0.9-2,2v70.8c0,2.8,2.3,5,5,5h475.6c2.8,0,5-2.3,5-5V434
							C501.8,432.9,500.9,432,499.8,432z"/>
					</defs>
					<clipPath id="SVGID_4_">
						<use xlink:href="#SVGID_3_"  overflow="visible"/>
					</clipPath>
				</g>
			</g>
			<g>
				<g>
					<defs>
						<path id="SVGID_5_" d="M267.1,216v8.6h8.1c8.6,12.5,24.4,34.6,40.5,34.6c16.2,0,41.1-20.2,56.6-34.6h8.1V216H267.1z"/>
					</defs>
					<clipPath id="SVGID_6_">
						<use xlink:href="#SVGID_5_"  overflow="visible"/>
					</clipPath>
				</g>
				<g>
					<defs>
						<path id="SVGID_7_" d="M267.1,224.6c0,0,24.3,43.2,48.6,43.2c24.1,0,64.8-43.2,64.8-43.2V216H267.1V224.6z"/>
					</defs>
					<clipPath id="SVGID_8_">
						<use xlink:href="#SVGID_7_"  overflow="visible"/>
					</clipPath>
				</g>
				<g>
					<defs>
						<path id="SVGID_9_" d="M500.8,224.6H17.2c-0.6,0-1-0.4-1-1v-15.3c0-0.6,0.4-1,1-1h483.6c0.6,0,1,0.4,1,1v15.3
							C501.8,224.2,501.4,224.6,500.8,224.6z"/>
					</defs>
					<clipPath id="SVGID_10_">
						<use xlink:href="#SVGID_9_"  overflow="visible"/>
					</clipPath>
				</g>
			</g>
			<g>
				<g>
					<defs>
						<rect id="SVGID_11_" x="80.9" y="216" width="145.7" height="17.3"/>
					</defs>
					<clipPath id="SVGID_12_">
						<use xlink:href="#SVGID_11_"  overflow="visible"/>
					</clipPath>
				</g>
				<g>
					<defs>
						<ellipse id="SVGID_13_" cx="153.8" cy="207.3" rx="72.8" ry="21.6"/>
					</defs>
					<clipPath id="SVGID_14_">
						<use xlink:href="#SVGID_13_"  overflow="visible"/>
					</clipPath>
				</g>
			</g>
			<g>
				<g>
					<defs>
						<path id="SVGID_15_" d="M499.8,190.1H18.2c-1.1,0-2-0.9-2-2V34.3c0-9.3,7.6-17,17-17h451.6c9.4,0,17,7.6,17,17v153.8
							C501.8,189.2,500.9,190.1,499.8,190.1z"/>
					</defs>
					<clipPath id="SVGID_16_">
						<use xlink:href="#SVGID_15_"  overflow="visible"/>
					</clipPath>
				</g>
			</g>
			<g>
				<g>
					<defs>
						<path id="SVGID_17_" d="M250.9,354.2v8.6h-8.1c-8.6,13-24.4,34.6-40.5,34.6c-16.2,0-41.1-21.6-56.6-34.6h-8.1v-8.6H250.9z"/>
					</defs>
					<clipPath id="SVGID_18_">
						<use xlink:href="#SVGID_17_"  overflow="visible"/>
					</clipPath>
				</g>
				<g>
					<defs>
						<path id="SVGID_19_" d="M250.9,362.9c0,0-24.3,43.2-48.6,43.2c-24.1,0-64.8-43.2-64.8-43.2v-8.6h113.3V362.9z"/>
					</defs>
					<clipPath id="SVGID_20_">
						<use xlink:href="#SVGID_19_"  overflow="visible"/>
					</clipPath>
				</g>
				<g>
					<defs>
						<path id="SVGID_21_" d="M500.8,345.6H17.2c-0.6,0-1,0.4-1,1v15.3c0,0.6,0.4,1,1,1h483.6c0.6,0,1-0.4,1-1v-15.3
							C501.8,346,501.4,345.6,500.8,345.6z"/>
					</defs>
					<clipPath id="SVGID_22_">
						<use xlink:href="#SVGID_21_"  overflow="visible"/>
					</clipPath>
				</g>
			</g>
			<g>
				<g>
					<defs>
						<ellipse id="SVGID_23_" cx="364.2" cy="345.6" rx="60.7" ry="21.6"/>
					</defs>
					<clipPath id="SVGID_24_">
						<use xlink:href="#SVGID_23_"  overflow="visible"/>
					</clipPath>
				</g>
				<g>
					<defs>
						<ellipse id="SVGID_25_" cx="364.2" cy="345.6" rx="60.7" ry="21.6"/>
					</defs>
					<clipPath id="SVGID_26_">
						<use xlink:href="#SVGID_25_"  overflow="visible"/>
					</clipPath>
				</g>
			</g>
			<g>
				<g>
					<defs>
						<path id="SVGID_27_" d="M500.8,328.3H17.2c-0.6,0-1-0.4-1-1v-32.6c0-0.6,0.4-1,1-1h483.6c0.6,0,1,0.4,1,1v32.6
							C501.8,327.8,501.4,328.3,500.8,328.3z"/>
					</defs>
					<clipPath id="SVGID_28_">
						<use xlink:href="#SVGID_27_"  overflow="visible"/>
					</clipPath>
				</g>
			</g>
		</g>
	</g>
	<g>
		<defs>
			<rect id="SVGID_29_" width="518" height="527"/>
		</defs>
		<clipPath id="SVGID_30_">
			<use xlink:href="#SVGID_29_"  overflow="visible"/>
		</clipPath>
		<g clip-path="url(#SVGID_30_)">
			<g>
				<path fill="#453F3C" d="M0,520V418.7c0-2.2,1.8-4,4-4h510c2.2,0,4,1.8,4,4V520c0,3.9-3.1,7-7,7H7C3.1,527,0,523.9,0,520z"/>
				<path fill="#EACE8F" d="M499.8,432H18.2c-1.1,0-2,0.9-2,2v70.8c0,2.8,2.3,5,5,5h475.6c2.8,0,5-2.3,5-5V434
					C501.8,432.9,500.9,432,499.8,432z"/>
				<g>
					<defs>
						<path id="SVGID_31_" d="M499.8,432H18.2c-1.1,0-2,0.9-2,2v70.8c0,2.8,2.3,5,5,5h475.6c2.8,0,5-2.3,5-5V434
							C501.8,432.9,500.9,432,499.8,432z"/>
					</defs>
					<clipPath id="SVGID_32_">
						<use xlink:href="#SVGID_31_"  overflow="visible"/>
					</clipPath>
					<rect x="12.1" y="423.3" opacity="0.24" clip-path="url(#SVGID_32_)" fill="#FFFFFF" width="493.7" height="17.3"/>
					<rect x="12.1" y="492.4" opacity="0.14" clip-path="url(#SVGID_32_)" width="493.7" height="25.9"/>
				</g>
				<g>
					<rect x="218.5" y="440.6" opacity="0.24" fill="#FFFFFF" width="8.1" height="51.8"/>
					<rect x="234.7" y="440.6" opacity="0.24" fill="#FFFFFF" width="4" height="51.8"/>
				</g>
			</g>
			<g>
				<path fill="#453F3C" d="M32.4,293.7C14.5,293.7,0,278.2,0,259.2s14.5-34.6,32.4-34.6h453.3c17.9,0,32.4,15.5,32.4,34.6
					s-14.5,34.6-32.4,34.6H32.4z"/>
				<path fill="#7A6862" d="M499.8,276.5H18.2c-1.1,0-2-0.9-2-2v-30.6c0-1.1,0.9-2,2-2h481.6c1.1,0,2,0.9,2,2v30.6
					C501.8,275.6,500.9,276.5,499.8,276.5z"/>
				<g>
					<rect x="190.2" y="250.5" opacity="0.24" fill="#FFFFFF" width="8.1" height="17.3"/>
					<rect x="206.4" y="250.5" opacity="0.24" fill="#FFFFFF" width="4" height="17.3"/>
				</g>
				<g>
					<path fill="#453F3C" d="M96.6,272.1H73.3c-0.3,0-0.5-0.2-0.5-0.5V264c0-0.3,0.2-0.5,0.5-0.5h23.3c0.3,0,0.5,0.2,0.5,0.5v7.6
						C97.1,271.9,96.9,272.1,96.6,272.1z"/>
					<path fill="#453F3C" d="M238.3,267.8H215c-0.3,0-0.5-0.2-0.5-0.5v-7.6c0-0.3,0.2-0.5,0.5-0.5h23.3c0.3,0,0.5,0.2,0.5,0.5v7.6
						C238.8,267.6,238.5,267.8,238.3,267.8z"/>
					<path fill="#453F3C" d="M173.5,259.2h-23.3c-0.3,0-0.5-0.2-0.5-0.5V251c0-0.3,0.2-0.5,0.5-0.5h23.3c0.3,0,0.5,0.2,0.5,0.5v7.6
						C174,259,173.8,259.2,173.5,259.2z"/>
					<path fill="#453F3C" d="M420.4,259.2h-23.3c-0.3,0-0.5-0.2-0.5-0.5V251c0-0.3,0.2-0.5,0.5-0.5h23.3c0.3,0,0.5,0.2,0.5,0.5v7.6
						C420.9,259,420.7,259.2,420.4,259.2z"/>
					<path fill="#453F3C" d="M485.1,263.5h-23.3c-0.3,0-0.5-0.2-0.5-0.5v-7.6c0-0.3,0.2-0.5,0.5-0.5h23.3c0.3,0,0.5,0.2,0.5,0.5v7.6
						C485.6,263.3,485.4,263.5,485.1,263.5z"/>
				</g>
				<path opacity="0.14" d="M485.6,241.9H32.4c-8.9,0-16.2,7.7-16.2,17.3c0,9.5,7.2,17.3,16.2,17.3h453.3c8.9,0,16.2-7.7,16.2-17.3
					C501.8,249.6,494.6,241.9,485.6,241.9z M485.6,267.8H32.4c-4.5,0-8.1-3.9-8.1-8.6c0-4.8,3.6-8.6,8.1-8.6h453.3
					c4.5,0,8.1,3.9,8.1,8.6C493.7,263.9,490.1,267.8,485.6,267.8z"/>
			</g>
			<g>
				<path fill="#453F3C" d="M485.6,432c17.9,0,32.4-15.5,32.4-34.6c0-19.1-14.5-34.6-32.4-34.6H32.4C14.5,362.9,0,378.4,0,397.4
					C0,416.5,14.5,432,32.4,432H485.6z"/>
				<path fill="#7A6862" d="M499.8,380.1H18.2c-1.1,0-2,0.9-2,2v30.6c0,1.1,0.9,2,2,2h481.6c1.1,0,2-0.9,2-2v-30.6
					C501.8,381,500.9,380.1,499.8,380.1z"/>
				<g>
					<rect x="299.5" y="388.8" opacity="0.24" fill="#FFFFFF" width="8.1" height="17.3"/>
					<rect x="315.7" y="388.8" opacity="0.24" fill="#FFFFFF" width="4" height="17.3"/>
				</g>
				<g>
					<path fill="#453F3C" d="M452.8,384.5h-23.3c-0.3,0-0.5,0.2-0.5,0.5v7.6c0,0.3,0.2,0.5,0.5,0.5h23.3c0.3,0,0.5-0.2,0.5-0.5V385
						C453.3,384.7,453,384.5,452.8,384.5z"/>
					<path fill="#453F3C" d="M290.9,384.5h-23.3c-0.3,0-0.5,0.2-0.5,0.5v7.6c0,0.3,0.2,0.5,0.5,0.5h23.3c0.3,0,0.5-0.2,0.5-0.5V385
						C291.4,384.7,291.2,384.5,290.9,384.5z"/>
					<path fill="#453F3C" d="M359.7,397.4h-23.3c-0.3,0-0.5,0.2-0.5,0.5v7.6c0,0.3,0.2,0.5,0.5,0.5h23.3c0.3,0,0.5-0.2,0.5-0.5v-7.6
						C360.2,397.6,359.9,397.4,359.7,397.4z"/>
					<path fill="#453F3C" d="M133,397.4h-23.3c-0.3,0-0.5,0.2-0.5,0.5v7.6c0,0.3,0.2,0.5,0.5,0.5H133c0.3,0,0.5-0.2,0.5-0.5v-7.6
						C133.5,397.6,133.3,397.4,133,397.4z"/>
					<path fill="#453F3C" d="M68.3,384.5H45c-0.3,0-0.5,0.2-0.5,0.5v7.6c0,0.3,0.2,0.5,0.5,0.5h23.3c0.3,0,0.5-0.2,0.5-0.5V385
						C68.8,384.7,68.6,384.5,68.3,384.5z"/>
				</g>
				<path opacity="0.14" d="M16.2,397.4c0,9.5,7.2,17.3,16.2,17.3h453.3c8.9,0,16.2-7.7,16.2-17.3c0-9.5-7.2-17.3-16.2-17.3H32.4
					C23.4,380.1,16.2,387.9,16.2,397.4z M24.3,397.4c0-4.8,3.6-8.6,8.1-8.6h453.3c4.5,0,8.1,3.9,8.1,8.6c0,4.8-3.6,8.6-8.1,8.6H32.4
					C27.9,406,24.3,402.2,24.3,397.4z"/>
			</g>
			<g>
				<path opacity="0.14" d="M388.5,250.5H255c12.9,17.9,34.6,43.2,60.7,43.2C341.8,293.7,370.9,268.4,388.5,250.5z"/>
				<path fill="#453F3C" d="M315.7,285.1c-32.3,0-64.8-55.7-64.8-55.7v-30.7h145.7v30.2C396.6,228.9,347.9,285.1,315.7,285.1z"/>
				<path fill="#453F3C" d="M24.3,241.9C10.9,241.9,0,230.3,0,216c0-14.3,10.9-25.9,24.3-25.9h469.4c13.4,0,24.3,11.6,24.3,25.9
					c0,14.3-10.9,25.9-24.3,25.9H24.3z"/>
				<path fill="#EAC363" d="M500.8,224.6H17.2c-0.6,0-1-0.4-1-1v-15.3c0-0.6,0.4-1,1-1h483.6c0.6,0,1,0.4,1,1v15.3
					C501.8,224.2,501.4,224.6,500.8,224.6z"/>
				<path fill="#EAC363" d="M267.1,224.6c0,0,24.3,43.2,48.6,43.2c24.1,0,64.8-43.2,64.8-43.2V216H267.1V224.6z"/>
				<g>
					<defs>
						<path id="SVGID_33_" d="M267.1,216v8.6h8.1c8.6,12.5,24.4,34.6,40.5,34.6c16.2,0,41.1-20.2,56.6-34.6h8.1V216H267.1z"/>
					</defs>
					<clipPath id="SVGID_34_">
						<use xlink:href="#SVGID_33_"  overflow="visible"/>
					</clipPath>
					<g clip-path="url(#SVGID_34_)">
						<rect x="299.5" y="216" opacity="0.24" fill="#FFFFFF" width="8.1" height="43.2"/>
						<rect x="315.7" y="216" opacity="0.24" fill="#FFFFFF" width="4" height="43.2"/>
					</g>
				</g>
				<g>
					<defs>
						<path id="SVGID_35_" d="M267.1,224.6c0,0,24.3,43.2,48.6,43.2c24.1,0,64.8-43.2,64.8-43.2V216H267.1V224.6z"/>
					</defs>
					<clipPath id="SVGID_36_">
						<use xlink:href="#SVGID_35_"  overflow="visible"/>
					</clipPath>
					<path opacity="0.24" clip-path="url(#SVGID_36_)" fill="#FFFFFF" d="M267.1,224.6h8.1c8.6,12.5,24.4,34.6,40.5,34.6
						c16.2,0,41.1-20.2,56.6-34.6h8.1v51.8H267.1V224.6z"/>
				</g>
				<g>
					<defs>
						<path id="SVGID_37_" d="M500.8,224.6H17.2c-0.6,0-1-0.4-1-1v-15.3c0-0.6,0.4-1,1-1h483.6c0.6,0,1,0.4,1,1v15.3
							C501.8,224.2,501.4,224.6,500.8,224.6z"/>
					</defs>
					<clipPath id="SVGID_38_">
						<use xlink:href="#SVGID_37_"  overflow="visible"/>
					</clipPath>
					<rect x="12.1" y="198.7" opacity="0.14" clip-path="url(#SVGID_38_)" width="493.7" height="17.3"/>
				</g>
			</g>
			<g>
				<path fill="#453F3C" d="M153.8,246.2c-20.9,0-89-2.8-89-38.9s68.1-38.9,89-38.9s89,2.8,89,38.9S174.7,246.2,153.8,246.2z"/>
				<ellipse fill="#ED7161" cx="153.8" cy="207.3" rx="72.8" ry="21.6"/>
				<g>
					<defs>
						<rect id="SVGID_39_" x="80.9" y="216" width="145.7" height="17.3"/>
					</defs>
					<clipPath id="SVGID_40_">
						<use xlink:href="#SVGID_39_"  overflow="visible"/>
					</clipPath>
					<path opacity="0.24" clip-path="url(#SVGID_40_)" fill="#FFFFFF" d="M153.8,220.3c-35.8,0-64.8-5.8-64.8-13h-8.1
						c0,11.9,32.6,21.6,72.8,21.6s72.8-9.7,72.8-21.6h-8.1C218.5,214.5,189.5,220.3,153.8,220.3z"/>
				</g>
				<g>
					<defs>
						<ellipse id="SVGID_41_" cx="153.8" cy="207.3" rx="72.8" ry="21.6"/>
					</defs>
					<clipPath id="SVGID_42_">
						<use xlink:href="#SVGID_41_"  overflow="visible"/>
					</clipPath>
					<rect x="76.9" y="198.7" opacity="0.14" clip-path="url(#SVGID_42_)" width="153.8" height="17.3"/>
				</g>
			</g>
			<g>
				<path fill="#453F3C" d="M0,203.3V19C0,8.5,8.5,0,19,0h480c10.5,0,19,8.5,19,19v184.3c0,2.2-1.8,4-4,4H4
					C1.8,207.3,0,205.6,0,203.3z"/>
				<path fill="#EACE8F" d="M499.8,190.1H18.2c-1.1,0-2-0.9-2-2V34.3c0-9.3,7.6-17,17-17h451.6c9.4,0,17,7.6,17,17v153.8
					C501.8,189.2,500.9,190.1,499.8,190.1z"/>
				<g>
					<defs>
						<path id="SVGID_43_" d="M499.8,190.1H18.2c-1.1,0-2-0.9-2-2V34.3c0-9.3,7.6-17,17-17h451.6c9.4,0,17,7.6,17,17v153.8
							C501.8,189.2,500.9,190.1,499.8,190.1z"/>
					</defs>
					<clipPath id="SVGID_44_">
						<use xlink:href="#SVGID_43_"  overflow="visible"/>
					</clipPath>
					<rect y="172.8" opacity="0.14" clip-path="url(#SVGID_44_)" width="518" height="34.6"/>
					<g opacity="0.24" clip-path="url(#SVGID_44_)">
						<path fill="#FFFFFF" d="M509.9,172.8h-16.2v-8.6c0-76.3-58-138.2-129.5-138.2H153.8c-73.6,0-129.5,64.4-129.5,138.2v8.6H8.1
							v-8.6C8.1,80.8,71.2,8.6,153.8,8.6h210.4C445,8.6,509.9,78,509.9,164.1V172.8z"/>
					</g>
				</g>
				<g>
					<ellipse fill="#FFE09B" cx="178.1" cy="151.2" rx="8.1" ry="8.6"/>
					<ellipse fill="#FFE09B" cx="259" cy="112.3" rx="8.1" ry="8.6"/>
					<ellipse fill="#FFE09B" cx="174" cy="47.5" rx="8.1" ry="8.6"/>
					<ellipse fill="#FFE09B" cx="449.2" cy="125.3" rx="8.1" ry="8.6"/>
					<ellipse fill="#FFE09B" cx="376.4" cy="56.2" rx="8.1" ry="8.6"/>
					<ellipse fill="#FFE09B" cx="344" cy="155.5" rx="8.1" ry="8.6"/>
					<ellipse fill="#FFE09B" cx="76.9" cy="73.4" rx="8.1" ry="8.6"/>
					<ellipse fill="#FFE09B" cx="56.7" cy="146.9" rx="8.1" ry="8.6"/>
					<ellipse fill="#FFE09B" cx="291.4" cy="38.9" rx="8.1" ry="8.6"/>
				</g>
				<g>
					<rect x="218.5" y="25.9" opacity="0.24" fill="#FFFFFF" width="8.1" height="146.9"/>
					<rect x="234.7" y="25.9" opacity="0.24" fill="#FFFFFF" width="4" height="146.9"/>
				</g>
			</g>
			<g>
				<path opacity="0.14" d="M129.5,388.8H263C250.2,406,228.5,432,202.3,432C176.2,432,147.1,406,129.5,388.8z"/>
				<path fill="#453F3C" d="M202.3,423.3c32.3,0,64.8-55.7,64.8-55.7v-30.7H121.4v30.2C121.4,367.2,170.1,423.3,202.3,423.3z"/>
				<path fill="#453F3C" d="M493.7,380.1c13.4,0,24.3-11.6,24.3-25.9c0-14.3-10.9-25.9-24.3-25.9H24.3C10.9,328.3,0,339.9,0,354.2
					c0,14.3,10.9,25.9,24.3,25.9H493.7z"/>
				<path fill="#EAC363" d="M500.8,345.6H17.2c-0.6,0-1,0.4-1,1v15.3c0,0.6,0.4,1,1,1h483.6c0.6,0,1-0.4,1-1v-15.3
					C501.8,346,501.4,345.6,500.8,345.6z"/>
				<path fill="#EAC363" d="M250.9,362.9c0,0-24.3,43.2-48.6,43.2c-24.1,0-64.8-43.2-64.8-43.2v-8.6h113.3V362.9z"/>
				<g>
					<defs>
						<path id="SVGID_45_" d="M250.9,354.2v8.6h-8.1c-8.6,13-24.4,34.6-40.5,34.6c-16.2,0-41.1-21.6-56.6-34.6h-8.1v-8.6H250.9z"/>
					</defs>
					<clipPath id="SVGID_46_">
						<use xlink:href="#SVGID_45_"  overflow="visible"/>
					</clipPath>
					<g clip-path="url(#SVGID_46_)">
						<rect x="190.2" y="354.2" opacity="0.24" fill="#FFFFFF" width="8.1" height="43.2"/>
						<rect x="206.4" y="354.2" opacity="0.24" fill="#FFFFFF" width="4" height="43.2"/>
					</g>
				</g>
				<g>
					<defs>
						<path id="SVGID_47_" d="M250.9,362.9c0,0-24.3,43.2-48.6,43.2c-24.1,0-64.8-43.2-64.8-43.2v-8.6h113.3V362.9z"/>
					</defs>
					<clipPath id="SVGID_48_">
						<use xlink:href="#SVGID_47_"  overflow="visible"/>
					</clipPath>
					<path opacity="0.24" clip-path="url(#SVGID_48_)" fill="#FFFFFF" d="M250.9,362.9h-8.1c-8.6,13-24.4,34.6-40.5,34.6
						c-16.2,0-41.1-21.6-56.6-34.6h-8.1v51.8h113.3V362.9z"/>
				</g>
				<g>
					<defs>
						<path id="SVGID_49_" d="M500.8,345.6H17.2c-0.6,0-1,0.4-1,1v15.3c0,0.6,0.4,1,1,1h483.6c0.6,0,1-0.4,1-1v-15.3
							C501.8,346,501.4,345.6,500.8,345.6z"/>
					</defs>
					<clipPath id="SVGID_50_">
						<use xlink:href="#SVGID_49_"  overflow="visible"/>
					</clipPath>
					<rect x="12.1" y="336.9" opacity="0.14" clip-path="url(#SVGID_50_)" width="493.7" height="17.3"/>
				</g>
			</g>
			<g>
				<path fill="#453F3C" d="M364.2,384.5c-18,0-76.9-2.8-76.9-38.9s58.9-38.9,76.9-38.9s76.9,2.8,76.9,38.9S382.3,384.5,364.2,384.5
					z"/>
				<ellipse fill="#5E7D65" cx="364.2" cy="345.6" rx="60.7" ry="21.6"/>
				<g>
					<defs>
						<ellipse id="SVGID_51_" cx="364.2" cy="345.6" rx="60.7" ry="21.6"/>
					</defs>
					<clipPath id="SVGID_52_">
						<use xlink:href="#SVGID_51_"  overflow="visible"/>
					</clipPath>
					<rect x="303.5" y="358.5" opacity="0.24" clip-path="url(#SVGID_52_)" fill="#FFFFFF" width="121.4" height="17.3"/>
				</g>
				<g>
					<defs>
						<ellipse id="SVGID_53_" cx="364.2" cy="345.6" rx="60.7" ry="21.6"/>
					</defs>
					<clipPath id="SVGID_54_">
						<use xlink:href="#SVGID_53_"  overflow="visible"/>
					</clipPath>
					<rect x="299.5" y="319.7" opacity="0.14" clip-path="url(#SVGID_54_)" width="129.5" height="34.6"/>
				</g>
			</g>
			<g>
				<path fill="#453F3C" d="M515,345.6H3c-1.7,0-3-1.3-3-3v-63.1c0-1.7,1.3-3,3-3h512c1.7,0,3,1.3,3,3v63.1
					C518,344.2,516.7,345.6,515,345.6z"/>
				<path fill="#EACE8F" d="M500.8,328.3H17.2c-0.6,0-1-0.4-1-1v-32.6c0-0.6,0.4-1,1-1h483.6c0.6,0,1,0.4,1,1v32.6
					C501.8,327.8,501.4,328.3,500.8,328.3z"/>
				<g>
					<defs>
						<path id="SVGID_55_" d="M500.8,328.3H17.2c-0.6,0-1-0.4-1-1v-32.6c0-0.6,0.4-1,1-1h483.6c0.6,0,1,0.4,1,1v32.6
							C501.8,327.8,501.4,328.3,500.8,328.3z"/>
					</defs>
					<clipPath id="SVGID_56_">
						<use xlink:href="#SVGID_55_"  overflow="visible"/>
					</clipPath>
					<rect x="12.1" y="285.1" opacity="0.24" clip-path="url(#SVGID_56_)" fill="#FFFFFF" width="493.7" height="17.3"/>
					<rect x="12.1" y="319.7" opacity="0.14" clip-path="url(#SVGID_56_)" width="493.7" height="17.3"/>
				</g>
				<g>
					<rect x="218.5" y="302.4" opacity="0.24" fill="#FFFFFF" width="8.1" height="17.3"/>
					<rect x="234.7" y="302.4" opacity="0.24" fill="#FFFFFF" width="4" height="17.3"/>
				</g>
			</g>
		</g>
	</g>
	<g>
		<defs>
			<rect id="SVGID_57_" width="518" height="527"/>
		</defs>
		<clipPath id="SVGID_58_">
			<use xlink:href="#SVGID_57_"  overflow="visible"/>
		</clipPath>
		<g clip-path="url(#SVGID_58_)">
			<g>
				<g>
					<defs>
						<path id="SVGID_59_" d="M499.8,432H18.2c-1.1,0-2,0.9-2,2v70.8c0,2.8,2.3,5,5,5h475.6c2.8,0,5-2.3,5-5V434
							C501.8,432.9,500.9,432,499.8,432z"/>
					</defs>
					<clipPath id="SVGID_60_">
						<use xlink:href="#SVGID_59_"  overflow="visible"/>
					</clipPath>
				</g>
			</g>
			<g>
				<g>
					<defs>
						<path id="SVGID_61_" d="M267.1,216v8.6h8.1c8.6,12.5,24.4,34.6,40.5,34.6c16.2,0,41.1-20.2,56.6-34.6h8.1V216H267.1z"/>
					</defs>
					<clipPath id="SVGID_62_">
						<use xlink:href="#SVGID_61_"  overflow="visible"/>
					</clipPath>
				</g>
				<g>
					<defs>
						<path id="SVGID_63_" d="M267.1,224.6c0,0,24.3,43.2,48.6,43.2c24.1,0,64.8-43.2,64.8-43.2V216H267.1V224.6z"/>
					</defs>
					<clipPath id="SVGID_64_">
						<use xlink:href="#SVGID_63_"  overflow="visible"/>
					</clipPath>
				</g>
				<g>
					<defs>
						<path id="SVGID_65_" d="M500.8,224.6H17.2c-0.6,0-1-0.4-1-1v-15.3c0-0.6,0.4-1,1-1h483.6c0.6,0,1,0.4,1,1v15.3
							C501.8,224.2,501.4,224.6,500.8,224.6z"/>
					</defs>
					<clipPath id="SVGID_66_">
						<use xlink:href="#SVGID_65_"  overflow="visible"/>
					</clipPath>
				</g>
			</g>
			<g>
				<g>
					<defs>
						<rect id="SVGID_67_" x="80.9" y="216" width="145.7" height="17.3"/>
					</defs>
					<clipPath id="SVGID_68_">
						<use xlink:href="#SVGID_67_"  overflow="visible"/>
					</clipPath>
				</g>
				<g>
					<defs>
						<ellipse id="SVGID_69_" cx="153.8" cy="207.3" rx="72.8" ry="21.6"/>
					</defs>
					<clipPath id="SVGID_70_">
						<use xlink:href="#SVGID_69_"  overflow="visible"/>
					</clipPath>
				</g>
			</g>
			<g>
				<g>
					<defs>
						<path id="SVGID_71_" d="M499.8,190.1H18.2c-1.1,0-2-0.9-2-2V34.3c0-9.3,7.6-17,17-17h451.6c9.4,0,17,7.6,17,17v153.8
							C501.8,189.2,500.9,190.1,499.8,190.1z"/>
					</defs>
					<clipPath id="SVGID_72_">
						<use xlink:href="#SVGID_71_"  overflow="visible"/>
					</clipPath>
				</g>
			</g>
			<g>
				<g>
					<defs>
						<path id="SVGID_73_" d="M250.9,354.2v8.6h-8.1c-8.6,13-24.4,34.6-40.5,34.6c-16.2,0-41.1-21.6-56.6-34.6h-8.1v-8.6H250.9z"/>
					</defs>
					<clipPath id="SVGID_74_">
						<use xlink:href="#SVGID_73_"  overflow="visible"/>
					</clipPath>
				</g>
				<g>
					<defs>
						<path id="SVGID_75_" d="M250.9,362.9c0,0-24.3,43.2-48.6,43.2c-24.1,0-64.8-43.2-64.8-43.2v-8.6h113.3V362.9z"/>
					</defs>
					<clipPath id="SVGID_76_">
						<use xlink:href="#SVGID_75_"  overflow="visible"/>
					</clipPath>
				</g>
				<g>
					<defs>
						<path id="SVGID_77_" d="M500.8,345.6H17.2c-0.6,0-1,0.4-1,1v15.3c0,0.6,0.4,1,1,1h483.6c0.6,0,1-0.4,1-1v-15.3
							C501.8,346,501.4,345.6,500.8,345.6z"/>
					</defs>
					<clipPath id="SVGID_78_">
						<use xlink:href="#SVGID_77_"  overflow="visible"/>
					</clipPath>
				</g>
			</g>
			<g>
				<g>
					<defs>
						<ellipse id="SVGID_79_" cx="364.2" cy="345.6" rx="60.7" ry="21.6"/>
					</defs>
					<clipPath id="SVGID_80_">
						<use xlink:href="#SVGID_79_"  overflow="visible"/>
					</clipPath>
				</g>
				<g>
					<defs>
						<ellipse id="SVGID_81_" cx="364.2" cy="345.6" rx="60.7" ry="21.6"/>
					</defs>
					<clipPath id="SVGID_82_">
						<use xlink:href="#SVGID_81_"  overflow="visible"/>
					</clipPath>
				</g>
			</g>
			<g>
				<g>
					<defs>
						<path id="SVGID_83_" d="M500.8,328.3H17.2c-0.6,0-1-0.4-1-1v-32.6c0-0.6,0.4-1,1-1h483.6c0.6,0,1,0.4,1,1v32.6
							C501.8,327.8,501.4,328.3,500.8,328.3z"/>
					</defs>
					<clipPath id="SVGID_84_">
						<use xlink:href="#SVGID_83_"  overflow="visible"/>
					</clipPath>
				</g>
			</g>
		</g>
	</g>
</g>
</svg>
