<?xml version="1.0" encoding="utf-8"?>
<!-- Generator: Adobe Illustrator 18.1.1, SVG Export Plug-In . SVG Version: 6.00 Build 0)  -->
<svg version="1.1" id="Layer_1" xmlns="http://www.w3.org/2000/svg" xmlns:xlink="http://www.w3.org/1999/xlink" x="0px" y="0px"
	 viewBox="0 0 70.8 48" enable-background="new 0 0 70.8 48" xml:space="preserve">
<g>
	<defs>
		<polyline id="SVGID_1_" points="511.2,2.8 364,326.1 -269,326.1 -121.8,2.8 		"/>
	</defs>
	<clipPath id="SVGID_2_">
		<use xlink:href="#SVGID_1_"  overflow="visible"/>
	</clipPath>
</g>
<g>
	<defs>
		<polyline id="SVGID_3_" points="511.2,2.8 364,326.1 -269,326.1 -121.8,2.8 		"/>
	</defs>
	<clipPath id="SVGID_4_">
		<use xlink:href="#SVGID_3_"  overflow="visible"/>
	</clipPath>
</g>
<g>
	<defs>
		<polyline id="SVGID_5_" points="511.2,2.8 364,326.1 -269,326.1 -121.8,2.8 		"/>
	</defs>
	<clipPath id="SVGID_6_">
		<use xlink:href="#SVGID_5_"  overflow="visible"/>
	</clipPath>
</g>
<g>
	<defs>
		<polyline id="SVGID_7_" points="511.2,2.8 364,326.1 -269,326.1 -121.8,2.8 		"/>
	</defs>
	<clipPath id="SVGID_8_">
		<use xlink:href="#SVGID_7_"  overflow="visible"/>
	</clipPath>
</g>
<g>
	<defs>
		<polyline id="SVGID_9_" points="511.2,2.8 364,326.1 -269,326.1 -121.8,2.8 		"/>
	</defs>
	<clipPath id="SVGID_10_">
		<use xlink:href="#SVGID_9_"  overflow="visible"/>
	</clipPath>
</g>
<g>
	<defs>
		<polyline id="SVGID_11_" points="511.2,2.8 364,326.1 -269,326.1 -121.8,2.8 		"/>
	</defs>
	<clipPath id="SVGID_12_">
		<use xlink:href="#SVGID_11_"  overflow="visible"/>
	</clipPath>
</g>
<g>
	<defs>
		<polyline id="SVGID_13_" points="511.2,2.8 364,326.1 -269,326.1 -121.8,2.8 		"/>
	</defs>
	<clipPath id="SVGID_14_">
		<use xlink:href="#SVGID_13_"  overflow="visible"/>
	</clipPath>
</g>
<g>
	<defs>
		<polyline id="SVGID_15_" points="511.2,2.8 364,326.1 -269,326.1 -121.8,2.8 		"/>
	</defs>
	<clipPath id="SVGID_16_">
		<use xlink:href="#SVGID_15_"  overflow="visible"/>
	</clipPath>
</g>
<g>
	<defs>
		<polyline id="SVGID_17_" points="511.2,2.8 364,326.1 -269,326.1 -121.8,2.8 		"/>
	</defs>
	<clipPath id="SVGID_18_">
		<use xlink:href="#SVGID_17_"  overflow="visible"/>
	</clipPath>
</g>
<g>
	<defs>
		<polyline id="SVGID_19_" points="511.2,2.8 364,326.1 -269,326.1 -121.8,2.8 		"/>
	</defs>
	<clipPath id="SVGID_20_">
		<use xlink:href="#SVGID_19_"  overflow="visible"/>
	</clipPath>
</g>
<g>
	<defs>
		<polyline id="SVGID_21_" points="511.2,2.8 364,326.1 -269,326.1 -121.8,2.8 		"/>
	</defs>
	<clipPath id="SVGID_22_">
		<use xlink:href="#SVGID_21_"  overflow="visible"/>
	</clipPath>
</g>
<g>
	<defs>
		<polyline id="SVGID_23_" points="511.2,2.8 364,326.1 -269,326.1 -121.8,2.8 		"/>
	</defs>
	<clipPath id="SVGID_24_">
		<use xlink:href="#SVGID_23_"  overflow="visible"/>
	</clipPath>
</g>
<g>
	<defs>
		<polyline id="SVGID_25_" points="511.2,2.8 364,326.1 -269,326.1 -121.8,2.8 		"/>
	</defs>
	<clipPath id="SVGID_26_">
		<use xlink:href="#SVGID_25_"  overflow="visible"/>
	</clipPath>
</g>
<g>
	<defs>
		<polyline id="SVGID_27_" points="511.2,2.8 364,326.1 -269,326.1 -121.8,2.8 		"/>
	</defs>
	<clipPath id="SVGID_28_">
		<use xlink:href="#SVGID_27_"  overflow="visible"/>
	</clipPath>
</g>
<g>
	<defs>
		<polyline id="SVGID_29_" points="511.2,2.8 364,326.1 -269,326.1 -121.8,2.8 		"/>
	</defs>
	<clipPath id="SVGID_30_">
		<use xlink:href="#SVGID_29_"  overflow="visible"/>
	</clipPath>
</g>
<g>
	<defs>
		<polyline id="SVGID_31_" points="511.2,2.8 364,326.1 -269,326.1 -121.8,2.8 		"/>
	</defs>
	<clipPath id="SVGID_32_">
		<use xlink:href="#SVGID_31_"  overflow="visible"/>
	</clipPath>
</g>
<g>
	<defs>
		<polyline id="SVGID_33_" points="511.2,2.8 364,326.1 -269,326.1 -121.8,2.8 		"/>
	</defs>
	<clipPath id="SVGID_34_">
		<use xlink:href="#SVGID_33_"  overflow="visible"/>
	</clipPath>
</g>
<g>
	<defs>
		<polyline id="SVGID_35_" points="511.2,2.8 364,326.1 -269,326.1 -121.8,2.8 		"/>
	</defs>
	<clipPath id="SVGID_36_">
		<use xlink:href="#SVGID_35_"  overflow="visible"/>
	</clipPath>
</g>
<g>
	<defs>
		<rect id="SVGID_37_" x="56" y="30" width="2" height="11"/>
	</defs>
	<clipPath id="SVGID_38_">
		<use xlink:href="#SVGID_37_"  overflow="visible"/>
	</clipPath>
	<rect x="51" y="25" clip-path="url(#SVGID_38_)" fill="#6E84A8" width="12" height="21"/>
</g>
<g>
	<defs>
		<rect id="SVGID_39_" x="63" y="29" width="2" height="12"/>
	</defs>
	<clipPath id="SVGID_40_">
		<use xlink:href="#SVGID_39_"  overflow="visible"/>
	</clipPath>
	<rect x="58" y="24" clip-path="url(#SVGID_40_)" fill="#6E84A8" width="12" height="22"/>
</g>
<g>
	<defs>
		<rect id="SVGID_41_" x="8" y="35" width="2" height="6"/>
	</defs>
	<clipPath id="SVGID_42_">
		<use xlink:href="#SVGID_41_"  overflow="visible"/>
	</clipPath>
	<rect x="3" y="30" clip-path="url(#SVGID_42_)" fill="#6E84A8" width="12" height="16"/>
</g>
<g>
	<defs>
		<rect id="SVGID_43_" x="12" y="35" width="2" height="6"/>
	</defs>
	<clipPath id="SVGID_44_">
		<use xlink:href="#SVGID_43_"  overflow="visible"/>
	</clipPath>
	<rect x="7" y="30" clip-path="url(#SVGID_44_)" fill="#6E84A8" width="12" height="16"/>
</g>
<g>
	<defs>
		<rect id="SVGID_45_" x="16" y="35" width="2" height="6"/>
	</defs>
	<clipPath id="SVGID_46_">
		<use xlink:href="#SVGID_45_"  overflow="visible"/>
	</clipPath>
	<rect x="11" y="30" clip-path="url(#SVGID_46_)" fill="#6E84A8" width="12" height="16"/>
</g>
<g>
	<defs>
		<rect id="SVGID_47_" x="8" y="37" width="10" height="2"/>
	</defs>
	<clipPath id="SVGID_48_">
		<use xlink:href="#SVGID_47_"  overflow="visible"/>
	</clipPath>
	<rect x="3" y="32" clip-path="url(#SVGID_48_)" fill="#6E84A8" width="20" height="12"/>
</g>
<g>
	<defs>
		<rect id="SVGID_49_" x="32" y="37" width="22" height="2"/>
	</defs>
	<clipPath id="SVGID_50_">
		<use xlink:href="#SVGID_49_"  overflow="visible"/>
	</clipPath>
	<rect x="27" y="32" clip-path="url(#SVGID_50_)" fill="#6E84A8" width="32" height="12"/>
</g>
<g>
	<defs>
		<rect id="SVGID_51_" x="32" y="35" width="2" height="6"/>
	</defs>
	<clipPath id="SVGID_52_">
		<use xlink:href="#SVGID_51_"  overflow="visible"/>
	</clipPath>
	<rect x="27" y="30" clip-path="url(#SVGID_52_)" fill="#6E84A8" width="12" height="16"/>
</g>
<g>
	<defs>
		<rect id="SVGID_53_" x="36" y="35" width="2" height="6"/>
	</defs>
	<clipPath id="SVGID_54_">
		<use xlink:href="#SVGID_53_"  overflow="visible"/>
	</clipPath>
	<rect x="31" y="30" clip-path="url(#SVGID_54_)" fill="#6E84A8" width="12" height="16"/>
</g>
<g>
	<defs>
		<rect id="SVGID_55_" x="40" y="35" width="2" height="6"/>
	</defs>
	<clipPath id="SVGID_56_">
		<use xlink:href="#SVGID_55_"  overflow="visible"/>
	</clipPath>
	<rect x="35" y="30" clip-path="url(#SVGID_56_)" fill="#6E84A8" width="12" height="16"/>
</g>
<g>
	<defs>
		<rect id="SVGID_57_" x="44" y="35" width="2" height="6"/>
	</defs>
	<clipPath id="SVGID_58_">
		<use xlink:href="#SVGID_57_"  overflow="visible"/>
	</clipPath>
	<rect x="39" y="30" clip-path="url(#SVGID_58_)" fill="#6E84A8" width="12" height="16"/>
</g>
<g>
	<defs>
		<rect id="SVGID_59_" x="48" y="35" width="2" height="6"/>
	</defs>
	<clipPath id="SVGID_60_">
		<use xlink:href="#SVGID_59_"  overflow="visible"/>
	</clipPath>
	<rect x="43" y="30" clip-path="url(#SVGID_60_)" fill="#6E84A8" width="12" height="16"/>
</g>
<g>
	<defs>
		<rect id="SVGID_61_" x="52" y="35" width="2" height="6"/>
	</defs>
	<clipPath id="SVGID_62_">
		<use xlink:href="#SVGID_61_"  overflow="visible"/>
	</clipPath>
	<rect x="47" y="30" clip-path="url(#SVGID_62_)" fill="#6E84A8" width="12" height="16"/>
</g>
<g>
	<defs>
		<path id="SVGID_63_" d="M20,23.8c0,0,0.4-0.2,0.5-0.3c0.2-0.1,0.5-0.4,0.5-0.4s0.3,0.3,0.5,0.4c0.2,0.1,0.5,0.3,0.5,0.3V41h-2
			V23.8z"/>
	</defs>
	<clipPath id="SVGID_64_">
		<use xlink:href="#SVGID_63_"  overflow="visible"/>
	</clipPath>
	<rect x="15" y="18.2" clip-path="url(#SVGID_64_)" fill="#6E84A8" width="12" height="27.8"/>
</g>
<g>
	<defs>
		<path id="SVGID_65_" d="M28,24c0,0,0.7-0.3,1-0.5c0.3-0.2,1-0.7,1-0.7V41h-2V24z"/>
	</defs>
	<clipPath id="SVGID_66_">
		<use xlink:href="#SVGID_65_"  overflow="visible"/>
	</clipPath>
	<rect x="23" y="17.7" clip-path="url(#SVGID_66_)" fill="#6E84A8" width="12" height="28.3"/>
</g>
<g>
	<defs>
		<rect id="SVGID_67_" x="65" y="21" width="2" height="6"/>
	</defs>
	<clipPath id="SVGID_68_">
		<use xlink:href="#SVGID_67_"  overflow="visible"/>
	</clipPath>
	<rect x="60" y="16" clip-path="url(#SVGID_68_)" fill="#6E84A8" width="12" height="16"/>
</g>
<g>
	<defs>
		<rect id="SVGID_69_" x="60" y="21" width="3" height="2"/>
	</defs>
	<clipPath id="SVGID_70_">
		<use xlink:href="#SVGID_69_"  overflow="visible"/>
	</clipPath>
	<rect x="55" y="16" clip-path="url(#SVGID_70_)" fill="#6E84A8" width="13" height="12"/>
</g>
<g>
	<defs>
		<rect id="SVGID_71_" x="55" y="21" width="3" height="2"/>
	</defs>
	<clipPath id="SVGID_72_">
		<use xlink:href="#SVGID_71_"  overflow="visible"/>
	</clipPath>
	<rect x="50" y="16" clip-path="url(#SVGID_72_)" fill="#6E84A8" width="13" height="12"/>
</g>
<g>
	<defs>
		<path id="SVGID_73_" d="M54,27c0-1.1,0.9-2,2-2h9c1.1,0,2,0.9,2,2v2c0,1.1-0.9,2-2,2h-9c-1.1,0-2-0.9-2-2V27z"/>
	</defs>
	<clipPath id="SVGID_74_">
		<use xlink:href="#SVGID_73_"  overflow="visible"/>
	</clipPath>
	<path clip-path="url(#SVGID_74_)" fill="none" stroke="#6E84A8" stroke-width="4" stroke-miterlimit="10" d="M54,27
		c0-1.1,0.9-2,2-2h9c1.1,0,2,0.9,2,2v2c0,1.1-0.9,2-2,2h-9c-1.1,0-2-0.9-2-2V27z"/>
</g>
<path fill="none" stroke="#6E84A8" stroke-width="2" stroke-miterlimit="10" d="M56,18.5c0,0,0-0.3,0-2c0-1.7,2-0.5,2-2.8v-2.2"/>
<path fill="none" stroke="#6E84A8" stroke-width="2" stroke-miterlimit="10" d="M61,18.5c0,0,0-0.3,0-2c0-1.7,2-0.5,2-2.8v-2.2"/>
<path fill="none" stroke="#6E84A8" stroke-width="2" stroke-miterlimit="10" d="M36.9,15.9C36.5,18.2,34.4,20,32,20
	c-0.9,0-1.8-0.3-2.6-0.7C28.6,20.9,26.9,22,25,22c-1.6,0-3.1-0.8-4-2c-0.9,1.2-2.4,2-4,2c-2.4,0-4.5-1.8-4.9-4.1
	C9.8,17.5,8,15.4,8,13c0-2.4,1.7-4.4,4-4.9c0,0,0-0.1,0-0.1c0-2.8,2.2-5,5-5c1.1,0,2.2,0.4,3,1c0.9-1.2,2.4-2,4-2c1.6,0,3.1,0.8,4,2
	c0.8-0.6,1.9-1,3-1c2.1,0,3.8,1.2,4.6,3c0.1,0,0.3,0,0.4,0c2.8,0,5,2.2,5,5C41,13.4,39.2,15.5,36.9,15.9z"/>
<path fill="none" stroke="#6E84A8" stroke-width="2" stroke-miterlimit="10" d="M31,10.5c1.6,0,1.9,0.9,1.6,2.3
	c-0.3,1.4-1.2,3.5-3.3,3.7c-2.1,0.1-4.9-3.2-5.1-3.7c-0.2-0.5,3.3,0.5,3.9,0.4C28.8,13.1,29.4,10.5,31,10.5z"/>
<g>
	<defs>
		<rect id="SVGID_75_" x="28" y="17" width="2" height="3"/>
	</defs>
	<clipPath id="SVGID_76_">
		<use xlink:href="#SVGID_75_"  overflow="visible"/>
	</clipPath>
	<rect x="23" y="12" clip-path="url(#SVGID_76_)" fill="#6E84A8" width="12" height="13"/>
</g>
</svg>
