<?xml version="1.0" encoding="utf-8"?>
<!-- Generator: Adobe Illustrator 18.1.1, SVG Export Plug-In . SVG Version: 6.00 Build 0)  -->
<svg version="1.1" id="Layer_1" xmlns="http://www.w3.org/2000/svg" xmlns:xlink="http://www.w3.org/1999/xlink" x="0px" y="0px"
	 viewBox="0 0 518 527" enable-background="new 0 0 518 527" xml:space="preserve">
<g>
	<g>
		<defs>
			<rect id="SVGID_1_" y="23.7" width="518" height="460.1"/>
		</defs>
		<clipPath id="SVGID_2_">
			<use xlink:href="#SVGID_1_"  overflow="visible"/>
		</clipPath>
		<g clip-path="url(#SVGID_2_)">
			<g>
				<g>
					<g>
						<defs>
							<path id="SVGID_3_" d="M61.6,325.2H58c-2,0-3.6,1.7-3.6,3.9v23.2c0,2.1,1.6,3.9,3.6,3.9h3.6V325.2z"/>
						</defs>
						<clipPath id="SVGID_4_">
							<use xlink:href="#SVGID_3_"  overflow="visible"/>
						</clipPath>
					</g>
				</g>
				<g>
					<g>
						<defs>
							<path id="SVGID_5_" d="M21.7,360c-4,0-7.2-3.5-7.2-7.7v-23.2c0-4.3,3.3-7.7,7.2-7.7V360z"/>
						</defs>
						<clipPath id="SVGID_6_">
							<use xlink:href="#SVGID_5_"  overflow="visible"/>
						</clipPath>
					</g>
				</g>
				<g>
					<g>
						<defs>
							<path id="SVGID_7_" d="M441.4,468.3H109.2c-0.3,0-0.5-0.2-0.5-0.5v-14.5c0-0.3,0.2-0.5,0.5-0.5h332.3c0.3,0,0.5,0.2,0.5,0.5
								v14.5C441.9,468.1,441.7,468.3,441.4,468.3z"/>
						</defs>
						<clipPath id="SVGID_8_">
							<use xlink:href="#SVGID_7_"  overflow="visible"/>
						</clipPath>
					</g>
				</g>
				<g>
					<g>
						<defs>
							<path id="SVGID_9_" d="M181.1,93.2v-3.9c0-2.1-1.6-3.9-3.6-3.9h-21.7c-2,0-3.6,1.7-3.6,3.9v3.9H181.1z"/>
						</defs>
						<clipPath id="SVGID_10_">
							<use xlink:href="#SVGID_9_"  overflow="visible"/>
						</clipPath>
					</g>
				</g>
			</g>
			<g>
				<g>
					<g>
						<g>
							<defs>
								<path id="SVGID_11_" d="M471.5,414.2H79.1c-1.7,0-3-1.3-3-3V107.8c0-1.7,1.3-3,3-3h392.5c1.7,0,3,1.3,3,3v303.3
									C474.5,412.8,473.2,414.2,471.5,414.2z"/>
							</defs>
							<clipPath id="SVGID_12_">
								<use xlink:href="#SVGID_11_"  overflow="visible"/>
							</clipPath>
						</g>
					</g>
					<g>
						<g>
							<defs>
								<rect id="SVGID_13_" x="134" y="151.2" width="65.2" height="85.1"/>
							</defs>
							<clipPath id="SVGID_14_">
								<use xlink:href="#SVGID_13_"  overflow="visible"/>
							</clipPath>
						</g>
					</g>
					<g>
						<defs>
							<path id="SVGID_15_" d="M457,398.7H93.6c-1.7,0-3-1.3-3-3V123.3c0-1.7,1.3-3,3-3H457c1.7,0,3,1.3,3,3v272.4
								C460,397.3,458.7,398.7,457,398.7z"/>
						</defs>
						<clipPath id="SVGID_16_">
							<use xlink:href="#SVGID_15_"  overflow="visible"/>
						</clipPath>
					</g>
				</g>
				<g>
					<g>
						<defs>
							<path id="SVGID_17_" d="M471.5,414.2H79.1c-1.7,0-3-1.3-3-3V107.8c0-1.7,1.3-3,3-3h392.5c1.7,0,3,1.3,3,3v303.3
								C474.5,412.8,473.2,414.2,471.5,414.2z"/>
						</defs>
						<clipPath id="SVGID_18_">
							<use xlink:href="#SVGID_17_"  overflow="visible"/>
						</clipPath>
					</g>
					<g>
						<g>
							<defs>
								<ellipse id="SVGID_19_" cx="376.7" cy="201.5" rx="54.3" ry="58"/>
							</defs>
							<clipPath id="SVGID_20_">
								<use xlink:href="#SVGID_19_"  overflow="visible"/>
							</clipPath>
						</g>
					</g>
					<g>
						<defs>
							<rect id="SVGID_21_" x="293.4" y="128" width="166.6" height="146.9"/>
						</defs>
						<clipPath id="SVGID_22_">
							<use xlink:href="#SVGID_21_"  overflow="visible"/>
						</clipPath>
					</g>
				</g>
			</g>
		</g>
	</g>
	<g>
		<defs>
			<rect id="SVGID_23_" y="23.7" width="518" height="460.1"/>
		</defs>
		<clipPath id="SVGID_24_">
			<use xlink:href="#SVGID_23_"  overflow="visible"/>
		</clipPath>
		<g clip-path="url(#SVGID_24_)">
			<g>
				<g>
					<rect x="18.1" y="333" fill="#453F3C" width="43.5" height="15.5"/>
					<g>
						<path fill="#453F3C" d="M39.6,360h-3.1c-0.1,0-0.3-0.1-0.3-0.3v-38.2c0-0.1,0.1-0.3,0.3-0.3h3.1c0.1,0,0.3,0.1,0.3,0.3v38.2
							C39.8,359.9,39.7,360,39.6,360z"/>
						<path fill="#453F3C" d="M46.8,360h-3.1c-0.1,0-0.3-0.1-0.3-0.3v-38.2c0-0.1,0.1-0.3,0.3-0.3h3.1c0.1,0,0.3,0.1,0.3,0.3v38.2
							C47.1,359.9,47,360,46.8,360z"/>
						<path fill="#453F3C" d="M38,360L38,360c-1,0-1.8-0.9-1.8-1.9l7.2-34.8c0-1.1,0.8-1.9,1.8-1.9l0,0c1,0,1.8,0.9,1.8,1.9
							l-7.2,34.8C39.8,359.2,39,360,38,360z"/>
						<path fill="#453F3C" d="M45.3,360L45.3,360c-1,0-1.8-0.9-1.8-1.9l7.2-34.8c0-1.1,0.8-1.9,1.8-1.9h0c1,0,1.8,0.9,1.8,1.9
							l-7.2,34.8C47.1,359.2,46.3,360,45.3,360z"/>
						<path fill="#453F3C" d="M30.8,360L30.8,360c-1,0-1.8-0.9-1.8-1.9l7.2-34.8c0-1.1,0.8-1.9,1.8-1.9h0c1,0,1.8,0.9,1.8,1.9
							l-7.2,34.8C32.6,359.2,31.8,360,30.8,360z"/>
					</g>
					<g>
						<path fill="#453F3C" d="M54.3,363.9c-4,0-7.2-3.5-7.2-7.7v-30.9c0-4.3,3.2-7.7,7.2-7.7h7.2v46.4H54.3z"/>
						<path fill="#999393" d="M61.6,325.2H58c-2,0-3.6,1.7-3.6,3.9v23.2c0,2.1,1.6,3.9,3.6,3.9h3.6V325.2z"/>
						<g>
							<defs>
								<path id="SVGID_25_" d="M61.6,325.2H58c-2,0-3.6,1.7-3.6,3.9v23.2c0,2.1,1.6,3.9,3.6,3.9h3.6V325.2z"/>
							</defs>
							<clipPath id="SVGID_26_">
								<use xlink:href="#SVGID_25_"  overflow="visible"/>
							</clipPath>
							<g clip-path="url(#SVGID_26_)">
								<rect x="47.1" y="317.5" opacity="0.6" fill="#FFFFFF" width="14.5" height="15.5"/>
								<rect x="47.1" y="348.4" opacity="0.2" width="14.5" height="15.5"/>
							</g>
						</g>
					</g>
				</g>
				<g>
					<path fill="#453F3C" d="M21.7,375.5c-12,0-21.7-10.4-21.7-23.2v-23.2c0-12.8,9.7-23.2,21.7-23.2h10.9v69.6H21.7z"/>
					<path fill="#999393" d="M21.7,360c-4,0-7.2-3.5-7.2-7.7v-23.2c0-4.3,3.3-7.7,7.2-7.7V360z"/>
					<g>
						<defs>
							<path id="SVGID_27_" d="M21.7,360c-4,0-7.2-3.5-7.2-7.7v-23.2c0-4.3,3.3-7.7,7.2-7.7V360z"/>
						</defs>
						<clipPath id="SVGID_28_">
							<use xlink:href="#SVGID_27_"  overflow="visible"/>
						</clipPath>
						<rect y="305.9" opacity="0.6" clip-path="url(#SVGID_28_)" fill="#FFFFFF" width="32.6" height="23.2"/>
						<rect y="352.3" opacity="0.2" clip-path="url(#SVGID_28_)" width="32.6" height="23.2"/>
					</g>
				</g>
				<path fill="#453F3C" d="M36.2,371.6c-2,0-3.6-1.7-3.6-3.9v-54.1c0-2.1,1.6-3.9,3.6-3.9h18.1v-15.5H32.6c-8,0-14.5,6.9-14.5,15.5
					v61.9c0,8.5,6.5,15.5,14.5,15.5h21.7v-15.5H36.2z"/>
				<g>
					<path fill="#453F3C" d="M137.7,54.6V43c0-10.7,8.1-19.3,18.1-19.3h21.7c10,0,18.1,8.7,18.1,19.3v11.6H137.7z"/>
					<path fill="#999393" d="M152.1,46.8V43c0-2.1,1.6-3.9,3.6-3.9h21.7c2,0,3.6,1.7,3.6,3.9v3.9H152.1z"/>
				</g>
				<path fill="#453F3C" d="M470.9,43h-21.7c0,4.3-3.3,7.7-7.2,7.7s-7.2-3.5-7.2-7.7H260.8c0,4.3-3.3,7.7-7.2,7.7s-7.2-3.5-7.2-7.7
					h-21.7c-4,0-7.2,3.5-7.2,7.7v23.2c0,4.3,3.3,7.7,7.2,7.7h246.3c4,0,7.2-3.5,7.2-7.7V50.7C478.2,46.5,474.9,43,470.9,43z"/>
				<path fill="#453F3C" d="M94.2,66.2V50.7c0-4.3,3.3-7.7,7.2-7.7h14.5c4,0,7.2,3.5,7.2,7.7v15.5H94.2z"/>
				<g>
					<path fill="#453F3C" d="M108.7,483.7c-8,0-14.5-6.9-14.5-15.5v-15.5c0-8.5,6.5-15.5,14.5-15.5h333.3c8,0,14.5,6.9,14.5,15.5
						v15.5c0,8.5-6.5,15.5-14.5,15.5H108.7z"/>
					<path fill="#D1CECE" d="M441.4,468.3H109.2c-0.3,0-0.5-0.2-0.5-0.5v-14.5c0-0.3,0.2-0.5,0.5-0.5h332.3c0.3,0,0.5,0.2,0.5,0.5
						v14.5C441.9,468.1,441.7,468.3,441.4,468.3z"/>
					<g>
						<ellipse fill="#453F3C" cx="123.2" cy="460.6" rx="3.6" ry="3.9"/>
						<ellipse fill="#453F3C" cx="137.7" cy="460.6" rx="3.6" ry="3.9"/>
						<ellipse fill="#453F3C" cx="152.1" cy="460.6" rx="3.6" ry="3.9"/>
						<ellipse fill="#453F3C" cx="166.6" cy="460.6" rx="3.6" ry="3.9"/>
						<ellipse fill="#453F3C" cx="181.1" cy="460.6" rx="3.6" ry="3.9"/>
						<ellipse fill="#453F3C" cx="195.6" cy="460.6" rx="3.6" ry="3.9"/>
						<ellipse fill="#453F3C" cx="210.1" cy="460.6" rx="3.6" ry="3.9"/>
						<ellipse fill="#453F3C" cx="253.6" cy="460.6" rx="3.6" ry="3.9"/>
						<ellipse fill="#453F3C" cx="268.1" cy="460.6" rx="3.6" ry="3.9"/>
						<ellipse fill="#453F3C" cx="282.5" cy="460.6" rx="3.6" ry="3.9"/>
						<ellipse fill="#453F3C" cx="297" cy="460.6" rx="3.6" ry="3.9"/>
						<ellipse fill="#453F3C" cx="340.5" cy="460.6" rx="3.6" ry="3.9"/>
						<ellipse fill="#453F3C" cx="355" cy="460.6" rx="3.6" ry="3.9"/>
						<ellipse fill="#453F3C" cx="369.5" cy="460.6" rx="3.6" ry="3.9"/>
						<ellipse fill="#453F3C" cx="384" cy="460.6" rx="3.6" ry="3.9"/>
						<ellipse fill="#453F3C" cx="398.5" cy="460.6" rx="3.6" ry="3.9"/>
						<ellipse fill="#453F3C" cx="413" cy="460.6" rx="3.6" ry="3.9"/>
						<ellipse fill="#453F3C" cx="427.4" cy="460.6" rx="3.6" ry="3.9"/>
					</g>
					<g>
						<defs>
							<path id="SVGID_29_" d="M441.4,468.3H109.2c-0.3,0-0.5-0.2-0.5-0.5v-14.5c0-0.3,0.2-0.5,0.5-0.5h332.3c0.3,0,0.5,0.2,0.5,0.5
								v14.5C441.9,468.1,441.7,468.3,441.4,468.3z"/>
						</defs>
						<clipPath id="SVGID_30_">
							<use xlink:href="#SVGID_29_"  overflow="visible"/>
						</clipPath>
						<rect x="94.2" y="437.4" opacity="0.2" clip-path="url(#SVGID_30_)" width="362.2" height="23.2"/>
					</g>
					<g>
						<rect x="224.6" y="437.4" fill="#453F3C" width="14.5" height="46.4"/>
						<rect x="311.5" y="437.4" fill="#453F3C" width="14.5" height="46.4"/>
					</g>
				</g>
				<g>
					<g>
						<g>
							<rect x="152.1" y="43" fill="#453F3C" width="29" height="46.4"/>
							<rect x="159.4" y="58.4" fill="#D1CECE" width="14.5" height="19.3"/>
							<g>
								<rect x="159.4" y="62.3" fill="#453F3C" width="14.5" height="3.9"/>
								<rect x="159.4" y="70" fill="#453F3C" width="14.5" height="3.9"/>
							</g>
						</g>
						<path fill="#453F3C" d="M144.9,85.5c0-4.3,3.2-7.7,7.2-7.7h29c4,0,7.2,3.5,7.2,7.7v7.7h-43.5V85.5z"/>
						<path fill="#999393" d="M181.1,93.2v-3.9c0-2.1-1.6-3.9-3.6-3.9h-21.7c-2,0-3.6,1.7-3.6,3.9v3.9H181.1z"/>
						<g>
							<defs>
								<path id="SVGID_31_" d="M181.1,93.2v-3.9c0-2.1-1.6-3.9-3.6-3.9h-21.7c-2,0-3.6,1.7-3.6,3.9v3.9H181.1z"/>
							</defs>
							<clipPath id="SVGID_32_">
								<use xlink:href="#SVGID_31_"  overflow="visible"/>
							</clipPath>
							<g clip-path="url(#SVGID_32_)">
								<rect x="173.9" y="77.8" opacity="0.6" fill="#FFFFFF" width="14.5" height="15.5"/>
								<rect x="144.9" y="77.8" opacity="0.2" width="14.5" height="15.5"/>
							</g>
						</g>
					</g>
					<path fill="#453F3C" d="M195.6,43h-58c-8,0-14.5,6.9-14.5,15.5v23.2h14.5V62.3c0-2.1,1.6-3.9,3.6-3.9H192c2,0,3.6,1.7,3.6,3.9
						v19.3h14.5V58.4C210.1,49.9,203.6,43,195.6,43z"/>
				</g>
				<g>
					<path fill="#453F3C" d="M452.8,66.2H195.6v15.5h257.2c24,0,43.5,20.8,43.5,46.4V391c0,25.6-19.5,46.4-43.5,46.4h-355
						c-24,0-43.5-20.8-43.5-46.4v-19.3H39.8V391c0,34.1,26,61.9,58,61.9h355c32,0,58-27.8,58-61.9V128
						C510.8,93.9,484.8,66.2,452.8,66.2z"/>
					<path fill="#453F3C" d="M54.3,309.8V128c0-25.6,19.5-46.4,43.5-46.4h39.8V66.2H97.8c-32,0-58,27.8-58,61.9v181.7H54.3z"/>
				</g>
			</g>
			<g>
				<g>
					<g>
						<g>
							<path fill="#453F3C" d="M97.8,429.6c-20,0-36.2-17.3-36.2-38.7V128c0-21.3,16.3-38.7,36.2-38.7h355c20,0,36.2,17.3,36.2,38.7
								V391c0,21.3-16.3,38.7-36.2,38.7H97.8z"/>
							<g>
								<path fill="#E2E0E0" d="M471.5,414.2H79.1c-1.7,0-3-1.3-3-3V107.8c0-1.7,1.3-3,3-3h392.5c1.7,0,3,1.3,3,3v303.3
									C474.5,412.8,473.2,414.2,471.5,414.2z"/>
							</g>
						</g>
						<g>
							<defs>
								<path id="SVGID_33_" d="M471.5,414.2H79.1c-1.7,0-3-1.3-3-3V107.8c0-1.7,1.3-3,3-3h392.5c1.7,0,3,1.3,3,3v303.3
									C474.5,412.8,473.2,414.2,471.5,414.2z"/>
							</defs>
							<clipPath id="SVGID_34_">
								<use xlink:href="#SVGID_33_"  overflow="visible"/>
							</clipPath>
							<rect x="61.6" y="89.4" opacity="0.6" clip-path="url(#SVGID_34_)" fill="#FFFFFF" width="427.4" height="30.9"/>
							<rect x="61.6" y="398.7" opacity="0.2" clip-path="url(#SVGID_34_)" width="427.4" height="30.9"/>
						</g>
					</g>
					<g>
						<rect x="322.4" y="371.6" fill="#453F3C" width="94.2" height="15.5"/>
						<rect x="423.8" y="371.6" fill="#453F3C" width="29" height="15.5"/>
					</g>
					<g>
						<path fill="#453F3C" d="M159.4,391c-26,0-47.1-22.5-47.1-50.3c0-27.7,21.1-50.3,47.1-50.3s47.1,22.5,47.1,50.3
							C206.5,368.4,185.3,391,159.4,391z"/>
						<ellipse fill="#CCC4C4" cx="159.4" cy="340.7" rx="32.6" ry="34.8"/>
						<g>
							<path fill="#453F3C" d="M162.5,333h-6.2c-0.3,0-0.5-0.2-0.5-0.5V318c0-0.3,0.2-0.5,0.5-0.5h6.2c0.3,0,0.5,0.2,0.5,0.5v14.5
								C163,332.7,162.8,333,162.5,333z"/>
							<path fill="#453F3C" d="M166.6,323v9.1c2.2,2.1,3.6,5.2,3.6,8.6c0,6.4-4.9,11.6-10.9,11.6s-10.9-5.2-10.9-11.6
								c0-3.4,1.4-6.5,3.6-8.6V323c-6.4,3-10.9,9.8-10.9,17.7c0,10.7,8.1,19.3,18.1,19.3s18.1-8.7,18.1-19.3
								C177.5,332.8,173,326,166.6,323z"/>
						</g>
						<path opacity="0.14" d="M159.4,305.9c-18,0-32.6,15.6-32.6,34.8c0,19.2,14.6,34.8,32.6,34.8s32.6-15.6,32.6-34.8
							C192,321.5,177.4,305.9,159.4,305.9z M159.4,371.6c-16,0-29-13.8-29-30.9s13-30.9,29-30.9s29,13.8,29,30.9
							S175.4,371.6,159.4,371.6z"/>
					</g>
					<g>
						<g>
							<g>
								<path fill="#453F3C" d="M105,267.2c-8,0-14.5-6.9-14.5-15.5v-116c0-8.5,6.5-15.5,14.5-15.5h108.7c8,0,14.5,6.9,14.5,15.5
									v116c0,8.5-6.5,15.5-14.5,15.5H105z"/>
								<path fill="#659378" d="M213.2,251.8H120c-0.3,0-0.5-0.2-0.5-0.5v-115c0-0.3,0.2-0.5,0.5-0.5h93.2c0.3,0,0.5,0.2,0.5,0.5
									v115C213.7,251.5,213.5,251.8,213.2,251.8z"/>
								<g>
									<path fill="#999393" d="M108.2,182.2h-6.2c-0.3,0-0.5-0.2-0.5-0.5V144c0-0.3,0.2-0.5,0.5-0.5h6.2c0.3,0,0.5,0.2,0.5,0.5
										v37.7C108.7,181.9,108.4,182.2,108.2,182.2z"/>
									<path fill="#ED7161" d="M108.2,244h-6.2c-0.3,0-0.5-0.2-0.5-0.5v-37.7c0-0.3,0.2-0.5,0.5-0.5h6.2c0.3,0,0.5,0.2,0.5,0.5
										v37.7C108.7,243.8,108.4,244,108.2,244z"/>
								</g>
							</g>
							<g>
								<rect x="134" y="151.2" fill="#4F735F" width="65.2" height="15.5"/>
								<rect x="134" y="174.4" fill="#4F735F" width="14.5" height="7.7"/>
								<rect x="155.8" y="174.4" fill="#4F735F" width="21.7" height="7.7"/>
								<rect x="134" y="189.9" fill="#4F735F" width="29" height="30.9"/>
								<rect x="170.3" y="189.9" fill="#4F735F" width="29" height="30.9"/>
								<rect x="134" y="224.7" fill="#4F735F" width="65.2" height="3.9"/>
								<rect x="134" y="232.4" fill="#4F735F" width="65.2" height="3.9"/>
							</g>
						</g>
						<g>
							<defs>
								<rect id="SVGID_35_" x="134" y="151.2" width="65.2" height="85.1"/>
							</defs>
							<clipPath id="SVGID_36_">
								<use xlink:href="#SVGID_35_"  overflow="visible"/>
							</clipPath>
							<path opacity="0.24" clip-path="url(#SVGID_36_)" fill="#FFFFFF" d="M144.9,247.9h-36.2l101.4-108.3h36.2L144.9,247.9z
								 M86.9,247.9H72.4l101.4-108.3h14.5L86.9,247.9z"/>
						</g>
						<path opacity="0.14" d="M210.1,135.8h-86.9c-2,0-3.6,1.7-3.6,3.9v108.3c0,2.1,1.6,3.9,3.6,3.9h86.9c2,0,3.6-1.7,3.6-3.9V139.6
							C213.7,137.5,212.1,135.8,210.1,135.8z M206.5,244h-79.7V143.5h79.7V244z"/>
					</g>
					<g>
						<defs>
							<path id="SVGID_37_" d="M457,398.7H93.6c-1.7,0-3-1.3-3-3V123.3c0-1.7,1.3-3,3-3H457c1.7,0,3,1.3,3,3v272.4
								C460,397.3,458.7,398.7,457,398.7z"/>
						</defs>
						<clipPath id="SVGID_38_">
							<use xlink:href="#SVGID_37_"  overflow="visible"/>
						</clipPath>
						<g opacity="0.5" clip-path="url(#SVGID_38_)">
							<path fill="#FFFFFF" d="M90.6,402.6H54.3l275.3-286.1h36.2L90.6,402.6z"/>
							<path fill="#FFFFFF" d="M32.6,402.6h-7.2l275.3-286.1h7.2L32.6,402.6z"/>
						</g>
					</g>
					<g opacity="0.5">
						<path fill="#FFFFFF" d="M97.8,437.4c-24,0-43.5-20.8-43.5-46.4V128c0-25.6,19.5-46.4,43.5-46.4h355c24,0,43.5,20.8,43.5,46.4
							V391c0,25.6-19.5,46.4-43.5,46.4H97.8z"/>
						<path fill="#FFFFFF" d="M54.3,371.6H36.2c-2,0-3.6-1.7-3.6-3.9v-54.1c0-2.1,1.6-3.9,3.6-3.9h18.1V371.6z"/>
						<path fill="#FFFFFF" d="M137.7,81.6V62.3c0-2.1,1.6-3.9,3.6-3.9H192c2,0,3.6,1.7,3.6,3.9v19.3H137.7z"/>
					</g>
				</g>
				<g>
					<g>
						<defs>
							<path id="SVGID_39_" d="M471.5,414.2H79.1c-1.7,0-3-1.3-3-3V107.8c0-1.7,1.3-3,3-3h392.5c1.7,0,3,1.3,3,3v303.3
								C474.5,412.8,473.2,414.2,471.5,414.2z"/>
						</defs>
						<clipPath id="SVGID_40_">
							<use xlink:href="#SVGID_39_"  overflow="visible"/>
						</clipPath>
						<path opacity="0.2" clip-path="url(#SVGID_40_)" d="M271.7,352.3c-20,0-36.2-17.3-36.2-38.7V120.3c0-21.3,16.3-38.7,36.2-38.7
							h210.1c20,0,36.2,17.3,36.2,38.7v193.3c0,21.3-16.3,38.7-36.2,38.7H271.7z"/>
					</g>
					<g>
						<path fill="#453F3C" d="M271.7,336.8c-20,0-36.2-17.3-36.2-38.7V104.8c0-21.3,16.3-38.7,36.2-38.7h210.1
							c20,0,36.2,17.3,36.2,38.7v193.3c0,21.3-16.3,38.7-36.2,38.7H271.7z"/>
						<path fill="#4F4A47" d="M271.7,321.4c-12,0-21.7-10.4-21.7-23.2V104.8c0-12.8,9.7-23.2,21.7-23.2h210.1
							c12,0,21.7,10.4,21.7,23.2v193.3c0,12.8-9.7,23.2-21.7,23.2H271.7z"/>
						<path fill="#453F3C" d="M278.9,305.9c-8,0-14.5-6.9-14.5-15.5V112.6c0-8.5,6.5-15.5,14.5-15.5h195.6c8,0,14.5,6.9,14.5,15.5
							v177.9c0,8.5-6.5,15.5-14.5,15.5H278.9z"/>
						<path fill="#56514E" d="M472.5,290.4H280.9c-1.1,0-2-0.9-2-2V114.6c0-1.1,0.9-2,2-2h191.6c1.1,0,2,0.9,2,2v173.9
							C474.5,289.5,473.6,290.4,472.5,290.4z"/>
						<path opacity="0.3" d="M460,120.3c4,0,7.2,3.5,7.2,7.7V275c0,4.3-3.3,7.7-7.2,7.7H293.4c-4,0-7.2-3.5-7.2-7.7V128
							c0-4.3,3.3-7.7,7.2-7.7H460 M460,112.6H293.4c-8,0-14.5,7-14.5,15.5V275c0,8.5,6.5,15.5,14.5,15.5H460c8,0,14.5-7,14.5-15.5
							V128C474.5,119.5,468,112.6,460,112.6L460,112.6z"/>
						<g>
							<rect x="391.2" y="89.4" opacity="0.2" fill="#FFFFFF" width="7.2" height="7.7"/>
							<rect x="405.7" y="89.4" opacity="0.2" fill="#FFFFFF" width="3.6" height="7.7"/>
						</g>
						<g>
							<rect x="391.2" y="305.9" opacity="0.2" fill="#FFFFFF" width="7.2" height="7.7"/>
							<rect x="405.7" y="305.9" opacity="0.2" fill="#FFFFFF" width="3.6" height="7.7"/>
						</g>
						<path opacity="0.2" fill="#FFFFFF" d="M481.8,81.6H271.7c-12,0-21.7,10.4-21.7,23.2v193.3c0,12.8,9.7,23.2,21.7,23.2h210.1
							c12,0,21.7-10.4,21.7-23.2V104.8C503.5,92,493.8,81.6,481.8,81.6z M496.3,298.2c0,8.5-6.5,15.5-14.5,15.5H271.7
							c-8,0-14.5-6.9-14.5-15.5V104.8c0-8.5,6.5-15.5,14.5-15.5h210.1c8,0,14.5,6.9,14.5,15.5V298.2z"/>
					</g>
					<g>
						<g>
							<g>
								<path fill="#453F3C" d="M376.7,282.7c-41.9,0-76.1-36.4-76.1-81.2s34.1-81.2,76.1-81.2s76.1,36.4,76.1,81.2
									S418.7,282.7,376.7,282.7z"/>
								<ellipse fill="#56514E" cx="376.7" cy="201.5" rx="61.6" ry="65.7"/>
							</g>
							<g>
								<ellipse fill="#453F3C" cx="376.7" cy="201.5" rx="54.3" ry="58"/>
								<g>
									<path fill="#3D3835" d="M376.7,143.5c30,0,54.3,26,54.3,58h7.2c0-36.3-27.6-65.7-61.6-65.7s-61.6,29.4-61.6,65.7h7.2
										C322.4,169.5,346.7,143.5,376.7,143.5z"/>
									<path opacity="0.1" fill="#FFFFFF" d="M376.7,259.5c30,0,54.3-26,54.3-58h7.2c0,36.3-27.6,65.7-61.6,65.7
										s-61.6-29.4-61.6-65.7h7.2C322.4,233.5,346.7,259.5,376.7,259.5z"/>
								</g>
							</g>
							<g>
								<ellipse fill="#453E3B" cx="376.7" cy="201.5" rx="47.1" ry="50.3"/>
								<g>
									<path fill="#3D3835" d="M376.7,159c22,0,39.8,19,39.8,42.5h7.2c0-27.8-21.1-50.3-47.1-50.3s-47.1,22.5-47.1,50.3h7.2
										C336.9,178,354.7,159,376.7,159z"/>
									<path opacity="0.1" fill="#FFFFFF" d="M376.7,244c22,0,39.8-19,39.8-42.5h7.2c0,27.8-21.1,50.3-47.1,50.3
										s-47.1-22.5-47.1-50.3h7.2C336.9,225,354.7,244,376.7,244z"/>
								</g>
							</g>
							<g>
								<ellipse fill="#56514E" cx="376.7" cy="201.5" rx="32.6" ry="34.8"/>
								<ellipse fill="#3D3835" cx="376.7" cy="201.5" rx="29" ry="30.9"/>
								<ellipse fill="#3F493F" cx="376.7" cy="201.5" rx="10.9" ry="11.6"/>
								<ellipse fill="#4B564B" cx="376.7" cy="201.5" rx="3.6" ry="3.9"/>
								<g>
									<path fill="#453E3B" d="M376.7,186c8,0,14.5,6.9,14.5,15.5h7.2c0-12.8-9.7-23.2-21.7-23.2c-12,0-21.7,10.4-21.7,23.2h7.2
										C362.2,193,368.7,186,376.7,186z"/>
									<path fill="#56514E" d="M376.7,217c8,0,14.5-6.9,14.5-15.5h7.2c0,12.8-9.7,23.2-21.7,23.2c-12,0-21.7-10.4-21.7-23.2h7.2
										C362.2,210,368.7,217,376.7,217z"/>
								</g>
							</g>
						</g>
						<g>
							<g>
								<ellipse opacity="0.14" fill="#93278F" cx="376.7" cy="201.5" rx="54.3" ry="58"/>
							</g>
							<g>
								<g>
									<defs>
										<ellipse id="SVGID_41_" cx="376.7" cy="201.5" rx="54.3" ry="58"/>
									</defs>
									<clipPath id="SVGID_42_">
										<use xlink:href="#SVGID_41_"  overflow="visible"/>
									</clipPath>
								</g>
								<g>
									<ellipse opacity="0.2" fill="#FFFFFF" cx="358.6" cy="182.2" rx="10.9" ry="11.6"/>
									<ellipse opacity="0.2" fill="#FFFFFF" cx="391.2" cy="213.1" rx="3.6" ry="3.9"/>
								</g>
							</g>
							<path opacity="0.24" d="M376.7,143.5c-30,0-54.3,26-54.3,58c0,32,24.3,58,54.3,58c30,0,54.3-26,54.3-58
								C431.1,169.5,406.7,143.5,376.7,143.5z M376.7,255.6c-28,0-50.7-24.2-50.7-54.1s22.7-54.1,50.7-54.1
								c28,0,50.7,24.2,50.7,54.1S404.7,255.6,376.7,255.6z"/>
						</g>
					</g>
					<g>
						<defs>
							<rect id="SVGID_43_" x="293.4" y="128" width="166.6" height="146.9"/>
						</defs>
						<clipPath id="SVGID_44_">
							<use xlink:href="#SVGID_43_"  overflow="visible"/>
						</clipPath>
						<g opacity="0.3" clip-path="url(#SVGID_44_)">
							<path fill="#FFFFFF" d="M282.5,333h-36.2L499.9,70h36.2L282.5,333z"/>
							<path fill="#FFFFFF" d="M224.6,333h-7.2L470.9,70h7.2L224.6,333z"/>
						</g>
						<path opacity="0.4" clip-path="url(#SVGID_44_)" fill="#FFFFFF" d="M472.5,290.4H280.9c-1.1,0-2-0.9-2-2V114.6
							c0-1.1,0.9-2,2-2h191.6c1.1,0,2,0.9,2,2v173.9C474.5,289.5,473.6,290.4,472.5,290.4z"/>
					</g>
					<g>
						<g>
							<path fill="#453F3C" d="M322.4,104.8c-8,0-14.5-6.9-14.5-15.5s6.5-15.5,14.5-15.5c8,0,14.5,6.9,14.5,15.5
								S330.4,104.8,322.4,104.8z"/>
							<ellipse fill="#CCC4C4" cx="322.4" cy="89.4" rx="7.2" ry="7.7"/>
							<polygon fill="#453F3C" points="322.4,93.2 318.8,89.4 322.4,85.5 326,89.4 							"/>
							<path opacity="0.24" fill="#FFFFFF" d="M322.4,85.5c2,0,3.6,1.7,3.6,3.9h3.6c0-4.3-3.2-7.7-7.2-7.7s-7.2,3.5-7.2,7.7h3.6
								C318.8,87.2,320.4,85.5,322.4,85.5z"/>
							<path opacity="0.24" d="M322.4,93.2c-2,0-3.6-1.7-3.6-3.9h-3.6c0,4.3,3.2,7.7,7.2,7.7s7.2-3.5,7.2-7.7H326
								C326,91.5,324.4,93.2,322.4,93.2z"/>
						</g>
						<g>
							<path fill="#453F3C" d="M431.1,104.8c-8,0-14.5-6.9-14.5-15.5s6.5-15.5,14.5-15.5c8,0,14.5,6.9,14.5,15.5
								S439.1,104.8,431.1,104.8z"/>
							<ellipse fill="#CCC4C4" cx="431.1" cy="89.4" rx="7.2" ry="7.7"/>
							<polygon fill="#453F3C" points="431.1,93.2 427.4,89.4 431.1,85.5 434.7,89.4 							"/>
							<path opacity="0.24" fill="#FFFFFF" d="M431.1,85.5c2,0,3.6,1.7,3.6,3.9h3.6c0-4.3-3.2-7.7-7.2-7.7s-7.2,3.5-7.2,7.7h3.6
								C427.4,87.2,429.1,85.5,431.1,85.5z"/>
							<path opacity="0.24" d="M431.1,93.2c-2,0-3.6-1.7-3.6-3.9h-3.6c0,4.3,3.2,7.7,7.2,7.7s7.2-3.5,7.2-7.7h-3.6
								C434.7,91.5,433.1,93.2,431.1,93.2z"/>
						</g>
						<g>
							<path fill="#453F3C" d="M322.4,329.1c-8,0-14.5-6.9-14.5-15.5s6.5-15.5,14.5-15.5c8,0,14.5,6.9,14.5,15.5
								S330.4,329.1,322.4,329.1z"/>
							<ellipse fill="#CCC4C4" cx="322.4" cy="313.6" rx="7.2" ry="7.7"/>
							<polygon fill="#453F3C" points="322.4,317.5 318.8,313.6 322.4,309.8 326,313.6 							"/>
							<path opacity="0.24" fill="#FFFFFF" d="M322.4,309.8c2,0,3.6,1.7,3.6,3.9h3.6c0-4.3-3.2-7.7-7.2-7.7s-7.2,3.5-7.2,7.7h3.6
								C318.8,311.5,320.4,309.8,322.4,309.8z"/>
							<path opacity="0.24" d="M322.4,317.5c-2,0-3.6-1.7-3.6-3.9h-3.6c0,4.3,3.2,7.7,7.2,7.7s7.2-3.5,7.2-7.7H326
								C326,315.8,324.4,317.5,322.4,317.5z"/>
						</g>
						<g>
							<path fill="#453F3C" d="M431.1,329.1c-8,0-14.5-6.9-14.5-15.5s6.5-15.5,14.5-15.5c8,0,14.5,6.9,14.5,15.5
								S439.1,329.1,431.1,329.1z"/>
							<ellipse fill="#CCC4C4" cx="431.1" cy="313.6" rx="7.2" ry="7.7"/>
							<polygon fill="#453F3C" points="431.1,317.5 427.4,313.6 431.1,309.8 434.7,313.6 							"/>
							<path opacity="0.24" fill="#FFFFFF" d="M431.1,309.8c2,0,3.6,1.7,3.6,3.9h3.6c0-4.3-3.2-7.7-7.2-7.7s-7.2,3.5-7.2,7.7h3.6
								C427.4,311.5,429.1,309.8,431.1,309.8z"/>
							<path opacity="0.24" d="M431.1,317.5c-2,0-3.6-1.7-3.6-3.9h-3.6c0,4.3,3.2,7.7,7.2,7.7s7.2-3.5,7.2-7.7h-3.6
								C434.7,315.8,433.1,317.5,431.1,317.5z"/>
						</g>
						<g>
							<path fill="#453F3C" d="M257.2,159c-8,0-14.5-6.9-14.5-15.5s6.5-15.5,14.5-15.5c8,0,14.5,6.9,14.5,15.5S265.2,159,257.2,159z
								"/>
							<ellipse fill="#CCC4C4" cx="257.2" cy="143.5" rx="7.2" ry="7.7"/>
							<polygon fill="#453F3C" points="257.2,147.4 253.6,143.5 257.2,139.6 260.8,143.5 							"/>
							<path opacity="0.24" fill="#FFFFFF" d="M257.2,139.6c2,0,3.6,1.7,3.6,3.9h3.6c0-4.3-3.2-7.7-7.2-7.7s-7.2,3.5-7.2,7.7h3.6
								C253.6,141.4,255.2,139.6,257.2,139.6z"/>
							<path opacity="0.24" d="M257.2,147.4c-2,0-3.6-1.7-3.6-3.9h-3.6c0,4.3,3.2,7.7,7.2,7.7s7.2-3.5,7.2-7.7h-3.6
								C260.8,145.6,259.2,147.4,257.2,147.4z"/>
						</g>
						<g>
							<path fill="#453F3C" d="M257.2,275c-8,0-14.5-6.9-14.5-15.5c0-8.5,6.5-15.5,14.5-15.5c8,0,14.5,6.9,14.5,15.5
								C271.7,268,265.2,275,257.2,275z"/>
							<ellipse fill="#CCC4C4" cx="257.2" cy="259.5" rx="7.2" ry="7.7"/>
							<polygon fill="#453F3C" points="257.2,263.4 253.6,259.5 257.2,255.6 260.8,259.5 							"/>
							<path opacity="0.24" fill="#FFFFFF" d="M257.2,255.6c2,0,3.6,1.7,3.6,3.9h3.6c0-4.3-3.2-7.7-7.2-7.7s-7.2,3.5-7.2,7.7h3.6
								C253.6,257.4,255.2,255.6,257.2,255.6z"/>
							<path opacity="0.24" d="M257.2,263.4c-2,0-3.6-1.7-3.6-3.9h-3.6c0,4.3,3.2,7.7,7.2,7.7s7.2-3.5,7.2-7.7h-3.6
								C260.8,261.6,259.2,263.4,257.2,263.4z"/>
						</g>
						<g>
							<path fill="#453F3C" d="M496.3,159c-8,0-14.5-6.9-14.5-15.5s6.5-15.5,14.5-15.5c8,0,14.5,6.9,14.5,15.5S504.3,159,496.3,159z
								"/>
							<ellipse fill="#CCC4C4" cx="496.3" cy="143.5" rx="7.2" ry="7.7"/>
							<polygon fill="#453F3C" points="496.3,147.4 492.6,143.5 496.3,139.6 499.9,143.5 							"/>
							<path opacity="0.24" fill="#FFFFFF" d="M496.3,139.6c2,0,3.6,1.7,3.6,3.9h3.6c0-4.3-3.2-7.7-7.2-7.7c-4,0-7.2,3.5-7.2,7.7
								h3.6C492.6,141.4,494.3,139.6,496.3,139.6z"/>
							<path opacity="0.24" d="M496.3,147.4c-2,0-3.6-1.7-3.6-3.9H489c0,4.3,3.2,7.7,7.2,7.7c4,0,7.2-3.5,7.2-7.7h-3.6
								C499.9,145.6,498.3,147.4,496.3,147.4z"/>
						</g>
						<g>
							<path fill="#453F3C" d="M496.3,275c-8,0-14.5-6.9-14.5-15.5c0-8.5,6.5-15.5,14.5-15.5c8,0,14.5,6.9,14.5,15.5
								C510.8,268,504.3,275,496.3,275z"/>
							<ellipse fill="#CCC4C4" cx="496.3" cy="259.5" rx="7.2" ry="7.7"/>
							<polygon fill="#453F3C" points="496.3,263.4 492.6,259.5 496.3,255.6 499.9,259.5 							"/>
							<path opacity="0.24" fill="#FFFFFF" d="M496.3,255.6c2,0,3.6,1.7,3.6,3.9h3.6c0-4.3-3.2-7.7-7.2-7.7c-4,0-7.2,3.5-7.2,7.7
								h3.6C492.6,257.4,494.3,255.6,496.3,255.6z"/>
							<path opacity="0.24" d="M496.3,263.4c-2,0-3.6-1.7-3.6-3.9H489c0,4.3,3.2,7.7,7.2,7.7c4,0,7.2-3.5,7.2-7.7h-3.6
								C499.9,261.6,498.3,263.4,496.3,263.4z"/>
						</g>
					</g>
				</g>
				<g>
					<path opacity="0.4" fill="#FFFFFF" d="M119,406.4h-13.5c-0.3,0-0.5-0.2-0.5-0.5V376c0-0.3,0.2-0.5,0.5-0.5H119
						c0.3,0,0.5,0.2,0.5,0.5v29.9C119.5,406.2,119.3,406.4,119,406.4z"/>
					<path opacity="0.4" fill="#FFFFFF" d="M119,159h-13.5c-0.3,0-0.5-0.2-0.5-0.5v-45.4c0-0.3,0.2-0.5,0.5-0.5H119
						c0.3,0,0.5,0.2,0.5,0.5v45.4C119.5,158.7,119.3,159,119,159z"/>
					<path opacity="0.4" fill="#FFFFFF" d="M445.1,406.4h-13.5c-0.3,0-0.5-0.2-0.5-0.5V376c0-0.3,0.2-0.5,0.5-0.5h13.5
						c0.3,0,0.5,0.2,0.5,0.5v29.9C445.6,406.2,445.3,406.4,445.1,406.4z"/>
					<path opacity="0.4" fill="#FFFFFF" d="M467.3,345.1v14.5c0,0.3-0.2,0.5-0.5,0.5h-28c-0.3,0-0.5-0.2-0.5-0.5v-14.5
						c0-0.3,0.2-0.5,0.5-0.5h28C467.1,344.6,467.3,344.8,467.3,345.1z"/>
				</g>
			</g>
		</g>
	</g>
	<g>
		<defs>
			<rect id="SVGID_45_" y="23.7" width="518" height="460.1"/>
		</defs>
		<clipPath id="SVGID_46_">
			<use xlink:href="#SVGID_45_"  overflow="visible"/>
		</clipPath>
		<g clip-path="url(#SVGID_46_)">
			<g>
				<g>
					<g>
						<defs>
							<path id="SVGID_47_" d="M61.6,325.2H58c-2,0-3.6,1.7-3.6,3.9v23.2c0,2.1,1.6,3.9,3.6,3.9h3.6V325.2z"/>
						</defs>
						<clipPath id="SVGID_48_">
							<use xlink:href="#SVGID_47_"  overflow="visible"/>
						</clipPath>
					</g>
				</g>
				<g>
					<g>
						<defs>
							<path id="SVGID_49_" d="M21.7,360c-4,0-7.2-3.5-7.2-7.7v-23.2c0-4.3,3.3-7.7,7.2-7.7V360z"/>
						</defs>
						<clipPath id="SVGID_50_">
							<use xlink:href="#SVGID_49_"  overflow="visible"/>
						</clipPath>
					</g>
				</g>
				<g>
					<g>
						<defs>
							<path id="SVGID_51_" d="M441.4,468.3H109.2c-0.3,0-0.5-0.2-0.5-0.5v-14.5c0-0.3,0.2-0.5,0.5-0.5h332.3c0.3,0,0.5,0.2,0.5,0.5
								v14.5C441.9,468.1,441.7,468.3,441.4,468.3z"/>
						</defs>
						<clipPath id="SVGID_52_">
							<use xlink:href="#SVGID_51_"  overflow="visible"/>
						</clipPath>
					</g>
				</g>
				<g>
					<g>
						<defs>
							<path id="SVGID_53_" d="M181.1,93.2v-3.9c0-2.1-1.6-3.9-3.6-3.9h-21.7c-2,0-3.6,1.7-3.6,3.9v3.9H181.1z"/>
						</defs>
						<clipPath id="SVGID_54_">
							<use xlink:href="#SVGID_53_"  overflow="visible"/>
						</clipPath>
					</g>
				</g>
			</g>
			<g>
				<g>
					<g>
						<g>
							<defs>
								<path id="SVGID_55_" d="M471.5,414.2H79.1c-1.7,0-3-1.3-3-3V107.8c0-1.7,1.3-3,3-3h392.5c1.7,0,3,1.3,3,3v303.3
									C474.5,412.8,473.2,414.2,471.5,414.2z"/>
							</defs>
							<clipPath id="SVGID_56_">
								<use xlink:href="#SVGID_55_"  overflow="visible"/>
							</clipPath>
						</g>
					</g>
					<g>
						<g>
							<defs>
								<rect id="SVGID_57_" x="134" y="151.2" width="65.2" height="85.1"/>
							</defs>
							<clipPath id="SVGID_58_">
								<use xlink:href="#SVGID_57_"  overflow="visible"/>
							</clipPath>
						</g>
					</g>
					<g>
						<defs>
							<path id="SVGID_59_" d="M457,398.7H93.6c-1.7,0-3-1.3-3-3V123.3c0-1.7,1.3-3,3-3H457c1.7,0,3,1.3,3,3v272.4
								C460,397.3,458.7,398.7,457,398.7z"/>
						</defs>
						<clipPath id="SVGID_60_">
							<use xlink:href="#SVGID_59_"  overflow="visible"/>
						</clipPath>
					</g>
				</g>
				<g>
					<g>
						<defs>
							<path id="SVGID_61_" d="M471.5,414.2H79.1c-1.7,0-3-1.3-3-3V107.8c0-1.7,1.3-3,3-3h392.5c1.7,0,3,1.3,3,3v303.3
								C474.5,412.8,473.2,414.2,471.5,414.2z"/>
						</defs>
						<clipPath id="SVGID_62_">
							<use xlink:href="#SVGID_61_"  overflow="visible"/>
						</clipPath>
					</g>
					<g>
						<g>
							<defs>
								<ellipse id="SVGID_63_" cx="376.7" cy="201.5" rx="54.3" ry="58"/>
							</defs>
							<clipPath id="SVGID_64_">
								<use xlink:href="#SVGID_63_"  overflow="visible"/>
							</clipPath>
						</g>
					</g>
					<g>
						<defs>
							<rect id="SVGID_65_" x="293.4" y="128" width="166.6" height="146.9"/>
						</defs>
						<clipPath id="SVGID_66_">
							<use xlink:href="#SVGID_65_"  overflow="visible"/>
						</clipPath>
					</g>
				</g>
			</g>
		</g>
	</g>
</g>
</svg>
