<?xml version="1.0" encoding="UTF-8" ?>
<!DOCTYPE svg PUBLIC "-//W3C//DTD SVG 1.1//EN" "http://www.w3.org/Graphics/SVG/1.1/DTD/svg11.dtd">
<svg width="211pt" height="269pt" viewBox="0 0 211 269" version="1.1" xmlns="http://www.w3.org/2000/svg">
<g id="#f4f5f7ff">
<path fill="#f4f5f7" opacity="1.00" d=" M 0.00 0.00 L 211.00 0.00 L 211.00 39.32 C 148.32 39.41 85.63 39.36 22.95 39.37 C 15.66 39.46 8.35 39.13 1.06 39.58 C 0.87 112.37 1.03 185.17 0.98 257.97 C 1.02 260.84 0.70 263.80 1.46 266.60 C 2.54 268.51 5.18 267.71 6.99 268.03 C 73.30 267.97 139.63 268.06 205.94 267.99 C 207.77 267.98 209.42 267.13 211.00 266.32 L 211.00 269.00 L 0.00 269.00 L 0.00 0.00 M 73.14 12.18 C 72.92 17.47 72.87 22.76 73.05 28.04 C 73.47 29.76 75.42 30.13 76.93 30.08 C 116.30 30.06 155.68 30.10 195.05 30.06 C 196.58 30.09 198.79 29.97 198.95 27.97 C 199.18 22.96 199.15 17.93 199.04 12.92 C 199.29 10.74 196.61 10.22 194.99 10.06 C 156.00 10.05 116.99 10.04 78.00 10.06 C 76.04 9.80 74.43 10.83 73.14 12.18 M 14.29 16.11 C 10.97 18.17 11.30 23.82 15.06 25.17 C 18.45 26.75 22.85 23.84 22.26 20.01 C 22.10 16.23 17.39 14.11 14.29 16.11 M 31.18 16.18 C 27.92 18.32 28.37 23.90 32.14 25.22 C 35.51 26.73 39.81 23.83 39.26 20.06 C 39.15 16.20 34.27 14.02 31.18 16.18 M 48.20 16.19 C 45.51 17.98 45.18 22.25 47.68 24.33 C 50.58 27.01 56.10 25.11 56.25 21.03 C 56.94 16.80 51.61 13.76 48.20 16.19 Z" />
</g>
<g id="#fffffdff">
<path fill="#fffffd" opacity="1.00" d=" M 73.14 12.18 C 74.43 10.83 76.04 9.80 78.00 10.06 C 116.99 10.04 156.00 10.05 194.99 10.06 C 196.61 10.22 199.29 10.74 199.04 12.92 C 199.15 17.93 199.18 22.96 198.95 27.97 C 198.79 29.97 196.58 30.09 195.05 30.06 C 155.68 30.10 116.30 30.06 76.93 30.08 C 75.42 30.13 73.47 29.76 73.05 28.04 C 72.87 22.76 72.92 17.47 73.14 12.18 Z" />
</g>
<g id="#f85050ff">
<path fill="#f85050" opacity="1.00" d=" M 14.29 16.11 C 17.39 14.11 22.10 16.23 22.26 20.01 C 22.85 23.84 18.45 26.75 15.06 25.17 C 11.30 23.82 10.97 18.17 14.29 16.11 Z" />
</g>
<g id="#fcad4eff">
<path fill="#fcad4e" opacity="1.00" d=" M 31.18 16.18 C 34.27 14.02 39.15 16.20 39.26 20.06 C 39.81 23.83 35.51 26.73 32.14 25.22 C 28.37 23.90 27.92 18.32 31.18 16.18 Z" />
</g>
<g id="#61b44aff">
<path fill="#61b44a" opacity="1.00" d=" M 48.20 16.19 C 51.61 13.76 56.94 16.80 56.25 21.03 C 56.10 25.11 50.58 27.01 47.68 24.33 C 45.18 22.25 45.51 17.98 48.20 16.19 Z" />
</g>
<g id="#9d9d9dff">
<path fill="#9d9d9d" opacity="1.00" d=" M 1.06 39.58 C 8.35 39.13 15.66 39.46 22.95 39.37 C 85.63 39.36 148.32 39.41 211.00 39.32 L 211.00 39.65 C 141.02 39.57 71.04 39.72 1.06 39.58 Z" />
<path fill="#9d9d9d" opacity="1.00" d=" M 24.99 89.01 C 33.66 88.99 42.32 89.00 50.99 89.01 C 51.00 89.75 51.01 91.24 51.01 91.99 C 42.35 92.02 33.68 91.99 25.01 91.99 C 25.01 91.25 24.99 89.76 24.99 89.01 Z" />
<path fill="#9d9d9d" opacity="1.00" d=" M 66.01 89.01 C 74.33 89.00 82.66 89.00 90.98 89.00 C 90.99 89.75 91.00 91.24 91.01 91.98 C 82.67 92.01 74.34 92.01 66.00 91.99 C 66.00 91.24 66.01 89.75 66.01 89.01 Z" />
<path fill="#9d9d9d" opacity="1.00" d=" M 106.00 89.02 C 114.67 88.98 123.34 88.99 132.01 89.01 C 132.01 89.76 131.99 91.25 131.99 92.00 C 123.32 92.01 114.66 92.01 106.00 91.98 C 106.00 91.24 106.00 89.76 106.00 89.02 Z" />
<path fill="#9d9d9d" opacity="1.00" d=" M 147.98 89.01 C 154.99 88.98 161.99 88.99 169.00 89.01 C 169.00 89.75 169.00 91.24 169.00 91.98 C 162.00 92.02 155.00 92.01 148.00 91.99 C 148.00 91.24 147.99 89.76 147.98 89.01 Z" />
</g>
<g id="#e9eaeeff">
<path fill="#e9eaee" opacity="1.00" d=" M 1.06 39.58 C 71.04 39.72 141.02 39.57 211.00 39.65 L 211.00 266.32 C 209.42 267.13 207.77 267.98 205.94 267.99 C 139.63 268.06 73.30 267.97 6.99 268.03 C 5.18 267.71 2.54 268.51 1.46 266.60 C 0.70 263.80 1.02 260.84 0.98 257.97 C 1.03 185.17 0.87 112.37 1.06 39.58 M 5.14 43.04 C 4.83 84.37 5.12 125.71 4.96 167.05 C 5.12 198.98 4.84 230.91 5.10 262.83 C 24.06 263.23 43.03 262.86 61.99 263.00 C 109.94 262.91 157.89 263.16 205.84 262.92 C 206.20 223.27 205.88 183.60 206.03 143.94 C 205.79 110.32 206.27 76.69 205.85 43.08 C 138.94 42.89 72.04 43.04 5.14 43.04 Z" />
<path fill="#e9eaee" opacity="1.00" d=" M 15.06 53.10 C 49.40 52.86 83.75 53.12 118.09 52.97 C 144.37 53.17 170.65 52.74 196.92 53.19 C 197.07 57.43 197.08 61.68 196.87 65.92 C 136.29 66.04 75.69 66.08 15.10 65.91 C 14.79 61.64 15.01 57.37 15.06 53.10 Z" />
<path fill="#e9eaee" opacity="1.00" d=" M 16.12 80.10 C 52.42 79.86 88.73 80.10 125.03 79.99 C 149.31 80.15 173.59 79.76 197.85 80.13 C 198.15 86.39 198.06 92.66 197.91 98.93 C 137.31 99.07 76.71 99.01 16.12 98.94 C 15.85 92.66 15.98 86.38 16.12 80.10 M 24.99 89.01 C 24.99 89.76 25.01 91.25 25.01 91.99 C 33.68 91.99 42.35 92.02 51.01 91.99 C 51.01 91.24 51.00 89.75 50.99 89.01 C 42.32 89.00 33.66 88.99 24.99 89.01 M 66.01 89.01 C 66.01 89.75 66.00 91.24 66.00 91.99 C 74.34 92.01 82.67 92.01 91.01 91.98 C 91.00 91.24 90.99 89.75 90.98 89.00 C 82.66 89.00 74.33 89.00 66.01 89.01 M 106.00 89.02 C 106.00 89.76 106.00 91.24 106.00 91.98 C 114.66 92.01 123.32 92.01 131.99 92.00 C 131.99 91.25 132.01 89.76 132.01 89.01 C 123.34 88.99 114.67 88.98 106.00 89.02 M 147.98 89.01 C 147.99 89.76 148.00 91.24 148.00 91.99 C 155.00 92.01 162.00 92.02 169.00 91.98 C 169.00 91.24 169.00 89.75 169.00 89.01 C 161.99 88.99 154.99 88.98 147.98 89.01 Z" />
<path fill="#e9eaee" opacity="1.00" d=" M 15.10 239.16 C 64.06 238.80 113.04 239.11 162.01 238.99 C 173.62 239.13 185.25 238.73 196.87 239.19 C 197.11 243.40 197.09 247.62 196.90 251.84 C 137.94 252.28 78.96 251.79 19.99 252.06 C 18.38 252.06 16.77 251.92 15.17 251.83 C 14.91 247.61 14.96 243.38 15.10 239.16 Z" />
</g>
<g id="#fcfcfcff">
<path fill="#fcfcfc" opacity="1.00" d=" M 5.14 43.04 C 72.04 43.04 138.94 42.89 205.85 43.08 C 206.27 76.69 205.79 110.32 206.03 143.94 C 205.88 183.60 206.20 223.27 205.84 262.92 C 157.89 263.16 109.94 262.91 61.99 263.00 C 43.03 262.86 24.06 263.23 5.10 262.83 C 4.84 230.91 5.12 198.98 4.96 167.05 C 5.12 125.71 4.83 84.37 5.14 43.04 M 15.06 53.10 C 15.01 57.37 14.79 61.64 15.10 65.91 C 75.69 66.08 136.29 66.04 196.87 65.92 C 197.08 61.68 197.07 57.43 196.92 53.19 C 170.65 52.74 144.37 53.17 118.09 52.97 C 83.75 53.12 49.40 52.86 15.06 53.10 M 16.12 80.10 C 15.98 86.38 15.85 92.66 16.12 98.94 C 76.71 99.01 137.31 99.07 197.91 98.93 C 198.06 92.66 198.15 86.39 197.85 80.13 C 173.59 79.76 149.31 80.15 125.03 79.99 C 88.73 80.10 52.42 79.86 16.12 80.10 M 152.02 111.02 C 151.88 113.66 151.89 116.30 152.04 118.94 C 156.68 119.07 161.33 119.17 165.98 119.02 C 166.14 116.35 166.12 113.67 165.97 111.00 C 161.32 110.90 156.67 110.88 152.02 111.02 M 185.01 113.01 C 185.01 114.68 185.01 116.35 184.99 118.03 C 186.33 117.97 187.67 117.96 189.01 117.97 C 188.99 116.31 188.99 114.65 188.99 112.99 C 187.67 113.03 186.34 113.04 185.01 113.01 M 24.93 115.08 C 25.00 115.53 25.13 116.41 25.19 116.85 C 35.74 117.11 46.32 117.07 56.87 116.88 C 56.90 116.42 56.97 115.50 57.00 115.04 C 46.31 114.98 35.62 114.91 24.93 115.08 M 72.04 115.05 C 72.03 115.52 72.03 116.45 72.02 116.91 C 76.34 117.01 80.66 117.06 84.98 116.93 C 84.98 116.47 84.97 115.53 84.96 115.06 C 80.66 114.97 76.35 115.00 72.04 115.05 M 110.15 115.04 C 110.13 115.51 110.09 116.44 110.07 116.90 C 116.03 116.93 122.00 117.09 127.96 116.96 C 127.99 116.47 128.06 115.49 128.10 114.99 C 122.11 115.10 116.13 115.05 110.15 115.04 M 152.04 127.00 C 151.86 129.65 151.89 132.30 152.04 134.95 C 156.68 135.17 161.33 135.09 165.98 135.02 C 166.10 132.35 166.12 129.67 166.02 127.00 C 161.36 126.92 156.70 126.90 152.04 127.00 M 185.03 128.99 C 185.02 130.67 185.01 132.35 185.00 134.03 C 186.34 133.98 187.68 133.96 189.02 133.98 C 189.00 132.32 188.98 130.65 188.97 128.99 C 187.66 129.02 186.34 129.02 185.03 128.99 M 25.03 131.04 C 25.03 131.50 25.03 132.44 25.03 132.90 C 37.03 133.03 49.02 133.09 61.01 132.94 C 60.98 132.49 60.92 131.59 60.89 131.14 C 48.95 130.85 36.98 131.04 25.03 131.04 M 71.91 131.05 C 71.98 131.51 72.12 132.43 72.19 132.88 C 76.45 133.11 80.72 133.02 84.98 132.89 C 84.97 132.42 84.96 131.49 84.95 131.02 C 80.60 131.02 76.25 130.93 71.91 131.05 M 110.00 131.07 C 110.03 131.54 110.08 132.47 110.10 132.94 C 116.05 132.96 121.99 133.16 127.93 132.92 C 127.93 132.46 127.95 131.53 127.95 131.06 C 121.97 130.92 115.99 130.98 110.00 131.07 M 152.02 143.01 C 151.84 145.68 151.86 148.35 152.05 151.02 C 156.71 151.07 161.38 151.16 166.04 150.95 C 166.13 148.31 166.10 145.67 165.95 143.04 C 161.31 142.91 156.66 142.84 152.02 143.01 M 184.97 144.96 C 185.00 146.65 185.02 148.34 185.04 150.03 C 186.36 149.99 187.67 149.97 189.00 149.99 C 188.99 148.34 189.00 146.69 189.03 145.04 C 187.67 145.05 186.32 145.02 184.97 144.96 M 25.03 147.03 C 25.02 147.50 25.02 148.45 25.02 148.92 C 37.01 149.05 49.00 149.06 60.99 148.92 C 60.98 148.45 60.95 147.51 60.94 147.05 C 48.97 147.03 36.99 146.96 25.03 147.03 M 72.13 147.11 C 72.09 147.55 72.03 148.43 71.99 148.87 C 76.31 149.21 80.65 149.02 84.97 148.91 C 84.94 148.47 84.86 147.60 84.83 147.16 C 80.61 146.60 76.36 147.21 72.13 147.11 M 110.02 147.02 C 110.04 147.50 110.08 148.46 110.10 148.94 C 116.07 148.99 122.05 149.12 128.03 148.90 C 127.97 148.46 127.85 147.58 127.78 147.15 C 121.87 146.83 115.94 147.07 110.02 147.02 M 16.96 162.64 C 77.21 162.85 137.48 162.66 197.74 162.75 L 197.70 162.25 C 140.15 162.30 82.60 162.23 25.05 162.27 C 22.35 162.36 19.59 161.96 16.96 162.64 M 171.07 170.07 C 171.07 170.78 171.05 172.20 171.05 172.91 C 177.04 173.03 183.04 173.08 189.04 172.90 C 189.00 172.19 188.92 170.76 188.89 170.05 C 182.95 170.00 177.01 169.95 171.07 170.07 M 24.99 171.10 C 25.01 171.80 25.05 173.20 25.06 173.91 C 37.01 174.14 48.98 173.93 60.93 173.97 C 60.95 173.25 60.99 171.82 61.01 171.11 C 49.01 171.00 36.99 170.86 24.99 171.10 M 171.01 181.02 C 171.01 181.75 171.02 183.22 171.03 183.95 C 177.01 184.02 183.00 184.04 188.99 183.93 C 188.97 183.22 188.94 181.81 188.93 181.10 C 182.96 180.85 176.98 181.03 171.01 181.02 M 24.95 182.07 C 24.99 182.79 25.05 184.22 25.09 184.93 C 37.04 185.03 48.99 185.03 60.94 184.97 C 60.95 184.24 60.96 182.77 60.97 182.03 C 48.97 182.02 36.96 181.90 24.95 182.07 M 16.97 192.67 C 76.00 192.84 135.05 192.65 194.08 192.76 C 195.37 192.68 196.78 193.01 197.97 192.34 C 138.97 192.16 79.96 192.32 20.95 192.26 C 19.62 192.29 18.23 192.14 16.97 192.67 M 170.99 199.03 C 171.00 199.77 171.01 201.25 171.02 201.99 C 177.00 202.02 182.98 202.00 188.97 202.00 C 188.97 201.25 188.99 199.76 189.00 199.01 C 182.99 199.01 176.99 198.96 170.99 199.03 M 25.00 200.04 C 25.00 200.77 24.99 202.23 24.98 202.96 C 36.99 203.02 49.00 203.04 61.00 202.95 C 61.00 202.23 61.01 200.78 61.01 200.05 C 49.01 199.93 37.00 199.99 25.00 200.04 M 151.06 213.01 C 150.97 215.65 150.96 218.30 151.03 220.94 C 163.67 221.08 176.31 220.98 188.95 220.99 C 189.03 218.34 189.05 215.69 188.99 213.04 C 176.35 212.92 163.70 213.04 151.06 213.01 M 15.10 239.16 C 14.96 243.38 14.91 247.61 15.17 251.83 C 16.77 251.92 18.38 252.06 19.99 252.06 C 78.96 251.79 137.94 252.28 196.90 251.84 C 197.09 247.62 197.11 243.40 196.87 239.19 C 185.25 238.73 173.62 239.13 162.01 238.99 C 113.04 239.11 64.06 238.80 15.10 239.16 Z" />
</g>
<g id="#e2e2e2ff">
<path fill="#e2e2e2" opacity="1.00" d=" M 152.02 111.02 C 156.67 110.88 161.32 110.90 165.97 111.00 C 166.12 113.67 166.14 116.35 165.98 119.02 C 161.33 119.17 156.68 119.07 152.04 118.94 C 151.89 116.30 151.88 113.66 152.02 111.02 M 153.14 112.07 C 153.09 114.01 153.09 115.94 153.11 117.88 C 157.03 117.95 160.95 117.92 164.87 117.84 C 164.90 115.95 164.92 114.05 164.89 112.16 C 160.97 112.04 157.05 112.05 153.14 112.07 Z" />
<path fill="#e2e2e2" opacity="1.00" d=" M 24.93 115.08 C 35.62 114.91 46.31 114.98 57.00 115.04 C 56.97 115.50 56.90 116.42 56.87 116.88 C 46.32 117.07 35.74 117.11 25.19 116.85 C 25.13 116.41 25.00 115.53 24.93 115.08 Z" />
<path fill="#e2e2e2" opacity="1.00" d=" M 72.04 115.05 C 76.35 115.00 80.66 114.97 84.96 115.06 C 84.97 115.53 84.98 116.47 84.98 116.93 C 80.66 117.06 76.34 117.01 72.02 116.91 C 72.03 116.45 72.03 115.52 72.04 115.05 Z" />
<path fill="#e2e2e2" opacity="1.00" d=" M 152.04 127.00 C 156.70 126.90 161.36 126.92 166.02 127.00 C 166.12 129.67 166.10 132.35 165.98 135.02 C 161.33 135.09 156.68 135.17 152.04 134.95 C 151.89 132.30 151.86 129.65 152.04 127.00 M 153.04 128.16 C 153.04 130.08 153.07 131.99 153.12 133.91 C 157.04 133.93 160.97 133.92 164.90 133.87 C 164.92 131.95 164.91 130.03 164.88 128.11 C 160.93 128.08 156.99 128.10 153.04 128.16 Z" />
<path fill="#e2e2e2" opacity="1.00" d=" M 25.03 131.04 C 36.98 131.04 48.95 130.85 60.89 131.14 C 60.92 131.59 60.98 132.49 61.01 132.94 C 49.02 133.09 37.03 133.03 25.03 132.90 C 25.03 132.44 25.03 131.50 25.03 131.04 Z" />
<path fill="#e2e2e2" opacity="1.00" d=" M 71.91 131.05 C 76.25 130.93 80.60 131.02 84.95 131.02 C 84.96 131.49 84.97 132.42 84.98 132.89 C 80.72 133.02 76.45 133.11 72.19 132.88 C 72.12 132.43 71.98 131.51 71.91 131.05 Z" />
<path fill="#e2e2e2" opacity="1.00" d=" M 110.00 131.07 C 115.99 130.98 121.97 130.92 127.95 131.06 C 127.95 131.53 127.93 132.46 127.93 132.92 C 121.99 133.16 116.05 132.96 110.10 132.94 C 110.08 132.47 110.03 131.54 110.00 131.07 Z" />
<path fill="#e2e2e2" opacity="1.00" d=" M 152.02 143.01 C 156.66 142.84 161.31 142.91 165.95 143.04 C 166.10 145.67 166.13 148.31 166.04 150.95 C 161.38 151.16 156.71 151.07 152.05 151.02 C 151.86 148.35 151.84 145.68 152.02 143.01 M 153.10 144.11 C 153.08 146.04 153.08 147.98 153.11 149.91 C 157.04 149.91 160.96 149.92 164.88 149.90 C 164.91 147.96 164.91 146.02 164.87 144.09 C 160.95 144.11 157.03 144.09 153.10 144.11 Z" />
<path fill="#e2e2e2" opacity="1.00" d=" M 25.03 147.03 C 36.99 146.96 48.97 147.03 60.94 147.05 C 60.95 147.51 60.98 148.45 60.99 148.92 C 49.00 149.06 37.01 149.05 25.02 148.92 C 25.02 148.45 25.02 147.50 25.03 147.03 Z" />
<path fill="#e2e2e2" opacity="1.00" d=" M 110.02 147.02 C 115.94 147.07 121.87 146.83 127.78 147.15 C 127.85 147.58 127.97 148.46 128.03 148.90 C 122.05 149.12 116.07 148.99 110.10 148.94 C 110.08 148.46 110.04 147.50 110.02 147.02 Z" />
<path fill="#e2e2e2" opacity="1.00" d=" M 171.07 170.07 C 177.01 169.95 182.95 170.00 188.89 170.05 C 188.92 170.76 189.00 172.19 189.04 172.90 C 183.04 173.08 177.04 173.03 171.05 172.91 C 171.05 172.20 171.07 170.78 171.07 170.07 Z" />
<path fill="#e2e2e2" opacity="1.00" d=" M 24.99 171.10 C 36.99 170.86 49.01 171.00 61.01 171.11 C 60.99 171.82 60.95 173.25 60.93 173.97 C 48.98 173.93 37.01 174.14 25.06 173.91 C 25.05 173.20 25.01 171.80 24.99 171.10 Z" />
<path fill="#e2e2e2" opacity="1.00" d=" M 171.01 181.02 C 176.98 181.03 182.96 180.85 188.93 181.10 C 188.94 181.81 188.97 183.22 188.99 183.93 C 183.00 184.04 177.01 184.02 171.03 183.95 C 171.02 183.22 171.01 181.75 171.01 181.02 Z" />
<path fill="#e2e2e2" opacity="1.00" d=" M 24.95 182.07 C 36.96 181.90 48.97 182.02 60.97 182.03 C 60.96 182.77 60.95 184.24 60.94 184.97 C 48.99 185.03 37.04 185.03 25.09 184.93 C 25.05 184.22 24.99 182.79 24.95 182.07 Z" />
</g>
<g id="#ffffffff">
<path fill="#ffffff" opacity="1.00" d=" M 153.14 112.07 C 157.05 112.05 160.97 112.04 164.89 112.16 C 164.92 114.05 164.90 115.95 164.87 117.84 C 160.95 117.92 157.03 117.95 153.11 117.88 C 153.09 115.94 153.09 114.01 153.14 112.07 Z" />
<path fill="#ffffff" opacity="1.00" d=" M 153.04 128.16 C 156.99 128.10 160.93 128.08 164.88 128.11 C 164.91 130.03 164.92 131.95 164.90 133.87 C 160.97 133.92 157.04 133.93 153.12 133.91 C 153.07 131.99 153.04 130.08 153.04 128.16 Z" />
<path fill="#ffffff" opacity="1.00" d=" M 153.10 144.11 C 157.03 144.09 160.95 144.11 164.87 144.09 C 164.91 146.02 164.91 147.96 164.88 149.90 C 160.96 149.92 157.04 149.91 153.11 149.91 C 153.08 147.98 153.08 146.04 153.10 144.11 Z" />
</g>
<g id="#cdcdcdff">
<path fill="#cdcdcd" opacity="1.00" d=" M 185.01 113.01 C 186.34 113.04 187.67 113.03 188.99 112.99 C 188.99 114.65 188.99 116.31 189.01 117.97 C 187.67 117.96 186.33 117.97 184.99 118.03 C 185.01 116.35 185.01 114.68 185.01 113.01 Z" />
<path fill="#cdcdcd" opacity="1.00" d=" M 185.03 128.99 C 186.34 129.02 187.66 129.02 188.97 128.99 C 188.98 130.65 189.00 132.32 189.02 133.98 C 187.68 133.96 186.34 133.98 185.00 134.03 C 185.01 132.35 185.02 130.67 185.03 128.99 Z" />
<path fill="#cdcdcd" opacity="1.00" d=" M 184.97 144.96 C 186.32 145.02 187.67 145.05 189.03 145.04 C 189.00 146.69 188.99 148.34 189.00 149.99 C 187.67 149.97 186.36 149.99 185.04 150.03 C 185.02 148.34 185.00 146.65 184.97 144.96 Z" />
</g>
<g id="#e1e1e1ff">
<path fill="#e1e1e1" opacity="1.00" d=" M 110.15 115.04 C 116.13 115.05 122.11 115.10 128.10 114.99 C 128.06 115.49 127.99 116.47 127.96 116.96 C 122.00 117.09 116.03 116.93 110.07 116.90 C 110.09 116.44 110.13 115.51 110.15 115.04 Z" />
<path fill="#e1e1e1" opacity="1.00" d=" M 72.13 147.11 C 76.36 147.21 80.61 146.60 84.83 147.16 C 84.86 147.60 84.94 148.47 84.97 148.91 C 80.65 149.02 76.31 149.21 71.99 148.87 C 72.03 148.43 72.09 147.55 72.13 147.11 Z" />
</g>
<g id="#c7c7c7ff">
<path fill="#c7c7c7" opacity="1.00" d=" M 16.96 162.64 C 19.59 161.96 22.35 162.36 25.05 162.27 C 82.60 162.23 140.15 162.30 197.70 162.25 L 197.74 162.75 C 137.48 162.66 77.21 162.85 16.96 162.64 Z" />
<path fill="#c7c7c7" opacity="1.00" d=" M 16.97 192.67 C 18.23 192.14 19.62 192.29 20.95 192.26 C 79.96 192.32 138.97 192.16 197.97 192.34 C 196.78 193.01 195.37 192.68 194.08 192.76 C 135.05 192.65 76.00 192.84 16.97 192.67 Z" />
<path fill="#c7c7c7" opacity="1.00" d=" M 170.99 199.03 C 176.99 198.96 182.99 199.01 189.00 199.01 C 188.99 199.76 188.97 201.25 188.97 202.00 C 182.98 202.00 177.00 202.02 171.02 201.99 C 171.01 201.25 171.00 199.77 170.99 199.03 Z" />
<path fill="#c7c7c7" opacity="1.00" d=" M 25.00 200.04 C 37.00 199.99 49.01 199.93 61.01 200.05 C 61.01 200.78 61.00 202.23 61.00 202.95 C 49.00 203.04 36.99 203.02 24.98 202.96 C 24.99 202.23 25.00 200.77 25.00 200.04 Z" />
</g>
<g id="#ceced1ff">
<path fill="#ceced1" opacity="1.00" d=" M 151.06 213.01 C 163.70 213.04 176.35 212.92 188.99 213.04 C 189.05 215.69 189.03 218.34 188.95 220.99 C 176.31 220.98 163.67 221.08 151.03 220.94 C 150.96 218.30 150.97 215.65 151.06 213.01 Z" />
</g>
</svg>
