<?xml version="1.0" encoding="UTF-8" ?>
<!DOCTYPE svg PUBLIC "-//W3C//DTD SVG 1.1//EN" "http://www.w3.org/Graphics/SVG/1.1/DTD/svg11.dtd">
<svg width="211pt" height="269pt" viewBox="0 0 211 269" version="1.1" xmlns="http://www.w3.org/2000/svg">
<g id="#f4f5f7ff">
<path fill="#f4f5f7" opacity="1.00" d=" M 0.00 0.00 L 211.00 0.00 L 211.00 126.20 C 210.50 121.48 209.89 116.76 209.95 112.00 C 210.25 87.86 209.79 63.71 210.16 39.57 C 204.12 39.29 198.08 39.34 192.04 39.35 C 128.27 39.39 64.49 39.34 0.72 39.41 L 0.00 39.40 L 0.00 0.00 M 73.56 11.59 C 72.07 17.69 72.97 24.02 73.10 30.21 C 80.04 31.05 87.03 30.84 94.01 30.79 C 126.67 30.90 159.32 30.66 191.97 30.91 C 194.13 30.61 197.63 31.33 198.49 28.65 C 199.71 22.94 198.83 17.05 198.69 11.26 C 191.82 10.71 184.93 10.82 178.04 10.90 C 149.03 10.89 120.02 10.89 91.01 10.88 C 85.20 10.97 79.27 10.20 73.56 11.59 M 14.27 16.28 C 10.79 18.10 10.87 23.93 14.58 25.45 C 18.06 27.26 22.76 23.99 21.92 20.04 C 21.58 16.51 17.26 14.60 14.27 16.28 M 31.33 16.25 C 28.06 17.91 27.77 23.20 30.96 25.11 C 34.07 27.30 39.09 24.89 38.97 20.97 C 39.29 17.07 34.66 14.39 31.33 16.25 M 48.27 16.28 C 44.77 18.11 44.87 23.97 48.62 25.47 C 52.08 27.23 56.72 24.00 55.92 20.09 C 55.61 16.53 51.27 14.58 48.27 16.28 Z" />
</g>
<g id="#fffffdff">
<path fill="#fffffd" opacity="1.00" d=" M 73.56 11.59 C 79.27 10.20 85.20 10.97 91.01 10.88 C 120.02 10.89 149.03 10.89 178.04 10.90 C 184.93 10.82 191.82 10.71 198.69 11.26 C 198.83 17.05 199.71 22.94 198.49 28.65 C 197.63 31.33 194.13 30.61 191.97 30.91 C 159.32 30.66 126.67 30.90 94.01 30.79 C 87.03 30.84 80.04 31.05 73.10 30.21 C 72.97 24.02 72.07 17.69 73.56 11.59 Z" />
</g>
<g id="#f85050ff">
<path fill="#f85050" opacity="1.00" d=" M 14.27 16.28 C 17.26 14.60 21.58 16.51 21.92 20.04 C 22.76 23.99 18.06 27.26 14.58 25.45 C 10.87 23.93 10.79 18.10 14.27 16.28 Z" />
</g>
<g id="#fcad4eff">
<path fill="#fcad4e" opacity="1.00" d=" M 31.33 16.25 C 34.66 14.39 39.29 17.07 38.97 20.97 C 39.09 24.89 34.07 27.30 30.96 25.11 C 27.77 23.20 28.06 17.91 31.33 16.25 Z" />
</g>
<g id="#61b44aff">
<path fill="#61b44a" opacity="1.00" d=" M 48.27 16.28 C 51.27 14.58 55.61 16.53 55.92 20.09 C 56.72 24.00 52.08 27.23 48.62 25.47 C 44.87 23.97 44.77 18.11 48.27 16.28 Z" />
</g>
<g id="#9d9d9dff">
<path fill="#9d9d9d" opacity="1.00" d=" M 0.72 39.41 C 64.49 39.34 128.27 39.39 192.04 39.35 C 198.08 39.34 204.12 39.29 210.16 39.57 C 144.77 39.68 79.39 39.62 14.00 39.64 C 9.57 39.66 5.14 39.56 0.72 39.41 Z" />
<path fill="#9d9d9d" opacity="1.00" d=" M 28.44 80.27 C 47.52 80.20 66.60 80.27 85.67 80.23 C 85.74 81.03 85.87 82.64 85.94 83.44 C 66.81 83.60 47.67 83.46 28.54 83.51 C 28.52 82.70 28.47 81.08 28.44 80.27 Z" />
<path fill="#9d9d9d" opacity="1.00" d=" M 29.09 106.53 C 32.02 106.01 35.02 106.24 37.98 106.21 C 53.92 106.29 69.87 106.20 85.82 106.25 C 85.76 107.35 85.70 108.45 85.63 109.55 C 66.36 109.36 47.08 109.70 27.80 109.38 C 28.12 108.66 28.77 107.24 29.09 106.53 Z" />
<path fill="#9d9d9d" opacity="1.00" d=" M 28.36 132.22 C 47.49 132.27 66.63 132.22 85.77 132.25 C 85.76 133.33 85.75 134.42 85.75 135.51 C 66.71 135.49 47.67 135.53 28.63 135.49 C 28.54 134.40 28.45 133.31 28.36 132.22 Z" />
<path fill="#9d9d9d" opacity="1.00" d=" M 28.44 158.27 C 47.54 158.20 66.63 158.27 85.73 158.24 C 85.75 159.05 85.79 160.67 85.81 161.48 C 66.72 161.54 47.63 161.48 28.54 161.51 C 28.52 160.70 28.47 159.08 28.44 158.27 Z" />
<path fill="#9d9d9d" opacity="1.00" d=" M 28.56 184.19 C 47.62 184.30 66.68 184.22 85.74 184.24 C 85.75 185.05 85.77 186.67 85.79 187.48 C 66.68 187.53 47.58 187.49 28.47 187.51 C 28.49 186.68 28.54 185.02 28.56 184.19 Z" />
<path fill="#9d9d9d" opacity="1.00" d=" M 29.09 210.53 C 32.35 209.97 35.67 210.25 38.96 210.22 C 54.54 210.27 70.12 210.24 85.70 210.23 C 85.74 211.04 85.83 212.65 85.87 213.46 C 66.51 213.48 47.15 213.64 27.79 213.38 C 28.12 212.67 28.77 211.24 29.09 210.53 Z" />
</g>
<g id="#e9eaeeff">
<path fill="#e9eaee" opacity="1.00" d=" M 0.00 39.40 L 0.72 39.41 C 5.14 39.56 9.57 39.66 14.00 39.64 C 79.39 39.62 144.77 39.68 210.16 39.57 C 209.79 63.71 210.25 87.86 209.95 112.00 C 209.89 116.76 210.50 121.48 211.00 126.20 L 211.00 269.00 L 0.00 269.00 L 0.00 39.40 M 5.05 43.05 C 4.95 116.69 4.98 190.32 5.05 263.95 C 72.02 264.01 138.99 264.08 205.96 263.93 C 206.06 190.30 205.99 116.67 205.98 43.05 C 139.01 42.97 72.03 42.95 5.05 43.05 Z" />
<path fill="#e9eaee" opacity="1.00" d=" M 14.39 54.19 C 15.47 52.80 17.45 53.17 18.98 52.94 C 77.98 53.10 136.99 52.91 195.99 53.05 C 196.02 57.35 196.02 61.64 196.00 65.94 C 135.34 66.06 74.68 66.04 14.02 65.94 C 13.97 62.03 13.58 58.05 14.39 54.19 Z" />
<path fill="#e9eaee" opacity="1.00" d=" M 13.94 239.55 C 16.95 239.27 19.96 239.00 22.99 238.95 C 80.64 239.11 138.31 238.87 195.96 239.07 C 196.01 243.35 196.03 247.64 196.01 251.93 C 135.35 252.05 74.68 252.05 14.02 251.93 C 13.99 247.80 13.97 243.68 13.94 239.55 Z" />
</g>
<g id="#fcfcfcff">
<path fill="#fcfcfc" opacity="1.00" d=" M 5.05 43.05 C 72.03 42.95 139.01 42.97 205.98 43.05 C 205.99 116.67 206.06 190.30 205.96 263.93 C 138.99 264.08 72.02 264.01 5.05 263.95 C 4.98 190.32 4.95 116.69 5.05 43.05 M 14.39 54.19 C 13.58 58.05 13.97 62.03 14.02 65.94 C 74.68 66.04 135.34 66.06 196.00 65.94 C 196.02 61.64 196.02 57.35 195.99 53.05 C 136.99 52.91 77.98 53.10 18.98 52.94 C 17.45 53.17 15.47 52.80 14.39 54.19 M 17.01 78.66 C 17.00 81.11 17.00 83.56 17.00 86.01 C 19.44 86.00 21.89 86.00 24.34 85.99 C 24.09 83.86 24.04 81.67 23.33 79.63 C 21.29 78.99 19.13 78.90 17.01 78.66 M 28.44 80.27 C 28.47 81.08 28.52 82.70 28.54 83.51 C 47.67 83.46 66.81 83.60 85.94 83.44 C 85.87 82.64 85.74 81.03 85.67 80.23 C 66.60 80.27 47.52 80.20 28.44 80.27 M 27.14 88.94 C 29.31 89.79 31.57 90.61 33.95 90.58 C 83.30 90.44 132.65 90.52 182.00 90.53 C 186.66 90.31 191.92 91.66 195.97 88.66 C 190.02 88.00 184.02 88.30 178.05 88.26 C 130.38 88.24 82.70 88.28 35.03 88.23 C 32.39 88.27 29.75 88.54 27.14 88.94 M 27.22 97.08 C 33.13 97.84 39.09 97.57 45.03 97.59 C 81.34 97.58 117.65 97.58 153.96 97.59 C 159.89 97.57 165.84 97.82 171.74 97.13 C 168.21 94.03 163.28 95.31 159.02 95.11 C 119.35 95.17 79.67 95.17 39.99 95.11 C 35.71 95.27 30.84 94.11 27.22 97.08 M 17.01 104.67 C 17.00 107.11 17.00 109.56 17.00 112.01 C 19.44 112.00 21.89 112.00 24.34 111.99 C 24.10 109.87 24.01 107.70 23.36 105.66 C 21.31 104.97 19.13 104.91 17.01 104.67 M 29.09 106.53 C 28.77 107.24 28.12 108.66 27.80 109.38 C 47.08 109.70 66.36 109.36 85.63 109.55 C 85.70 108.45 85.76 107.35 85.82 106.25 C 69.87 106.20 53.92 106.29 37.98 106.21 C 35.02 106.24 32.02 106.01 29.09 106.53 M 27.10 114.98 C 32.40 117.46 38.32 116.37 43.95 116.51 C 94.09 116.56 144.23 116.42 194.38 116.58 C 194.53 116.00 194.85 114.85 195.00 114.28 C 141.68 114.21 88.35 114.30 35.03 114.23 C 32.37 114.27 29.72 114.56 27.10 114.98 M 27.23 123.09 C 29.81 123.36 32.40 123.58 34.99 123.60 C 78.33 123.57 121.67 123.59 165.00 123.59 C 167.24 123.56 169.47 123.37 171.71 123.19 C 168.25 119.93 163.24 121.36 158.98 121.11 C 119.32 121.17 79.66 121.17 40.00 121.11 C 35.72 121.28 30.83 120.09 27.23 123.09 M 17.02 130.66 C 17.00 133.11 17.00 135.55 16.99 138.00 C 19.44 138.00 21.89 138.00 24.34 137.99 C 24.10 135.88 24.00 133.73 23.38 131.68 C 21.34 130.94 19.14 130.92 17.02 130.66 M 28.36 132.22 C 28.45 133.31 28.54 134.40 28.63 135.49 C 47.67 135.53 66.71 135.49 85.75 135.51 C 85.75 134.42 85.76 133.33 85.77 132.25 C 66.63 132.22 47.49 132.27 28.36 132.22 M 27.13 141.04 C 32.16 143.25 37.73 142.45 43.04 142.49 C 93.59 142.53 144.14 142.50 194.68 142.52 C 194.72 141.96 194.81 140.85 194.86 140.29 C 141.57 140.20 88.28 140.31 34.99 140.23 C 32.35 140.28 29.73 140.60 27.13 141.04 M 27.03 147.89 C 31.98 150.57 37.68 149.46 43.03 149.59 C 80.04 149.58 117.05 149.59 154.06 149.59 C 159.97 149.56 165.91 149.84 171.80 149.09 C 168.17 146.13 163.30 147.26 159.01 147.11 C 117.68 147.19 76.36 147.15 35.03 147.12 C 32.35 147.16 29.68 147.46 27.03 147.89 M 17.00 156.67 C 17.00 159.11 17.00 161.56 17.00 164.01 C 19.45 164.00 21.90 163.99 24.35 163.99 C 24.11 161.88 24.01 159.73 23.38 157.70 C 21.35 156.92 19.14 156.93 17.00 156.67 M 28.44 158.27 C 28.47 159.08 28.52 160.70 28.54 161.51 C 47.63 161.48 66.72 161.54 85.81 161.48 C 85.79 160.67 85.75 159.05 85.73 158.24 C 66.63 158.27 47.54 158.20 28.44 158.27 M 27.14 166.94 C 29.03 167.60 30.93 168.47 32.98 168.53 C 82.97 168.52 132.96 168.47 182.95 168.54 C 187.32 168.39 192.24 169.50 196.01 166.67 C 193.69 166.43 191.36 166.27 189.03 166.24 C 137.70 166.25 86.36 166.28 35.03 166.23 C 32.38 166.27 29.75 166.53 27.14 166.94 M 27.66 173.79 C 28.72 175.80 31.14 175.42 33.00 175.63 C 77.33 175.56 121.66 175.54 165.99 175.65 C 168.24 175.80 170.26 174.84 172.06 173.58 C 169.71 173.35 167.35 173.17 165.00 173.14 C 121.32 173.12 77.65 173.20 33.98 173.10 C 31.86 173.15 29.74 173.38 27.66 173.79 M 17.02 182.66 C 17.00 185.11 17.00 187.55 16.99 190.00 C 19.44 190.00 21.89 190.00 24.33 189.99 C 24.10 187.87 24.01 185.72 23.36 183.68 C 21.33 182.96 19.14 182.91 17.02 182.66 M 28.56 184.19 C 28.54 185.02 28.49 186.68 28.47 187.51 C 47.58 187.49 66.68 187.53 85.79 187.48 C 85.77 186.67 85.75 185.05 85.74 184.24 C 66.68 184.22 47.62 184.30 28.56 184.19 M 27.12 192.96 C 32.43 195.49 38.39 194.35 44.04 194.51 C 94.14 194.56 144.25 194.41 194.35 194.59 C 194.51 194.01 194.84 192.86 195.00 192.28 C 141.67 192.21 88.34 192.29 35.01 192.23 C 32.37 192.27 29.73 192.55 27.12 192.96 M 27.26 201.12 C 33.79 201.89 40.38 201.53 46.94 201.58 C 86.64 201.62 126.34 201.52 166.04 201.64 C 168.27 201.77 170.38 201.04 172.02 199.52 C 169.70 199.30 167.38 199.16 165.06 199.14 C 123.37 199.13 81.68 199.18 40.00 199.11 C 35.73 199.29 30.82 198.06 27.26 201.12 M 17.01 208.67 C 17.00 211.11 17.00 213.56 17.00 216.01 C 19.44 216.00 21.89 215.99 24.34 215.99 C 24.10 213.87 24.01 211.71 23.36 209.67 C 21.33 208.95 19.13 208.91 17.01 208.67 M 29.09 210.53 C 28.77 211.24 28.12 212.67 27.79 213.38 C 47.15 213.64 66.51 213.48 85.87 213.46 C 85.83 212.65 85.74 211.04 85.70 210.23 C 70.12 210.24 54.54 210.27 38.96 210.22 C 35.67 210.25 32.35 209.97 29.09 210.53 M 27.14 218.93 C 32.42 221.53 38.38 220.33 44.01 220.51 C 94.13 220.56 144.25 220.42 194.37 220.58 C 194.53 220.00 194.86 218.86 195.02 218.29 C 141.68 218.20 88.34 218.30 35.00 218.23 C 32.37 218.26 29.74 218.53 27.14 218.93 M 27.74 225.77 C 28.58 227.99 31.18 227.35 32.98 227.63 C 75.33 227.57 117.69 227.54 160.03 227.64 C 164.01 227.39 168.85 228.72 171.95 225.46 C 165.96 224.93 159.96 225.19 153.96 225.15 C 113.97 225.11 73.98 225.21 33.99 225.09 C 31.89 225.14 29.80 225.36 27.74 225.77 M 13.94 239.55 C 13.97 243.68 13.99 247.80 14.02 251.93 C 74.68 252.05 135.35 252.05 196.01 251.93 C 196.03 247.64 196.01 243.35 195.96 239.07 C 138.31 238.87 80.64 239.11 22.99 238.95 C 19.96 239.00 16.95 239.27 13.94 239.55 Z" />
</g>
<g id="#ceced1ff">
<path fill="#ceced1" opacity="1.00" d=" M 17.01 78.66 C 19.13 78.90 21.29 78.99 23.33 79.63 C 24.04 81.67 24.09 83.86 24.34 85.99 C 21.89 86.00 19.44 86.00 17.00 86.01 C 17.00 83.56 17.00 81.11 17.01 78.66 Z" />
<path fill="#ceced1" opacity="1.00" d=" M 17.01 104.67 C 19.13 104.91 21.31 104.97 23.36 105.66 C 24.01 107.70 24.10 109.87 24.34 111.99 C 21.89 112.00 19.44 112.00 17.00 112.01 C 17.00 109.56 17.00 107.11 17.01 104.67 Z" />
<path fill="#ceced1" opacity="1.00" d=" M 17.02 130.66 C 19.14 130.92 21.34 130.94 23.38 131.68 C 24.00 133.73 24.10 135.88 24.34 137.99 C 21.89 138.00 19.44 138.00 16.99 138.00 C 17.00 135.55 17.00 133.11 17.02 130.66 Z" />
<path fill="#ceced1" opacity="1.00" d=" M 17.00 156.67 C 19.14 156.93 21.35 156.92 23.38 157.70 C 24.01 159.73 24.11 161.88 24.35 163.99 C 21.90 163.99 19.45 164.00 17.00 164.01 C 17.00 161.56 17.00 159.11 17.00 156.67 Z" />
<path fill="#ceced1" opacity="1.00" d=" M 17.02 182.66 C 19.14 182.91 21.33 182.96 23.36 183.68 C 24.01 185.72 24.10 187.87 24.33 189.99 C 21.89 190.00 19.44 190.00 16.99 190.00 C 17.00 187.55 17.00 185.11 17.02 182.66 Z" />
<path fill="#ceced1" opacity="1.00" d=" M 17.01 208.67 C 19.13 208.91 21.33 208.95 23.36 209.67 C 24.01 211.71 24.10 213.87 24.34 215.99 C 21.89 215.99 19.44 216.00 17.00 216.01 C 17.00 213.56 17.00 211.11 17.01 208.67 Z" />
</g>
<g id="#cdcdcdff">
<path fill="#cdcdcd" opacity="1.00" d=" M 27.14 88.94 C 29.75 88.54 32.39 88.27 35.03 88.23 C 82.70 88.28 130.38 88.24 178.05 88.26 C 184.02 88.30 190.02 88.00 195.97 88.66 C 191.92 91.66 186.66 90.31 182.00 90.53 C 132.65 90.52 83.30 90.44 33.95 90.58 C 31.57 90.61 29.31 89.79 27.14 88.94 Z" />
<path fill="#cdcdcd" opacity="1.00" d=" M 27.10 114.98 C 29.72 114.56 32.37 114.27 35.03 114.23 C 88.35 114.30 141.68 114.21 195.00 114.28 C 194.85 114.85 194.53 116.00 194.38 116.58 C 144.23 116.42 94.09 116.56 43.95 116.51 C 38.32 116.37 32.40 117.46 27.10 114.98 Z" />
<path fill="#cdcdcd" opacity="1.00" d=" M 27.13 141.04 C 29.73 140.60 32.35 140.28 34.99 140.23 C 88.28 140.31 141.57 140.20 194.86 140.29 C 194.81 140.85 194.72 141.96 194.68 142.52 C 144.14 142.50 93.59 142.53 43.04 142.49 C 37.73 142.45 32.16 143.25 27.13 141.04 Z" />
<path fill="#cdcdcd" opacity="1.00" d=" M 27.14 166.94 C 29.75 166.53 32.38 166.27 35.03 166.23 C 86.36 166.28 137.70 166.25 189.03 166.24 C 191.36 166.27 193.69 166.43 196.01 166.67 C 192.24 169.50 187.32 168.39 182.95 168.54 C 132.96 168.47 82.97 168.52 32.98 168.53 C 30.93 168.47 29.03 167.60 27.14 166.94 Z" />
<path fill="#cdcdcd" opacity="1.00" d=" M 27.12 192.96 C 29.73 192.55 32.37 192.27 35.01 192.23 C 88.34 192.29 141.67 192.21 195.00 192.28 C 194.84 192.86 194.51 194.01 194.35 194.59 C 144.25 194.41 94.14 194.56 44.04 194.51 C 38.39 194.35 32.43 195.49 27.12 192.96 Z" />
<path fill="#cdcdcd" opacity="1.00" d=" M 27.14 218.93 C 29.74 218.53 32.37 218.26 35.00 218.23 C 88.34 218.30 141.68 218.20 195.02 218.29 C 194.86 218.86 194.53 220.00 194.37 220.58 C 144.25 220.42 94.13 220.56 44.01 220.51 C 38.38 220.33 32.42 221.53 27.14 218.93 Z" />
</g>
<g id="#d3d3d3ff">
<path fill="#d3d3d3" opacity="1.00" d=" M 27.22 97.08 C 30.84 94.11 35.71 95.27 39.99 95.11 C 79.67 95.17 119.35 95.17 159.02 95.11 C 163.28 95.31 168.21 94.03 171.74 97.13 C 165.84 97.82 159.89 97.57 153.96 97.59 C 117.65 97.58 81.34 97.58 45.03 97.59 C 39.09 97.57 33.13 97.84 27.22 97.08 Z" />
<path fill="#d3d3d3" opacity="1.00" d=" M 27.23 123.09 C 30.83 120.09 35.72 121.28 40.00 121.11 C 79.66 121.17 119.32 121.17 158.98 121.11 C 163.24 121.36 168.25 119.93 171.71 123.19 C 169.47 123.37 167.24 123.56 165.00 123.59 C 121.67 123.59 78.33 123.57 34.99 123.60 C 32.40 123.58 29.81 123.36 27.23 123.09 Z" />
<path fill="#d3d3d3" opacity="1.00" d=" M 27.03 147.89 C 29.68 147.46 32.35 147.16 35.03 147.12 C 76.36 147.15 117.68 147.19 159.01 147.11 C 163.30 147.26 168.17 146.13 171.80 149.09 C 165.91 149.84 159.97 149.56 154.06 149.59 C 117.05 149.59 80.04 149.58 43.03 149.59 C 37.68 149.46 31.98 150.57 27.03 147.89 Z" />
<path fill="#d3d3d3" opacity="1.00" d=" M 27.66 173.79 C 29.74 173.38 31.86 173.15 33.98 173.10 C 77.65 173.20 121.32 173.12 165.00 173.14 C 167.35 173.17 169.71 173.35 172.06 173.58 C 170.26 174.84 168.24 175.80 165.99 175.65 C 121.66 175.54 77.33 175.56 33.00 175.63 C 31.14 175.42 28.72 175.80 27.66 173.79 Z" />
<path fill="#d3d3d3" opacity="1.00" d=" M 27.26 201.12 C 30.82 198.06 35.73 199.29 40.00 199.11 C 81.68 199.18 123.37 199.13 165.06 199.14 C 167.38 199.16 169.70 199.30 172.02 199.52 C 170.38 201.04 168.27 201.77 166.04 201.64 C 126.34 201.52 86.64 201.62 46.94 201.58 C 40.38 201.53 33.79 201.89 27.26 201.12 Z" />
<path fill="#d3d3d3" opacity="1.00" d=" M 27.74 225.77 C 29.80 225.36 31.89 225.14 33.99 225.09 C 73.98 225.21 113.97 225.11 153.96 225.15 C 159.96 225.19 165.96 224.93 171.95 225.46 C 168.85 228.72 164.01 227.39 160.03 227.64 C 117.69 227.54 75.33 227.57 32.98 227.63 C 31.18 227.35 28.58 227.99 27.74 225.77 Z" />
</g>
</svg>
