<?xml version="1.0" encoding="UTF-8" ?>
<!DOCTYPE svg PUBLIC "-//W3C//DTD SVG 1.1//EN" "http://www.w3.org/Graphics/SVG/1.1/DTD/svg11.dtd">
<svg width="211pt" height="268pt" viewBox="0 0 211 268" version="1.1" xmlns="http://www.w3.org/2000/svg">
<g id="#f4f5f7ff">
<path fill="#f4f5f7" opacity="1.00" d=" M 0.00 0.00 L 211.00 0.00 L 211.00 39.40 L 210.32 39.41 C 148.54 39.31 86.77 39.41 24.99 39.37 C 16.92 39.36 8.85 39.17 0.79 39.59 C 1.22 100.05 0.82 160.52 0.96 220.98 C 1.12 236.65 0.53 252.34 1.45 268.00 L 0.00 268.00 L 0.00 0.00 M 73.38 10.38 C 73.05 15.92 72.43 21.50 73.14 27.03 C 73.14 28.25 73.75 29.56 75.13 29.64 C 80.02 30.50 85.02 29.97 89.95 30.02 C 120.66 30.00 151.37 30.00 182.07 30.02 C 187.48 29.93 193.01 30.63 198.32 29.31 C 199.67 24.32 199.54 19.04 199.08 13.93 C 198.88 12.57 198.74 10.39 196.91 10.30 C 191.65 9.53 186.31 10.08 181.01 10.00 C 148.34 9.96 115.67 10.06 82.99 9.95 C 79.78 9.99 76.58 10.18 73.38 10.38 M 15.31 15.34 C 12.32 16.46 10.96 20.43 12.85 23.08 C 14.95 26.49 20.89 25.82 22.02 21.91 C 23.61 18.00 19.18 13.56 15.31 15.34 M 32.32 15.34 C 29.32 16.45 27.96 20.43 29.85 23.08 C 31.95 26.48 37.89 25.82 39.02 21.91 C 40.61 18.00 36.19 13.57 32.32 15.34 M 49.33 15.34 C 46.33 16.45 44.96 20.42 46.85 23.08 C 48.94 26.47 54.86 25.83 56.01 21.94 C 57.63 18.04 53.21 13.57 49.33 15.34 Z" />
</g>
<g id="#fffffdff">
<path fill="#fffffd" opacity="1.00" d=" M 73.38 10.38 C 76.58 10.18 79.78 9.99 82.99 9.95 C 115.67 10.06 148.34 9.96 181.01 10.00 C 186.31 10.08 191.65 9.53 196.91 10.30 C 198.74 10.39 198.88 12.57 199.08 13.93 C 199.54 19.04 199.67 24.32 198.32 29.31 C 193.01 30.63 187.48 29.93 182.07 30.02 C 151.37 30.00 120.66 30.00 89.95 30.02 C 85.02 29.97 80.02 30.50 75.13 29.64 C 73.75 29.56 73.14 28.25 73.14 27.03 C 72.43 21.50 73.05 15.92 73.38 10.38 Z" />
</g>
<g id="#f85050ff">
<path fill="#f85050" opacity="1.00" d=" M 15.31 15.34 C 19.18 13.56 23.61 18.00 22.02 21.91 C 20.89 25.82 14.95 26.49 12.85 23.08 C 10.96 20.43 12.32 16.46 15.31 15.34 Z" />
</g>
<g id="#fcad4eff">
<path fill="#fcad4e" opacity="1.00" d=" M 32.32 15.34 C 36.19 13.57 40.61 18.00 39.02 21.91 C 37.89 25.82 31.95 26.48 29.85 23.08 C 27.96 20.43 29.32 16.45 32.32 15.34 Z" />
</g>
<g id="#61b44aff">
<path fill="#61b44a" opacity="1.00" d=" M 49.33 15.34 C 53.21 13.57 57.63 18.04 56.01 21.94 C 54.86 25.83 48.94 26.47 46.85 23.08 C 44.96 20.42 46.33 16.45 49.33 15.34 Z" />
</g>
<g id="#9d9d9dff">
<path fill="#9d9d9d" opacity="1.00" d=" M 0.79 39.59 C 8.85 39.17 16.92 39.36 24.99 39.37 C 86.77 39.41 148.54 39.31 210.32 39.41 C 199.55 39.77 188.77 39.61 178.00 39.63 C 118.93 39.61 59.86 39.68 0.79 39.59 Z" />
<path fill="#9d9d9d" opacity="1.00" d=" M 45.19 101.35 C 46.81 101.02 48.48 101.06 50.12 101.27 C 51.80 102.53 53.37 103.96 54.75 105.57 C 54.77 106.27 54.81 107.67 54.83 108.37 C 54.80 109.27 54.78 110.16 54.74 111.06 C 52.87 115.27 50.13 119.00 47.44 122.70 C 46.18 120.91 44.90 119.12 43.74 117.27 C 41.87 114.29 40.41 111.08 39.31 107.75 C 40.21 105.28 41.71 102.84 44.25 101.79 C 44.48 101.68 44.95 101.46 45.19 101.35 M 46.31 104.35 C 43.12 105.11 41.89 109.52 44.09 111.91 C 46.26 114.62 51.32 113.37 51.73 109.84 C 52.60 106.70 49.51 103.40 46.31 104.35 Z" />
<path fill="#9d9d9d" opacity="1.00" d=" M 15.50 172.50 C 29.25 172.49 43.01 172.49 56.76 172.50 C 56.76 173.32 56.76 174.94 56.76 175.76 C 43.00 175.76 29.25 175.76 15.49 175.76 C 15.49 174.94 15.50 173.32 15.50 172.50 Z" />
<path fill="#9d9d9d" opacity="1.00" d=" M 68.51 172.50 C 82.26 172.49 96.01 172.49 109.76 172.50 C 109.76 173.32 109.76 174.94 109.76 175.76 C 96.00 175.76 82.24 175.77 68.49 175.75 C 68.49 174.94 68.50 173.31 68.51 172.50 Z" />
<path fill="#9d9d9d" opacity="1.00" d=" M 129.12 214.49 C 148.12 214.26 167.14 214.17 186.14 214.55 C 167.13 214.69 148.12 214.79 129.12 214.49 Z" />
</g>
<g id="#e9eaeeff">
<path fill="#e9eaee" opacity="1.00" d=" M 210.32 39.41 L 211.00 39.40 L 211.00 268.00 L 1.45 268.00 C 0.53 252.34 1.12 236.65 0.96 220.98 C 0.82 160.52 1.22 100.05 0.79 39.59 C 59.86 39.68 118.93 39.61 178.00 39.63 C 188.77 39.61 199.55 39.77 210.32 39.41 M 5.04 42.04 C 4.96 115.68 4.98 189.32 5.04 262.95 C 72.01 263.05 138.98 263.02 205.95 262.96 C 206.03 189.32 206.03 115.68 205.96 42.04 C 138.99 41.97 72.01 41.96 5.04 42.04 Z" />
<path fill="#e9eaee" opacity="1.00" d=" M 14.48 52.20 C 22.99 51.83 31.51 52.03 40.03 52.00 C 86.69 51.99 133.34 52.01 179.99 51.99 C 185.29 52.06 190.64 51.53 195.90 52.38 C 197.60 56.43 196.68 60.99 196.75 65.25 C 190.50 65.55 184.24 65.55 177.98 65.49 C 129.99 65.49 82.01 65.49 34.03 65.49 C 27.50 65.55 20.96 65.59 14.43 65.21 C 14.42 60.87 14.44 56.53 14.48 52.20 Z" />
<path fill="#e9eaee" opacity="1.00" d=" M 21.46 76.73 C 28.65 76.38 35.86 76.38 43.05 76.38 C 45.54 76.28 47.90 77.13 50.07 78.27 C 45.77 79.76 41.29 81.39 36.66 81.03 C 31.41 80.38 26.42 78.49 21.46 76.73 Z" />
<path fill="#e9eaee" opacity="1.00" d=" M 105.12 76.38 C 107.64 76.42 110.15 76.46 112.67 76.49 C 112.71 78.90 112.76 81.32 112.80 83.73 C 109.45 83.84 106.09 83.95 102.73 84.04 C 103.53 81.49 104.32 78.93 105.12 76.38 Z" />
<path fill="#e9eaee" opacity="1.00" d=" M 55.33 79.91 C 59.35 78.72 63.42 77.70 67.52 76.86 C 67.77 79.96 68.02 83.06 68.26 86.16 C 65.17 86.66 62.08 87.16 58.99 87.66 C 57.76 85.08 56.54 82.50 55.33 79.91 Z" />
<path fill="#e9eaee" opacity="1.00" d=" M 70.16 76.89 C 74.49 76.75 78.82 76.74 83.16 76.86 C 82.54 79.05 82.05 81.30 81.08 83.38 C 78.21 85.24 74.58 85.18 71.30 85.82 C 70.92 82.84 70.54 79.86 70.16 76.89 Z" />
<path fill="#e9eaee" opacity="1.00" d=" M 44.75 82.27 C 46.73 81.90 48.71 81.53 50.70 81.17 C 53.56 86.63 56.26 92.17 58.79 97.80 C 56.05 98.21 53.31 98.62 50.57 99.02 C 48.44 93.51 46.45 87.94 44.75 82.27 Z" />
<path fill="#e9eaee" opacity="1.00" d=" M 38.87 83.92 C 40.32 83.72 41.78 83.52 43.24 83.31 C 45.27 88.69 47.18 94.12 48.93 99.60 C 47.69 100.18 46.44 100.77 45.19 101.35 C 44.95 101.46 44.48 101.68 44.25 101.79 C 43.16 101.42 42.07 101.06 40.99 100.70 C 39.99 95.15 39.26 89.55 38.87 83.92 Z" />
<path fill="#e9eaee" opacity="1.00" d=" M 102.63 86.19 C 105.96 85.89 109.29 85.60 112.62 85.34 C 112.71 88.20 112.80 91.07 112.89 93.94 C 108.98 93.98 105.08 94.00 101.17 93.97 C 101.66 91.38 102.15 88.79 102.63 86.19 Z" />
<path fill="#e9eaee" opacity="1.00" d=" M 71.99 87.43 C 74.72 87.01 77.45 86.59 80.18 86.18 C 78.60 95.01 76.66 103.78 74.48 112.47 C 73.16 104.18 72.34 95.82 71.99 87.43 Z" />
<path fill="#e9eaee" opacity="1.00" d=" M 59.59 89.18 C 62.67 88.71 65.75 88.25 68.83 87.79 C 69.79 95.71 70.85 103.63 71.15 111.61 C 66.77 104.42 62.90 96.93 59.59 89.18 Z" />
<path fill="#e9eaee" opacity="1.00" d=" M 101.15 95.96 C 105.01 96.06 108.87 96.19 112.73 96.35 C 112.73 99.73 112.72 103.11 112.70 106.49 C 108.16 106.56 103.62 106.58 99.07 106.55 C 99.74 103.02 100.43 99.49 101.15 95.96 Z" />
<path fill="#e9eaee" opacity="1.00" d=" M 50.12 101.27 C 53.38 100.67 56.65 100.14 59.93 99.64 C 60.67 101.16 61.42 102.68 62.17 104.20 C 59.70 104.66 57.22 105.12 54.75 105.57 C 53.37 103.96 51.80 102.53 50.12 101.27 Z" />
<path fill="#e9eaee" opacity="1.00" d=" M 46.31 104.35 C 49.51 103.40 52.60 106.70 51.73 109.84 C 51.32 113.37 46.26 114.62 44.09 111.91 C 41.89 109.52 43.12 105.11 46.31 104.35 Z" />
<path fill="#e9eaee" opacity="1.00" d=" M 38.76 106.22 L 39.31 107.75 C 40.41 111.08 41.87 114.29 43.74 117.27 C 43.38 119.16 43.03 121.05 42.68 122.94 C 40.30 123.22 37.92 123.50 35.54 123.79 C 34.88 119.70 34.31 115.60 33.87 111.48 C 35.59 110.89 37.31 110.31 39.03 109.73 C 38.99 109.20 38.91 108.16 38.87 107.64 L 38.76 106.22 Z" />
<path fill="#e9eaee" opacity="1.00" d=" M 54.83 108.37 C 57.83 107.91 60.83 107.45 63.83 106.97 C 65.18 109.55 67.05 112.03 67.48 114.97 C 67.23 117.02 66.38 118.94 65.74 120.89 C 62.51 121.00 59.29 121.13 56.06 121.27 C 55.44 117.90 54.77 114.50 54.74 111.06 C 54.78 110.16 54.80 109.27 54.83 108.37 Z" />
<path fill="#e9eaee" opacity="1.00" d=" M 98.41 108.53 C 103.15 108.43 107.90 108.42 112.65 108.48 C 112.71 111.07 112.78 113.66 112.84 116.25 C 107.90 115.84 102.97 115.26 98.08 114.51 C 98.19 112.52 98.30 110.52 98.41 108.53 Z" />
<path fill="#e9eaee" opacity="1.00" d=" M 15.43 114.14 C 16.62 114.02 17.82 113.90 19.01 113.77 C 19.01 117.80 18.96 121.82 18.86 125.85 C 17.74 125.75 16.61 125.64 15.49 125.54 C 15.46 121.74 15.44 117.94 15.43 114.14 Z" />
<path fill="#e9eaee" opacity="1.00" d=" M 25.21 115.16 C 27.75 113.54 31.16 116.07 30.13 118.92 C 29.76 121.52 25.01 122.26 24.18 119.65 C 23.16 118.23 23.58 115.92 25.21 115.16 Z" />
<path fill="#e9eaee" opacity="1.00" d=" M 103.31 117.28 C 106.46 117.62 109.62 117.96 112.77 118.29 C 112.76 121.48 112.76 124.66 112.75 127.85 C 107.66 127.02 102.61 126.03 97.60 124.82 C 99.48 122.29 101.38 119.78 103.31 117.28 Z" />
<path fill="#e9eaee" opacity="1.00" d=" M 72.32 118.32 C 74.81 117.00 78.27 118.49 78.71 121.36 C 79.55 124.55 76.41 128.03 73.11 126.86 C 69.28 125.96 68.84 119.97 72.32 118.32 Z" />
<path fill="#e9eaee" opacity="1.00" d=" M 50.02 126.25 C 55.55 125.40 61.15 124.93 66.75 125.11 C 62.58 130.34 56.96 134.03 51.79 138.17 C 50.33 137.12 48.87 136.07 47.40 135.02 C 48.27 132.10 49.14 129.18 50.02 126.25 Z" />
<path fill="#e9eaee" opacity="1.00" d=" M 33.27 128.31 C 38.23 127.67 43.21 127.19 48.20 126.90 C 47.20 129.54 46.72 132.55 44.82 134.73 C 42.30 136.39 39.29 137.04 36.46 137.98 C 35.38 134.76 34.32 131.54 33.27 128.31 Z" />
<path fill="#e9eaee" opacity="1.00" d=" M 76.27 132.39 C 78.24 130.28 80.57 128.35 83.32 127.35 C 86.13 126.91 88.95 127.73 91.72 128.14 C 90.99 133.83 90.09 139.48 88.98 145.10 C 83.50 144.36 78.06 143.34 72.70 142.01 C 73.61 138.74 74.07 135.12 76.27 132.39 Z" />
<path fill="#e9eaee" opacity="1.00" d=" M 18.18 129.94 C 22.42 129.65 26.67 129.44 30.92 129.30 C 27.98 133.50 24.89 137.60 21.63 141.57 C 20.36 137.73 19.22 133.85 18.18 129.94 Z" />
<path fill="#e9eaee" opacity="1.00" d=" M 94.77 129.22 C 96.22 129.57 97.66 129.91 99.11 130.26 C 99.03 133.51 98.95 136.75 98.86 139.99 C 96.97 139.86 95.07 139.73 93.17 139.60 C 93.67 136.13 94.21 132.67 94.77 129.22 Z" />
<path fill="#e9eaee" opacity="1.00" d=" M 101.78 130.87 C 105.42 131.38 109.06 131.93 112.70 132.50 C 112.74 135.74 112.78 138.98 112.82 142.22 C 108.77 141.64 104.74 140.91 100.74 140.06 C 101.08 137.00 101.43 133.93 101.78 130.87 Z" />
<path fill="#e9eaee" opacity="1.00" d=" M 26.81 137.04 C 28.33 135.36 29.86 133.68 31.39 132.00 C 33.84 137.61 36.21 143.25 38.41 148.96 C 36.73 150.34 35.04 151.72 33.36 153.10 C 31.00 147.82 28.80 142.47 26.81 137.04 Z" />
<path fill="#e9eaee" opacity="1.00" d=" M 55.44 139.94 C 57.91 137.56 60.41 135.21 62.96 132.91 C 65.19 134.01 67.43 135.10 69.67 136.19 C 68.34 140.64 66.86 145.05 65.21 149.40 C 61.81 146.39 58.55 143.23 55.44 139.94 Z" />
<path fill="#e9eaee" opacity="1.00" d=" M 15.80 133.37 C 19.03 140.92 20.93 148.93 23.14 156.82 C 20.71 156.77 18.29 156.73 15.86 156.68 C 15.26 148.93 15.23 141.13 15.80 133.37 Z" />
<path fill="#e9eaee" opacity="1.00" d=" M 42.90 137.84 C 44.01 137.22 45.11 136.61 46.21 136.00 C 47.60 137.22 48.99 138.43 50.38 139.64 C 48.78 140.80 47.18 141.96 45.58 143.12 C 44.69 141.35 43.79 139.60 42.90 137.84 Z" />
<path fill="#e9eaee" opacity="1.00" d=" M 36.92 140.00 C 38.29 139.35 39.66 138.70 41.03 138.06 C 42.34 140.21 43.65 142.37 44.96 144.53 C 43.85 145.49 42.74 146.45 41.63 147.42 C 40.05 144.95 38.48 142.48 36.92 140.00 Z" />
<path fill="#e9eaee" opacity="1.00" d=" M 25.44 138.11 C 26.67 140.97 27.81 143.88 28.92 146.80 C 26.97 147.58 25.01 148.37 23.05 149.14 C 21.91 145.19 22.85 141.27 25.44 138.11 Z" />
<path fill="#e9eaee" opacity="1.00" d=" M 42.66 150.09 C 45.95 147.20 49.38 144.46 52.92 141.88 C 56.79 145.43 60.56 149.09 64.16 152.92 C 64.01 153.67 63.72 155.18 63.57 155.93 C 59.93 156.38 56.15 157.26 52.53 156.26 C 48.84 154.92 45.81 152.34 42.66 150.09 Z" />
<path fill="#e9eaee" opacity="1.00" d=" M 95.10 146.01 C 98.67 142.34 105.16 142.72 108.33 146.72 C 110.88 149.41 110.40 153.34 110.44 156.74 C 104.29 156.85 98.15 156.83 92.00 156.65 C 92.20 152.97 91.91 148.59 95.10 146.01 Z" />
<path fill="#e9eaee" opacity="1.00" d=" M 72.13 143.96 C 74.03 144.33 75.93 144.70 77.83 145.08 C 77.23 148.31 76.63 151.53 76.02 154.76 C 73.62 154.19 71.21 153.62 68.81 153.05 C 69.90 150.01 71.00 146.98 72.13 143.96 Z" />
<path fill="#e9eaee" opacity="1.00" d=" M 78.97 145.00 C 82.28 145.49 85.59 145.99 88.90 146.50 C 88.85 147.78 88.80 149.06 88.75 150.34 C 85.52 149.92 82.28 149.49 79.05 149.04 C 79.02 147.69 79.00 146.34 78.97 145.00 Z" />
<path fill="#e9eaee" opacity="1.00" d=" M 23.91 151.06 C 25.87 150.05 27.82 149.04 29.77 148.03 C 30.50 150.06 31.23 152.09 31.96 154.12 C 30.20 155.06 28.44 156.00 26.67 156.94 C 25.75 154.98 24.83 153.02 23.91 151.06 Z" />
<path fill="#e9eaee" opacity="1.00" d=" M 78.54 150.20 C 81.66 150.75 84.78 151.31 87.90 151.88 C 87.83 153.28 87.76 154.67 87.69 156.07 C 84.47 155.68 81.26 155.27 78.05 154.85 C 78.21 153.30 78.38 151.75 78.54 150.20 Z" />
<path fill="#e9eaee" opacity="1.00" d=" M 34.97 155.82 C 36.62 154.50 38.23 153.08 40.12 152.09 C 42.51 152.98 44.50 154.63 46.54 156.11 C 42.68 156.24 38.82 156.14 34.97 155.82 Z" />
<path fill="#e9eaee" opacity="1.00" d=" M 14.51 239.53 C 75.25 239.40 135.99 239.48 196.72 239.49 C 196.80 243.89 196.81 248.30 196.76 252.71 C 135.99 252.81 75.22 252.83 14.45 252.70 C 14.42 248.31 14.44 243.92 14.51 239.53 Z" />
</g>
<g id="#fcfcfcff">
<path fill="#fcfcfc" opacity="1.00" d=" M 5.04 42.04 C 72.01 41.96 138.99 41.97 205.96 42.04 C 206.03 115.68 206.03 189.32 205.95 262.96 C 138.98 263.02 72.01 263.05 5.04 262.95 C 4.98 189.32 4.96 115.68 5.04 42.04 M 14.48 52.20 C 14.44 56.53 14.42 60.87 14.43 65.21 C 20.96 65.59 27.50 65.55 34.03 65.49 C 82.01 65.49 129.99 65.49 177.98 65.49 C 184.24 65.55 190.50 65.55 196.75 65.25 C 196.68 60.99 197.60 56.43 195.90 52.38 C 190.64 51.53 185.29 52.06 179.99 51.99 C 133.34 52.01 86.69 51.99 40.03 52.00 C 31.51 52.03 22.99 51.83 14.48 52.20 M 120.43 75.45 C 120.06 84.29 120.33 93.14 120.27 101.98 C 120.26 143.26 120.24 184.53 120.31 225.80 C 145.48 225.93 170.66 225.98 195.82 225.75 C 195.88 223.16 195.94 220.56 195.96 217.97 C 195.69 170.42 196.11 122.87 195.75 75.32 C 170.65 75.30 145.53 75.07 120.43 75.45 M 21.46 76.73 C 26.42 78.49 31.41 80.38 36.66 81.03 C 41.29 81.39 45.77 79.76 50.07 78.27 C 47.90 77.13 45.54 76.28 43.05 76.38 C 35.86 76.38 28.65 76.38 21.46 76.73 M 105.12 76.38 C 104.32 78.93 103.53 81.49 102.73 84.04 C 106.09 83.95 109.45 83.84 112.80 83.73 C 112.76 81.32 112.71 78.90 112.67 76.49 C 110.15 76.46 107.64 76.42 105.12 76.38 M 55.33 79.91 C 56.54 82.50 57.76 85.08 58.99 87.66 C 62.08 87.16 65.17 86.66 68.26 86.16 C 68.02 83.06 67.77 79.96 67.52 76.86 C 63.42 77.70 59.35 78.72 55.33 79.91 M 70.16 76.89 C 70.54 79.86 70.92 82.84 71.30 85.82 C 74.58 85.18 78.21 85.24 81.08 83.38 C 82.05 81.30 82.54 79.05 83.16 76.86 C 78.82 76.74 74.49 76.75 70.16 76.89 M 87.09 76.55 C 86.76 77.85 86.44 79.15 86.11 80.45 C 90.67 81.71 95.23 82.94 99.81 84.13 C 100.57 81.59 101.33 79.04 102.08 76.50 C 97.08 76.46 92.09 76.47 87.09 76.55 M 20.97 79.64 C 19.44 83.39 17.94 87.15 16.47 90.92 C 19.29 91.80 22.11 92.68 24.93 93.55 C 26.41 89.80 27.86 86.05 29.27 82.27 C 26.51 81.39 23.74 80.51 20.97 79.64 M 44.75 82.27 C 46.45 87.94 48.44 93.51 50.57 99.02 C 53.31 98.62 56.05 98.21 58.79 97.80 C 56.26 92.17 53.56 86.63 50.70 81.17 C 48.71 81.53 46.73 81.90 44.75 82.27 M 85.56 82.27 C 85.17 84.78 84.78 87.28 84.39 89.78 C 88.97 91.10 93.56 92.35 98.17 93.55 C 98.75 90.85 99.32 88.15 99.89 85.46 C 95.13 84.34 90.35 83.28 85.56 82.27 M 30.98 82.62 C 29.65 86.51 28.07 90.31 26.26 94.00 C 29.93 95.46 33.61 96.88 37.30 98.26 C 37.14 95.98 36.98 93.70 36.82 91.42 C 35.07 90.49 33.32 89.55 31.57 88.62 C 33.52 88.68 35.48 88.74 37.43 88.80 C 36.83 87.39 36.33 85.92 35.51 84.62 C 34.08 83.77 32.51 83.23 30.98 82.62 M 38.87 83.92 C 39.26 89.55 39.99 95.15 40.99 100.70 C 42.07 101.06 43.16 101.42 44.25 101.79 C 41.71 102.84 40.21 105.28 39.31 107.75 L 38.76 106.22 C 38.57 104.18 38.28 102.16 38.01 100.14 C 36.09 99.39 34.18 98.64 32.27 97.88 C 31.32 101.66 30.39 105.44 29.48 109.23 C 32.62 108.71 35.75 108.19 38.87 107.64 C 38.91 108.16 38.99 109.20 39.03 109.73 C 37.31 110.31 35.59 110.89 33.87 111.48 C 34.31 115.60 34.88 119.70 35.54 123.79 C 37.92 123.50 40.30 123.22 42.68 122.94 C 43.03 121.05 43.38 119.16 43.74 117.27 C 44.90 119.12 46.18 120.91 47.44 122.70 C 50.13 119.00 52.87 115.27 54.74 111.06 C 54.77 114.50 55.44 117.90 56.06 121.27 C 59.29 121.13 62.51 121.00 65.74 120.89 C 66.38 118.94 67.23 117.02 67.48 114.97 C 67.05 112.03 65.18 109.55 63.83 106.97 C 60.83 107.45 57.83 107.91 54.83 108.37 C 54.81 107.67 54.77 106.27 54.75 105.57 C 57.22 105.12 59.70 104.66 62.17 104.20 C 61.42 102.68 60.67 101.16 59.93 99.64 C 56.65 100.14 53.38 100.67 50.12 101.27 C 48.48 101.06 46.81 101.02 45.19 101.35 C 46.44 100.77 47.69 100.18 48.93 99.60 C 47.18 94.12 45.27 88.69 43.24 83.31 C 41.78 83.52 40.32 83.72 38.87 83.92 M 102.63 86.19 C 102.15 88.79 101.66 91.38 101.17 93.97 C 105.08 94.00 108.98 93.98 112.89 93.94 C 112.80 91.07 112.71 88.20 112.62 85.34 C 109.29 85.60 105.96 85.89 102.63 86.19 M 71.99 87.43 C 72.34 95.82 73.16 104.18 74.48 112.47 C 76.66 103.78 78.60 95.01 80.18 86.18 C 77.45 86.59 74.72 87.01 71.99 87.43 M 59.59 89.18 C 62.90 96.93 66.77 104.42 71.15 111.61 C 70.85 103.63 69.79 95.71 68.83 87.79 C 65.75 88.25 62.67 88.71 59.59 89.18 M 16.23 91.96 C 15.17 98.31 15.38 104.76 15.55 111.16 C 16.88 111.02 18.21 110.88 19.55 110.74 C 21.02 105.47 22.47 100.20 23.87 94.91 C 21.33 93.92 18.78 92.94 16.23 91.96 M 84.47 91.73 C 87.81 99.03 91.27 106.27 94.86 113.46 C 96.11 107.63 97.19 101.77 98.23 95.91 C 93.67 94.42 89.09 93.02 84.47 91.73 M 25.24 95.88 C 23.74 100.84 22.27 105.82 20.86 110.81 C 22.91 110.46 24.97 110.12 27.02 109.77 C 28.22 105.67 29.30 101.53 30.25 97.37 C 28.58 96.87 26.91 96.37 25.24 95.88 M 101.15 95.96 C 100.43 99.49 99.74 103.02 99.07 106.55 C 103.62 106.58 108.16 106.56 112.70 106.49 C 112.72 103.11 112.73 99.73 112.73 96.35 C 108.87 96.19 105.01 96.06 101.15 95.96 M 83.47 96.42 C 81.99 102.39 80.64 108.40 79.34 114.41 C 80.29 115.36 81.23 116.31 82.18 117.26 C 85.03 115.62 87.88 113.96 90.72 112.30 C 88.43 106.95 86.08 101.62 83.47 96.42 M 98.41 108.53 C 98.30 110.52 98.19 112.52 98.08 114.51 C 102.97 115.26 107.90 115.84 112.84 116.25 C 112.78 113.66 112.71 111.07 112.65 108.48 C 107.90 108.42 103.15 108.43 98.41 108.53 M 15.43 114.14 C 15.44 117.94 15.46 121.74 15.49 125.54 C 16.61 125.64 17.74 125.75 18.86 125.85 C 18.96 121.82 19.01 117.80 19.01 113.77 C 17.82 113.90 16.62 114.02 15.43 114.14 M 82.92 118.20 C 83.08 119.67 83.25 121.13 83.41 122.61 C 86.86 123.04 90.31 123.47 93.76 123.87 C 93.76 120.32 93.36 116.77 92.25 113.39 C 89.12 114.96 86.02 116.57 82.92 118.20 M 25.21 115.16 C 23.58 115.92 23.16 118.23 24.18 119.65 C 25.01 122.26 29.76 121.52 30.13 118.92 C 31.16 116.07 27.75 113.54 25.21 115.16 M 97.16 117.07 C 96.75 119.50 96.35 121.93 95.96 124.36 C 97.84 121.97 99.68 119.55 101.50 117.11 C 100.05 117.09 98.61 117.08 97.16 117.07 M 103.31 117.28 C 101.38 119.78 99.48 122.29 97.60 124.82 C 102.61 126.03 107.66 127.02 112.75 127.85 C 112.76 124.66 112.76 121.48 112.77 118.29 C 109.62 117.96 106.46 117.62 103.31 117.28 M 72.32 118.32 C 68.84 119.97 69.28 125.96 73.11 126.86 C 76.41 128.03 79.55 124.55 78.71 121.36 C 78.27 118.49 74.81 117.00 72.32 118.32 M 50.02 126.25 C 49.14 129.18 48.27 132.10 47.40 135.02 C 48.87 136.07 50.33 137.12 51.79 138.17 C 56.96 134.03 62.58 130.34 66.75 125.11 C 61.15 124.93 55.55 125.40 50.02 126.25 M 33.27 128.31 C 34.32 131.54 35.38 134.76 36.46 137.98 C 39.29 137.04 42.30 136.39 44.82 134.73 C 46.72 132.55 47.20 129.54 48.20 126.90 C 43.21 127.19 38.23 127.67 33.27 128.31 M 76.27 132.39 C 74.07 135.12 73.61 138.74 72.70 142.01 C 78.06 143.34 83.50 144.36 88.98 145.10 C 90.09 139.48 90.99 133.83 91.72 128.14 C 88.95 127.73 86.13 126.91 83.32 127.35 C 80.57 128.35 78.24 130.28 76.27 132.39 M 18.18 129.94 C 19.22 133.85 20.36 137.73 21.63 141.57 C 24.89 137.60 27.98 133.50 30.92 129.30 C 26.67 129.44 22.42 129.65 18.18 129.94 M 94.77 129.22 C 94.21 132.67 93.67 136.13 93.17 139.60 C 95.07 139.73 96.97 139.86 98.86 139.99 C 98.95 136.75 99.03 133.51 99.11 130.26 C 97.66 129.91 96.22 129.57 94.77 129.22 M 101.78 130.87 C 101.43 133.93 101.08 137.00 100.74 140.06 C 104.74 140.91 108.77 141.64 112.82 142.22 C 112.78 138.98 112.74 135.74 112.70 132.50 C 109.06 131.93 105.42 131.38 101.78 130.87 M 26.81 137.04 C 28.80 142.47 31.00 147.82 33.36 153.10 C 35.04 151.72 36.73 150.34 38.41 148.96 C 36.21 143.25 33.84 137.61 31.39 132.00 C 29.86 133.68 28.33 135.36 26.81 137.04 M 55.44 139.94 C 58.55 143.23 61.81 146.39 65.21 149.40 C 66.86 145.05 68.34 140.64 69.67 136.19 C 67.43 135.10 65.19 134.01 62.96 132.91 C 60.41 135.21 57.91 137.56 55.44 139.94 M 15.80 133.37 C 15.23 141.13 15.26 148.93 15.86 156.68 C 18.29 156.73 20.71 156.77 23.14 156.82 C 20.93 148.93 19.03 140.92 15.80 133.37 M 42.90 137.84 C 43.79 139.60 44.69 141.35 45.58 143.12 C 47.18 141.96 48.78 140.80 50.38 139.64 C 48.99 138.43 47.60 137.22 46.21 136.00 C 45.11 136.61 44.01 137.22 42.90 137.84 M 36.92 140.00 C 38.48 142.48 40.05 144.95 41.63 147.42 C 42.74 146.45 43.85 145.49 44.96 144.53 C 43.65 142.37 42.34 140.21 41.03 138.06 C 39.66 138.70 38.29 139.35 36.92 140.00 M 25.44 138.11 C 22.85 141.27 21.91 145.19 23.05 149.14 C 25.01 148.37 26.97 147.58 28.92 146.80 C 27.81 143.88 26.67 140.97 25.44 138.11 M 42.66 150.09 C 45.81 152.34 48.84 154.92 52.53 156.26 C 56.15 157.26 59.93 156.38 63.57 155.93 C 63.72 155.18 64.01 153.67 64.16 152.92 C 60.56 149.09 56.79 145.43 52.92 141.88 C 49.38 144.46 45.95 147.20 42.66 150.09 M 95.10 146.01 C 91.91 148.59 92.20 152.97 92.00 156.65 C 98.15 156.83 104.29 156.85 110.44 156.74 C 110.40 153.34 110.88 149.41 108.33 146.72 C 105.16 142.72 98.67 142.34 95.10 146.01 M 72.13 143.96 C 71.00 146.98 69.90 150.01 68.81 153.05 C 71.21 153.62 73.62 154.19 76.02 154.76 C 76.63 151.53 77.23 148.31 77.83 145.08 C 75.93 144.70 74.03 144.33 72.13 143.96 M 78.97 145.00 C 79.00 146.34 79.02 147.69 79.05 149.04 C 82.28 149.49 85.52 149.92 88.75 150.34 C 88.80 149.06 88.85 147.78 88.90 146.50 C 85.59 145.99 82.28 145.49 78.97 145.00 M 23.91 151.06 C 24.83 153.02 25.75 154.98 26.67 156.94 C 28.44 156.00 30.20 155.06 31.96 154.12 C 31.23 152.09 30.50 150.06 29.77 148.03 C 27.82 149.04 25.87 150.05 23.91 151.06 M 78.54 150.20 C 78.38 151.75 78.21 153.30 78.05 154.85 C 81.26 155.27 84.47 155.68 87.69 156.07 C 87.76 154.67 87.83 153.28 87.90 151.88 C 84.78 151.31 81.66 150.75 78.54 150.20 M 34.97 155.82 C 38.82 156.14 42.68 156.24 46.54 156.11 C 44.50 154.63 42.51 152.98 40.12 152.09 C 38.23 153.08 36.62 154.50 34.97 155.82 M 15.50 172.50 C 15.50 173.32 15.49 174.94 15.49 175.76 C 29.25 175.76 43.00 175.76 56.76 175.76 C 56.76 174.94 56.76 173.32 56.76 172.50 C 43.01 172.49 29.25 172.49 15.50 172.50 M 68.51 172.50 C 68.50 173.31 68.49 174.94 68.49 175.75 C 82.24 175.77 96.00 175.76 109.76 175.76 C 109.76 174.94 109.76 173.32 109.76 172.50 C 96.01 172.49 82.26 172.49 68.51 172.50 M 14.23 180.90 C 17.52 183.75 22.03 182.78 25.99 182.91 C 36.68 182.56 47.41 183.39 58.08 182.40 C 54.73 179.46 50.04 180.52 45.98 180.36 C 35.40 180.71 24.78 179.85 14.23 180.90 M 67.28 180.89 C 70.25 183.57 74.38 182.86 78.03 182.92 C 87.35 182.70 96.67 182.99 105.99 182.87 C 107.93 183.01 109.59 181.99 111.07 180.87 C 103.74 180.05 96.35 180.52 88.98 180.42 C 81.75 180.52 74.49 180.04 67.28 180.89 M 14.26 187.88 C 17.53 190.76 22.06 189.78 26.03 189.90 C 36.70 189.58 47.40 190.37 58.05 189.42 C 55.07 186.55 50.70 187.50 46.97 187.35 C 36.07 187.71 25.14 186.87 14.26 187.88 M 67.27 187.88 C 70.53 190.76 75.06 189.78 79.01 189.90 C 89.70 189.54 100.43 190.44 111.09 189.35 C 107.64 186.60 103.07 187.44 99.00 187.37 C 88.42 187.70 77.82 186.88 67.27 187.88 M 15.38 194.45 C 15.41 195.05 15.47 196.24 15.50 196.84 C 27.33 196.89 39.17 196.78 51.01 196.94 C 53.55 197.04 56.15 196.66 58.12 194.91 C 43.91 193.84 29.63 194.65 15.38 194.45 M 68.36 194.45 C 68.40 195.05 68.48 196.25 68.52 196.85 C 82.68 196.64 96.86 197.33 111.00 196.46 C 108.65 193.93 105.06 194.39 101.96 194.33 C 90.76 194.52 79.56 194.33 68.36 194.45 M 14.08 203.10 C 21.00 204.39 28.05 203.68 35.04 203.91 C 38.66 203.84 42.80 204.59 45.72 201.86 C 38.50 201.05 31.23 201.57 23.98 201.33 C 20.59 201.18 17.13 201.45 14.08 203.10 M 67.26 201.90 C 71.76 205.40 77.78 203.41 83.00 203.86 C 88.21 203.38 94.29 205.45 98.73 201.85 C 88.27 201.17 77.71 201.10 67.26 201.90 M 14.27 215.91 C 15.95 217.12 17.86 218.07 19.99 217.92 C 29.34 217.95 38.70 217.74 48.05 217.95 C 51.48 217.91 55.36 218.46 58.09 215.89 C 50.76 215.05 43.37 215.52 36.01 215.42 C 28.76 215.52 21.49 215.05 14.27 215.91 M 67.26 215.92 C 69.44 217.76 72.27 218.09 75.02 217.97 C 86.71 217.74 98.41 218.02 110.10 217.77 C 109.94 217.17 109.63 215.98 109.47 215.38 C 95.40 215.74 81.29 214.80 67.26 215.92 M 14.26 222.87 C 17.50 225.75 22.02 224.81 25.97 224.92 C 36.67 224.56 47.42 225.45 58.10 224.38 C 54.68 221.57 50.07 222.46 45.99 222.37 C 35.42 222.70 24.81 221.90 14.26 222.87 M 67.26 222.87 C 70.49 225.75 75.00 224.81 78.94 224.92 C 89.65 224.58 100.39 225.42 111.07 224.41 C 108.03 221.64 103.73 222.46 99.98 222.35 C 89.07 222.72 78.13 221.88 67.26 222.87 M 14.51 239.53 C 14.44 243.92 14.42 248.31 14.45 252.70 C 75.22 252.83 135.99 252.81 196.76 252.71 C 196.81 248.30 196.80 243.89 196.72 239.49 C 135.99 239.48 75.25 239.40 14.51 239.53 Z" />
</g>
<g id="#f2f2f5ff">
<path fill="#f2f2f5" opacity="1.00" d=" M 120.43 75.45 C 145.53 75.07 170.65 75.30 195.75 75.32 C 196.11 122.87 195.69 170.42 195.96 217.97 C 195.94 220.56 195.88 223.16 195.82 225.75 C 170.66 225.98 145.48 225.93 120.31 225.80 C 120.24 184.53 120.26 143.26 120.27 101.98 C 120.33 93.14 120.06 84.29 120.43 75.45 M 128.25 85.91 C 129.69 86.76 131.14 87.88 132.92 87.84 C 137.94 88.03 142.99 88.09 148.00 87.78 C 149.59 87.76 150.81 86.64 152.12 85.91 C 144.19 85.12 136.17 85.13 128.25 85.91 M 129.42 92.47 C 129.41 95.20 129.39 97.92 129.38 100.65 C 144.54 101.01 159.71 100.85 174.88 100.75 C 174.81 97.98 174.74 95.21 174.66 92.45 C 159.58 92.29 144.50 92.27 129.42 92.47 M 129.99 108.02 C 130.00 108.51 130.00 109.49 130.00 109.98 C 136.67 110.02 143.33 110.02 150.00 109.98 C 150.00 109.49 150.00 108.51 150.00 108.02 C 143.33 107.98 136.66 107.98 129.99 108.02 M 129.43 113.46 C 129.40 116.19 129.38 118.92 129.35 121.65 C 144.51 122.01 159.68 121.85 174.84 121.74 C 174.79 118.98 174.74 116.22 174.69 113.46 C 159.61 113.28 144.52 113.27 129.43 113.46 M 130.00 131.02 C 130.00 131.51 129.99 132.49 129.99 132.98 C 136.66 133.02 143.33 133.02 150.00 132.98 C 150.00 132.49 150.00 131.51 150.00 131.02 C 143.33 130.98 136.66 130.98 130.00 131.02 M 129.42 136.52 C 129.41 139.22 129.39 141.93 129.38 144.64 C 144.53 145.03 159.69 144.84 174.85 144.73 C 174.79 141.97 174.73 139.22 174.67 136.46 C 159.59 136.30 144.50 136.22 129.42 136.52 M 130.00 154.02 C 130.00 154.51 129.99 155.49 129.99 155.98 C 136.67 156.02 143.34 156.02 150.01 155.98 C 150.01 155.49 150.00 154.51 150.00 154.02 C 143.33 153.98 136.67 153.98 130.00 154.02 M 129.49 160.49 C 129.22 170.56 129.36 180.64 129.37 190.72 C 148.50 190.92 167.63 190.88 186.75 190.74 C 186.91 180.62 186.93 170.50 186.73 160.39 C 167.65 160.38 148.57 160.21 129.49 160.49 M 129.51 196.52 C 129.50 198.58 129.49 200.65 129.48 202.73 C 136.24 202.77 143.00 202.77 149.76 202.74 C 149.75 200.66 149.74 198.58 149.73 196.50 C 142.99 196.48 136.25 196.47 129.51 196.52 M 129.12 214.49 C 148.12 214.79 167.13 214.69 186.14 214.55 C 167.14 214.17 148.12 214.26 129.12 214.49 M 167.31 218.22 C 166.91 218.64 166.10 219.48 165.70 219.90 C 172.83 219.97 180.01 220.44 187.10 219.44 C 180.75 217.12 173.90 218.39 167.31 218.22 Z" />
</g>
<g id="#d9d9dbff">
<path fill="#d9d9db" opacity="1.00" d=" M 87.09 76.55 C 92.09 76.47 97.08 76.46 102.08 76.50 C 101.33 79.04 100.57 81.59 99.81 84.13 C 95.23 82.94 90.67 81.71 86.11 80.45 C 86.44 79.15 86.76 77.85 87.09 76.55 Z" />
<path fill="#d9d9db" opacity="1.00" d=" M 20.97 79.64 C 23.74 80.51 26.51 81.39 29.27 82.27 C 27.86 86.05 26.41 89.80 24.93 93.55 C 22.11 92.68 19.29 91.80 16.47 90.92 C 17.94 87.15 19.44 83.39 20.97 79.64 Z" />
<path fill="#d9d9db" opacity="1.00" d=" M 85.56 82.27 C 90.35 83.28 95.13 84.34 99.89 85.46 C 99.32 88.15 98.75 90.85 98.17 93.55 C 93.56 92.35 88.97 91.10 84.39 89.78 C 84.78 87.28 85.17 84.78 85.56 82.27 Z" />
<path fill="#d9d9db" opacity="1.00" d=" M 30.98 82.62 C 32.51 83.23 34.08 83.77 35.51 84.62 C 36.33 85.92 36.83 87.39 37.43 88.80 C 35.48 88.74 33.52 88.68 31.57 88.62 C 33.32 89.55 35.07 90.49 36.82 91.42 C 36.98 93.70 37.14 95.98 37.30 98.26 C 33.61 96.88 29.93 95.46 26.26 94.00 C 28.07 90.31 29.65 86.51 30.98 82.62 Z" />
<path fill="#d9d9db" opacity="1.00" d=" M 16.23 91.96 C 18.78 92.94 21.33 93.92 23.87 94.91 C 22.47 100.20 21.02 105.47 19.55 110.74 C 18.21 110.88 16.88 111.02 15.55 111.16 C 15.38 104.76 15.17 98.31 16.23 91.96 Z" />
<path fill="#d9d9db" opacity="1.00" d=" M 84.47 91.73 C 89.09 93.02 93.67 94.42 98.23 95.91 C 97.19 101.77 96.11 107.63 94.86 113.46 C 91.27 106.27 87.81 99.03 84.47 91.73 Z" />
<path fill="#d9d9db" opacity="1.00" d=" M 25.24 95.88 C 26.91 96.37 28.58 96.87 30.25 97.37 C 29.30 101.53 28.22 105.67 27.02 109.77 C 24.97 110.12 22.91 110.46 20.86 110.81 C 22.27 105.82 23.74 100.84 25.24 95.88 Z" />
<path fill="#d9d9db" opacity="1.00" d=" M 83.47 96.42 C 86.08 101.62 88.43 106.95 90.72 112.30 C 87.88 113.96 85.03 115.62 82.18 117.26 C 81.23 116.31 80.29 115.36 79.34 114.41 C 80.64 108.40 81.99 102.39 83.47 96.42 Z" />
<path fill="#d9d9db" opacity="1.00" d=" M 32.27 97.88 C 34.18 98.64 36.09 99.39 38.01 100.14 C 38.28 102.16 38.57 104.18 38.76 106.22 L 38.87 107.64 C 35.75 108.19 32.62 108.71 29.48 109.23 C 30.39 105.44 31.32 101.66 32.27 97.88 Z" />
<path fill="#d9d9db" opacity="1.00" d=" M 82.92 118.20 C 86.02 116.57 89.12 114.96 92.25 113.39 C 93.36 116.77 93.76 120.32 93.76 123.87 C 90.31 123.47 86.86 123.04 83.41 122.61 C 83.25 121.13 83.08 119.67 82.92 118.20 Z" />
</g>
<g id="#d2d2d2ff">
<path fill="#d2d2d2" opacity="1.00" d=" M 128.25 85.91 C 136.17 85.13 144.19 85.12 152.12 85.91 C 150.81 86.64 149.59 87.76 148.00 87.78 C 142.99 88.09 137.94 88.03 132.92 87.84 C 131.14 87.88 129.69 86.76 128.25 85.91 Z" />
</g>
<g id="#ffffffff">
<path fill="#ffffff" opacity="1.00" d=" M 129.42 92.47 C 144.50 92.27 159.58 92.29 174.66 92.45 C 174.74 95.21 174.81 97.98 174.88 100.75 C 159.71 100.85 144.54 101.01 129.38 100.65 C 129.39 97.92 129.41 95.20 129.42 92.47 Z" />
<path fill="#ffffff" opacity="1.00" d=" M 129.43 113.46 C 144.52 113.27 159.61 113.28 174.69 113.46 C 174.74 116.22 174.79 118.98 174.84 121.74 C 159.68 121.85 144.51 122.01 129.35 121.65 C 129.38 118.92 129.40 116.19 129.43 113.46 Z" />
<path fill="#ffffff" opacity="1.00" d=" M 129.42 136.52 C 144.50 136.22 159.59 136.30 174.67 136.46 C 174.73 139.22 174.79 141.97 174.85 144.73 C 159.69 144.84 144.53 145.03 129.38 144.64 C 129.39 141.93 129.41 139.22 129.42 136.52 Z" />
<path fill="#ffffff" opacity="1.00" d=" M 129.49 160.49 C 148.57 160.21 167.65 160.38 186.73 160.39 C 186.93 170.50 186.91 180.62 186.75 190.74 C 167.63 190.88 148.50 190.92 129.37 190.72 C 129.36 180.64 129.22 170.56 129.49 160.49 Z" />
</g>
<g id="#cdcdcdff">
<path fill="#cdcdcd" opacity="1.00" d=" M 129.99 108.02 C 136.66 107.98 143.33 107.98 150.00 108.02 C 150.00 108.51 150.00 109.49 150.00 109.98 C 143.33 110.02 136.67 110.02 130.00 109.98 C 130.00 109.49 130.00 108.51 129.99 108.02 Z" />
<path fill="#cdcdcd" opacity="1.00" d=" M 130.00 131.02 C 136.66 130.98 143.33 130.98 150.00 131.02 C 150.00 131.51 150.00 132.49 150.00 132.98 C 143.33 133.02 136.66 133.02 129.99 132.98 C 129.99 132.49 130.00 131.51 130.00 131.02 Z" />
<path fill="#cdcdcd" opacity="1.00" d=" M 130.00 154.02 C 136.67 153.98 143.33 153.98 150.00 154.02 C 150.00 154.51 150.01 155.49 150.01 155.98 C 143.34 156.02 136.67 156.02 129.99 155.98 C 129.99 155.49 130.00 154.51 130.00 154.02 Z" />
<path fill="#cdcdcd" opacity="1.00" d=" M 129.51 196.52 C 136.25 196.47 142.99 196.48 149.73 196.50 C 149.74 198.58 149.75 200.66 149.76 202.74 C 143.00 202.77 136.24 202.77 129.48 202.73 C 129.49 200.65 129.50 198.58 129.51 196.52 Z" />
</g>
<g id="#ebecf0ff">
<path fill="#ebecf0" opacity="1.00" d=" M 97.16 117.07 C 98.61 117.08 100.05 117.09 101.50 117.11 C 99.68 119.55 97.84 121.97 95.96 124.36 C 96.35 121.93 96.75 119.50 97.16 117.07 Z" />
</g>
<g id="#d3d3d3ff">
<path fill="#d3d3d3" opacity="1.00" d=" M 14.23 180.90 C 24.78 179.85 35.40 180.71 45.98 180.36 C 50.04 180.52 54.73 179.46 58.08 182.40 C 47.41 183.39 36.68 182.56 25.99 182.91 C 22.03 182.78 17.52 183.75 14.23 180.90 Z" />
<path fill="#d3d3d3" opacity="1.00" d=" M 67.28 180.89 C 74.49 180.04 81.75 180.52 88.98 180.42 C 96.35 180.52 103.74 180.05 111.07 180.87 C 109.59 181.99 107.93 183.01 105.99 182.87 C 96.67 182.99 87.35 182.70 78.03 182.92 C 74.38 182.86 70.25 183.57 67.28 180.89 Z" />
<path fill="#d3d3d3" opacity="1.00" d=" M 14.26 187.88 C 25.14 186.87 36.07 187.71 46.97 187.35 C 50.70 187.50 55.07 186.55 58.05 189.42 C 47.40 190.37 36.70 189.58 26.03 189.90 C 22.06 189.78 17.53 190.76 14.26 187.88 Z" />
<path fill="#d3d3d3" opacity="1.00" d=" M 67.27 187.88 C 77.82 186.88 88.42 187.70 99.00 187.37 C 103.07 187.44 107.64 186.60 111.09 189.35 C 100.43 190.44 89.70 189.54 79.01 189.90 C 75.06 189.78 70.53 190.76 67.27 187.88 Z" />
<path fill="#d3d3d3" opacity="1.00" d=" M 15.38 194.45 C 29.63 194.65 43.91 193.84 58.12 194.91 C 56.15 196.66 53.55 197.04 51.01 196.94 C 39.17 196.78 27.33 196.89 15.50 196.84 C 15.47 196.24 15.41 195.05 15.38 194.45 Z" />
<path fill="#d3d3d3" opacity="1.00" d=" M 68.36 194.45 C 79.56 194.33 90.76 194.52 101.96 194.33 C 105.06 194.39 108.65 193.93 111.00 196.46 C 96.86 197.33 82.68 196.64 68.52 196.85 C 68.48 196.25 68.40 195.05 68.36 194.45 Z" />
<path fill="#d3d3d3" opacity="1.00" d=" M 14.08 203.10 C 17.13 201.45 20.59 201.18 23.98 201.33 C 31.23 201.57 38.50 201.05 45.72 201.86 C 42.80 204.59 38.66 203.84 35.04 203.91 C 28.05 203.68 21.00 204.39 14.08 203.10 Z" />
<path fill="#d3d3d3" opacity="1.00" d=" M 67.26 201.90 C 77.71 201.10 88.27 201.17 98.73 201.85 C 94.29 205.45 88.21 203.38 83.00 203.86 C 77.78 203.41 71.76 205.40 67.26 201.90 Z" />
</g>
<g id="#d4d4d7ff">
<path fill="#d4d4d7" opacity="1.00" d=" M 14.27 215.91 C 21.49 215.05 28.76 215.52 36.01 215.42 C 43.37 215.52 50.76 215.05 58.09 215.89 C 55.36 218.46 51.48 217.91 48.05 217.95 C 38.70 217.74 29.34 217.95 19.99 217.92 C 17.86 218.07 15.95 217.12 14.27 215.91 Z" />
<path fill="#d4d4d7" opacity="1.00" d=" M 67.26 215.92 C 81.29 214.80 95.40 215.74 109.47 215.38 C 109.63 215.98 109.94 217.17 110.10 217.77 C 98.41 218.02 86.71 217.74 75.02 217.97 C 72.27 218.09 69.44 217.76 67.26 215.92 Z" />
<path fill="#d4d4d7" opacity="1.00" d=" M 14.26 222.87 C 24.81 221.90 35.42 222.70 45.99 222.37 C 50.07 222.46 54.68 221.57 58.10 224.38 C 47.42 225.45 36.67 224.56 25.97 224.92 C 22.02 224.81 17.50 225.75 14.26 222.87 Z" />
<path fill="#d4d4d7" opacity="1.00" d=" M 67.26 222.87 C 78.13 221.88 89.07 222.72 99.98 222.35 C 103.73 222.46 108.03 221.64 111.07 224.41 C 100.39 225.42 89.65 224.58 78.94 224.92 C 75.00 224.81 70.49 225.75 67.26 222.87 Z" />
</g>
<g id="#dbdbddff">
<path fill="#dbdbdd" opacity="1.00" d=" M 167.31 218.22 C 173.90 218.39 180.75 217.12 187.10 219.44 C 180.01 220.44 172.83 219.97 165.70 219.90 C 166.10 219.48 166.91 218.64 167.31 218.22 Z" />
</g>
</svg>
