<?xml version="1.0" encoding="UTF-8" ?>
<!DOCTYPE svg PUBLIC "-//W3C//DTD SVG 1.1//EN" "http://www.w3.org/Graphics/SVG/1.1/DTD/svg11.dtd">
<svg version="1.1" id="Layer_1" xmlns:svg="http://www.w3.org/2000/svg" xmlns="http://www.w3.org/2000/svg" xmlns:xlink="http://www.w3.org/1999/xlink" x="0px" y="0px" viewBox="0 0 640 480" enable-background="new 0 0 640 480" xml:space="preserve">
<rect id="svgEditorBackground" y="28.2" fill="none" width="640" height="423.5"></rect>
<g id="workspace">
</g>
<g transform="matrix(1 0 0 1 -7.105427357601002e-15 -1.7763568394002505e-15)">
<g id="_x23_fafafaff">
<path id="svg_1" fill="#ffffff" d="M-0.4,28.7h640v423.5h-640V28.7 M88,196.4v181.2l122.9-99l-71.4-69.8l180.8,142.7l182.3-141.7l-71.4,70.8
l123.5,94.8V191.6l-116.2-91.2l-118.8,90.6l-116.2-90.1L88,196.4L88,196.4z"></path>
</g>
<g id="_x23_77787c">
</g>
</g>
<polygon id="e1_polygon" fill="#000000" points="88,377.6 88,196.3 203.6,100.9 319.8,191.1 438.6,100.4 554.8,191.6 554.8,375.5
431.3,280.7 502.7,209.8 320.3,351.5 139.6,208.8 210.9,278.6 "></polygon>
</svg>