<svg xmlns="http://www.w3.org/2000/svg" xmlns:xlink="http://www.w3.org/1999/xlink" version="1.1" x="0px" y="0px" viewBox="0 0 100 125" style="enable-background:new 0 0 100 100;" xml:space="preserve"><path d="M62.2,9c-0.3-0.1-0.6,0-0.9,0.2c-0.3,0.2-0.4,0.5-0.4,0.8v18.5c-3.3-2.3-7.1-3.4-11.1-3.4c-4.2,0-8.3,1.4-11.7,3.9v-19  c0-0.3-0.1-0.6-0.4-0.8c-0.3-0.2-0.6-0.2-0.9-0.2C18.7,14.4,6.5,30.9,6.5,50.2c0,23.7,19.3,43,43,43c23.7,0,43-19.3,43-43  C92.5,30.9,80.3,14.4,62.2,9z M49.8,27c4,0,7.8,1.4,11.1,3.9v1.4L49.5,52.9L38.1,32.4v-0.8C41.4,28.6,45.6,27,49.8,27z M49.5,91.2  c-22.6,0-41-18.4-41-41c0-17.9,11-33.3,27.6-38.9v21.3c0,0.2,0,0.3,0.1,0.5l12.4,22.4c0.4,0.6,1.4,0.6,1.8,0l12.4-22.4  c0.1-0.1,0.1-0.3,0.1-0.5V11.3c16.6,5.5,27.6,21,27.6,38.9C90.5,72.8,72.1,91.2,49.5,91.2z"/><text x="0" y="115" fill="#000000" font-size="5px" font-weight="bold" font-family="'Helvetica Neue', Helvetica, Arial-Unicode, Arial, Sans-serif">Created by Alexander Gruzdev</text><text x="0" y="120" fill="#000000" font-size="5px" font-weight="bold" font-family="'Helvetica Neue', Helvetica, Arial-Unicode, Arial, Sans-serif">from the Noun Project</text></svg>