<?xml version="1.0" encoding="UTF-8" ?>
<!DOCTYPE svg PUBLIC "-//W3C//DTD SVG 1.1//EN" "http://www.w3.org/Graphics/SVG/1.1/DTD/svg11.dtd">
<svg width="211pt" height="269pt" viewBox="0 0 211 269" version="1.1" xmlns="http://www.w3.org/2000/svg">
<g id="#f4f5f7ff">
<path fill="#f4f5f7" opacity="1.00" d=" M 0.00 0.00 L 211.00 0.00 L 211.00 39.49 L 210.30 39.48 C 143.86 39.19 77.42 39.51 10.98 39.33 C 7.60 39.32 4.21 39.39 0.83 39.59 C 1.15 109.38 0.87 179.17 0.98 248.96 C 1.11 254.61 0.45 260.31 1.28 265.93 C 1.54 268.18 4.34 267.84 5.98 268.06 C 68.66 267.98 131.34 268.05 194.02 268.03 C 199.69 268.07 205.50 268.49 211.00 266.78 L 211.00 269.00 L 0.00 269.00 L 0.00 0.00 M 73.40 12.33 C 72.43 18.05 72.99 23.91 73.38 29.67 C 79.20 30.64 85.11 30.15 90.98 30.20 C 124.64 30.24 158.30 30.17 191.96 30.25 C 194.26 30.20 196.56 30.05 198.85 29.90 C 199.14 24.93 199.43 19.94 199.09 14.97 C 198.93 13.65 198.98 12.10 197.82 11.20 C 193.58 10.50 189.26 10.94 184.98 10.89 C 149.35 10.85 113.71 10.91 78.07 10.87 C 76.51 11.17 74.11 10.42 73.40 12.33 M 14.36 16.42 C 11.32 18.17 11.20 22.99 14.09 24.95 C 17.16 27.43 22.30 25.03 22.29 21.06 C 22.76 16.95 17.69 14.27 14.36 16.42 M 31.42 16.39 C 28.34 18.10 28.17 22.97 31.08 24.95 C 34.17 27.44 39.33 25.02 39.30 21.02 C 39.71 16.96 34.74 14.31 31.42 16.39 M 48.37 16.42 C 44.79 18.42 45.43 24.39 49.34 25.62 C 52.82 27.14 57.10 23.69 56.19 19.96 C 55.89 16.32 51.29 14.59 48.37 16.42 Z" />
</g>
<g id="#fffffdff">
<path fill="#fffffd" opacity="1.00" d=" M 73.40 12.33 C 74.11 10.42 76.51 11.17 78.07 10.87 C 113.71 10.91 149.35 10.85 184.98 10.89 C 189.26 10.94 193.58 10.50 197.82 11.20 C 198.98 12.10 198.93 13.65 199.09 14.97 C 199.43 19.94 199.14 24.93 198.85 29.90 C 196.56 30.05 194.26 30.20 191.96 30.25 C 158.30 30.17 124.64 30.24 90.98 30.20 C 85.11 30.15 79.20 30.64 73.38 29.67 C 72.99 23.91 72.43 18.05 73.40 12.33 Z" />
</g>
<g id="#f85050ff">
<path fill="#f85050" opacity="1.00" d=" M 14.36 16.42 C 17.69 14.27 22.76 16.95 22.29 21.06 C 22.30 25.03 17.16 27.43 14.09 24.95 C 11.20 22.99 11.32 18.17 14.36 16.42 Z" />
</g>
<g id="#fcad4eff">
<path fill="#fcad4e" opacity="1.00" d=" M 31.42 16.39 C 34.74 14.31 39.71 16.96 39.30 21.02 C 39.33 25.02 34.17 27.44 31.08 24.95 C 28.17 22.97 28.34 18.10 31.42 16.39 Z" />
</g>
<g id="#61b44aff">
<path fill="#61b44a" opacity="1.00" d=" M 48.37 16.42 C 51.29 14.59 55.89 16.32 56.19 19.96 C 57.10 23.69 52.82 27.14 49.34 25.62 C 45.43 24.39 44.79 18.42 48.37 16.42 Z" />
</g>
<g id="#9d9d9dff">
<path fill="#9d9d9d" opacity="1.00" d=" M 0.83 39.59 C 4.21 39.39 7.60 39.32 10.98 39.33 C 77.42 39.51 143.86 39.19 210.30 39.48 C 140.48 39.80 70.65 39.60 0.83 39.59 Z" />
<path fill="#9d9d9d" opacity="1.00" d=" M 56.45 78.28 C 75.57 78.20 94.69 78.25 113.80 78.26 C 113.76 79.35 113.72 80.44 113.68 81.53 C 94.63 81.47 75.58 81.52 56.53 81.50 C 56.51 80.70 56.47 79.09 56.45 78.28 Z" />
<path fill="#9d9d9d" opacity="1.00" d=" M 21.00 82.01 C 25.53 82.10 30.09 81.73 34.61 82.13 C 35.35 82.98 35.98 83.91 36.50 84.92 C 31.33 85.07 26.17 84.98 21.00 84.99 C 21.00 84.25 21.00 82.76 21.00 82.01 Z" />
<path fill="#9d9d9d" opacity="1.00" d=" M 69.19 109.25 C 74.29 109.24 79.38 109.24 84.48 109.24 C 84.49 110.06 84.51 111.69 84.52 112.50 C 79.48 112.50 74.44 112.47 69.40 112.58 C 69.30 111.47 69.23 110.36 69.19 109.25 Z" />
<path fill="#9d9d9d" opacity="1.00" d=" M 69.26 132.24 C 76.03 132.26 82.81 132.18 89.58 132.30 C 89.55 133.11 89.49 134.71 89.46 135.51 C 82.71 135.50 75.96 135.52 69.22 135.49 C 69.23 134.68 69.25 133.05 69.26 132.24 Z" />
<path fill="#9d9d9d" opacity="1.00" d=" M 69.19 155.26 C 77.62 155.23 86.05 155.25 94.49 155.24 C 94.50 156.05 94.51 157.68 94.52 158.49 C 86.13 158.54 77.73 158.46 69.34 158.54 C 69.29 157.44 69.24 156.35 69.19 155.26 Z" />
<path fill="#9d9d9d" opacity="1.00" d=" M 69.17 178.25 C 79.23 178.19 89.29 178.34 99.34 178.16 C 99.40 178.99 99.50 180.67 99.56 181.50 C 89.52 181.56 79.48 181.39 69.44 181.60 C 69.33 180.48 69.24 179.36 69.17 178.25 Z" />
</g>
<g id="#e9eaeeff">
<path fill="#e9eaee" opacity="1.00" d=" M 210.30 39.48 L 211.00 39.49 L 211.00 266.78 C 205.50 268.49 199.69 268.07 194.02 268.03 C 131.34 268.05 68.66 267.98 5.98 268.06 C 4.34 267.84 1.54 268.18 1.28 265.93 C 0.45 260.31 1.11 254.61 0.98 248.96 C 0.87 179.17 1.15 109.38 0.83 39.59 C 70.65 39.60 140.48 39.80 210.30 39.48 M 5.08 43.06 C 4.96 116.68 4.92 190.31 5.08 263.93 C 72.03 264.05 138.99 264.03 205.94 263.94 C 206.03 190.33 206.08 116.71 205.91 43.10 C 138.97 42.91 72.02 42.99 5.08 43.06 Z" />
<path fill="#e9eaee" opacity="1.00" d=" M 15.10 53.05 C 75.71 52.99 136.32 52.92 196.93 53.08 C 197.07 57.35 197.07 61.63 196.93 65.90 C 136.32 66.10 75.71 66.02 15.10 65.93 C 14.93 61.64 14.93 57.34 15.10 53.05 Z" />
<path fill="#e9eaee" opacity="1.00" d=" M 15.09 240.07 C 75.69 239.95 136.30 239.97 196.90 240.05 C 197.07 244.34 197.08 248.64 196.94 252.94 C 136.32 253.05 75.70 253.03 15.08 252.94 C 14.92 248.65 14.92 244.36 15.09 240.07 Z" />
</g>
<g id="#fcfcfcff">
<path fill="#fcfcfc" opacity="1.00" d=" M 5.08 43.06 C 72.02 42.99 138.97 42.91 205.91 43.10 C 206.08 116.71 206.03 190.33 205.94 263.94 C 138.99 264.03 72.03 264.05 5.08 263.93 C 4.92 190.31 4.96 116.68 5.08 43.06 M 15.10 53.05 C 14.93 57.34 14.93 61.64 15.10 65.93 C 75.71 66.02 136.32 66.10 196.93 65.90 C 197.07 61.63 197.07 57.35 196.93 53.08 C 136.32 52.92 75.71 52.99 15.10 53.05 M 16.36 75.36 C 16.04 78.90 15.86 82.44 15.95 85.99 C 16.12 97.61 15.82 109.23 16.11 120.85 C 26.02 121.15 35.94 121.09 45.85 120.86 C 46.11 105.61 46.07 90.34 45.86 75.09 C 36.03 75.00 26.17 74.62 16.36 75.36 M 56.45 78.28 C 56.47 79.09 56.51 80.70 56.53 81.50 C 75.58 81.52 94.63 81.47 113.68 81.53 C 113.72 80.44 113.76 79.35 113.80 78.26 C 94.69 78.25 75.57 78.20 56.45 78.28 M 56.52 87.36 C 56.30 87.87 55.86 88.89 55.65 89.39 C 63.74 89.79 71.85 89.49 79.96 89.58 C 108.32 89.49 136.69 89.76 165.05 89.45 C 164.77 88.92 164.22 87.85 163.94 87.32 C 160.63 86.90 157.29 87.18 153.98 87.14 C 125.00 87.15 96.02 87.15 67.04 87.14 C 63.53 87.19 60.00 86.89 56.52 87.36 M 56.15 95.30 C 56.19 95.85 56.27 96.95 56.31 97.50 C 87.10 97.52 117.90 97.52 148.69 97.50 C 148.73 96.95 148.80 95.85 148.84 95.30 C 117.94 95.23 87.05 95.22 56.15 95.30 M 69.19 109.25 C 69.23 110.36 69.30 111.47 69.40 112.58 C 74.44 112.47 79.48 112.50 84.52 112.50 C 84.51 111.69 84.49 110.06 84.48 109.24 C 79.38 109.24 74.29 109.24 69.19 109.25 M 57.30 110.23 C 55.34 111.41 56.26 114.11 55.84 116.00 C 57.88 115.98 59.93 115.97 61.97 115.96 C 61.97 113.92 61.98 111.89 61.98 109.85 C 60.42 109.94 58.85 109.97 57.30 110.23 M 68.61 118.39 C 95.73 118.77 122.87 118.60 149.99 118.47 C 149.74 117.93 149.25 116.85 149.01 116.30 C 124.02 115.90 98.99 116.32 73.98 116.10 C 71.92 116.26 68.87 115.42 68.61 118.39 M 69.26 132.24 C 69.25 133.05 69.23 134.68 69.22 135.49 C 75.96 135.52 82.71 135.50 89.46 135.51 C 89.49 134.71 89.55 133.11 89.58 132.30 C 82.81 132.18 76.03 132.26 69.26 132.24 M 57.29 135.12 C 57.27 135.76 57.23 137.05 57.21 137.70 C 58.37 137.71 59.53 137.73 60.69 137.76 C 60.69 136.49 60.69 135.22 60.71 133.95 C 59.56 134.33 58.42 134.72 57.29 135.12 M 69.52 139.37 C 69.30 139.87 68.85 140.88 68.63 141.38 C 76.08 141.80 83.54 141.50 91.00 141.58 C 110.66 141.51 130.32 141.72 149.97 141.48 C 149.73 140.94 149.25 139.85 149.01 139.31 C 127.70 138.91 106.35 139.26 85.02 139.15 C 79.86 139.29 74.66 138.80 69.52 139.37 M 69.19 155.26 C 69.24 156.35 69.29 157.44 69.34 158.54 C 77.73 158.46 86.13 158.54 94.52 158.49 C 94.51 157.68 94.50 156.05 94.49 155.24 C 86.05 155.25 77.62 155.23 69.19 155.26 M 57.23 158.10 C 57.22 158.76 57.19 160.07 57.18 160.72 C 58.36 160.73 59.54 160.74 60.72 160.76 C 60.73 159.50 60.76 158.25 60.79 157.00 C 59.60 157.35 58.41 157.72 57.23 158.10 M 68.70 162.26 C 69.18 163.85 70.06 165.04 71.91 164.60 C 97.91 164.51 123.92 164.70 149.92 164.50 C 149.90 161.53 147.04 162.18 145.02 162.10 C 119.58 162.28 94.14 161.97 68.70 162.26 M 69.17 178.25 C 69.24 179.36 69.33 180.48 69.44 181.60 C 79.48 181.39 89.52 181.56 99.56 181.50 C 99.50 180.67 99.40 178.99 99.34 178.16 C 89.29 178.34 79.23 178.19 69.17 178.25 M 57.57 180.74 C 57.43 181.73 57.28 182.73 57.14 183.73 C 58.35 183.74 59.56 183.75 60.76 183.77 C 60.74 182.53 60.72 181.28 60.71 180.04 C 59.66 180.27 58.61 180.50 57.57 180.74 M 68.68 185.27 C 68.96 185.81 69.54 186.89 69.82 187.43 C 74.85 187.88 79.91 187.46 84.95 187.58 C 106.64 187.51 128.32 187.74 150.00 187.46 C 149.35 183.59 144.71 185.60 142.00 185.12 C 117.56 185.27 93.11 184.97 68.68 185.27 M 56.78 199.87 C 58.50 200.10 60.23 200.29 61.97 200.32 C 98.63 200.19 135.30 200.34 171.96 200.27 C 176.68 200.28 181.42 200.49 186.11 199.85 C 184.07 199.71 182.02 199.60 179.98 199.58 C 140.63 199.62 101.28 199.60 61.94 199.58 C 60.21 199.60 58.49 199.72 56.78 199.87 M 159.28 206.02 C 158.88 206.51 158.07 207.50 157.67 207.99 C 158.08 208.49 158.91 209.50 159.32 210.00 C 164.88 210.01 170.45 210.01 176.01 209.98 C 176.00 208.66 176.00 207.33 176.00 206.01 C 170.43 205.99 164.85 205.98 159.28 206.02 M 65.00 207.01 C 65.00 207.76 64.99 209.24 64.99 209.98 C 77.00 210.01 89.00 210.02 101.01 209.98 C 101.01 209.24 101.00 207.76 101.00 207.01 C 89.00 206.99 77.00 206.99 65.00 207.01 M 137.96 227.99 C 150.64 228.01 163.32 228.01 176.00 227.99 C 176.00 225.33 176.00 222.67 176.00 220.01 C 164.32 220.01 152.64 219.95 140.96 220.01 C 136.61 219.78 138.28 225.28 137.96 227.99 M 15.09 240.07 C 14.92 244.36 14.92 248.65 15.08 252.94 C 75.70 253.03 136.32 253.05 196.94 252.94 C 197.08 248.64 197.07 244.34 196.90 240.05 C 136.30 239.97 75.69 239.95 15.09 240.07 Z" />
</g>
<g id="#f1f1f4ff">
<path fill="#f1f1f4" opacity="1.00" d=" M 16.36 75.36 C 26.17 74.62 36.03 75.00 45.86 75.09 C 46.07 90.34 46.11 105.61 45.85 120.86 C 35.94 121.09 26.02 121.15 16.11 120.85 C 15.82 109.23 16.12 97.61 15.95 85.99 C 15.86 82.44 16.04 78.90 16.36 75.36 M 21.00 82.01 C 21.00 82.76 21.00 84.25 21.00 84.99 C 26.17 84.98 31.33 85.07 36.50 84.92 C 35.98 83.91 35.35 82.98 34.61 82.13 C 30.09 81.73 25.53 82.10 21.00 82.01 M 21.29 90.05 C 20.89 90.54 20.08 91.51 19.68 91.99 C 24.45 92.02 29.23 92.02 34.01 91.97 C 34.00 91.48 34.00 90.52 34.00 90.04 C 29.76 89.96 25.53 89.96 21.29 90.05 M 21.28 97.06 C 20.87 97.54 20.07 98.51 19.66 98.99 C 24.44 99.03 29.22 99.02 34.00 98.96 C 34.00 98.48 34.01 97.52 34.01 97.04 C 29.77 96.96 25.52 96.96 21.28 97.06 M 21.25 104.06 C 20.86 104.54 20.07 105.51 19.68 106.00 C 27.12 106.00 34.56 106.03 42.00 105.97 C 42.00 105.49 42.00 104.51 42.00 104.03 C 35.09 103.99 28.17 103.94 21.25 104.06 M 21.30 111.05 C 20.89 111.53 20.06 112.51 19.65 113.00 C 27.10 113.00 34.55 113.04 42.00 112.97 C 42.00 112.48 42.00 111.51 42.00 111.03 C 35.10 110.98 28.20 110.95 21.30 111.05 Z" />
</g>
<g id="#d3d3d3ff">
<path fill="#d3d3d3" opacity="1.00" d=" M 56.52 87.36 C 60.00 86.89 63.53 87.19 67.04 87.14 C 96.02 87.15 125.00 87.15 153.98 87.14 C 157.29 87.18 160.63 86.90 163.94 87.32 C 164.22 87.85 164.77 88.92 165.05 89.45 C 136.69 89.76 108.32 89.49 79.96 89.58 C 71.85 89.49 63.74 89.79 55.65 89.39 C 55.86 88.89 56.30 87.87 56.52 87.36 Z" />
<path fill="#d3d3d3" opacity="1.00" d=" M 68.61 118.39 C 68.87 115.42 71.92 116.26 73.98 116.10 C 98.99 116.32 124.02 115.90 149.01 116.30 C 149.25 116.85 149.74 117.93 149.99 118.47 C 122.87 118.60 95.73 118.77 68.61 118.39 Z" />
<path fill="#d3d3d3" opacity="1.00" d=" M 69.52 139.37 C 74.66 138.80 79.86 139.29 85.02 139.15 C 106.35 139.26 127.70 138.91 149.01 139.31 C 149.25 139.85 149.73 140.94 149.97 141.48 C 130.32 141.72 110.66 141.51 91.00 141.58 C 83.54 141.50 76.08 141.80 68.63 141.38 C 68.85 140.88 69.30 139.87 69.52 139.37 Z" />
<path fill="#d3d3d3" opacity="1.00" d=" M 68.70 162.26 C 94.14 161.97 119.58 162.28 145.02 162.10 C 147.04 162.18 149.90 161.53 149.92 164.50 C 123.92 164.70 97.91 164.51 71.91 164.60 C 70.06 165.04 69.18 163.85 68.70 162.26 Z" />
<path fill="#d3d3d3" opacity="1.00" d=" M 68.68 185.27 C 93.11 184.97 117.56 185.27 142.00 185.12 C 144.71 185.60 149.35 183.59 150.00 187.46 C 128.32 187.74 106.64 187.51 84.95 187.58 C 79.91 187.46 74.85 187.88 69.82 187.43 C 69.54 186.89 68.96 185.81 68.68 185.27 Z" />
</g>
<g id="#cdcdcdff">
<path fill="#cdcdcd" opacity="1.00" d=" M 21.29 90.05 C 25.53 89.96 29.76 89.96 34.00 90.04 C 34.00 90.52 34.00 91.48 34.01 91.97 C 29.23 92.02 24.45 92.02 19.68 91.99 C 20.08 91.51 20.89 90.54 21.29 90.05 Z" />
<path fill="#cdcdcd" opacity="1.00" d=" M 56.15 95.30 C 87.05 95.22 117.94 95.23 148.84 95.30 C 148.80 95.85 148.73 96.95 148.69 97.50 C 117.90 97.52 87.10 97.52 56.31 97.50 C 56.27 96.95 56.19 95.85 56.15 95.30 Z" />
<path fill="#cdcdcd" opacity="1.00" d=" M 21.28 97.06 C 25.52 96.96 29.77 96.96 34.01 97.04 C 34.01 97.52 34.00 98.48 34.00 98.96 C 29.22 99.02 24.44 99.03 19.66 98.99 C 20.07 98.51 20.87 97.54 21.28 97.06 Z" />
<path fill="#cdcdcd" opacity="1.00" d=" M 21.25 104.06 C 28.17 103.94 35.09 103.99 42.00 104.03 C 42.00 104.51 42.00 105.49 42.00 105.97 C 34.56 106.03 27.12 106.00 19.68 106.00 C 20.07 105.51 20.86 104.54 21.25 104.06 Z" />
<path fill="#cdcdcd" opacity="1.00" d=" M 21.30 111.05 C 28.20 110.95 35.10 110.98 42.00 111.03 C 42.00 111.51 42.00 112.48 42.00 112.97 C 34.55 113.04 27.10 113.00 19.65 113.00 C 20.06 112.51 20.89 111.53 21.30 111.05 Z" />
</g>
<g id="#e0e0e0ff">
<path fill="#e0e0e0" opacity="1.00" d=" M 57.30 110.23 C 58.85 109.97 60.42 109.94 61.98 109.85 C 61.98 111.89 61.97 113.92 61.97 115.96 C 59.93 115.97 57.88 115.98 55.84 116.00 C 56.26 114.11 55.34 111.41 57.30 110.23 M 57.54 111.51 C 56.14 112.07 56.78 115.56 58.22 113.97 C 59.79 114.38 60.38 113.80 59.98 112.22 C 61.60 110.81 58.12 110.11 57.54 111.51 Z" />
</g>
<g id="#f7f7f7ff">
<path fill="#f7f7f7" opacity="1.00" d=" M 57.54 111.51 C 58.12 110.11 61.60 110.81 59.98 112.22 C 58.82 112.23 58.23 112.81 58.22 113.97 C 56.78 115.56 56.14 112.07 57.54 111.51 Z" />
</g>
<g id="#adadadff">
<path fill="#adadad" opacity="1.00" d=" M 58.22 113.97 C 58.23 112.81 58.82 112.23 59.98 112.22 C 60.38 113.80 59.79 114.38 58.22 113.97 Z" />
</g>
<g id="#ffffffff">
<path fill="#ffffff" opacity="1.00" d=" M 57.29 135.12 C 58.42 134.72 59.56 134.33 60.71 133.95 C 60.69 135.22 60.69 136.49 60.69 137.76 C 59.53 137.73 58.37 137.71 57.21 137.70 C 57.23 137.05 57.27 135.76 57.29 135.12 Z" />
<path fill="#ffffff" opacity="1.00" d=" M 57.23 158.10 C 58.41 157.72 59.60 157.35 60.79 157.00 C 60.76 158.25 60.73 159.50 60.72 160.76 C 59.54 160.74 58.36 160.73 57.18 160.72 C 57.19 160.07 57.22 158.76 57.23 158.10 Z" />
<path fill="#ffffff" opacity="1.00" d=" M 57.57 180.74 C 58.61 180.50 59.66 180.27 60.71 180.04 C 60.72 181.28 60.74 182.53 60.76 183.77 C 59.56 183.75 58.35 183.74 57.14 183.73 C 57.28 182.73 57.43 181.73 57.57 180.74 Z" />
</g>
<g id="#ceced1ff">
<path fill="#ceced1" opacity="1.00" d=" M 56.78 199.87 C 58.49 199.72 60.21 199.60 61.94 199.58 C 101.28 199.60 140.63 199.62 179.98 199.58 C 182.02 199.60 184.07 199.71 186.11 199.85 C 181.42 200.49 176.68 200.28 171.96 200.27 C 135.30 200.34 98.63 200.19 61.97 200.32 C 60.23 200.29 58.50 200.10 56.78 199.87 Z" />
<path fill="#ceced1" opacity="1.00" d=" M 137.96 227.99 C 138.28 225.28 136.61 219.78 140.96 220.01 C 152.64 219.95 164.32 220.01 176.00 220.01 C 176.00 222.67 176.00 225.33 176.00 227.99 C 163.32 228.01 150.64 228.01 137.96 227.99 Z" />
</g>
<g id="#c7c7c7ff">
<path fill="#c7c7c7" opacity="1.00" d=" M 159.28 206.02 C 164.85 205.98 170.43 205.99 176.00 206.01 C 176.00 207.33 176.00 208.66 176.01 209.98 C 170.45 210.01 164.88 210.01 159.32 210.00 C 158.91 209.50 158.08 208.49 157.67 207.99 C 158.07 207.50 158.88 206.51 159.28 206.02 Z" />
<path fill="#c7c7c7" opacity="1.00" d=" M 65.00 207.01 C 77.00 206.99 89.00 206.99 101.00 207.01 C 101.00 207.76 101.01 209.24 101.01 209.98 C 89.00 210.02 77.00 210.01 64.99 209.98 C 64.99 209.24 65.00 207.76 65.00 207.01 Z" />
</g>
</svg>
