<?xml version="1.0" encoding="utf-8"?>
<!-- Generator: Adobe Illustrator 18.1.1, SVG Export Plug-In . SVG Version: 6.00 Build 0)  -->
<svg version="1.1" id="Layer_1" xmlns="http://www.w3.org/2000/svg" xmlns:xlink="http://www.w3.org/1999/xlink" x="0px" y="0px"
	 viewBox="-531 256 136 90" enable-background="new -531 256 136 90" xml:space="preserve">
<g id="workspace">
</g>
<g transform="matrix(1 0 0 1 -7.105427357601002e-15 -1.7763568394002505e-15)">
	<g id="_x23_fafafaff">
		<path id="svg_1" fill="#FAF9F9" d="M-531,256h136v90h-136V256 M-512.2,291.6l0.1,38.3c14.9-11.4,14.9-11.4,25.3-19.8
			c-4.6-5.4-10.1-9.9-15-15.1c13.3,9.6,25.7,20.3,38.9,30c13.2-9.7,25.5-20.4,38.8-30.1c-4.6,5.4-10.2,9.7-14.9,15
			c8.5,6.8,16.5,13.6,25.3,19.9l0-38.2c-8.3-6.4-16-13.3-24.3-19.6c-8.6,6.2-16.4,13.3-25,19.4c-8.6-6.1-16.4-13.3-25-19.4
			C-496,278.6-504.9,285.7-512.2,291.6L-512.2,291.6z"/>
	</g>
	<g id="_x23_77787c">
	</g>
</g>
</svg>
