<svg xmlns="http://www.w3.org/2000/svg" xmlns:xlink="http://www.w3.org/1999/xlink" version="1.1" x="0px" y="0px" viewBox="0 0 32 40" enable-background="new 0 0 32 32" xml:space="preserve"><g display="none"><rect x="-180.005" y="-130.5" display="inline" fill="#000000" width="430" height="210.5"/></g><g display="none"><g display="inline"><rect x="10.196" y="4.251" width="11.629" height="1"/><rect x="10.196" y="7.212" width="21.804" height="1"/><path d="M6.335,3.015H0v6.434h6.335V3.015z M5.335,8.448H1V4.015h4.335V8.448z"/><rect x="10.196" y="14.02" width="11.629" height="1"/><rect x="10.196" y="16.98" width="21.804" height="1"/><path d="M0,19.217h6.335v-6.434H0V19.217z M1,13.783h4.335v4.434H1V13.783z"/><rect x="10.196" y="23.788" width="11.629" height="1"/><rect x="10.196" y="26.749" width="21.804" height="1"/><path d="M6.335,22.552H0v6.434h6.335V22.552z M5.335,27.985H1v-4.434h4.335V27.985z"/></g></g><g display="none"><g display="inline"><path d="M20.783,4.646c-3.764,0-7.529,0-11.293,0c-1.285,0,0.247,0.877,0.853,0.877c3.764,0,7.529,0,11.293,0    C22.92,5.523,21.388,4.646,20.783,4.646z"/><path d="M31.087,7.558c-7.058,0-14.117,0-21.175,0c-1.177,0-1.181,0.8,0.008,0.8c7.058,0,14.117,0,21.175,0    C32.272,8.358,32.276,7.558,31.087,7.558z"/><path d="M0.772,9.377c1.707,0,3.415,0,5.122,0c0.06,0,0.277-0.018,0.277-0.12c0-1.758,0-3.516,0-5.274    c0-0.265-0.525-0.318-0.704-0.318c-1.727,0-3.454,0-5.181,0c-0.06,0-0.277,0.018-0.277,0.12c0,1.758,0,3.516,0,5.274    C0.01,9.279,0.483,9.403,0.772,9.377z M0.99,8.939c0-1.612,0-3.224,0-4.836c1.4,0,2.8,0,4.2,0c0,1.612,0,3.224,0,4.836    C3.79,8.939,2.39,8.939,0.99,8.939z"/><path d="M9.324,14.087c-1.004,0,0.681,0.958,1.184,0.958c3.764,0,7.529,0,11.293,0c1.004,0-0.681-0.958-1.184-0.958    C16.853,14.087,13.088,14.087,9.324,14.087z"/><path d="M30.864,17.03c-7.058,0-14.117,0-21.175,0c-1.361,0-0.407,0.82,0.454,0.82c7.058,0,14.117,0,21.175,0    C32.679,17.85,31.725,17.03,30.864,17.03z"/><path d="M0.003,18.696c0,0.135,0.269,0.18,0.527,0.15c1.68,0,3.36,0,5.04,0c0.135,0,0.607-0.041,0.607-0.263    c0-1.758,0-3.516,0-5.274c0-0.138-0.308-0.15-0.386-0.15c-1.727,0-3.454,0-5.181,0c-0.135,0-0.607,0.041-0.607,0.263    C0.003,15.18,0.003,16.938,0.003,18.696z M0.997,13.573c1.396,0,2.791,0,4.187,0c0,1.62,0,3.24,0,4.861c-1.396,0-2.791,0-4.187,0    C0.997,16.813,0.997,15.193,0.997,13.573z"/><path d="M10.138,24.46c3.764,0,7.529,0,11.293,0c1.36,0,0.42-0.825-0.444-0.825c-3.764,0-7.529,0-11.293,0    C8.333,23.635,9.274,24.46,10.138,24.46z"/><path d="M10.507,27.402c7.058,0,14.117,0,21.175,0c1.005,0-0.678-0.961-1.182-0.961c-7.058,0-14.117,0-21.175,0    C8.32,26.441,10.003,27.402,10.507,27.402z"/><path d="M0.647,28.322c1.679,0,3.358,0,5.037,0c0.115,0,0.496-0.031,0.496-0.21c0-1.758,0-3.516,0-5.274    c0-0.182-0.406-0.19-0.504-0.19c-1.727,0-3.454,0-5.181,0C0.381,22.648,0,22.679,0,22.858c0,1.758,0,3.516,0,5.274    C0,28.299,0.359,28.36,0.647,28.322z M1,27.922c0-1.625,0-3.249,0-4.874c1.394,0,2.787,0,4.181,0c0,1.625,0,3.249,0,4.874    C3.787,27.922,2.393,27.922,1,27.922z"/></g></g><g display="none"><g display="inline"><rect x="10.542" y="3.943" width="11.444" height="2"/><rect x="10.542" y="6.854" width="21.458" height="2"/><path d="M0,10.069h7.25V2.729H0V10.069z M2,4.729h3.25v3.341H2V4.729z"/><rect x="10.542" y="13.545" width="11.444" height="2"/><rect x="10.542" y="16.455" width="21.458" height="2"/><path d="M0,19.67h7.25v-7.34H0V19.67z M2,14.33h3.25v3.34H2V14.33z"/><rect x="10.542" y="23.146" width="11.444" height="2"/><rect x="10.542" y="26.057" width="21.458" height="2"/><path d="M0,29.271h7.25v-7.341H0V29.271z M2,23.931h3.25v3.341H2V23.931z"/></g></g><g><g><rect x="10.196" y="4.501" width="11.629" height="0.5"/><rect x="10.196" y="7.462" width="21.804" height="0.5"/><path d="M5.835,3.515H0.5v5.433h5.335V3.515z M5.335,8.448H1V4.015h4.335V8.448z"/><rect x="10.196" y="14.27" width="11.629" height="0.5"/><rect x="10.196" y="17.23" width="21.804" height="0.5"/><path d="M5.835,13.283H0.5v5.433h5.335V13.283z M5.335,18.217H1v-4.433h4.335V18.217z"/><rect x="10.196" y="24.038" width="11.629" height="0.5"/><rect x="10.196" y="26.999" width="21.804" height="0.5"/><path d="M0.5,28.485h5.335v-5.433H0.5V28.485z M1,23.552h4.335v4.433H1V23.552z"/></g></g><text x="0" y="47" fill="#000000" font-size="5px" font-weight="bold" font-family="'Helvetica Neue', Helvetica, Arial-Unicode, Arial, Sans-serif">Created by Alfredo Hernandez</text><text x="0" y="52" fill="#000000" font-size="5px" font-weight="bold" font-family="'Helvetica Neue', Helvetica, Arial-Unicode, Arial, Sans-serif">from the Noun Project</text></svg>